<?xml version="1.0" encoding="UTF-8"?>
<svg width="36px" height="36px" viewBox="0 0 36 36" version="1.1" xmlns="http://www.w3.org/2000/svg" xmlns:xlink="http://www.w3.org/1999/xlink">
    <!-- Generator: Sketch 44 (41411) - http://www.bohemiancoding.com/sketch -->
    <title>Group 20</title>
    <desc>Created with Sketch.</desc>
    <defs>
        <rect id="path-1" x="0" y="0" width="36" height="36" rx="2"></rect>
    </defs>
    <g id="Page-1" stroke="none" stroke-width="1" fill="none" fill-rule="evenodd">
        <g id="Desktop---Support" transform="translate(-820.000000, -840.000000)">
            <g id="features" transform="translate(158.000000, 763.000000)">
                <g id="Group-13-Copy-2" transform="translate(662.000000, 71.000000)">
                    <g id="Group-20" transform="translate(0.000000, 6.000000)">
                        <g id="Rectangle-9">
                            <use fill-opacity="0.02" fill="#072F3E" fill-rule="evenodd" xlink:href="#path-1"></use>
                            <rect stroke-opacity="0.1" stroke="#072F3E" stroke-width="1" x="0.5" y="0.5" width="35" height="35" rx="2"></rect>
                        </g>
                        <g id="book-reference" transform="translate(10.000000, 8.000000)" fill-rule="nonzero" fill="#939898">
                            <path d="M4,4 L3,4 C2.44771525,4 2,3.55228475 2,3 C2,2.44771525 2.44771525,2 3,2 L14,2 L14,1 C14,0.44771525 13.5522847,3.38176876e-17 13,0 L2,0 C0.8954305,-6.76353751e-17 0,0.8954305 0,2 L0,18 C0,19.1 0.9,20 2,20 L14,20 C15.1045695,20 16,19.1045695 16,18 L16,5 C16,4.44771525 15.5522847,4 15,4 L8,4 L8,12 L6,10 L4,12 L4,4 Z" id="Shape"></path>
                        </g>
                    </g>
                </g>
            </g>
        </g>
    </g>
</svg>