<?xml version="1.0" encoding="UTF-8"?>
<svg width="36px" height="36px" viewBox="0 0 36 36" version="1.1" xmlns="http://www.w3.org/2000/svg" xmlns:xlink="http://www.w3.org/1999/xlink">
    <!-- Generator: Sketch 44 (41411) - http://www.bohemiancoding.com/sketch -->
    <title>Group 18</title>
    <desc>Created with Sketch.</desc>
    <defs>
        <rect id="path-1" x="0" y="0" width="36" height="36" rx="2"></rect>
    </defs>
    <g id="Page-1" stroke="none" stroke-width="1" fill="none" fill-rule="evenodd">
        <g id="Desktop---Support" transform="translate(-160.000000, -840.000000)">
            <g id="features" transform="translate(158.000000, 763.000000)">
                <g id="Group-13" transform="translate(2.000000, 71.000000)">
                    <g id="Group-18" transform="translate(0.000000, 6.000000)">
                        <g id="Rectangle-9">
                            <use fill-opacity="0.02" fill="#072F3E" fill-rule="evenodd" xlink:href="#path-1"></use>
                            <rect stroke-opacity="0.1" stroke="#072F3E" stroke-width="1" x="0.5" y="0.5" width="35" height="35" rx="2"></rect>
                        </g>
                        <g id="dashboard" transform="translate(8.000000, 8.000000)" fill-rule="nonzero" fill="#939898">
                            <path d="M10,20 C4.4771525,20 6.76353751e-16,15.5228475 0,10 C-6.76353751e-16,4.4771525 4.4771525,1.01453063e-15 10,0 C15.5228475,3.38176876e-16 20,4.4771525 20,10 C20,15.5228475 15.5228475,20 10,20 Z M4.4,15.71 C7.77888937,13.4093414 12.2211106,13.4093414 15.6,15.71 C17.9211533,13.4348147 18.6350439,9.98142057 17.4062522,6.97238556 C16.1774604,3.96335056 13.2502647,1.99685726 10,1.99685726 C6.74973528,1.99685726 3.82253955,3.96335056 2.59374785,6.97238556 C1.36495614,9.98142057 2.07884672,13.4348147 4.4,15.71 Z M10.52,8.07 L13.54,5.05 L14.95,6.46 L11.93,9.48 C12.1659554,10.3545801 11.7846297,11.2785498 11.0005298,11.7321493 C10.2164299,12.1857488 9.2253607,12.0557054 8.58482763,11.4151724 C7.94429456,10.7746393 7.81425118,9.78357013 8.26785069,8.9994702 C8.72145019,8.21537026 9.64541995,7.83404459 10.52,8.07 L10.52,8.07 Z" id="Shape"></path>
                        </g>
                    </g>
                </g>
            </g>
        </g>
    </g>
</svg>