<?xml version="1.0" encoding="UTF-8"?>
<svg width="36px" height="36px" viewBox="0 0 36 36" version="1.1" xmlns="http://www.w3.org/2000/svg" xmlns:xlink="http://www.w3.org/1999/xlink">
    <!-- Generator: Sketch 44 (41411) - http://www.bohemiancoding.com/sketch -->
    <title>Group 15</title>
    <desc>Created with Sketch.</desc>
    <defs>
        <rect id="path-1" x="0" y="0" width="36" height="36" rx="2"></rect>
    </defs>
    <g id="Page-1" stroke="none" stroke-width="1" fill="none" fill-rule="evenodd">
        <g id="Desktop---Sales" transform="translate(-490.000000, -840.000000)">
            <g id="features" transform="translate(160.000000, 763.000000)">
                <g id="Group-13-Copy" transform="translate(330.000000, 71.000000)">
                    <g id="Group-15" transform="translate(0.000000, 6.000000)">
                        <g id="Rectangle-9">
                            <use fill-opacity="0.02" fill="#072F3E" fill-rule="evenodd" xlink:href="#path-1"></use>
                            <rect stroke-opacity="0.1" stroke="#072F3E" stroke-width="1" x="0.5" y="0.5" width="35" height="35" rx="2"></rect>
                        </g>
                        <g id="coffee" transform="translate(8.000000, 9.000000)" fill-rule="nonzero" fill="#939898">
                            <path d="M4,10 L2,10 C0.8954305,10 1.3527075e-16,9.1045695 0,8 L0,4 C0,2.9 0.9,2 2,2 L4,2 L4,0 L18,0 L18,10 C18,12.209139 16.209139,14 14,14 L8,14 C5.790861,14 4,12.209139 4,10 Z M4,8 L4,4 L2,4 L2,8 L4,8 Z M2,16 L2,15 L20,15 L20,16 L16,18 L6,18 L2,16 Z" id="Shape"></path>
                        </g>
                    </g>
                </g>
            </g>
        </g>
    </g>
</svg>