<?xml version="1.0" encoding="UTF-8"?>
<svg width="36px" height="36px" viewBox="0 0 36 36" version="1.1" xmlns="http://www.w3.org/2000/svg" xmlns:xlink="http://www.w3.org/1999/xlink">
    <!-- Generator: Sketch 44 (41411) - http://www.bohemiancoding.com/sketch -->
    <title>Group 19</title>
    <desc>Created with Sketch.</desc>
    <defs>
        <rect id="path-1" x="0" y="0" width="36" height="36" rx="2"></rect>
    </defs>
    <g id="Page-1" stroke="none" stroke-width="1" fill="none" fill-rule="evenodd">
        <g id="Desktop---Sales" transform="translate(-820.000000, -912.000000)">
            <g id="features" transform="translate(160.000000, 763.000000)">
                <g id="Group-13-Copy-3" transform="translate(660.000000, 143.000000)">
                    <g id="Group-19" transform="translate(0.000000, 6.000000)">
                        <g id="Rectangle-9">
                            <use fill-opacity="0.02" fill="#072F3E" fill-rule="evenodd" xlink:href="#path-1"></use>
                            <rect stroke-opacity="0.1" stroke="#072F3E" stroke-width="1" x="0.5" y="0.5" width="35" height="35" rx="2"></rect>
                        </g>
                        <g id="conversation" transform="translate(8.000000, 8.000000)" fill-rule="nonzero" fill="#939898">
                            <path d="M17,11 L17,14 L14,11 L8,11 C6.8954305,11 6,10.1045695 6,9 L6,2 C6,0.9 6.9,0 8,0 L18,0 C19.1045695,6.76353751e-17 20,0.8954305 20,2 L20,9 C20,10.1045695 19.1045695,11 18,11 L17,11 Z M14,13 L14,15 C14,16.1045695 13.1045695,17 12,17 L6,17 L3,20 L3,17 L2,17 C0.8954305,17 1.3527075e-16,16.1045695 0,15 L0,8 C0,6.9 0.9,6 2,6 L4,6 L4,9 C4,11.209139 5.790861,13 8,13 L14,13 Z" id="Shape"></path>
                        </g>
                    </g>
                </g>
            </g>
        </g>
    </g>
</svg>