<?xml version="1.0" encoding="UTF-8"?>
<svg width="36px" height="36px" viewBox="0 0 36 36" version="1.1" xmlns="http://www.w3.org/2000/svg" xmlns:xlink="http://www.w3.org/1999/xlink">
    <!-- Generator: Sketch 44 (41411) - http://www.bohemiancoding.com/sketch -->
    <title>Group 21</title>
    <desc>Created with Sketch.</desc>
    <defs>
        <rect id="path-1" x="0" y="0" width="36" height="36" rx="2"></rect>
    </defs>
    <g id="Page-1" stroke="none" stroke-width="1" fill="none" fill-rule="evenodd">
        <g id="Desktop---Support" transform="translate(-160.000000, -912.000000)">
            <g id="features" transform="translate(158.000000, 763.000000)">
                <g id="Group-13-Copy-5" transform="translate(0.000000, 143.000000)">
                    <g id="Group-21" transform="translate(2.000000, 6.000000)">
                        <g id="Rectangle-9">
                            <use fill-opacity="0.02" fill="#072F3E" fill-rule="evenodd" xlink:href="#path-1"></use>
                            <rect stroke-opacity="0.1" stroke="#072F3E" stroke-width="1" x="0.5" y="0.5" width="35" height="35" rx="2"></rect>
                        </g>
                        <g id="target" transform="translate(8.000000, 8.000000)" fill-rule="nonzero" fill="#939898">
                            <path d="M17.94,11 L13,11 L13,9 L17.94,9 C17.4841335,5.37268446 14.6273155,2.51586649 11,2.06 L11,7 L9,7 L9,2.06 C5.37268446,2.51586649 2.51586649,5.37268446 2.06,9 L7,9 L7,11 L2.06,11 C2.51586649,14.6273155 5.37268446,17.4841335 9,17.94 L9,13 L11,13 L11,17.94 C14.6273155,17.4841335 17.4841335,14.6273155 17.94,11 Z M10,20 C4.4771525,20 6.76353751e-16,15.5228475 0,10 C-6.76353751e-16,4.4771525 4.4771525,1.01453063e-15 10,0 C15.5228475,3.38176876e-16 20,4.4771525 20,10 C20,15.5228475 15.5228475,20 10,20 Z" id="Shape"></path>
                        </g>
                    </g>
                </g>
            </g>
        </g>
    </g>
</svg>