<?xml version="1.0" encoding="UTF-8"?>
<svg width="36px" height="36px" viewBox="0 0 36 36" version="1.1" xmlns="http://www.w3.org/2000/svg" xmlns:xlink="http://www.w3.org/1999/xlink">
    <!-- Generator: Sketch 44 (41411) - http://www.bohemiancoding.com/sketch -->
    <title>Group 16</title>
    <desc>Created with Sketch.</desc>
    <defs>
        <rect id="path-1" x="0" y="0" width="36" height="36" rx="2"></rect>
    </defs>
    <g id="Page-1" stroke="none" stroke-width="1" fill="none" fill-rule="evenodd">
        <g id="Desktop---Sales" transform="translate(-820.000000, -840.000000)">
            <g id="features" transform="translate(160.000000, 763.000000)">
                <g id="Group-13-Copy-2" transform="translate(660.000000, 71.000000)">
                    <g id="Group-16" transform="translate(0.000000, 6.000000)">
                        <g id="Rectangle-9">
                            <use fill-opacity="0.02" fill="#072F3E" fill-rule="evenodd" xlink:href="#path-1"></use>
                            <rect stroke-opacity="0.1" stroke="#072F3E" stroke-width="1" x="0.5" y="0.5" width="35" height="35" rx="2"></rect>
                        </g>
                        <g id="location" transform="translate(11.000000, 8.000000)" fill-rule="nonzero" fill="#939898">
                            <path d="M7,20 C7,20 0,10.87 0,7 C-3.72657061e-08,4.49914085 1.33419242,2.18825167 3.49999997,0.937822087 C5.66580752,-0.312607501 8.33419248,-0.312607501 10.5,0.937822087 C12.6658076,2.18825167 14,4.49914085 14,7 C14,10.87 7,20 7,20 Z M7,9 C8.1045695,9 9,8.1045695 9,7 C9,5.8954305 8.1045695,5 7,5 C5.8954305,5 5,5.8954305 5,7 C5,8.1045695 5.8954305,9 7,9 Z" id="Shape"></path>
                        </g>
                    </g>
                </g>
            </g>
        </g>
    </g>
</svg>