<?xml version="1.0" encoding="UTF-8"?>
<svg width="36px" height="36px" viewBox="0 0 36 36" version="1.1" xmlns="http://www.w3.org/2000/svg" xmlns:xlink="http://www.w3.org/1999/xlink">
    <!-- Generator: Sketch 44 (41411) - http://www.bohemiancoding.com/sketch -->
    <title>Group 22</title>
    <desc>Created with Sketch.</desc>
    <defs>
        <rect id="path-1" x="0" y="0" width="36" height="36" rx="2"></rect>
    </defs>
    <g id="Page-1" stroke="none" stroke-width="1" fill="none" fill-rule="evenodd">
        <g id="Desktop---Support" transform="translate(-490.000000, -912.000000)">
            <g id="features" transform="translate(158.000000, 763.000000)">
                <g id="Group-13-Copy-4" transform="translate(332.000000, 143.000000)">
                    <g id="Group-22" transform="translate(0.000000, 6.000000)">
                        <g id="Rectangle-9">
                            <use fill-opacity="0.02" fill="#072F3E" fill-rule="evenodd" xlink:href="#path-1"></use>
                            <rect stroke-opacity="0.1" stroke="#072F3E" stroke-width="1" x="0.5" y="0.5" width="35" height="35" rx="2"></rect>
                        </g>
                        <g id="plugin" transform="translate(7.000000, 7.000000)" fill-rule="nonzero" fill="#939898">
                            <path d="M20,14 L20,18 C20,19.1045695 19.1045695,20 18,20 L14,20 L14,18 C14,16.8954305 13.1045695,16 12,16 C10.8954305,16 10,16.8954305 10,18 L10,20 L6,20 C4.8954305,20 4,19.1045695 4,18 L4,14 L2,14 C0.8954305,14 1.3527075e-16,13.1045695 0,12 C-1.3527075e-16,10.8954305 0.8954305,10 2,10 L4,10 L4,6 C4,4.9 4.9,4 6,4 L10,4 L10,2 C10,0.8954305 10.8954305,2.02906125e-16 12,0 C13.1045695,6.76353751e-17 14,0.8954305 14,2 L14,4 L18,4 C19.1045695,4 20,4.8954305 20,6 L20,10 L18,10 C16.8954305,10 16,10.8954305 16,12 C16,13.1045695 16.8954305,14 18,14 L20,14 Z" id="Shape"></path>
                        </g>
                    </g>
                </g>
            </g>
        </g>
    </g>
</svg>