<?xml version="1.0" encoding="UTF-8"?>
<svg width="36px" height="36px" viewBox="0 0 36 36" version="1.1" xmlns="http://www.w3.org/2000/svg" xmlns:xlink="http://www.w3.org/1999/xlink">
    <!-- Generator: Sketch 44 (41411) - http://www.bohemiancoding.com/sketch -->
    <title>Group 17</title>
    <desc>Created with Sketch.</desc>
    <defs>
        <rect id="path-1" x="0" y="0" width="36" height="36" rx="2"></rect>
    </defs>
    <g id="Page-1" stroke="none" stroke-width="1" fill="none" fill-rule="evenodd">
        <g id="Desktop---Sales" transform="translate(-160.000000, -912.000000)">
            <g id="features" transform="translate(160.000000, 763.000000)">
                <g id="Group-13-Copy-5" transform="translate(0.000000, 143.000000)">
                    <g id="Group-17" transform="translate(0.000000, 6.000000)">
                        <g id="Rectangle-9">
                            <use fill-opacity="0.02" fill="#072F3E" fill-rule="evenodd" xlink:href="#path-1"></use>
                            <rect stroke-opacity="0.1" stroke="#072F3E" stroke-width="1" x="0.5" y="0.5" width="35" height="35" rx="2"></rect>
                        </g>
                        <g id="mobile-devices" transform="translate(9.000000, 8.000000)" fill-rule="nonzero" fill="#939898">
                            <path d="M16,6 L16,5 L14,5 L14,2 L2,2 L2,16 L7,16 L7,20 L10.25,20 L10,20 C8.8954305,20 8,19.1045695 8,18 L8,8 C8,6.8954305 8.8954305,6 10,6 L16,6 Z M10.25,20 L2,20 C0.8954305,20 2.22044605e-16,19.1045695 0,18 L0,2 C0,0.9 0.9,0 2,0 L14,0 C15.1045695,6.76353751e-17 16,0.8954305 16,2 L16,6 C17.1045695,6 18,6.8954305 18,8 L18,18 C18,19.1045695 17.1045695,20 16,20 L10.25,20 Z M10,8 L10,16 L16,16 L16,8 L10,8 Z M13,19 C13.5522847,19 14,18.5522847 14,18 C14,17.4477153 13.5522847,17 13,17 C12.4477153,17 12,17.4477153 12,18 C12,18.5522847 12.4477153,19 13,19 Z" id="Shape"></path>
                        </g>
                    </g>
                </g>
            </g>
        </g>
    </g>
</svg>