<?xml version="1.0" encoding="UTF-8"?>
<svg width="36px" height="36px" viewBox="0 0 36 36" version="1.1" xmlns="http://www.w3.org/2000/svg" xmlns:xlink="http://www.w3.org/1999/xlink">
    <!-- Generator: Sketch 44 (41411) - http://www.bohemiancoding.com/sketch -->
    <title>Group 18</title>
    <desc>Created with Sketch.</desc>
    <defs>
        <rect id="path-1" x="0" y="0" width="36" height="36" rx="2"></rect>
    </defs>
    <g id="Page-1" stroke="none" stroke-width="1" fill="none" fill-rule="evenodd">
        <g id="Desktop---Sales" transform="translate(-490.000000, -912.000000)">
            <g id="features" transform="translate(160.000000, 763.000000)">
                <g id="Group-13-Copy-4" transform="translate(330.000000, 143.000000)">
                    <g id="Group-18" transform="translate(0.000000, 6.000000)">
                        <g id="Rectangle-9">
                            <use fill-opacity="0.02" fill="#072F3E" fill-rule="evenodd" xlink:href="#path-1"></use>
                            <rect stroke-opacity="0.1" stroke="#072F3E" stroke-width="1" x="0.5" y="0.5" width="35" height="35" rx="2"></rect>
                        </g>
                        <g id="credit-card" transform="translate(8.000000, 10.000000)" fill-rule="nonzero" fill="#939898">
                            <path d="M18,4 L18,2 L2,2 L2,4 L18,4 Z M18,8 L2,8 L2,14 L18,14 L18,8 Z M0,2 C0,0.9 0.9,0 2,0 L18,0 C19.1045695,0 20,0.8954305 20,2 L20,14 C20,15.1045695 19.1045695,16 18,16 L2,16 C0.8954305,16 1.3527075e-16,15.1045695 0,14 L0,2 Z M4,10 L8,10 L8,12 L4,12 L4,10 Z" id="Shape"></path>
                        </g>
                    </g>
                </g>
            </g>
        </g>
    </g>
</svg>