<?xml version="1.0" encoding="UTF-8"?>
<svg width="1056px" height="504px" viewBox="0 0 1056 504" version="1.1" xmlns="http://www.w3.org/2000/svg" xmlns:xlink="http://www.w3.org/1999/xlink">
    <!-- Generator: Sketch 44 (41411) - http://www.bohemiancoding.com/sketch -->
    <title>Group 7</title>
    <desc>Created with Sketch.</desc>
    <defs></defs>
    <g id="Page-1" stroke="none" stroke-width="1" fill="none" fill-rule="evenodd" opacity="0.25">
        <g id="Desktop---Home" transform="translate(-107.000000, -102.000000)" fill-rule="nonzero" fill="#8DB915">
            <g id="Group-7" transform="translate(106.000000, 88.000000)">
                <path d="M272.547258,244.172905 C272.547258,244.172905 272.547258,244.115803 272.547258,244.172905 L259.014186,211.910516 C258.899983,211.625009 258.557373,211.396602 258.271865,211.396602 C257.986357,211.396602 257.643748,211.625009 257.472443,211.910516 L243.939371,244.115803 L243.939371,244.172905 C243.653863,244.858124 243.482558,245.543343 243.482558,246.285663 C243.482558,251.082195 249.992137,254.908 258.271865,254.908 C266.551593,254.908 273.061173,251.139297 273.061173,246.285663 C273.004071,245.543343 272.832766,244.858124 272.547258,244.172905 Z M258.271865,253.252055 C251.19127,253.252055 245.195605,250.054367 245.195605,246.342765 C245.195605,245.82885 245.309808,245.314936 245.538215,244.801022 L245.538215,244.801022 L247.308363,240.518404 L247.308363,240.518404 L258.271865,214.422986 L258.271865,253.252055 L258.271865,253.252055 Z" id="Shape" transform="translate(258.271865, 233.152301) rotate(-512.000000) translate(-258.271865, -233.152301) "></path>
                <path d="M422.888439,31.4611893 L414.298796,25.9178734 C414.198917,25.8179938 414.049098,25.8179938 413.899278,25.8179938 L400.415537,25.8179938 C400.265717,25.8179938 400.115898,25.8679336 400.016018,25.9178734 L391.376436,31.4611893 C391.176677,31.6110086 391.026857,31.8107678 391.026857,32.0604667 L391.026857,39.8510729 L391.026857,55.2824659 C391.026857,55.5321648 391.176677,55.7818637 391.376436,55.8817433 L399.966079,61.4250592 C400.016018,61.474999 400.065958,61.474999 400.065958,61.5249388 C400.165838,61.5748785 400.215778,61.5748785 400.315657,61.5748785 L413.799399,61.5748785 C413.899278,61.5748785 413.949218,61.5748785 414.049098,61.5249388 C414.099037,61.474999 414.148977,61.474999 414.148977,61.4250592 L422.888439,55.8817433 C422.938379,55.8318035 423.038258,55.7818637 423.088198,55.6819841 C423.188078,55.5821046 423.238018,55.482225 423.238018,55.3823454 L423.238018,55.1825863 L423.238018,39.8510729 L423.238018,32.0604667 C423.238018,31.8107678 423.088198,31.6110086 422.888439,31.4611893 Z M392.525051,54.8829476 L392.525051,41.199447 L399.66644,45.7939071 L399.66644,59.4774076 L392.525051,54.8829476 Z M413.150181,60.076685 L401.114694,60.076685 L401.114694,46.1434855 L413.150181,46.1434855 L413.150181,60.076685 Z M421.739824,39.4515546 L413.649579,44.645292 L400.615296,44.645292 L392.525051,39.4515546 L392.525051,32.4599849 L400.615296,27.2662475 L413.649579,27.2662475 L421.739824,32.4599849 L421.739824,39.4515546 Z" id="Shape-Copy-3" transform="translate(407.132438, 43.696436) rotate(-212.000000) translate(-407.132438, -43.696436) "></path>
                <path d="M143.008669,181.635984 C142.891753,181.519068 142.774836,181.402151 142.774836,181.402151 L121.14526,166.20299 C121.028343,166.086073 120.911427,166.086073 120.911427,166.086073 C120.79451,166.086073 120.79451,165.969156 120.677593,165.969156 L120.44376,165.969156 L120.09301,165.969156 C119.976094,165.969156 119.976094,165.969156 119.859177,166.086073 C119.74226,166.086073 119.625344,166.20299 119.508427,166.20299 L90.6300202,186.31265 C90.6300202,186.31265 90.5131035,186.31265 90.5131035,186.429566 L90.3961869,186.546483 C90.3961869,186.546483 90.2792703,186.663399 90.2792703,186.780316 C90.2792703,186.780316 90.2792703,186.897233 90.1623537,186.897233 C90.1623537,187.014149 90.045437,187.014149 90.045437,187.131066 L90.045437,197.653562 C90.045437,197.887396 90.045437,198.004312 90.1623537,198.121229 L90.1623537,198.238146 C90.2792703,198.355062 90.2792703,198.471979 90.3961869,198.588895 C90.3961869,198.588895 90.3961869,198.588895 90.5131035,198.705812 L90.6300202,198.822729 L110.505847,212.735807 L90.6300202,226.648886 C90.6300202,226.648886 90.5131035,226.648886 90.5131035,226.765803 L90.3961869,226.882719 C90.3961869,226.882719 90.2792703,226.999636 90.2792703,227.116553 C90.2792703,227.116553 90.2792703,227.233469 90.1623537,227.233469 C90.1623537,227.350386 90.045437,227.350386 90.045437,227.467302 L90.045437,237.989799 C90.045437,238.223632 90.045437,238.340549 90.1623537,238.457465 L90.1623537,238.574382 C90.2792703,238.691299 90.2792703,238.808215 90.3961869,238.925132 C90.3961869,238.925132 90.3961869,238.925132 90.5131035,239.042049 L90.6300202,239.158965 L112.14268,254.24121 L112.259596,254.24121 C112.259596,254.24121 112.259596,254.24121 112.376513,254.358127 C112.376513,254.358127 112.493429,254.358127 112.493429,254.475043 L112.610346,254.475043 C112.727263,254.475043 112.844179,254.59196 112.961096,254.59196 C113.078013,254.59196 113.194929,254.59196 113.311846,254.475043 L113.428763,254.475043 C113.428763,254.475043 113.545679,254.475043 113.545679,254.358127 C113.545679,254.358127 113.545679,254.358127 113.662596,254.24121 L113.779512,254.24121 L142.541003,234.13155 C142.774836,234.014634 143.008669,233.663884 143.008669,233.43005 L143.008669,181.635984 Z M92.9683527,196.835146 L92.9683527,190.404732 L111.558096,203.499394 L111.558096,209.929808 L92.9683527,196.835146 Z M111.558096,250.149128 L92.9683527,237.171382 L92.9683527,230.624051 L111.558096,243.718714 L111.558096,250.149128 Z M113.078013,241.146548 L94.137519,227.818052 L113.078013,214.489557 L132.135423,227.818052 L113.078013,241.146548 Z M133.187673,225.012053 L115.650178,212.735807 L133.187673,200.459561 L133.187673,225.012053 Z M113.078013,200.927228 L94.137519,187.598732 L120.326844,169.242822 L139.384254,182.571317 L113.078013,200.927228 Z" id="Shape" transform="translate(116.527053, 210.280558) rotate(-527.000000) translate(-116.527053, -210.280558) "></path>
                <path d="M43.6270113,312.64862 C42.1309264,311.568114 40.6348414,311.027861 39.3465461,311.027861 C38.5985036,311.027861 37.933577,311.235651 37.3933241,311.568114 C37.3933241,311.568114 37.3517662,311.568114 37.3517662,311.609672 L37.2686503,311.65123 C37.2270924,311.65123 37.2270924,311.692788 37.1855345,311.692788 L20.3545789,323.329004 L20.313021,323.370562 C19.2740731,324.035488 18.6507044,325.323784 18.6507044,327.069216 C18.6507044,331.017218 21.809106,336.419747 25.71555,339.16257 C27.2116349,340.243075 28.7077198,340.783328 29.9960152,340.783328 L29.9960152,340.783328 C30.8687314,340.783328 31.575216,340.533981 32.1570268,340.076844 L49.0295403,328.39907 L49.0295403,328.39907 C49.2788878,328.232838 49.4866773,328.066606 49.6944669,327.817259 C50.3178356,327.069216 50.650299,326.030268 50.650299,324.741973 C50.6918569,320.793971 47.5334553,315.391442 43.6270113,312.64862 Z M31.6167739,338.74699 C31.2427527,339.204127 30.7024998,339.411917 30.0375731,339.411917 L30.0375731,339.411917 C29.0401832,339.411917 27.8350036,338.95478 26.5467083,338.040506 C22.9727276,335.547031 20.0636735,330.601639 20.0636735,327.069216 C20.0636735,325.98871 20.3545789,324.243278 22.266243,324.243278 C23.263633,324.243278 24.4688125,324.700415 25.7571079,325.614689 C29.3310886,328.108164 32.2401426,333.053556 32.2401426,336.585979 C32.2401426,337.500253 32.032353,338.248295 31.6167739,338.74699 Z" id="Shape" transform="translate(34.650704, 325.905595) rotate(-197.000000) translate(-34.650704, -325.905595) "></path>
                <path d="M257.089546,305.036339 C257.089546,304.98436 257.037567,304.98436 257.089546,305.036339 C257.037567,304.98436 256.985588,304.932381 256.933609,304.932381 L256.88163,304.880402 L242.275566,294.640563 C241.911713,294.380669 241.495882,294.380669 241.13203,294.640563 L226.370029,304.880402 L226.31805,304.932381 C226.266071,304.932381 226.266071,304.98436 226.214092,304.98436 C226.162113,305.036339 226.162113,305.036339 226.110135,305.088318 C226.110135,305.140296 226.058156,305.140296 226.058156,305.192275 C226.006177,305.244254 226.006177,305.296233 226.006177,305.348212 C226.006177,305.400191 226.006177,305.400191 225.954198,305.45217 C225.954198,305.556128 225.902219,305.608106 225.902219,305.712064 L225.902219,323.280925 C225.902219,323.592798 226.058156,323.904671 226.31805,324.112587 L241.028073,334.352426 C241.028073,334.352426 241.080051,334.352426 241.080051,334.404405 L241.13203,334.456384 L241.184009,334.456384 C241.339946,334.508363 241.443904,334.560341 241.59984,334.560341 C241.703798,334.560341 241.807756,334.560341 241.859735,334.508363 C241.911713,334.508363 241.911713,334.508363 241.963692,334.456384 C242.015671,334.456384 242.015671,334.456384 242.06765,334.404405 L242.119629,334.352426 C242.119629,334.352426 242.171608,334.352426 242.171608,334.300447 L256.829651,323.904671 C256.933609,323.800714 257.037567,323.748735 257.089546,323.644777 L257.089546,305.036339 L257.089546,305.036339 Z M240.716199,331.597545 L227.981374,322.761136 L227.981374,307.635283 L232.81541,311.01391 L240.716199,316.523671 L240.716199,331.597545 L240.716199,331.597545 Z M241.703798,314.756389 L232.867389,308.622881 L228.709078,305.712064 L241.703798,296.667739 L254.646539,305.712064 L241.703798,314.756389 Z" id="Shape" transform="translate(241.495882, 314.502992) rotate(-542.000000) translate(-241.495882, -314.502992) "></path>
                <path d="M61.6227582,98.1506309 L33.0109479,78.1223637 C32.4810996,77.8044547 31.7393119,77.8044547 31.3154333,78.1223637 C30.9975243,78.334303 1.96183531,99.7401759 1.96183531,139.690741 C1.96183531,140.220589 2.17377465,140.644468 2.59765332,140.962377 L31.3154333,161.096613 L31.4214029,161.096613 C31.4214029,161.096613 31.5273726,161.096613 31.5273726,161.202583 C31.6333423,161.202583 31.6333423,161.202583 31.7393119,161.308553 L31.8452816,161.308553 C31.9512513,161.308553 32.0572209,161.414522 32.2691603,161.414522 C32.4810996,161.414522 32.6930389,161.308553 32.9049783,161.308553 C32.9049783,161.308553 33.0109479,161.308553 33.0109479,161.202583 C33.0109479,161.202583 33.1169176,161.202583 33.1169176,161.096613 L61.6227582,141.068346 L61.6227582,98.1506309 L61.6227582,98.1506309 Z M30.5736456,156.963796 L4.82301634,138.948953 C5.14092535,104.72075 27.5005252,84.9044224 32.0572209,81.1954841 L58.2317289,99.5282366 C52.2974275,104.508811 31.7393119,124.219169 30.5736456,156.963796 Z" id="Shape-Copy" transform="translate(31.792297, 119.649227) rotate(-542.000000) translate(-31.792297, -119.649227) "></path>
                <path d="M127.304378,337.047943 L112.384149,326.603783 C112.107848,326.438002 111.721028,326.438002 111.499987,326.603783 C111.334207,326.714303 96.1929378,337.876844 96.1929378,358.709904 C96.1929378,358.986205 96.303458,359.207245 96.5244985,359.373026 L111.499987,369.872446 L111.555247,369.872446 C111.555247,369.872446 111.610507,369.872446 111.610507,369.927706 C111.665768,369.927706 111.665768,369.927706 111.721028,369.982966 L111.776288,369.982966 C111.831548,369.982966 111.886808,370.038226 111.997328,370.038226 C112.107848,370.038226 112.218369,369.982966 112.328889,369.982966 C112.328889,369.982966 112.384149,369.982966 112.384149,369.927706 C112.384149,369.927706 112.439409,369.927706 112.439409,369.872446 L127.304378,359.428286 L127.304378,337.047943 L127.304378,337.047943 Z M111.113166,367.717302 L97.6849607,358.323084 C97.850741,340.474069 109.510623,330.140429 111.886808,328.206326 L125.536054,337.766324 C122.441488,340.363549 111.721028,350.641929 111.113166,367.717302 Z" id="Shape-Copy-8" transform="translate(111.748658, 348.258837) rotate(-542.000000) translate(-111.748658, -348.258837) "></path>
                <path d="M213.359235,68.5197551 C213.359235,68.5197551 213.359235,68.4387425 213.278222,68.4387425 C213.19721,68.3577298 213.116197,68.1957045 213.035184,68.1146918 C213.035184,68.1146918 213.035184,68.1146918 213.035184,68.0336792 L195.617463,55.8007678 C195.53645,55.7197551 195.455438,55.7197551 195.374425,55.7197551 C195.293412,55.7197551 195.293412,55.6387425 195.2124,55.6387425 L194.726324,55.6387425 C194.645311,55.6387425 194.564298,55.7197551 194.564298,55.7197551 C194.483286,55.7197551 194.402273,55.8007678 194.32126,55.8007678 L182.493412,63.9830463 C182.4124,64.0640589 182.331387,64.1450716 182.250374,64.2260842 C182.250374,64.2260842 182.250374,64.2260842 182.250374,64.3070969 C182.169362,64.3881095 182.088349,64.5501349 182.088349,64.7121602 C182.088349,64.7121602 182.088349,64.7121602 182.088349,64.7931728 L182.088349,80.8336792 L170.908602,88.691907 L170.746577,88.8539323 C170.665564,88.934945 170.665564,88.934945 170.665564,89.0159576 L170.584552,89.0969703 C170.584552,89.177983 170.503539,89.2589956 170.503539,89.2589956 L170.503539,89.3400083 C170.503539,89.4210209 170.422526,89.5020336 170.422526,89.6640589 L170.422526,106.028616 C170.422526,106.190641 170.422526,106.352667 170.503539,106.433679 L170.503539,106.514692 C170.584552,106.595704 170.665564,106.75773 170.746577,106.838742 C170.746577,106.838742 170.746577,106.838742 170.82759,106.919755 L170.908602,107.000768 L188.245311,119.314692 L188.326324,119.314692 C188.326324,119.314692 188.407336,119.314692 188.407336,119.395704 L188.488349,119.395704 C188.650374,119.476717 188.8124,119.476717 188.974425,119.476717 C189.055438,119.476717 189.217463,119.476717 189.298476,119.395704 L189.379488,119.395704 C189.460501,119.395704 189.460501,119.395704 189.541514,119.314692 C189.541514,119.314692 189.622526,119.314692 189.622526,119.233679 L189.703539,119.233679 L213.116197,102.869122 C213.19721,102.78811 213.278222,102.707097 213.359235,102.626084 L213.359235,68.5197551 Z M187.678222,115.993173 L187.678222,115.993173 L172.690881,105.299502 L172.690881,91.8514007 L187.678222,102.464059 L187.678222,115.993173 Z M188.8124,100.438742 L173.58202,89.5830463 L183.141514,82.777983 L198.452906,93.6336792 L188.8124,100.438742 Z M199.344045,91.3653247 L184.356703,80.7526665 L184.356703,67.3045652 L199.344045,77.9172235 L199.344045,91.3653247 Z M200.559235,75.8108944 L185.247843,64.9551982 L194.888349,58.2311475 L210.199741,69.0868437 L200.559235,75.8108944 Z" id="Shape" transform="translate(191.890881, 87.557730) rotate(-212.000000) translate(-191.890881, -87.557730) "></path>
                <path d="M202.99991,421.317564 L202.99991,421.317564 C202.99991,421.236551 202.918897,421.155539 202.918897,421.155539 L202.837885,421.074526 C202.837885,420.993513 202.756872,420.993513 202.675859,420.912501 L202.594847,420.831488 L202.513834,420.750475 L189.794847,411.839083 C189.389783,411.515032 188.741682,411.515032 188.336619,411.839083 L176.18472,420.102374 L164.437885,411.75807 C164.032821,411.43402 163.38472,411.43402 162.979657,411.75807 L150.260669,420.669463 C150.179657,420.669463 150.179657,420.750475 150.098644,420.750475 C150.098644,420.750475 150.017632,420.750475 150.017632,420.831488 C149.936619,420.912501 149.855606,421.074526 149.774594,421.155539 L149.774594,421.236551 C149.693581,421.398577 149.693581,421.560602 149.693581,421.722627 L149.693581,462.471994 C149.693581,462.877058 149.936619,463.282121 150.260669,463.525159 L162.979657,472.436551 L163.060669,472.436551 L163.141682,472.517564 L163.222695,472.517564 C163.38472,472.598577 163.546745,472.679589 163.789783,472.679589 C164.032821,472.679589 164.113834,472.598577 164.356872,472.517564 L164.437885,472.517564 C164.437885,472.517564 164.518897,472.517564 164.518897,472.436551 L164.59991,472.436551 L176.589783,464.011235 L188.579657,472.436551 L188.660669,472.436551 L188.741682,472.517564 L188.822695,472.517564 C188.98472,472.598577 189.146745,472.679589 189.389783,472.679589 C189.551809,472.679589 189.713834,472.598577 189.956872,472.517564 L190.037885,472.517564 C190.037885,472.517564 190.118897,472.517564 190.118897,472.436551 L190.19991,472.436551 L202.918897,463.525159 L202.99991,463.444146 L202.99991,421.317564 L202.99991,421.317564 Z M152.285986,424.23402 L161.440416,430.63402 L152.285986,437.03402 L152.285986,424.23402 L152.285986,424.23402 Z M162.412568,468.871994 L152.285986,461.823893 L152.285986,442.056804 L158.685986,446.512501 L162.412568,449.104906 L162.412568,468.871994 Z M187.850543,468.953007 L177.723961,461.904906 L177.723961,442.056804 L187.850543,449.185918 L187.850543,468.953007 Z M188.336619,431.687184 L199.516366,439.545412 L189.632821,446.512501 L189.065733,446.917564 L177.156872,438.492248 L177.075859,438.492248 C177.075859,438.492248 176.994847,438.492248 176.994847,438.411235 L176.913834,438.411235 C176.913834,438.411235 176.832821,438.411235 176.832821,438.330222 L176.751809,438.330222 L176.589783,438.330222 L176.427758,438.330222 C176.427758,438.330222 176.427758,438.330222 176.346745,438.330222 C176.265733,438.330222 176.346745,438.330222 176.265733,438.330222 L176.103707,438.330222 L175.941682,438.330222 L175.860669,438.330222 C175.860669,438.330222 175.779657,438.330222 175.779657,438.411235 L175.698644,438.411235 C175.698644,438.411235 175.617632,438.411235 175.617632,438.492248 L175.536619,438.492248 L163.708771,446.917564 L163.141682,446.512501 L153.258138,439.545412 L164.437885,431.687184 C164.761935,431.444146 165.004973,431.039083 165.004973,430.63402 C165.004973,430.228956 164.761935,429.823893 164.437885,429.580855 L153.258138,421.722627 L163.708771,414.431488 L175.455606,422.694779 C175.860669,423.01883 176.508771,423.01883 176.913834,422.694779 L189.065733,414.431488 L199.516366,421.722627 L188.336619,429.580855 C188.012568,429.823893 187.76953,430.228956 187.76953,430.63402 C187.76953,431.039083 188.012568,431.444146 188.336619,431.687184 Z" id="Shape" transform="translate(176.346745, 442.097311) rotate(-212.000000) translate(-176.346745, -442.097311) "></path>
                <path d="M863.546842,342.299547 L855.020891,321.973966 C854.948942,321.794094 854.733095,321.650196 854.553222,321.650196 C854.37335,321.650196 854.157503,321.794094 854.04958,321.973966 L845.523628,342.263572 C845.343756,342.731241 845.235832,343.162934 845.235832,343.630603 C845.235832,346.652459 849.336923,349.062749 854.553222,349.062749 C859.769522,349.062749 863.870613,346.688433 863.870613,343.630603 C863.834638,343.162934 863.726715,342.731241 863.546842,342.299547 Z M846.315067,343.666577 C846.315067,343.342807 846.387016,343.019036 846.530913,342.695266 L847.646122,339.99718 L854.553222,323.556843 L854.553222,348.019489 C850.092387,348.019489 846.315067,346.004918 846.315067,343.666577 Z" id="Shape-Copy-7" transform="translate(854.553222, 335.356472) rotate(-256.000000) translate(-854.553222, -335.356472) "></path>
                <path d="M840.756219,423.227928 L815.475585,406.913101 C815.181625,406.61914 814.740683,406.61914 814.299742,406.61914 L774.615026,406.61914 C774.174085,406.61914 773.733143,406.76612 773.439182,406.913101 L748.011568,423.227928 C747.423646,423.66887 746.982705,424.256791 746.982705,424.991693 L746.982705,447.920641 L746.982705,493.337593 C746.982705,494.072495 747.423646,494.807398 748.011568,495.101359 L773.292202,511.416186 C773.439182,511.563167 773.586163,511.563167 773.586163,511.710147 C773.880124,511.857128 774.027104,511.857128 774.321065,511.857128 L814.005781,511.857128 C814.299742,511.857128 814.446722,511.857128 814.740683,511.710147 C814.887664,511.563167 815.034644,511.563167 815.034644,511.416186 L840.756219,495.101359 C840.9032,494.954378 841.197161,494.807398 841.344141,494.513437 C841.638102,494.219476 841.785082,493.925515 841.785082,493.631554 L841.785082,493.043632 L841.785082,447.920641 L841.785082,424.991693 C841.785082,424.256791 841.344141,423.66887 840.756219,423.227928 Z M751.392118,492.16175 L751.392118,451.889112 L772.410319,465.411312 L772.410319,505.683949 L751.392118,492.16175 Z M812.095036,507.447715 L776.672752,507.447715 L776.672752,466.440175 L812.095036,466.440175 L812.095036,507.447715 Z M837.375669,446.744797 L813.56484,462.030762 L775.202948,462.030762 L751.392118,446.744797 L751.392118,426.167537 L775.202948,410.881572 L813.56484,410.881572 L837.375669,426.167537 L837.375669,446.744797 Z" id="Shape" transform="translate(794.383894, 459.238134) rotate(-226.000000) translate(-794.383894, -459.238134) "></path>
                <path d="M991.196273,348.79828 L991.196273,348.69606 C991.196273,348.491622 991.094054,348.389402 990.991835,348.287183 L990.991835,348.287183 L975.250047,323.038991 C974.943389,322.630113 974.534511,322.323455 974.023414,322.323455 L942.539839,322.323455 C942.028742,322.323455 941.517645,322.630113 941.313206,323.14121 L928.229123,348.287183 C928.229123,348.287183 928.229123,348.287183 928.229123,348.389402 C928.229123,348.491622 928.126904,348.593841 928.126904,348.69606 L928.126904,348.79828 L928.126904,348.900499 L928.126904,373.433155 C928.126904,373.944252 928.331342,374.35313 928.74022,374.557569 L958.792724,395.614765 L958.894943,395.614765 C958.894943,395.614765 958.997162,395.614765 958.997162,395.716984 C959.099382,395.716984 959.099382,395.716984 959.201601,395.819204 L959.303821,395.819204 C959.40604,395.819204 959.610479,395.921423 959.712698,395.921423 C959.917137,395.921423 960.121576,395.819204 960.326015,395.819204 L960.428234,395.819204 C960.428234,395.819204 960.530453,395.819204 960.530453,395.716984 L960.632673,395.716984 L990.787396,374.659788 C991.196273,374.35313 991.400712,373.944252 991.400712,373.433155 L991.400712,348.900499 C991.196273,348.900499 991.196273,348.900499 991.196273,348.79828 Z M958.179407,391.832647 L930.989047,372.819839 L930.989047,351.660423 L958.179407,370.775451 L958.179407,391.832647 Z M959.610479,368.322185 L943.664252,357.078051 L931.397924,348.491622 L943.357594,325.185598 L973.205659,325.185598 L987.823033,348.593841 L959.610479,368.322185 Z" id="Shape" transform="translate(959.763808, 359.122439) rotate(-226.000000) translate(-959.763808, -359.122439) "></path>
                <path d="M930.205219,23.2521884 C925.716964,20.0106711 921.22871,18.3899124 917.363823,18.3899124 C915.119696,18.3899124 913.124916,19.0132811 911.504157,20.0106711 C911.504157,20.0106711 911.379484,20.0106711 911.379484,20.1353448 L911.130136,20.2600185 C911.005462,20.2600185 911.005462,20.3846923 910.880789,20.3846923 L860.387922,55.2933409 L860.263248,55.4180146 C857.146405,57.4127945 855.276298,61.2776806 855.276298,66.5139779 C855.276298,78.3579837 864.751503,94.5655705 876.470835,102.794038 C880.95909,106.035555 885.447345,107.656314 889.312231,107.656314 L889.312231,107.656314 C891.930379,107.656314 894.049833,106.908271 895.795266,105.53686 L946.412806,70.5035378 L946.412806,70.5035378 C947.160848,70.0048428 947.784217,69.5061478 948.407586,68.7581053 C950.277692,66.5139779 951.275082,63.3971343 951.275082,59.5322482 C951.399756,47.6882424 941.924551,31.4806556 930.205219,23.2521884 Z M894.174507,101.5473 C893.052443,102.918711 891.431684,103.54208 889.436905,103.54208 L889.436905,103.54208 C886.444735,103.54208 882.829196,102.170669 878.96431,99.4278466 C868.242368,91.9474219 859.515206,77.1112463 859.515206,66.5139779 C859.515206,63.2724606 860.387922,58.0361633 866.122914,58.0361633 C869.115084,58.0361633 872.730623,59.4075745 876.595509,62.1503969 C887.317451,69.6308216 896.044613,84.4669972 896.044613,95.0642655 C896.044613,97.8070879 895.421244,100.051215 894.174507,101.5473 Z" id="Shape-Copy-5" transform="translate(903.276298, 63.023113) rotate(-391.000000) translate(-903.276298, -63.023113) "></path>
                <path d="M702.068738,75.9971781 C702.068738,75.936048 702.007608,75.936048 702.068738,75.9971781 C702.007608,75.936048 701.946478,75.8749179 701.885348,75.8749179 L701.824218,75.8137878 L684.646663,63.7711605 C684.218753,63.4655101 683.729712,63.4655101 683.301801,63.7711605 L665.940856,75.8137878 L665.879726,75.8749179 C665.818596,75.8749179 665.818596,75.936048 665.757466,75.936048 C665.696336,75.9971781 665.696336,75.9971781 665.635206,76.0583082 C665.635206,76.1194382 665.574076,76.1194382 665.574076,76.1805683 C665.512946,76.2416984 665.512946,76.3028285 665.512946,76.3639586 C665.512946,76.4250887 665.512946,76.4250887 665.451816,76.4862188 C665.451816,76.6084789 665.390686,76.669609 665.390686,76.7918692 L665.390686,97.4538388 C665.390686,97.8206193 665.574076,98.1873999 665.879726,98.4319202 L683.179541,110.474547 C683.179541,110.474547 683.240671,110.474547 683.240671,110.535678 L683.301801,110.596808 L683.362931,110.596808 C683.546322,110.657938 683.668582,110.719068 683.851972,110.719068 C683.974232,110.719068 684.096492,110.719068 684.157623,110.657938 C684.218753,110.657938 684.218753,110.657938 684.279883,110.596808 C684.341013,110.596808 684.341013,110.596808 684.402143,110.535678 L684.463273,110.474547 C684.463273,110.474547 684.524403,110.474547 684.524403,110.413417 L701.763088,98.1873999 C701.885348,98.0651397 702.007608,98.0040096 702.068738,97.8817494 L702.068738,75.9971781 L702.068738,75.9971781 Z M682.812761,107.234653 L667.835889,96.8425379 L667.835889,79.0536824 L673.520987,83.0271381 L682.812761,89.5069274 L682.812761,107.234653 L682.812761,107.234653 Z M683.974232,87.4285044 L673.582117,80.2151541 L668.69171,76.7918692 L683.974232,66.155234 L699.195624,76.7918692 L683.974232,87.4285044 Z" id="Shape-Copy-2" transform="translate(683.729712, 87.130495) rotate(-466.000000) translate(-683.729712, -87.130495) "></path>
                <path d="M899.368185,216.665215 L899.368185,216.665215 C899.287172,216.584202 899.287172,216.503189 899.20616,216.503189 L878.871982,202.244961 C878.547932,202.082936 878.223881,202.001924 877.89983,202.082936 C877.57578,202.163949 877.251729,202.406987 877.089704,202.650025 L851.813755,248.82724 C851.732742,249.070278 851.651729,249.232303 851.651729,249.475341 C851.651729,249.880405 851.813755,250.285468 852.137805,250.528506 L872.471982,264.705721 C872.552995,264.705721 872.552995,264.786734 872.634008,264.786734 C872.71502,264.786734 872.71502,264.867746 872.796033,264.867746 C872.958058,264.948759 873.039071,264.948759 873.201096,264.948759 C873.363122,264.948759 873.525147,264.867746 873.687172,264.867746 C873.687172,264.867746 873.768185,264.867746 873.768185,264.786734 C873.768185,264.786734 873.849198,264.786734 873.849198,264.705721 L899.125147,246.963949 C899.20616,246.882936 899.287172,246.801924 899.368185,246.720911 L899.368185,216.665215 L899.368185,216.665215 Z M872.796033,261.870278 L854.487172,249.151291 L878.547932,205.080405 L896.856793,217.880405 L872.796033,261.870278 Z" id="Shape" transform="translate(875.509957, 233.499957) rotate(-195.000000) translate(-875.509957, -233.499957) "></path>
                <path d="M1051.08533,251.511989 L1051.08533,251.511989 C1051.00432,251.430977 1051.00432,251.349964 1050.9233,251.349964 L1030.58913,237.091736 C1030.26508,236.929711 1029.94103,236.848698 1029.61697,236.929711 C1029.29292,237.010723 1028.96887,237.253761 1028.80685,237.496799 L1003.5309,283.674015 C1003.44989,283.917053 1003.36887,284.079078 1003.36887,284.322116 C1003.36887,284.727179 1003.5309,285.132242 1003.85495,285.37528 L1024.18913,299.552496 C1024.27014,299.552496 1024.27014,299.633508 1024.35115,299.633508 C1024.43216,299.633508 1024.43216,299.714521 1024.51318,299.714521 C1024.6752,299.795534 1024.75622,299.795534 1024.91824,299.795534 C1025.08027,299.795534 1025.24229,299.714521 1025.40432,299.714521 C1025.40432,299.714521 1025.48533,299.714521 1025.48533,299.633508 C1025.48533,299.633508 1025.56634,299.633508 1025.56634,299.552496 L1050.84229,281.810723 C1050.9233,281.729711 1051.00432,281.648698 1051.08533,281.567685 L1051.08533,251.511989 L1051.08533,251.511989 Z M1024.51318,296.717053 L1006.20432,283.998065 L1030.26508,239.927179 L1048.57394,252.727179 L1024.51318,296.717053 Z" id="Shape-Copy-4" transform="translate(1027.227101, 268.346731) rotate(-140.000000) translate(-1027.227101, -268.346731) "></path>
                <path d="M840.229365,136.850433 L840.229365,136.850433 C840.229365,136.802808 840.18174,136.755183 840.18174,136.755183 L840.134114,136.707557 C840.134114,136.659932 840.086489,136.659932 840.038864,136.612306 L839.991238,136.564681 L839.943613,136.517056 L832.466433,131.278267 C832.228306,131.087766 831.847304,131.087766 831.609177,131.278267 L824.465374,136.136053 L817.559699,131.230642 C817.321572,131.040141 816.940569,131.040141 816.702442,131.230642 L809.225262,136.46943 C809.177637,136.46943 809.177637,136.517056 809.130012,136.517056 C809.130012,136.517056 809.082386,136.517056 809.082386,136.564681 C809.034761,136.612306 808.987136,136.707557 808.93951,136.755183 L808.93951,136.802808 C808.891885,136.898059 808.891885,136.993309 808.891885,137.08856 L808.891885,161.044111 C808.891885,161.282238 809.034761,161.520364 809.225262,161.66324 L816.702442,166.902029 L816.750068,166.902029 L816.797693,166.949654 L816.845318,166.949654 C816.940569,166.99728 817.03582,167.044905 817.178696,167.044905 C817.321572,167.044905 817.369197,166.99728 817.512073,166.949654 L817.559699,166.949654 C817.559699,166.949654 817.607324,166.949654 817.607324,166.902029 L817.654949,166.902029 L824.703501,161.948993 L831.752053,166.902029 L831.799678,166.902029 L831.847304,166.949654 L831.894929,166.949654 C831.99018,166.99728 832.08543,167.044905 832.228306,167.044905 C832.323557,167.044905 832.418808,166.99728 832.561684,166.949654 L832.609309,166.949654 C832.609309,166.949654 832.656934,166.949654 832.656934,166.902029 L832.70456,166.902029 L840.18174,161.66324 L840.229365,161.615615 L840.229365,136.850433 L840.229365,136.850433 Z M810.415896,138.564946 L815.797561,142.327348 L810.415896,146.089751 L810.415896,138.564946 L810.415896,138.564946 Z M816.369065,164.806513 L810.415896,160.663108 L810.415896,149.042523 L814.178299,151.661917 L816.369065,153.185928 L816.369065,164.806513 Z M831.323425,164.854139 L825.370256,160.710733 L825.370256,149.042523 L831.323425,153.233554 L831.323425,164.854139 Z M831.609177,142.946478 L838.181475,147.566137 L832.371182,151.661917 L832.037805,151.900044 L825.036879,146.947007 L824.989253,146.947007 C824.989253,146.947007 824.941628,146.947007 824.941628,146.899382 L824.894002,146.899382 C824.894002,146.899382 824.846377,146.899382 824.846377,146.851757 L824.798752,146.851757 L824.703501,146.851757 L824.60825,146.851757 C824.60825,146.851757 824.60825,146.851757 824.560625,146.851757 C824.513,146.851757 824.560625,146.851757 824.513,146.851757 L824.417749,146.851757 L824.322498,146.851757 L824.274873,146.851757 C824.274873,146.851757 824.227248,146.851757 824.227248,146.899382 L824.179622,146.899382 C824.179622,146.899382 824.131997,146.899382 824.131997,146.947007 L824.084372,146.947007 L817.13107,151.900044 L816.797693,151.661917 L810.9874,147.566137 L817.559699,142.946478 C817.7502,142.803602 817.893076,142.565475 817.893076,142.327348 C817.893076,142.089222 817.7502,141.851095 817.559699,141.708219 L810.9874,137.08856 L817.13107,132.802278 L824.036746,137.660064 C824.274873,137.850566 824.655876,137.850566 824.894002,137.660064 L832.037805,132.802278 L838.181475,137.08856 L831.609177,141.708219 C831.418675,141.851095 831.275799,142.089222 831.275799,142.327348 C831.275799,142.565475 831.418675,142.803602 831.609177,142.946478 Z" id="Shape-Copy-6" transform="translate(824.560625, 149.066335) rotate(-226.000000) translate(-824.560625, -149.066335) "></path>
            </g>
        </g>
    </g>
</svg>