<?xml version="1.0" encoding="UTF-8"?>
<svg width="209px" height="60px" viewBox="0 0 209 60" version="1.1" xmlns="http://www.w3.org/2000/svg" xmlns:xlink="http://www.w3.org/1999/xlink">
    <!-- Generator: Sketch 43.2 (39069) - http://www.bohemiancoding.com/sketch -->
    <title>logo unit</title>
    <desc>Created with Sketch.</desc>
    <defs></defs>
    <g id="Page-1" stroke="none" stroke-width="1" fill="none" fill-rule="evenodd">
        <g id="Desktop---Home" transform="translate(-149.000000, -24.000000)">
            <g id="header" transform="translate(149.000000, 24.000000)">
                <g id="logo-unit">
                    <path d="M83.328,30.048 C83.328,29.0719951 83.4719986,28.2000038 83.76,27.432 C84.0480014,26.6639962 84.4279976,26.0120027 84.9,25.476 C85.3720024,24.9399973 85.911997,24.5280014 86.52,24.24 C87.128003,23.9519986 87.7599967,23.808 88.416,23.808 C89.0880034,23.808 89.6839974,23.9279988 90.204,24.168 C90.7240026,24.4080012 91.2319975,24.7919974 91.728,25.32 L91.824,25.32 L92.112,24.096 L94.872,24.096 L94.872,40.416 L91.344,40.416 L91.344,36.744 L91.488,34.92 C91.0719979,35.320002 90.5840028,35.6479987 90.024,35.904 C89.4639972,36.1600013 88.9040028,36.288 88.344,36.288 C87.5919962,36.288 86.9080031,36.1440014 86.292,35.856 C85.6759969,35.5679986 85.1480022,35.1560027 84.708,34.62 C84.2679978,34.0839973 83.9280012,33.4320038 83.688,32.664 C83.4479988,31.8959962 83.328,31.0240049 83.328,30.048 Z M86.952,30 C86.952,31.1840059 87.151998,32.0479973 87.552,32.592 C87.952002,33.1360027 88.5199963,33.408 89.256,33.408 C89.656002,33.408 90.0239983,33.3240008 90.36,33.156 C90.6960017,32.9879992 91.0239984,32.704002 91.344,32.304 L91.344,27.48 C91.0239984,27.1919986 90.7000016,26.9880006 90.372,26.868 C90.0439984,26.7479994 89.7040018,26.688 89.352,26.688 C88.6959967,26.688 88.1320024,26.9599973 87.66,27.504 C87.1879976,28.0480027 86.952,28.8799944 86.952,30 Z M109.2,36 L106.32,36 L106.056,34.296 L105.96,34.296 C105.431997,34.904003 104.848003,35.3879982 104.208,35.748 C103.567997,36.1080018 102.816004,36.288 101.952,36.288 C100.591993,36.288 99.608003,35.8560043 99,34.992 C98.391997,34.1279957 98.088,32.9440075 98.088,31.44 L98.088,24.096 L101.616,24.096 L101.616,30.984 C101.616,31.784004 101.735999,32.3679982 101.976,32.736 C102.216001,33.1040018 102.671997,33.288 103.344,33.288 C103.792002,33.288 104.187998,33.192001 104.532,33 C104.876002,32.807999 105.255998,32.4480026 105.672,31.92 L105.672,24.096 L109.2,24.096 L109.2,36 Z M112.896,24.096 L121.2,24.096 L121.2,36 L117.672,36 L117.672,26.856 L112.896,26.856 L112.896,24.096 Z M119.28,22.344 C118.591997,22.344 118.028002,22.1520019 117.588,21.768 C117.147998,21.3839981 116.928,20.8640033 116.928,20.208 C116.928,19.5519967 117.147998,19.020002 117.588,18.612 C118.028002,18.203998 118.591997,18 119.28,18 C119.968003,18 120.531998,18.203998 120.972,18.612 C121.412002,19.020002 121.632,19.5519967 121.632,20.208 C121.632,20.8640033 121.412002,21.3839981 120.972,21.768 C120.531998,22.1520019 119.968003,22.344 119.28,22.344 Z M127.128,24.096 L130.008,24.096 L130.272,25.68 L130.368,25.68 C130.880003,25.1679974 131.467997,24.7280018 132.132,24.36 C132.796003,23.9919982 133.575996,23.808 134.472,23.808 C135.816007,23.808 136.799997,24.2399957 137.424,25.104 C138.048003,25.9680043 138.36,27.1519925 138.36,28.656 L138.36,36 L134.832,36 L134.832,29.112 C134.832,28.311996 134.704001,27.7280018 134.448,27.36 C134.191999,26.9919982 133.736003,26.808 133.08,26.808 C132.599998,26.808 132.180002,26.911999 131.82,27.12 C131.459998,27.328001 131.072002,27.6399979 130.656,28.056 L130.656,36 L127.128,36 L127.128,24.096 Z M143.976,26.856 L140.976,26.856 L140.976,24.24 L144.144,24.096 L144.6,20.928 L147.504,20.928 L147.504,24.096 L152.544,24.096 L152.544,26.856 L147.504,26.856 L147.504,31.032 C147.504,31.9440046 147.703998,32.5879981 148.104,32.964 C148.504002,33.3400019 149.135996,33.528 150,33.528 C150.464002,33.528 150.887998,33.4880004 151.272,33.408 C151.656002,33.3279996 152.023998,33.2240006 152.376,33.096 L153,35.64 C152.471997,35.8000008 151.884003,35.9479993 151.236,36.084 C150.587997,36.2200007 149.880004,36.288 149.112,36.288 C148.167995,36.288 147.368003,36.1600013 146.712,35.904 C146.055997,35.6479987 145.524002,35.2920023 145.116,34.836 C144.707998,34.3799977 144.416001,33.8320032 144.24,33.192 C144.063999,32.5519968 143.976,31.8400039 143.976,31.056 L143.976,26.856 Z M155.328,30.048 C155.328,29.055995 155.495998,28.1720039 155.832,27.396 C156.168002,26.6199961 156.619997,25.9680026 157.188,25.44 C157.756003,24.9119974 158.403996,24.5080014 159.132,24.228 C159.860004,23.9479986 160.615996,23.808 161.4,23.808 C162.184004,23.808 162.939996,23.9479986 163.668,24.228 C164.396004,24.5080014 165.043997,24.9119974 165.612,25.44 C166.180003,25.9680026 166.631998,26.6199961 166.968,27.396 C167.304002,28.1720039 167.472,29.055995 167.472,30.048 C167.472,31.040005 167.304002,31.9239961 166.968,32.7 C166.631998,33.4760039 166.180003,34.1279974 165.612,34.656 C165.043997,35.1840026 164.396004,35.5879986 163.668,35.868 C162.939996,36.1480014 162.184004,36.288 161.4,36.288 C160.615996,36.288 159.860004,36.1480014 159.132,35.868 C158.403996,35.5879986 157.756003,35.1840026 157.188,34.656 C156.619997,34.1279974 156.168002,33.4760039 155.832,32.7 C155.495998,31.9239961 155.328,31.040005 155.328,30.048 Z M158.952,30.048 C158.952,31.0880052 159.155998,31.911997 159.564,32.52 C159.972002,33.128003 160.583996,33.432 161.4,33.432 C162.216004,33.432 162.827998,33.128003 163.236,32.52 C163.644002,31.911997 163.848,31.0880052 163.848,30.048 C163.848,29.0079948 163.644002,28.184003 163.236,27.576 C162.827998,26.967997 162.216004,26.664 161.4,26.664 C160.583996,26.664 159.972002,26.967997 159.564,27.576 C159.155998,28.184003 158.952,29.0079948 158.952,30.048 Z M173.016,33.48 C173.016,33.079998 173.083999,32.7080017 173.22,32.364 C173.356001,32.0199983 173.543999,31.7200013 173.784,31.464 C174.024001,31.2079987 174.315998,31.0080007 174.66,30.864 C175.004002,30.7199993 175.383998,30.648 175.8,30.648 C176.216002,30.648 176.595998,30.7199993 176.94,30.864 C177.284002,31.0080007 177.575999,31.2079987 177.816,31.464 C178.056001,31.7200013 178.243999,32.0199983 178.38,32.364 C178.516001,32.7080017 178.584,33.079998 178.584,33.48 C178.584,34.280004 178.328003,34.9479973 177.816,35.484 C177.303997,36.0200027 176.632004,36.288 175.8,36.288 C174.967996,36.288 174.296003,36.0200027 173.784,35.484 C173.271997,34.9479973 173.016,34.280004 173.016,33.48 Z M184.464,32.688 C184.464,32.0159966 184.607999,31.4280025 184.896,30.924 C185.184001,30.4199975 185.643997,29.9920018 186.276,29.64 C186.908003,29.2879982 187.719995,29.0040011 188.712,28.788 C189.704005,28.5719989 190.903993,28.4240004 192.312,28.344 C192.248,27.7999973 192.012002,27.3760015 191.604,27.072 C191.195998,26.7679985 190.584004,26.616 189.768,26.616 C189.191997,26.616 188.612003,26.715999 188.028,26.916 C187.443997,27.116001 186.816003,27.3839983 186.144,27.72 L184.896,25.416 C185.712004,24.9519977 186.587995,24.5680015 187.524,24.264 C188.460005,23.9599985 189.439995,23.808 190.464,23.808 C192.128008,23.808 193.439995,24.2479956 194.4,25.128 C195.360005,26.0080044 195.84,27.3599909 195.84,29.184 L195.84,36 L192.96,36 L192.696,34.656 L192.6,34.656 C191.991997,35.1200023 191.328004,35.5079984 190.608,35.82 C189.887996,36.1320016 189.144004,36.288 188.376,36.288 C187.767997,36.288 187.224002,36.1960009 186.744,36.012 C186.263998,35.8279991 185.856002,35.5720016 185.52,35.244 C185.183998,34.9159984 184.924001,34.5360022 184.74,34.104 C184.555999,33.6719978 184.464,33.2000026 184.464,32.688 Z M187.848,32.424 C187.848,32.8080019 187.995999,33.0919991 188.292,33.276 C188.588001,33.4600009 188.991997,33.552 189.504,33.552 C190.032003,33.552 190.527998,33.4440011 190.992,33.228 C191.456002,33.0119989 191.895998,32.7440016 192.312,32.424 L192.312,30.456 C191.431996,30.5040002 190.704003,30.5839994 190.128,30.696 C189.551997,30.8080006 189.096002,30.9479992 188.76,31.116 C188.423998,31.2840008 188.188001,31.4799989 188.052,31.704 C187.915999,31.9280011 187.848,32.1679987 187.848,32.424 Z M199.296,24.096 L207.6,24.096 L207.6,36 L204.072,36 L204.072,26.856 L199.296,26.856 L199.296,24.096 Z M205.68,22.344 C204.991997,22.344 204.428002,22.1520019 203.988,21.768 C203.547998,21.3839981 203.328,20.8640033 203.328,20.208 C203.328,19.5519967 203.547998,19.020002 203.988,18.612 C204.428002,18.203998 204.991997,18 205.68,18 C206.368003,18 206.931998,18.203998 207.372,18.612 C207.812002,19.020002 208.032,19.5519967 208.032,20.208 C208.032,20.8640033 207.812002,21.3839981 207.372,21.768 C206.931998,22.1520019 206.368003,22.344 205.68,22.344 Z" id="quinto.ai-copy" fill="#FFFFFF"></path>
                    <g id="logo">
                        <rect id="Rectangle-2" fill="#072F3E" x="0" y="0" width="60" height="60" rx="4"></rect>
                        <g id="Group" transform="translate(11.600000, 11.600000)">
                            <circle id="Oval-1" fill="#FFFFFF" cx="18.4" cy="18.4" r="18.4"></circle>
                            <path d="M18.4,4 C10.4470996,4 4,10.4470996 4,18.4 C4,26.3529004 26.3529004,4 18.4,4 Z" id="Oval-1" fill-opacity="0.05" fill="#072F3E"></path>
                            <path d="M39.8596059,25.444237 L32.9901677,36.7575549 C32.0416347,38.3196995 30.5045011,38.320922 29.5552036,36.7575185 L22.6856769,25.4440547 C21.7371317,23.8818899 22.054413,22.6155167 23.3979659,22.615531 L39.1472948,22.6156982 C40.4892264,22.6157124 40.8088911,23.8808536 39.8596059,25.444237 Z" id="Rectangle-2" fill="#FFFFFF" transform="translate(31.272574, 30.272574) rotate(-45.000000) translate(-31.272574, -30.272574) "></path>
                        </g>
                    </g>
                </g>
            </g>
        </g>
    </g>
</svg>