<?xml version="1.0" encoding="UTF-8"?>
<svg width="120px" height="120px" viewBox="0 0 120 120" version="1.1" xmlns="http://www.w3.org/2000/svg" xmlns:xlink="http://www.w3.org/1999/xlink">
    <!-- Generator: Sketch 44 (41411) - http://www.bohemiancoding.com/sketch -->
    <title>Rectangle 7</title>
    <desc>Created with Sketch.</desc>
    <defs></defs>
    <g id="Page-1" stroke="none" stroke-width="1" fill="none" fill-rule="evenodd">
        <g id="Desktop---Home" transform="translate(-745.000000, -762.000000)">
            <g id="products" transform="translate(325.000000, 643.000000)">
                <g id="Group-5" transform="translate(420.000000, 119.000000)">
                    <rect id="Rectangle-7" x="0" y="0" width="120" height="120"></rect>
                    <g id="Group" fill-rule="nonzero" fill="#939898">
                        <path d="M60,99.5078571 L25.4892857,79.7614286 L25.4892857,40.2385714 L60,20.4921429 L94.5064286,40.2385714 L94.5064286,79.7592857 L60,99.5078571 Z M28.7035714,77.8992857 L60,95.8028571 L91.2921429,77.8992857 L91.2921429,42.1028571 L60,24.1971429 L28.7035714,42.105 L28.7035714,77.8992857 L28.7035714,77.8992857 Z" id="Shape"></path>
                        <path d="M60,9.51857143 C59.1128571,9.51857143 58.3928571,8.79857143 58.3928571,7.91142857 L58.3928571,2.41285714 C58.3928571,1.52571429 59.1128571,0.805714286 60,0.805714286 C60.8871429,0.805714286 61.6071429,1.52571429 61.6071429,2.41285714 L61.6071429,7.91142857 C61.6071429,8.79857143 60.8892857,9.51857143 60,9.51857143 Z" id="Shape"></path>
                        <path d="M60,119.196429 C59.1128571,119.196429 58.3928571,118.476429 58.3928571,117.589286 L58.3928571,112.090714 C58.3928571,111.203571 59.1128571,110.483571 60,110.483571 C60.8871429,110.483571 61.6071429,111.203571 61.6071429,112.090714 L61.6071429,117.589286 C61.6071429,118.476429 60.8892857,119.196429 60,119.196429 Z" id="Shape"></path>
                        <path d="M7.91142857,61.6071429 L2.41285714,61.6071429 C1.52571429,61.6071429 0.805714286,60.8892857 0.805714286,60 C0.805714286,59.1107143 1.52571429,58.3928571 2.41285714,58.3928571 L7.91142857,58.3928571 C8.79857143,58.3928571 9.51857143,59.1128571 9.51857143,60 C9.51857143,60.8871429 8.79857143,61.6071429 7.91142857,61.6071429 Z" id="Shape"></path>
                        <path d="M117.589286,61.6071429 L112.090714,61.6071429 C111.203571,61.6071429 110.483571,60.8892857 110.483571,60 C110.483571,59.1107143 111.203571,58.3928571 112.090714,58.3928571 L117.589286,58.3928571 C118.476429,58.3928571 119.196429,59.1128571 119.196429,60 C119.196429,60.8871429 118.476429,61.6071429 117.589286,61.6071429 Z" id="Shape"></path>
                        <path d="M33.9578571,16.4957143 C33.4028571,16.4957143 32.8628571,16.2085714 32.565,15.6921429 L29.8157143,10.9307143 C29.3721429,10.1635714 29.6357143,9.18 30.4028571,8.73642857 C31.1678571,8.29285714 32.1557143,8.55428571 32.5971429,9.32357143 L35.3464286,14.085 C35.79,14.8521429 35.5264286,15.8357143 34.7592857,16.2792857 C34.5064286,16.4271429 34.23,16.4957143 33.9578571,16.4957143 Z" id="Shape"></path>
                        <path d="M88.7957143,111.477857 C88.2385714,111.477857 87.6985714,111.188571 87.4028571,110.674286 L84.6535714,105.915 C84.21,105.147857 84.4735714,104.164286 85.2407143,103.720714 C86.01,103.272857 86.9935714,103.542857 87.435,104.307857 L90.1842857,109.067143 C90.6278571,109.834286 90.3642857,110.817857 89.5971429,111.261429 C89.3442857,111.409286 89.0678571,111.477857 88.7957143,111.477857 Z" id="Shape"></path>
                        <path d="M10.1292857,90.4028571 C9.57428571,90.4028571 9.03428571,90.1135714 8.73642857,89.5992857 C8.29285714,88.8321429 8.55642857,87.8485714 9.32357143,87.405 L14.085,84.6557143 C14.85,84.2121429 15.8378571,84.4757143 16.2792857,85.2428571 C16.7228571,86.01 16.4592857,86.9935714 15.6921429,87.4371429 L10.9307143,90.1864286 C10.6778571,90.3321429 10.4014286,90.4028571 10.1292857,90.4028571 Z" id="Shape"></path>
                        <path d="M105.111429,35.5628571 C104.554286,35.5628571 104.014286,35.2757143 103.718571,34.7592857 C103.275,33.99 103.538571,33.0085714 104.305714,32.565 L109.069286,29.8157143 C109.840714,29.37 110.82,29.6357143 111.263571,30.4028571 C111.707143,31.1721429 111.443571,32.1535714 110.676429,32.5971429 L105.912857,35.3464286 C105.66,35.4942857 105.383571,35.5628571 105.111429,35.5628571 Z" id="Shape"></path>
                        <path d="M14.8864286,35.5628571 C14.6142857,35.5628571 14.3378571,35.4942857 14.0828571,35.3464286 L9.32142857,32.5971429 C8.55214286,32.1535714 8.29071429,31.17 8.73428571,30.4028571 C9.17785714,29.6314286 10.1635714,29.3721429 10.9285714,29.8157143 L15.69,32.565 C16.4592857,33.0085714 16.7207143,33.9921429 16.2771429,34.7592857 C15.9814286,35.2757143 15.4414286,35.5628571 14.8864286,35.5628571 Z" id="Shape"></path>
                        <path d="M109.868571,90.4028571 C109.596429,90.4028571 109.32,90.3342857 109.067143,90.1864286 L104.303571,87.4371429 C103.536429,86.9935714 103.272857,86.01 103.716429,85.2428571 C104.16,84.4757143 105.141429,84.21 105.910714,84.6557143 L110.674286,87.405 C111.441429,87.8485714 111.705,88.8321429 111.261429,89.5992857 C110.965714,90.1135714 110.425714,90.4028571 109.868571,90.4028571 Z" id="Shape"></path>
                        <path d="M31.2042857,111.477857 C30.9321429,111.477857 30.6557143,111.409286 30.4007143,111.261429 C29.6314286,110.817857 29.37,109.834286 29.8135714,109.067143 L32.5628571,104.307857 C33.0085714,103.540714 33.99,103.277143 34.7571429,103.720714 C35.5242857,104.164286 35.7878571,105.147857 35.3442857,105.915 L32.595,110.674286 C32.2992857,111.190714 31.7592857,111.477857 31.2042857,111.477857 Z" id="Shape"></path>
                        <path d="M86.0421429,16.4957143 C85.77,16.4957143 85.4935714,16.4271429 85.2407143,16.2792857 C84.4735714,15.8357143 84.21,14.8521429 84.6535714,14.085 L87.4028571,9.32357143 C87.8442857,8.55642857 88.8257143,8.29071429 89.5971429,8.73642857 C90.3642857,9.18 90.6278571,10.1635714 90.1842857,10.9307143 L87.435,15.6921429 C87.1392857,16.2064286 86.5992857,16.4957143 86.0421429,16.4957143 Z" id="Shape"></path>
                        <path d="M60,80.2735714 C50.0592857,80.2735714 41.9742857,72.1885714 41.9742857,62.2478571 C41.9742857,52.3092857 50.0592857,44.2242857 60,44.2242857 C69.9364286,44.2242857 78.0214286,52.3092857 78.0214286,62.2478571 C78.0214286,72.1885714 69.9385714,80.2735714 60,80.2735714 Z M60,47.4385714 C51.8314286,47.4385714 45.1885714,54.0814286 45.1885714,62.2478571 C45.1885714,70.4164286 51.8335714,77.0592857 60,77.0592857 C68.1642857,77.0592857 74.8071429,70.4142857 74.8071429,62.2478571 C74.8071429,54.0814286 68.1664286,47.4385714 60,47.4385714 Z" id="Shape"></path>
                        <path d="M60.0771429,47.0442857 C59.7578571,47.0442857 59.4364286,46.95 59.1557143,46.7528571 C58.4292857,46.245 58.2514286,45.2421429 58.7614286,44.5157143 L61.6328571,40.4142857 C62.1385714,39.6878571 63.1371429,39.51 63.8721429,40.02 C64.5985714,40.5278571 64.7742857,41.5307143 64.2664286,42.2571429 L61.395,46.3585714 C61.0821429,46.8042857 60.5828571,47.0442857 60.0771429,47.0442857 Z" id="Shape"></path>
                        <path d="M66.5228571,48.1907143 C66.2057143,48.1907143 65.8842857,48.0964286 65.6035714,47.8992857 C64.875,47.3914286 64.6992857,46.3885714 65.2071429,45.6621429 L68.8821429,40.4142857 C69.3878571,39.6878571 70.3907143,39.51 71.1192857,40.02 C71.8478571,40.5278571 72.0235714,41.5307143 71.5157143,42.2571429 L67.8407143,47.505 C67.53,47.9507143 67.0285714,48.1907143 66.5228571,48.1907143 Z" id="Shape"></path>
                        <path d="M52.2021429,48.8357143 C51.8828571,48.8357143 51.5614286,48.7414286 51.2807143,48.5442857 C50.5542857,48.0364286 50.3764286,47.0335714 50.8864286,46.3071429 L55.0135714,40.4142857 C55.5235714,39.6857143 56.5264286,39.5121429 57.2507143,40.02 C57.9771429,40.5278571 58.155,41.5307143 57.645,42.2571429 L53.5178571,48.15 C53.2071429,48.5957143 52.71,48.8357143 52.2021429,48.8357143 Z" id="Shape"></path>
                        <path d="M60,71.4278571 C57.4864286,71.4278571 54.9728571,70.4742857 53.0592857,68.5607143 C52.4314286,67.935 52.4314286,66.915 53.0571429,66.2871429 C53.685,65.6592857 54.705,65.6592857 55.3307143,66.2871429 C57.9064286,68.8564286 62.0914286,68.8564286 64.6671429,66.2871429 C65.2971429,65.6592857 66.315,65.6592857 66.9407143,66.2871429 C67.5685714,66.915 67.5685714,67.935 66.9407143,68.5607143 C65.0271429,70.4742857 62.5135714,71.4278571 60,71.4278571 Z" id="Shape"></path>
                    </g>
                </g>
            </g>
        </g>
    </g>
</svg>