<?xml version="1.0" encoding="UTF-8"?>
<svg width="120px" height="120px" viewBox="0 0 120 120" version="1.1" xmlns="http://www.w3.org/2000/svg" xmlns:xlink="http://www.w3.org/1999/xlink">
    <!-- Generator: Sketch 44 (41411) - http://www.bohemiancoding.com/sketch -->
    <title>Rectangle 7</title>
    <desc>Created with Sketch.</desc>
    <defs></defs>
    <g id="Page-1" stroke="none" stroke-width="1" fill="none" fill-rule="evenodd">
        <g id="Desktop---Home" transform="translate(-415.000000, -762.000000)">
            <g id="products" transform="translate(325.000000, 643.000000)">
                <g id="Group-4" transform="translate(90.000000, 119.000000)">
                    <rect id="Rectangle-7" x="0" y="0" width="120" height="120"></rect>
                    <g id="noun_352961_cc" transform="translate(0.000000, 2.000000)" fill-rule="nonzero" fill="#939898">
                        <g id="Group" transform="translate(0.000000, 5.901639)">
                            <path d="M23.8111475,108.200656 C23.4668852,108.200656 23.1127869,108.137705 22.7567213,107.988197 C20.704918,107.120656 20.6006557,104.077377 20.6006557,103.47541 L20.6006557,96.9206557 C20.6006557,96.7003279 20.6006557,96.452459 20.0813115,96.4288525 L7.37704918,96.4288525 C1.54229508,96.4288525 0,91.6032787 0,89.0518033 L0,45.9344262 C0,38.1501639 6.43672131,36.0944262 9.84,36.0944262 L42.5842623,36.0944262 C43.3986885,36.0944262 44.0596721,36.7554098 44.0596721,37.5698361 C44.0596721,38.3842623 43.3986885,39.0452459 42.5842623,39.0452459 L9.84,39.0452459 C9.13967213,39.0511475 2.95081967,39.2911475 2.95081967,45.9344262 L2.95081967,89.0518033 C2.95868852,89.7836066 3.21245902,93.4780328 7.37704918,93.4780328 L20.1088525,93.4780328 C21.4937705,93.4780328 23.5514754,94.3947541 23.5514754,96.9206557 L23.5514754,103.47541 C23.5554098,104.163934 23.7442623,105.019672 23.9390164,105.273443 C23.9763934,105.20459 24.4288525,105.037377 25.282623,104.207213 L33.082623,96.6354098 C33.2144262,96.507541 36.387541,93.4780328 40.8688525,93.4780328 L50.8622951,93.4780328 C51.562623,93.4721311 57.7514754,93.2321311 57.7514754,86.5888525 L57.7514754,71.0301639 C57.7514754,70.2157377 58.412459,69.5547541 59.2268852,69.5547541 C60.0413115,69.5547541 60.7022951,70.2157377 60.7022951,71.0301639 L60.7022951,86.5888525 C60.7022951,94.3711475 54.2655738,96.4288525 50.8622951,96.4288525 L40.8688525,96.4288525 C37.6091803,96.4288525 35.1580328,98.7344262 35.1344262,98.7580328 L27.3383607,106.325902 C26.8131148,106.83541 25.4045902,108.200656 23.8111475,108.200656 Z" id="Shape"></path>
                            <path d="M80.2878689,78.6885246 C58.642623,78.6885246 41.0321311,61.0780328 41.0321311,39.4327869 C41.0321311,17.787541 58.642623,0.17704918 80.2878689,0.17704918 C101.933115,0.17704918 119.541639,17.787541 119.541639,39.4327869 C119.541639,46.5678689 117.609836,53.5357377 113.944918,59.6301639 L119.433443,76.6721311 C119.573115,77.0498361 119.557377,77.4747541 119.380328,77.8445902 C119.240656,78.1337705 119.008525,78.3796721 118.703607,78.5311475 C118.28459,78.7377049 117.810492,78.7337705 117.411148,78.5409836 L100.485246,73.0918033 C94.3888525,76.7567213 87.4229508,78.6885246 80.2878689,78.6885246 Z M80.2878689,3.12786885 C60.2695082,3.12786885 43.9829508,19.4144262 43.9829508,39.4327869 C43.9829508,59.4511475 60.2695082,75.7377049 80.2878689,75.7377049 C87.0983607,75.7377049 93.7455738,73.8314754 99.5095082,70.227541 C99.8793443,69.997377 100.327869,69.9403279 100.742951,70.0740984 L115.768525,74.9095082 L110.931148,59.8859016 C110.799344,59.4727869 110.854426,59.0222951 111.08459,58.652459 C114.688525,52.8904918 116.592787,46.2452459 116.592787,39.4308197 C116.592787,19.4144262 100.30623,3.12786885 80.2878689,3.12786885 Z" id="Shape"></path>
                            <path d="M33.1278689,71.0380328 C33.0177049,71.1678689 32.9016393,71.3036066 32.7757377,71.4413115 C31.8354098,72.3521311 30.7868852,72.8085246 29.6281967,72.8085246 C28.357377,72.8085246 27.2596721,72.3521311 26.335082,71.4413115 C25.4636066,70.5304918 25.0288525,69.3914754 25.0288525,68.0242623 C25.0288525,67.3908197 25.1370492,66.7947541 25.3495082,66.2439344 C25.5639344,65.6931148 25.892459,65.1954098 26.335082,64.7508197 C27.2596721,63.8695082 28.3495082,63.424918 29.6065574,63.424918 C30.8222951,63.424918 31.8786885,63.9029508 32.7757377,64.8570492 C33.6727869,65.7678689 34.1232787,66.8872131 34.1232787,68.2131148 C34.1232787,69.1101639 33.8813115,69.9147541 33.397377,70.6327869 C33.3265574,70.7744262 33.2380328,70.9081967 33.1278689,71.0380328 M40.855082,57.9993443 L40.7704918,57.9167213 C40.7429508,57.8891803 40.7291803,57.867541 40.7291803,57.8537705 L40.707541,57.8537705 C40.68,57.8262295 40.6662295,57.8085246 40.6662295,57.7947541 C40.6386885,57.7790164 40.6131148,57.757377 40.5836066,57.7318033 L40.5639344,57.7121311 C39.9147541,57.0629508 39.212459,56.4885246 38.4609836,55.9927869 C37.707541,55.495082 36.9127869,55.0662295 36.0688525,54.7081967 L36.0472131,54.7081967 C35.2190164,54.3501639 34.357377,54.0767213 33.4583607,53.8898361 C32.5632787,53.7029508 31.6563934,53.5967213 30.7455738,53.5691803 L30.6236066,53.5691803 L30.5606557,53.5691803 L30.4780328,53.5691803 L30.3737705,53.5691803 L30.3521311,53.5691803 L30.332459,53.5691803 L30.1868852,53.5691803 L30.1239344,53.5691803 L30.0216393,53.5691803 L29.9586885,53.5691803 L29.8131148,53.5691803 L29.7718033,53.5691803 L29.6281967,53.5691803 L29.6065574,53.5691803 C29.5652459,53.5829508 29.5101639,53.5888525 29.4413115,53.5888525 C29.427541,53.6045902 29.4137705,53.612459 29.4,53.612459 L29.2760656,53.612459 L29.2131148,53.612459 C29.1580328,53.612459 29.122623,53.6203279 29.1088525,53.6340984 L29.0262295,53.6340984 L28.9239344,53.6340984 L28.8196721,53.6340984 C28.8059016,53.6478689 28.7921311,53.6537705 28.7783607,53.6537705 L28.6544262,53.6537705 L28.6327869,53.6537705 L28.5914754,53.6754098 C28.5777049,53.6754098 28.56,53.677377 28.5403279,53.6852459 C28.5186885,53.6911475 28.495082,53.6970492 28.467541,53.6970492 L28.4459016,53.6970492 C27.2872131,53.8327869 26.1540984,54.1259016 25.0504918,54.5645902 L25.0288525,54.5645902 C25.0288525,54.5783607 25.015082,54.5862295 24.987541,54.5862295 L24.9265574,54.5862295 C24.9127869,54.6157377 24.8970492,54.627541 24.8852459,54.627541 C24.8714754,54.627541 24.8636066,54.6334426 24.8636066,54.6472131 C24.8360656,54.6472131 24.8144262,54.655082 24.8006557,54.6688525 C24.7731148,54.6845902 24.7495082,54.6904918 24.7298361,54.6904918 C24.7081967,54.6904918 24.6845902,54.6983607 24.6570492,54.7121311 L24.6354098,54.7121311 C24.1101639,54.9462295 23.5967213,55.2059016 23.0931148,55.4891803 C22.5895082,55.7744262 22.0957377,56.095082 21.6118033,56.4511475 L21.6118033,56.4727869 C21.5842623,56.5022951 21.5429508,56.5278689 21.4878689,56.5554098 C21.4740984,56.5554098 21.4662295,56.5790164 21.4662295,56.6183607 C21.4386885,56.6183607 21.397377,56.6321311 21.3422951,56.6596721 L21.322623,56.6793443 C21.322623,56.6931148 21.3186885,56.7009836 21.3108197,56.7009836 C21.304918,56.7009836 21.3009836,56.7068852 21.3009836,56.7206557 C21.2734426,56.7206557 21.2459016,56.7363934 21.2183607,56.7619672 L21.1554098,56.824918 C21.1416393,56.824918 21.1219672,56.8386885 21.0944262,56.8662295 C21.0806557,56.88 21.0668852,56.8898361 21.0531148,56.8996721 C21.0393443,56.9055738 21.0255738,56.9232787 21.0118033,56.9488525 L20.9704918,56.9704918 C20.9567213,57 20.9390164,57.0137705 20.917377,57.0216393 C20.8977049,57.0295082 20.88,57.0393443 20.8662295,57.0531148 L20.8465574,57.0944262 C20.8170492,57.1081967 20.7836066,57.1357377 20.7422951,57.1770492 C20.7285246,57.1770492 20.7068852,57.1908197 20.6793443,57.2183607 C20.6655738,57.2321311 20.6518033,57.2459016 20.6380328,57.2596721 C20.6242623,57.2734426 20.6045902,57.2872131 20.5770492,57.3009836 L20.5554098,57.322623 C20.5416393,57.3501639 20.5239344,57.3639344 20.5042623,57.3718033 C20.482623,57.3777049 20.464918,57.397377 20.4531148,57.4229508 L20.4314754,57.4445902 L20.3272131,57.5488525 C20.3272131,57.562623 20.307541,57.5704918 20.2662295,57.5704918 C20.252459,57.5980328 20.224918,57.6314754 20.1836066,57.6747541 L20.1422951,57.7160656 C20.1422951,57.7436066 20.1127869,57.7613115 20.0577049,57.775082 C20.0439344,57.7888525 20.0380328,57.802623 20.0380328,57.8085246 C20.0380328,57.8163934 20.0301639,57.8262295 20.0163934,57.84 L20.0163934,57.8596721 C20.002623,57.8596721 19.9829508,57.8734426 19.9554098,57.9009836 C19.9416393,57.9147541 19.9298361,57.9304918 19.9239344,57.9422951 C19.9160656,57.9580328 19.9003279,57.9737705 19.8727869,57.9836066 C19.2236066,58.6465574 18.6511475,59.3547541 18.1534426,60.1081967 C17.6557377,60.8596721 17.2288525,61.6583607 16.8688525,62.5003279 C16.1508197,64.1980328 15.7632787,65.9665574 15.7101639,67.8019672 L15.7101639,67.9239344 L15.7101639,67.9868852 L15.7101639,68.0065574 L15.7101639,68.0891803 L15.7101639,68.1934426 L15.7101639,68.2170492 L15.7101639,68.2367213 L15.7101639,68.3822951 L15.7101639,68.4236066 L15.7101639,68.547541 L15.7101639,68.6085246 C15.7101639,68.6636066 15.7219672,68.7068852 15.7514754,68.732459 L15.7514754,68.7934426 L15.7514754,68.9390164 L15.7514754,68.9606557 C15.7514754,69.0137705 15.757377,69.0629508 15.7711475,69.1042623 L15.7711475,69.1455738 L15.7711475,69.2695082 L15.7711475,69.3540984 L15.7711475,69.4563934 L15.7711475,69.5390164 L15.7711475,69.6393443 L15.7711475,69.6590164 C15.7711475,69.7022951 15.7790164,69.7298361 15.7927869,69.7436066 L15.7927869,69.7652459 L15.7927869,69.9088525 L15.812459,69.9501639 C15.812459,69.9777049 15.8203279,70.0013115 15.8340984,70.0229508 C15.8478689,70.042623 15.8537705,70.0662295 15.8537705,70.0957377 C15.922623,70.6878689 16.0308197,71.2642623 16.1744262,71.824918 C16.32,72.3836066 16.4970492,72.9442623 16.7036066,73.5108197 C16.7036066,73.5265574 16.707541,73.5363934 16.7134426,73.5442623 C16.7213115,73.5501639 16.7232787,73.56 16.7232787,73.5737705 C16.7232787,73.587541 16.7311475,73.6032787 16.744918,73.615082 C16.772459,73.6288525 16.7862295,73.6622951 16.7862295,73.7193443 C16.8,73.7331148 16.8078689,73.7468852 16.8078689,73.7606557 C16.8196721,73.7901639 16.8314754,73.8118033 16.837377,73.8334426 C16.8452459,73.855082 16.855082,73.8786885 16.8688525,73.9062295 L16.8688525,73.9259016 C17.3390164,75.0059016 17.917377,76.0131148 18.6078689,76.9495082 L18.6295082,76.9495082 C18.6432787,76.9809836 18.6570492,76.9986885 18.6708197,77.012459 C18.6845902,77.0262295 18.6983607,77.0478689 18.7121311,77.0754098 L18.7534426,77.0754098 C18.7672131,77.1167213 18.7888525,77.1639344 18.8163934,77.2190164 L18.8163934,77.2406557 C18.8301639,77.2544262 18.8439344,77.2603279 18.8577049,77.2603279 C18.8714754,77.2740984 18.8813115,77.2819672 18.8891803,77.2819672 C18.895082,77.2819672 18.904918,77.2977049 18.9186885,77.3232787 C18.9186885,77.3645902 18.9403279,77.3862295 18.9816393,77.3862295 C18.9816393,77.4 18.9954098,77.4314754 19.0229508,77.4885246 L19.0445902,77.5101639 C19.0721311,77.5377049 19.0918033,77.5514754 19.1055738,77.5514754 L19.1272131,77.5927869 L19.2098361,77.6754098 C19.2236066,77.6891803 19.2295082,77.7029508 19.2295082,77.7167213 C19.2432787,77.7442623 19.2609836,77.76 19.282623,77.7659016 C19.3022951,77.7737705 19.32,77.7934426 19.3337705,77.8190164 L19.3337705,77.8603279 L19.3554098,77.8603279 C19.4085246,77.8898361 19.4380328,77.9291803 19.4380328,77.9842623 L19.4577049,77.9842623 C19.4990164,78.0118033 19.5344262,78.0531148 19.5619672,78.1062295 C19.5895082,78.1062295 19.6032787,78.1160656 19.6032787,78.1298361 C19.6308197,78.157377 19.6504918,78.1711475 19.6642623,78.1790164 C19.6780328,78.1868852 19.6996721,78.2045902 19.7272131,78.2301639 L19.7272131,78.2518033 C19.7272131,78.2655738 19.7331148,78.2714754 19.7488525,78.2714754 C19.7488525,78.2872131 19.7586885,78.3009836 19.7783607,78.3127869 C19.8,78.3265574 19.8177049,78.3481967 19.8314754,78.3757377 L19.8511475,78.3954098 C19.864918,78.4111475 19.882623,78.4209836 19.9042623,78.4268852 C19.9239344,78.4347541 19.9337705,78.4544262 19.9337705,78.48 C19.9337705,78.4937705 19.9416393,78.4996721 19.9554098,78.4996721 C19.9691803,78.4996721 19.975082,78.507541 19.975082,78.5232787 L19.9967213,78.5232787 L20.0163934,78.5429508 C20.0301639,78.5704918 20.0380328,78.5901639 20.0380328,78.6059016 C20.0931148,78.6059016 20.1285246,78.6334426 20.1422951,78.6885246 C21.4662295,79.9711475 22.9652459,80.9567213 24.6354098,81.6491803 L24.6354098,81.6904918 C26.335082,82.3927869 28.1016393,82.7665574 29.9390164,82.8078689 L29.9586885,82.8078689 L30.082623,82.8078689 L30.1239344,82.8078689 L30.1455738,82.8078689 C30.1868852,82.8078689 30.2203279,82.8157377 30.2478689,82.8295082 C30.2754098,82.8413115 30.3029508,82.8491803 30.332459,82.8491803 L30.3521311,82.8491803 C31.2629508,82.8491803 32.1619672,82.762623 33.055082,82.5895082 C33.9462295,82.4183607 34.8137705,82.172459 35.6537705,81.8557377 C36.5822951,81.4957377 37.4459016,81.055082 38.2544262,80.5298361 C39.0590164,80.0045902 39.8242623,79.3967213 40.5422951,78.7062295 L38.9055738,77.0085246 C37.7331148,78.1554098 36.3659016,79.024918 34.8059016,79.6190164 C33.4111475,80.1836066 31.92,80.4668852 30.332459,80.4668852 L30.2478689,80.4668852 L30.1868852,80.4668852 L30.1239344,80.4668852 L30.0216393,80.4668852 C28.5167213,80.4255738 27.0314754,80.1088525 25.5678689,79.5167213 C24.1593443,78.9068852 22.8963934,78.0747541 21.7770492,77.0104918 L21.7770492,76.9691803 C21.7495082,76.9691803 21.7298361,76.9455738 21.7160656,76.9062295 L21.6944262,76.864918 L21.6747541,76.864918 C21.6609836,76.8511475 21.6491803,76.8452459 21.6432787,76.8452459 C21.6354098,76.8452459 21.6255738,76.837377 21.6118033,76.8236066 L21.5508197,76.762623 L21.5291803,76.7409836 C21.5016393,76.7114754 21.4839344,76.6937705 21.4780328,76.68 C21.4701639,76.6662295 21.4603279,76.652459 21.4465574,76.6386885 C21.4327869,76.6386885 21.424918,76.6288525 21.424918,76.615082 L21.3422951,76.532459 C21.3285246,76.532459 21.322623,76.5245902 21.322623,76.5108197 C21.3088525,76.4832787 21.295082,76.467541 21.2813115,76.4596721 C21.267541,76.4537705 21.2518033,76.4360656 21.24,76.4104918 C21.2262295,76.4104918 21.2183607,76.402623 21.2183607,76.3868852 C21.2045902,76.3731148 21.1908197,76.3632787 21.1770492,76.3554098 C21.1632787,76.3495082 21.1495082,76.3318033 21.1357377,76.3042623 L21.1140984,76.2845902 C21.1003279,76.2570492 21.0727869,76.2216393 21.0314754,76.1803279 L21.0118033,76.1586885 C20.9842623,76.1291803 20.962623,76.1036066 20.9488525,76.0760656 C20.9488525,76.0622951 20.935082,76.0465574 20.907541,76.0347541 C20.88,76.0072131 20.8662295,75.9816393 20.8662295,75.9521311 C20.88,75.9521311 20.8583607,75.9383607 20.8032787,75.9108197 C20.7895082,75.8970492 20.7836066,75.8852459 20.7836066,75.877377 C20.7836066,75.8714754 20.7757377,75.8616393 20.7619672,75.8459016 C20.7619672,75.8340984 20.7422951,75.8104918 20.7009836,75.784918 C20.7009836,75.757377 20.6872131,75.7436066 20.6596721,75.7436066 C20.6596721,75.7140984 20.6380328,75.6885246 20.5967213,75.6609836 L20.5967213,75.637377 C20.5691803,75.6098361 20.5554098,75.5921311 20.5554098,75.5783607 C20.5554098,75.562623 20.5495082,75.5409836 20.5357377,75.5154098 C19.9278689,74.7560656 19.4301639,73.9062295 19.0445902,72.9678689 L19.0229508,72.9678689 C19.0229508,72.9265574 19.015082,72.8931148 19.0032787,72.8636066 L18.9816393,72.802623 L18.9816393,72.7809836 C18.9678689,72.7809836 18.9540984,72.7731148 18.9403279,72.7593443 C18.9403279,72.7318033 18.9363934,72.7121311 18.9304918,72.6983607 C18.922623,72.682623 18.9186885,72.6688525 18.9186885,72.6570492 C18.7396721,72.1888525 18.5921311,71.7147541 18.4740984,71.2386885 C18.3560656,70.762623 18.2636066,70.2747541 18.1947541,69.7790164 C18.1809836,69.7514754 18.1731148,69.7101639 18.1731148,69.6531148 L18.1731148,69.6393443 C18.1731148,69.6118033 18.1711475,69.5921311 18.1632787,69.5763934 C18.1554098,69.562623 18.1534426,69.5488525 18.1534426,69.535082 L18.1534426,69.4740984 L18.1534426,69.3914754 C18.1534426,69.3639344 18.1455738,69.3422951 18.1318033,69.3285246 L18.1318033,69.2459016 C18.1180328,69.2321311 18.1121311,69.1986885 18.1121311,69.1416393 L18.1121311,69.1003279 L18.1121311,69.0177049 L18.1121311,68.935082 L18.1121311,68.9114754 C18.1121311,68.8996721 18.1081967,68.8878689 18.1022951,68.8819672 C18.0944262,68.8740984 18.0904918,68.8583607 18.0904918,68.8288525 L18.0904918,68.8091803 L18.0904918,68.6852459 L18.0904918,68.6439344 L18.0904918,68.5180328 L18.0904918,68.3763934 L18.0904918,68.335082 L18.0904918,68.2308197 L18.0904918,68.1895082 L18.0904918,68.1068852 L18.0904918,68.0242623 L18.0904918,67.9829508 L18.0904918,67.8786885 C18.1180328,67.0918033 18.212459,66.332459 18.3698361,65.6006557 C18.5291803,64.8688525 18.7534426,64.1429508 19.0445902,63.424918 C19.347541,62.7108197 19.7055738,62.0321311 20.1206557,61.3986885 C20.5357377,60.7632787 21.0177049,60.175082 21.5704918,59.6360656 C21.5842623,59.6085246 21.6039344,59.5809836 21.6334426,59.5534426 C21.6609836,59.5534426 21.6747541,59.5495082 21.6747541,59.5416393 C21.6747541,59.5357377 21.6806557,59.5318033 21.6944262,59.5318033 C21.6944262,59.4904918 21.7081967,59.4708197 21.7357377,59.4708197 C21.7632787,59.4432787 21.784918,59.4157377 21.7986885,59.3862295 C21.812459,59.3862295 21.8183607,59.3842623 21.8183607,59.3763934 C21.8183607,59.3704918 21.8262295,59.3665574 21.84,59.3665574 C21.867541,59.3370492 21.8872131,59.3114754 21.9029508,59.2839344 L21.922623,59.2622951 C21.9363934,59.2622951 21.9718033,59.2327869 22.0268852,59.1796721 C22.0268852,59.1639344 22.0327869,59.1580328 22.0465574,59.1580328 C22.0740984,59.1442623 22.1095082,59.1167213 22.1508197,59.0734426 C22.1508197,59.0616393 22.1567213,59.0537705 22.1704918,59.0537705 L22.2531148,58.9711475 L22.2747541,58.9495082 C22.3022951,58.9357377 22.3377049,58.9081967 22.3790164,58.8668852 L22.3986885,58.8668852 C22.4262295,58.8531148 22.4439344,58.837377 22.4518033,58.8255738 C22.4577049,58.8118033 22.467541,58.7980328 22.4813115,58.7842623 L22.522623,58.7429508 C22.5363934,58.7429508 22.5580328,58.7291803 22.5855738,58.7016393 C22.6131148,58.6721311 22.6327869,58.6603279 22.6485246,58.6603279 L22.7095082,58.597377 C22.6957377,58.597377 22.717377,58.5836066 22.772459,58.5560656 L22.8137705,58.5147541 C22.8413115,58.5009836 22.8688525,58.4813115 22.8963934,58.4557377 L22.9160656,58.4321311 L23.0419672,58.3711475 C23.7993443,57.7770492 24.6432787,57.2793443 25.5678689,56.8780328 C25.5954098,56.8780328 25.6367213,56.8662295 25.6918033,56.8367213 L25.7134426,56.8367213 C25.7272131,56.8229508 25.7409836,56.8170492 25.7547541,56.8170492 C25.7685246,56.8032787 25.7822951,56.7934426 25.7960656,56.7934426 C25.8236066,56.7934426 25.8413115,56.787541 25.8472131,56.7737705 C25.855082,56.76 25.8708197,56.7521311 25.8983607,56.7521311 C26.935082,56.3527869 27.9777049,56.1029508 29.0262295,56.0065574 L29.067541,56.0065574 C29.095082,56.0065574 29.1167213,56.0045902 29.1304918,55.9967213 C29.1442623,55.9908197 29.1639344,55.9868852 29.1914754,55.9868852 L29.2131148,55.9868852 C29.2681967,55.9868852 29.3036066,55.9711475 29.317377,55.9455738 L29.4,55.9455738 L29.4609836,55.9455738 L29.5239344,55.9455738 L29.6065574,55.9455738 C29.6203279,55.9455738 29.6340984,55.9416393 29.6478689,55.9337705 C29.6616393,55.9278689 29.6832787,55.9239344 29.7108197,55.9239344 L29.7521311,55.9239344 L29.8544262,55.9239344 L29.917377,55.9239344 L30.0216393,55.9239344 L30.0629508,55.9239344 L30.1455738,55.9239344 L30.2281967,55.9239344 L30.332459,55.9239344 L30.3737705,55.9239344 L30.4563934,55.9239344 L30.5193443,55.9239344 L30.5803279,55.9239344 L30.6845902,55.9239344 C32.2445902,55.9927869 33.7278689,56.3114754 35.1383607,56.8740984 C35.8406557,57.1790164 36.5095082,57.5429508 37.1468852,57.9639344 C37.7803279,58.384918 38.3685246,58.8590164 38.907541,59.3822951 L38.907541,59.4039344 C38.907541,59.4177049 38.9154098,59.4255738 38.9291803,59.4255738 C38.9842623,59.455082 39.0039344,59.4668852 38.9901639,59.4668852 C38.9901639,59.4944262 39.0177049,59.5219672 39.0747541,59.5495082 L39.0747541,59.5691803 C39.0865574,59.5691803 39.1219672,59.5986885 39.1770492,59.6518033 C40.2413115,60.7298361 41.0754098,61.9888525 41.6813115,63.4209836 C42.3186885,64.9121311 42.6334426,66.507541 42.6334426,68.2091803 C42.6334426,68.787541 42.5232787,69.332459 42.3029508,69.8439344 C42.0845902,70.3554098 41.7816393,70.7960656 41.4019672,71.1698361 C41.0242623,71.5416393 40.5737705,71.8406557 40.0563934,72.0609836 C39.535082,72.2793443 38.9881967,72.3914754 38.4098361,72.3914754 L37.8491803,72.3914754 C37.2570492,72.3914754 36.7790164,72.2537705 36.4190164,71.9783607 L36.4190164,61.4360656 L33.997377,61.4360656 L33.997377,63.0295082 C32.7678689,61.7488525 31.2354098,61.1036066 29.4,61.1036066 C28.3632787,61.1036066 27.4485246,61.2668852 26.6557377,61.5914754 C25.8609836,61.9160656 25.1193443,62.4295082 24.4288525,63.1337705 C23.8072131,63.7967213 23.335082,64.5462295 23.0104918,65.3803279 C22.6859016,66.2163934 22.522623,67.1095082 22.522623,68.0636066 C22.522623,70.08 23.1934426,71.7560656 24.5331148,73.0957377 C25.8432787,74.437377 27.5016393,75.1042623 29.5022951,75.1042623 C30.3442623,75.1042623 31.1862295,74.9291803 32.0301639,74.575082 C32.8721311,74.2229508 33.6039344,73.6681967 34.2255738,72.9068852 C34.3357377,73.0603279 34.4518033,73.1901639 34.5777049,73.3022951 C34.7016393,73.412459 34.8255738,73.522623 34.947541,73.6327869 C35.4177049,74.002623 35.8622951,74.2878689 36.2734426,74.482623 C36.6885246,74.677377 37.2137705,74.7718033 37.8491803,74.7718033 L38.4098361,74.7718033 C39.3206557,74.7718033 40.172459,74.5986885 40.9672131,74.252459 C41.76,73.9062295 42.4583607,73.4439344 43.0583607,72.8537705 C43.6603279,72.267541 44.1304918,71.575082 44.4767213,70.772459 C44.8229508,69.9698361 44.9960656,69.1160656 44.9960656,68.2052459 C44.9960656,66.2439344 44.6163934,64.3377049 43.8570492,62.4885246 C43.1252459,60.8085246 42.1239344,59.3114754 40.855082,57.9993443" id="Shape"></path>
                            <path d="M30.3521311,83.344918 L29.9586885,83.3036066 C28.0406557,83.2603279 26.1954098,82.8708197 24.4465574,82.1488525 L24.1436066,81.9757377 C22.5619672,81.2793443 21.1219672,80.3114754 19.8590164,79.0996721 L19.5462295,79.0996721 L19.4537705,78.7652459 L19.2570492,78.7652459 L19.2,78.4780328 L18.9659016,78.4780328 L18.9619672,78.3540984 L18.8636066,78.3540984 L18.8498361,78.0354098 C18.8321311,78.0118033 18.8144262,77.9862295 18.8006557,77.9586885 L18.5921311,77.722623 C18.5645902,77.695082 18.5409836,77.667541 18.5193443,77.6340984 C18.507541,77.6242623 18.4937705,77.612459 18.4819672,77.6006557 L18.212459,77.2406557 C17.5042623,76.2806557 16.9003279,75.2321311 16.4183607,74.1206557 L16.2157377,73.6111475 C16.0111475,73.0406557 15.8360656,72.4819672 15.6963934,71.9468852 C15.5488525,71.3744262 15.4386885,70.7842623 15.3678689,70.1901639 C15.3540984,70.1567213 15.3442623,70.1252459 15.3344262,70.0898361 L15.2990164,69.9540984 L15.277377,69.1396721 C15.2793443,69.157377 15.2577049,69.0708197 15.2577049,68.9547541 L15.2577049,68.852459 C15.2321311,68.7836066 15.2163934,68.7009836 15.2163934,68.6045902 L15.2163934,67.7842623 C15.2714754,65.8957377 15.6727869,64.0544262 16.412459,62.3036066 C16.7881967,61.4262295 17.2347541,60.5940984 17.7403279,59.8327869 C18.2557377,59.0537705 18.8537705,58.3140984 19.5186885,57.6354098 L19.8098361,57.3285246 L19.9278689,57.1101639 L20.0577049,57.0963934 L20.1009836,57.0039344 L20.3370492,56.8681967 L20.8072131,56.4531148 L20.8072131,56.2229508 L20.972459,56.2170492 L20.972459,56.1206557 L21.3186885,56.0498361 C21.8144262,55.6819672 22.3318033,55.347541 22.8511475,55.0544262 C23.3468852,54.775082 23.8544262,54.5193443 24.3698361,54.2852459 L24.3698361,54.1514754 L24.535082,54.1455738 L24.535082,54.0688525 L24.9540984,54.0688525 C26.0734426,53.6301639 27.2262295,53.3409836 28.384918,53.2052459 C28.4006557,53.2013115 28.4222951,53.197377 28.4439344,53.1934426 L28.6111475,53.1403279 L30.7554098,53.077377 C31.6898361,53.104918 32.6321311,53.215082 33.5527869,53.4078689 C34.4380328,53.5927869 35.3095082,53.8622951 36.1436066,54.2163934 L36.2557377,54.2557377 C37.117377,54.6236066 37.947541,55.0701639 38.7245902,55.5836066 C39.4977049,56.0931148 40.2295082,56.6911475 40.9022951,57.3639344 L41.1914754,57.3639344 L41.2032787,57.664918 C42.507541,59.0144262 43.5481967,60.5744262 44.2996721,62.2996721 C45.082623,64.2118033 45.48,66.1967213 45.48,68.2131148 C45.48,69.1868852 45.2911475,70.1154098 44.9213115,70.9731148 C44.5514754,71.8347541 44.0360656,72.5862295 43.3947541,73.2118033 C42.7613115,73.8334426 42.0059016,74.3390164 41.1560656,74.7108197 C40.3003279,75.0806557 39.3757377,75.2695082 38.4019672,75.2695082 L37.8491803,75.2695082 C37.1331148,75.2695082 36.5488525,75.1593443 36.064918,74.9331148 C35.6203279,74.7245902 35.1422951,74.4177049 34.642623,74.0242623 L34.2511475,73.6760656 C34.2432787,73.6681967 34.2334426,73.6603279 34.2236066,73.6504918 C33.637377,74.2583607 32.9645902,74.7206557 32.2170492,75.0314754 C31.32,75.4072131 30.4072131,75.5980328 29.5003279,75.5980328 C27.3698361,75.5980328 25.5777049,74.8721311 24.1790164,73.44 C22.7527869,72.0137705 22.0288525,70.2039344 22.0288525,68.0655738 C22.0288525,67.0563934 22.2039344,66.0944262 22.5501639,65.2032787 C22.8963934,64.3121311 23.4078689,63.5036066 24.0668852,62.7993443 C24.8065574,62.0419672 25.6131148,61.4872131 26.4668852,61.1370492 C27.3167213,60.7888525 28.3022951,60.6118033 29.3960656,60.6118033 C30.9619672,60.6118033 32.3390164,61.0563934 33.5016393,61.9337705 L33.5016393,60.9442623 L36.9068852,60.9442623 L36.9068852,71.7108197 C37.1547541,71.8367213 37.4695082,71.9016393 37.8452459,71.9016393 L38.4059016,71.9016393 C38.9114754,71.9016393 39.4013115,71.8032787 39.8616393,71.6104918 C40.3180328,71.4157377 40.7193443,71.1501639 41.0518033,70.8236066 C41.3862295,70.4931148 41.6537705,70.1016393 41.8445902,69.6531148 C42.037377,69.2065574 42.1357377,68.722623 42.1357377,68.2131148 C42.1357377,66.5822951 41.8288525,65.0360656 41.2229508,63.6196721 C40.652459,62.2701639 39.8655738,61.0760656 38.8839344,60.064918 L38.5770492,60.064918 L38.5770492,59.9213115 L38.4314754,59.9213115 L38.4177049,59.6065574 C37.9396721,59.1560656 37.4203279,58.744918 36.8695082,58.3790164 C36.2557377,57.9757377 35.6065574,57.6216393 34.9357377,57.332459 C33.5921311,56.797377 32.1481967,56.4865574 30.6570492,56.4216393 L30.5134426,55.9298361 L30.5134426,56.4216393 L29.7560656,56.4216393 C29.7068852,56.4354098 29.6577049,56.4432787 29.6085246,56.4432787 L29.2485246,56.482623 C29.1777049,56.5022951 29.1127869,56.5062295 29.0636066,56.5062295 C28.1114754,56.5927869 27.1416393,56.8170492 26.1855738,57.1770492 L26.1304918,57.2734426 L25.7901639,57.3344262 C25.7606557,57.3442623 25.7331148,57.3540984 25.7036066,57.36 C24.84,57.7396721 24.0452459,58.2137705 23.3429508,58.7645902 L23.2013115,58.8393443 C23.1737705,58.8668852 23.1481967,58.8865574 23.122623,58.9042623 L22.8,59.2583607 L22.6229508,59.3114754 C22.6091803,59.3232787 22.5954098,59.3331148 22.5816393,59.3429508 L22.467541,59.4570492 C22.4301639,59.4944262 22.3927869,59.5239344 22.3554098,59.5514754 C22.3416393,59.5652459 22.3259016,59.5809836 22.3081967,59.5947541 L22.3081967,59.8740984 L22.1842623,59.8760656 L22.1842623,60.0295082 L21.8557377,60.0295082 C21.332459,60.5685246 20.9016393,61.1016393 20.5298361,61.6721311 C20.1363934,62.2740984 19.7881967,62.9291803 19.495082,63.6216393 C19.2196721,64.3022951 19.0013115,65.0065574 18.8478689,65.7108197 C18.6963934,66.4229508 18.6059016,67.1606557 18.5803279,67.9022951 L18.0885246,68.0281967 L18.5803279,68.0281967 L18.6216393,69.2340984 C18.6354098,69.2852459 18.6432787,69.3403279 18.6432787,69.3954098 L18.6629508,69.6432787 C18.7455738,70.2 18.8340984,70.6701639 18.9501639,71.1304918 C19.0485246,71.5278689 19.1685246,71.9193443 19.3062295,72.3009836 L19.4714754,72.3009836 L19.4714754,72.7298361 C19.4734426,72.7377049 19.4754098,72.7455738 19.477377,72.7514754 L19.4970492,72.7927869 C19.8629508,73.6839344 20.3409836,74.5003279 20.917377,75.2183607 L20.9527869,75.2616393 L21.1495082,75.2616393 L21.1731148,75.5744262 C21.2380328,75.627541 21.2832787,75.6865574 21.3108197,75.7436066 C21.3422951,75.7790164 21.3659016,75.8163934 21.387541,75.8577049 C21.4111475,75.8793443 21.4327869,75.9009836 21.4544262,75.9245902 L21.5527869,75.9245902 L21.7101639,76.2118033 L21.7101639,76.2137705 L21.867541,76.3790164 L21.9777049,76.3790164 L22.0386885,76.4852459 L22.2688525,76.4852459 L22.2688525,76.8039344 C23.2996721,77.7521311 24.4760656,78.5154098 25.762623,79.0721311 C27.1554098,79.6367213 28.5954098,79.9436066 30.0354098,79.9829508 L30.1868852,80.4747541 L30.1868852,79.9829508 L30.332459,79.9829508 C31.8491803,79.9829508 33.2931148,79.7095082 34.6229508,79.172459 C36.1239344,78.6 37.4459016,77.7580328 38.5632787,76.6662295 L38.917377,76.32 L41.2406557,78.7298361 L40.8845902,79.0721311 C40.1468852,79.7783607 39.3521311,80.4118033 38.5239344,80.9508197 C37.6859016,81.4937705 36.7809836,81.9580328 35.8327869,82.3239344 C34.957377,82.652459 34.0563934,82.9081967 33.147541,83.0813115 C32.2308197,83.2544262 31.2885246,83.344918 30.3521311,83.344918 Z M30.082623,82.3219672 C30.2163934,82.3219672 30.3108197,82.3357377 30.3895082,82.3632787 C31.2511475,82.3613115 32.1167213,82.2767213 32.962623,82.1134426 C33.8163934,81.9481967 34.6642623,81.7101639 35.482623,81.4013115 C36.3639344,81.0609836 37.2078689,80.6301639 37.9888525,80.1245902 C38.6321311,79.7055738 39.2557377,79.2255738 39.8439344,78.6944262 L38.8898361,77.704918 C37.7547541,78.7298361 36.442623,79.5285246 34.9829508,80.0832787 C33.5468852,80.6655738 31.9790164,80.962623 30.3344262,80.962623 L30.0098361,80.962623 C28.4518033,80.9213115 26.8957377,80.5888525 25.384918,79.975082 C23.9586885,79.3593443 22.6701639,78.5154098 21.5409836,77.464918 L21.4229508,77.464918 L21.2242623,77.1344262 L20.9547541,77.1344262 L20.9508197,77.0281967 L20.8504918,77.0281967 L20.8465574,76.9062295 L20.7481967,76.9062295 L20.6734426,76.5088525 C20.6281967,76.4695082 20.5908197,76.4301639 20.5632787,76.3908197 L20.5593443,76.3868852 C20.5219672,76.3495082 20.4944262,76.3140984 20.4708197,76.2767213 L20.4334426,76.2413115 L20.1678689,76.2413115 L20.1678689,75.9737705 L20.104918,75.932459 L20.104918,75.784918 C20.0970492,75.7672131 20.0911475,75.7495082 20.0852459,75.7318033 C19.5678689,75.0963934 19.0977049,74.3154098 18.72,73.4655738 L18.5527869,73.4655738 L18.535082,73.0603279 L18.4485246,72.9796721 L18.4485246,72.8203279 C18.4465574,72.8085246 18.4445902,72.7986885 18.4406557,72.7888525 C18.267541,72.3285246 18.1160656,71.8465574 17.9960656,71.362623 C17.8780328,70.8865574 17.7855738,70.3986885 17.7127869,69.9029508 C17.6931148,69.8380328 17.6832787,69.7691803 17.6793443,69.6904918 C17.667541,69.6472131 17.6616393,69.6 17.6596721,69.5527869 L17.6380328,69.4583607 L17.5967213,67.8609836 C17.6242623,67.0622951 17.7206557,66.2655738 17.8859016,65.4963934 C18.0511475,64.7370492 18.2872131,63.9777049 18.5862295,63.24 C18.9068852,62.4845902 19.282623,61.7783607 19.707541,61.1291803 C20.1265574,60.4839344 20.6183607,59.8839344 21.1652459,59.3429508 L21.1809836,59.3213115 L21.2006557,59.04 L21.3245902,59.0262295 L21.3245902,58.8845902 L21.5193443,58.8393443 L21.5331148,58.8432787 L21.5331148,58.6898361 L21.6570492,58.6839344 L21.6570492,58.5836066 L22.052459,58.5127869 L22.1547541,58.412459 L22.135082,58.3278689 L22.8236066,57.9304918 C23.52,57.3718033 24.4072131,56.8465574 25.3691803,56.427541 L25.4852459,56.3704918 L25.522623,56.2859016 L25.7901639,56.2701639 C26.8465574,55.8708197 27.9186885,55.6190164 28.9790164,55.5206557 C28.9809836,55.5206557 28.984918,55.5206557 28.9888525,55.5186885 L29.0222951,55.4577049 L30.7042623,55.4360656 C32.3036066,55.5068852 33.8577049,55.8393443 35.317377,56.4216393 C36.0531148,56.7422951 36.7534426,57.12 37.4144262,57.5567213 C38.0695082,57.9934426 38.6852459,58.4891803 39.2459016,59.0321311 L39.2616393,59.0498361 L39.4937705,59.1698361 L39.4918033,59.2091803 L39.562623,59.242623 L39.562623,59.3527869 C40.6445902,60.4583607 41.5081967,61.7665574 42.1298361,63.2360656 C42.7868852,64.7744262 43.1213115,66.4504918 43.1213115,68.215082 C43.1213115,68.8603279 42.997377,69.4760656 42.7514754,70.0465574 C42.5095082,70.6091803 42.1711475,71.1088525 41.7422951,71.5278689 C41.3232787,71.9409836 40.8196721,72.2754098 40.2472131,72.5193443 C39.6629508,72.7652459 39.0452459,72.8891803 38.4078689,72.8891803 L37.8491803,72.8891803 C37.1488525,72.8891803 36.5665574,72.7160656 36.1219672,72.3737705 L35.9291803,72.2281967 L35.9291803,61.9337705 L34.4911475,61.9337705 L34.4911475,64.2590164 L33.6452459,63.3757377 C32.4983607,62.1836066 31.1114754,61.6032787 29.4019672,61.6032787 C28.4360656,61.6032787 27.5744262,61.7547541 26.8445902,62.0537705 C26.1147541,62.3508197 25.4203279,62.8327869 24.7829508,63.4859016 C24.2163934,64.0898361 23.7737705,64.7921311 23.4708197,65.5672131 C23.1698361,66.3442623 23.0163934,67.1862295 23.0163934,68.0714754 C23.0163934,69.9678689 23.6281967,71.5003279 24.8832787,72.7554098 C26.1108197,74.012459 27.6216393,74.6203279 29.5042623,74.6203279 C30.2793443,74.6203279 31.0662295,74.455082 31.8413115,74.1304918 C32.6045902,73.8118033 33.2793443,73.2983607 33.8478689,72.6059016 L34.255082,72.1081967 L34.6288525,72.6314754 C34.7114754,72.7495082 34.8039344,72.8518033 34.9101639,72.9481967 L35.2780328,73.2767213 C35.695082,73.6052459 36.1101639,73.8708197 36.4859016,74.0478689 C36.8301639,74.2091803 37.2904918,74.2918033 37.8511475,74.2918033 L38.4118033,74.2918033 C39.2498361,74.2918033 40.0445902,74.1304918 40.772459,73.8137705 C41.5121311,73.4911475 42.1652459,73.0544262 42.7160656,72.5154098 C43.2668852,71.9803279 43.707541,71.3311475 44.0281967,70.5914754 C44.344918,69.8557377 44.5062295,69.0570492 44.5062295,68.2190164 C44.5062295,66.332459 44.1363934,64.4714754 43.402623,62.6872131 C42.7042623,61.0760656 41.7265574,59.612459 40.5009836,58.347541 C40.467541,58.3140984 40.4380328,58.282623 40.412459,58.2531148 L40.264918,58.1134426 C40.2590164,58.107541 40.2531148,58.1016393 40.2472131,58.0957377 C39.5901639,57.4386885 38.907541,56.8819672 38.1895082,56.4098361 C37.4872131,55.947541 36.7416393,55.5422951 35.9665574,55.2059016 L35.8504918,55.1645902 C35.0478689,54.8183607 34.2098361,54.5527869 33.3560656,54.3777049 C32.4904918,54.1967213 31.6052459,54.0904918 30.7298361,54.0668852 L30.5586885,53.575082 L30.5586885,54.0668852 L28.9239344,54.1298361 C28.8767213,54.1416393 28.827541,54.1495082 28.7783607,54.1495082 L28.6701639,54.1613115 C28.5914754,54.1829508 28.5344262,54.1927869 28.467541,54.1927869 C27.4957377,54.3088525 26.4963934,54.5527869 25.5206557,54.9147541 L25.5206557,55.0603279 L25.3554098,55.0662295 L25.3554098,55.1429508 L24.7416393,55.2059016 C24.2636066,55.4222951 23.7954098,55.6603279 23.335082,55.9180328 C22.882623,56.1737705 22.4321311,56.4629508 21.9934426,56.7816393 L21.9659016,56.815082 C21.9639344,56.8170492 21.9619672,56.8209836 21.9580328,56.8229508 L21.9580328,57.1101639 L21.8144262,57.1101639 L21.7927869,57.212459 L21.2360656,57.424918 L21.037377,57.5527869 L21.037377,57.5547541 L20.8977049,57.6885246 C20.8780328,57.7101639 20.8504918,57.7318033 20.8170492,57.757377 L20.8170492,58.0406557 L20.5101639,58.052459 C20.5081967,58.0544262 20.5081967,58.0563934 20.5062295,58.0563934 L20.5062295,58.3318033 L20.2583607,58.3416393 L20.224918,58.4065574 L20.1265574,58.4262295 C19.5442623,59.0340984 19.0170492,59.6911475 18.5606557,60.3796721 C18.0885246,61.0918033 17.6695082,61.8727869 17.3193443,62.695082 C16.6268852,64.3278689 16.2511475,66.0531148 16.2,67.8177049 L15.7081967,67.9908197 L16.2,67.9908197 L16.2865574,69.8360656 C16.3239344,69.9167213 16.3436066,70.0072131 16.3436066,70.1036066 C16.4065574,70.6091803 16.5088525,71.1678689 16.6485246,71.7088525 C16.7783607,72.2085246 16.9357377,72.7140984 17.1265574,73.2472131 L17.2032787,73.3042623 L17.2072131,73.4262295 C17.215082,73.4419672 17.2229508,73.4596721 17.2308197,73.4754098 L17.2760656,73.5206557 L17.2859016,73.6406557 C17.2957377,73.6662295 17.3036066,73.6878689 17.3095082,73.7095082 L17.3685246,73.8177049 L17.3665574,73.8432787 C17.7777049,74.7698361 18.2793443,75.6491803 18.8577049,76.4636066 L18.9285246,76.4636066 L18.9934426,76.5895082 L19.0662295,76.5895082 L19.2078689,76.9003279 L19.4714754,76.9003279 L19.4714754,77.2052459 L19.68,77.4708197 C19.6996721,77.4944262 19.717377,77.5140984 19.7331148,77.5396721 C19.7606557,77.5652459 19.7842623,77.5927869 19.8078689,77.6222951 L20.0537705,77.6222951 L20.067541,77.787541 L20.2406557,77.787541 L20.2406557,78.0157377 L20.4472131,78.0157377 L20.4570492,78.2911475 C20.4904918,78.3245902 20.52,78.3619672 20.5455738,78.4032787 C21.8006557,79.6052459 23.2386885,80.547541 24.8222951,81.202623 L25.1252459,81.3678689 C26.6714754,81.9659016 28.2904918,82.2885246 29.9488525,82.3259016 L30.082623,82.3259016 L30.082623,82.3219672 Z M29.6281967,73.3022951 C28.2314754,73.3022951 27.0059016,72.7947541 25.9908197,71.7914754 C25.0229508,70.7803279 24.5370492,69.517377 24.5370492,68.0242623 C24.5370492,67.3337705 24.6570492,66.6747541 24.8911475,66.0668852 C25.1311475,65.4531148 25.4990164,64.892459 25.9888525,64.402623 C27.0137705,63.424918 28.227541,62.9331148 29.6085246,62.9331148 C30.9580328,62.9331148 32.1442623,63.4662295 33.1357377,64.5206557 C34.1154098,65.5140984 34.615082,66.7593443 34.615082,68.2131148 C34.615082,69.2045902 34.3416393,70.1114754 33.8045902,70.9081967 C33.7495082,71.0301639 33.637377,71.1993443 33.5016393,71.3586885 C33.3914754,71.4904918 33.2695082,71.6301639 33.1396721,71.7737705 C32.0872131,72.7947541 30.9127869,73.3022951 29.6281967,73.3022951 Z M29.6065574,63.9167213 C28.4714754,63.9167213 27.5134426,64.3062295 26.6734426,65.104918 C26.2898361,65.4904918 25.9947541,65.935082 25.8078689,66.4209836 C25.6170492,66.9147541 25.5206557,67.4537705 25.5206557,68.0222951 C25.5206557,69.2714754 25.9022951,70.2767213 26.6911475,71.0990164 C27.517377,71.9134426 28.4832787,72.3147541 29.6281967,72.3147541 C30.6629508,72.3147541 31.5796721,71.9134426 32.4334426,71.0852459 C32.5318033,70.975082 32.6439344,70.8452459 32.7501639,70.7193443 C32.8347541,70.6170492 32.9016393,70.5167213 32.9547541,70.412459 C33.4190164,69.7140984 33.6295082,69.0118033 33.6295082,68.2091803 C33.6295082,67.0072131 33.2360656,66.0216393 32.4236066,65.1993443 C31.6091803,64.3337705 30.6904918,63.9167213 29.6065574,63.9167213 Z" id="Shape"></path>
                            <path d="M79.5462295,50.2839344 C76.8039344,50.2839344 74.0655738,49.2413115 71.9783607,47.1540984 C71.4019672,46.5777049 71.4019672,45.6432787 71.9783607,45.0668852 C72.5547541,44.4904918 73.4891803,44.4904918 74.0655738,45.0668852 C77.0891803,48.0885246 82.0032787,48.0885246 85.0268852,45.0668852 C85.6032787,44.4904918 86.5377049,44.4904918 87.1140984,45.0668852 C87.6904918,45.6432787 87.6904918,46.5777049 87.1140984,47.1540984 C85.0268852,49.2393443 82.2865574,50.2839344 79.5462295,50.2839344 Z" id="Shape"></path>
                            <path d="M79.5462295,59.9193443 C68.557377,59.9193443 59.6183607,50.9803279 59.6183607,39.9914754 C59.6183607,29.0045902 68.557377,20.0636066 79.5462295,20.0636066 C90.535082,20.0636066 99.4740984,29.002623 99.4740984,39.9914754 C99.4721311,50.9803279 90.5331148,59.9193443 79.5462295,59.9193443 Z M79.5462295,23.0144262 C70.1842623,23.0144262 62.5691803,30.6314754 62.5691803,39.9914754 C62.5691803,49.3514754 70.1842623,56.9685246 79.5462295,56.9685246 C88.9081967,56.9685246 96.5232787,49.3514754 96.5232787,39.9914754 C96.5232787,30.6314754 88.9062295,23.0144262 79.5462295,23.0144262 Z" id="Shape"></path>
                        </g>
                        <path d="M76.2393443,28.4832787 C75.424918,28.4832787 74.7639344,27.8222951 74.7639344,27.0078689 L74.7639344,21.3836066 C74.7639344,20.5691803 75.424918,19.9081967 76.2393443,19.9081967 C77.0537705,19.9081967 77.7147541,20.5691803 77.7147541,21.3836066 L77.7147541,27.0078689 C77.7147541,27.8222951 77.0537705,28.4832787 76.2393443,28.4832787 Z" id="Shape"></path>
                        <path d="M82.8511475,28.4832787 C82.0367213,28.4832787 81.3757377,27.8222951 81.3757377,27.0078689 L81.3757377,21.3836066 C81.3757377,20.5691803 82.0367213,19.9081967 82.8511475,19.9081967 C83.6655738,19.9081967 84.3265574,20.5691803 84.3265574,21.3836066 L84.3265574,27.0078689 C84.3265574,27.8222951 83.6655738,28.4832787 82.8511475,28.4832787 Z" id="Shape"></path>
                        <path d="M89.464918,30.9422951 C88.6504918,30.9422951 87.9895082,30.2813115 87.9895082,29.4668852 L87.9895082,21.3836066 C87.9895082,20.5691803 88.6504918,19.9081967 89.464918,19.9081967 C90.2793443,19.9081967 90.9403279,20.5691803 90.9403279,21.3836066 L90.9403279,29.4668852 C90.9403279,30.2813115 90.2793443,30.9422951 89.464918,30.9422951 Z" id="Shape"></path>
                        <path d="M69.627541,30.9422951 C68.8131148,30.9422951 68.1521311,30.2813115 68.1521311,29.4668852 L68.1521311,21.3836066 C68.1521311,20.5691803 68.8131148,19.9081967 69.627541,19.9081967 C70.4419672,19.9081967 71.1029508,20.5691803 71.1029508,21.3836066 L71.1029508,29.4668852 C71.1029508,30.2813115 70.4419672,30.9422951 69.627541,30.9422951 Z" id="Shape"></path>
                        <path d="M30.48,20.4747541 C30.1022951,20.4747541 29.7245902,20.3311475 29.437377,20.0419672 L26.1895082,16.7940984 C25.6131148,16.2177049 25.6131148,15.2832787 26.1895082,14.7068852 C26.7659016,14.1304918 27.7003279,14.1304918 28.2767213,14.7068852 L31.5245902,17.9547541 C32.1009836,18.5311475 32.1009836,19.4655738 31.5245902,20.0419672 C31.2354098,20.3311475 30.8577049,20.4747541 30.48,20.4747541 Z M23.9842623,13.9790164 C23.6065574,13.9790164 23.2288525,13.8354098 22.9416393,13.5462295 L19.6937705,10.2983607 C19.117377,9.72196721 19.117377,8.78754098 19.6937705,8.21114754 C20.2701639,7.6347541 21.2045902,7.6347541 21.7809836,8.21114754 L25.0288525,11.4590164 C25.6052459,12.0354098 25.6052459,12.9698361 25.0288525,13.5462295 C24.7396721,13.8354098 24.3619672,13.9790164 23.9842623,13.9790164 Z" id="Shape"></path>
                        <path d="M41.5691803,18.0570492 C40.7547541,18.0570492 40.0937705,17.3960656 40.0937705,16.5816393 L40.0937705,11.9881967 C40.0937705,11.1737705 40.7547541,10.5127869 41.5691803,10.5127869 C42.3836066,10.5127869 43.0445902,11.1737705 43.0445902,11.9881967 L43.0445902,16.5816393 C43.0445902,17.3960656 42.3836066,18.0570492 41.5691803,18.0570492 Z M41.5691803,8.87016393 C40.7547541,8.87016393 40.0937705,8.20918033 40.0937705,7.3947541 L40.0937705,2.80327869 C40.0937705,1.98885246 40.7547541,1.32786885 41.5691803,1.32786885 C42.3836066,1.32786885 43.0445902,1.98885246 43.0445902,2.80327869 L43.0445902,7.3947541 C43.0445902,8.20918033 42.3836066,8.87016393 41.5691803,8.87016393 Z" id="Shape"></path>
                        <path d="M28.0622951,31.5639344 L23.4688525,31.5639344 C22.6544262,31.5639344 21.9934426,30.9029508 21.9934426,30.0885246 C21.9934426,29.2740984 22.6544262,28.6131148 23.4688525,28.6131148 L28.0622951,28.6131148 C28.8767213,28.6131148 29.5377049,29.2740984 29.5377049,30.0885246 C29.5377049,30.9029508 28.8767213,31.5639344 28.0622951,31.5639344 Z M18.8754098,31.5639344 L14.2839344,31.5639344 C13.4695082,31.5639344 12.8085246,30.9029508 12.8085246,30.0885246 C12.8085246,29.2740984 13.4695082,28.6131148 14.2839344,28.6131148 L18.8754098,28.6131148 C19.6898361,28.6131148 20.3508197,29.2740984 20.3508197,30.0885246 C20.3508197,30.9029508 19.6898361,31.5639344 18.8754098,31.5639344 Z" id="Shape"></path>
                    </g>
                </g>
            </g>
        </g>
    </g>
</svg>