<?xml version="1.0" encoding="UTF-8"?>
<svg width="269px" height="84px" viewBox="0 0 269 84" version="1.1" xmlns="http://www.w3.org/2000/svg" xmlns:xlink="http://www.w3.org/1999/xlink">
    <!-- Generator: Sketch 43.2 (39069) - http://www.bohemiancoding.com/sketch -->
    <title>Rectangle 11</title>
    <desc>Created with Sketch.</desc>
    <defs>
        <linearGradient x1="49.9976632%" y1="0.70578635%" x2="49.9976632%" y2="96.9898739%" id="linearGradient-1">
            <stop stop-color="#86BBE5" offset="0%"></stop>
            <stop stop-color="#1072BA" offset="100%"></stop>
        </linearGradient>
        <linearGradient x1="-375.72997%" y1="-167.518958%" x2="-375.72997%" y2="-163.85006%" id="linearGradient-2">
            <stop stop-color="#6EBF61" offset="0%"></stop>
            <stop stop-color="#50A557" offset="23.14%"></stop>
            <stop stop-color="#2A904F" offset="52.16%"></stop>
            <stop stop-color="#50A557" offset="81.18%"></stop>
            <stop stop-color="#6EBF63" offset="100%"></stop>
        </linearGradient>
    </defs>
    <g id="Page-1" stroke="none" stroke-width="1" fill="none" fill-rule="evenodd">
        <g id="Desktop---Sales" transform="translate(-671.000000, -564.000000)">
            <g id="platforms" transform="translate(0.000000, 492.000000)">
                <g id="Group-12" transform="translate(671.000000, 72.000000)">
                    <g id="Group-9" transform="translate(0.000000, 6.000000)">
                        <text id="SUPPORTED" font-family="WorkSans-Regular, Work Sans" font-size="10.8000002" font-weight="normal" fill="#939898">
                            <tspan x="16.4401994" y="66">SUPPORTED</tspan>
                        </text>
                        <g id="Group-8">
                            <g id="Group-4">
                                <g id="Facebook-Messenger-(1)" transform="translate(6.000000, 6.000000)" fill-rule="nonzero" fill="#0084FF">
                                    <g id="Facebook_Messenger">
                                        <g id="Facebook_Messenger_1_">
                                            <path d="M17.8888889,0 C8.00911111,0 0,7.46188889 0,16.6666667 C0,21.9116667 2.60133333,26.5901111 6.66666667,29.6452222 L6.66666667,36 L12.7576667,32.6363333 C14.3832222,33.089 16.1053333,33.3333333 17.8888889,33.3333333 C27.7686667,33.3333333 35.7777778,25.8714444 35.7777778,16.6666667 C35.7777778,7.46188889 27.7686667,0 17.8888889,0 Z M19.6666667,22.4444444 L15.1111111,17.5555556 L6.22222222,22.4444444 L16,12 L20.6666667,16.8888889 L29.4444444,12 L19.6666667,22.4444444 Z" id="Shape"></path>
                                        </g>
                                    </g>
                                </g>
                                <rect id="Rectangle-5" fill-opacity="0" fill="#EFEFEF" x="0" y="0" width="48" height="48"></rect>
                            </g>
                            <g id="Group-5" transform="translate(48.000000, 0.000000)">
                                <g id="chrome" transform="translate(6.000000, 6.000000)" fill-rule="nonzero">
                                    <g id="Group">
                                        <path d="M17.9702889,0.00493258903 C17.9702889,0.00493258903 28.5623108,-0.468595957 34.1777167,10.1364704 L17.0690508,10.1364704 C17.0690508,10.1364704 13.8404402,10.0328861 11.0822558,13.934564 C10.2899587,15.5721835 9.43823933,17.259129 10.3939477,20.5836939 C9.0173315,18.2604446 3.08500688,7.97106386 3.08500688,7.97106386 C3.08500688,7.97106386 7.269326,0.424202656 17.9702889,0.00493258903 L17.9702889,0.00493258903 Z" id="Shape" fill="#EF3F36"></path>
                                        <path d="M33.6280605,26.9270035 C33.6280605,26.9270035 28.7405778,36.3038551 16.7174691,35.8401918 C18.2030261,33.2801781 25.2742778,21.0818855 25.2742778,21.0818855 C25.2742778,21.0818855 26.9826685,18.3492311 24.9672627,14.0184179 C23.9422283,12.5139784 22.8973866,10.9404824 19.5301237,10.1019423 C22.2387895,10.0772794 34.1480055,10.1019423 34.1480055,10.1019423 C34.1480055,10.1019423 38.6096286,17.4860281 33.6280605,26.9270035 L33.6280605,26.9270035 Z" id="Shape" fill="#FCD900"></path>
                                        <path d="M2.38679505,27.0009923 C2.38679505,27.0009923 -3.32269601,18.0976691 3.09491059,7.95626609 C4.57551582,10.5162798 11.6467675,22.7145725 11.6467675,22.7145725 C11.6467675,22.7145725 13.1719395,25.5557437 17.9405778,25.9799463 C19.7579092,25.8467665 21.6495186,25.7333169 24.0660247,23.2522246 C22.7339752,25.6001371 16.757084,35.8599222 16.757084,35.8599222 C16.757084,35.8599222 8.10123796,36.0177651 2.38679505,27.0009923 L2.38679505,27.0009923 Z" id="Shape" fill="#61BC5B"></path>
                                        <path d="M16.7125172,35.9289784 L19.1191196,25.9256879 C19.1191196,25.9256879 21.7634113,25.7185192 23.9818432,23.2966179 C22.605227,25.7086539 16.7125172,35.9289784 16.7125172,35.9289784 L16.7125172,35.9289784 Z" id="Shape" fill="#5AB055"></path>
                                        <path d="M9.90866575,18.0779387 C9.90866575,13.6682042 13.498762,10.0920771 17.9257222,10.0920771 C22.3526822,10.0920771 25.9427786,13.6682042 25.9427786,18.0779387 C25.9427786,22.4876733 22.3526822,26.0638004 17.9257222,26.0638004 C13.498762,26.0588678 9.90866575,22.4876733 9.90866575,18.0779387 L9.90866575,18.0779387 Z" id="Shape" fill="#FFFFFF"></path>
                                        <path d="M11.250619,18.0779387 C11.250619,14.4080926 14.2365887,11.4288088 17.9257222,11.4288088 C21.6099037,11.4288088 24.6008253,14.4031599 24.6008253,18.0779387 C24.6008253,21.747785 21.6148556,24.7270687 17.9257222,24.7270687 C14.2415405,24.7270687 11.250619,21.747785 11.250619,18.0779387 L11.250619,18.0779387 Z" id="Shape" fill="url(#linearGradient-1)"></path>
                                        <path d="M34.1430536,10.1068749 L24.2343879,13.0023047 C24.2343879,13.0023047 22.7389271,10.8171677 19.5251719,10.1068749 C22.3130675,10.0920771 34.1430536,10.1068749 34.1430536,10.1068749 L34.1430536,10.1068749 Z" id="Shape" fill="#EACA05"></path>
                                        <path d="M10.2008253,20.2186824 C8.80935351,17.8165115 3.08500688,7.97106386 3.08500688,7.97106386 L10.4236589,15.2022394 C10.4236589,15.2022394 9.67097662,16.7461398 9.95323247,18.9559397 L10.2008253,20.2186824 L10.2008253,20.2186824 Z" id="Shape" fill="#DF3A32"></path>
                                    </g>
                                </g>
                                <rect id="Rectangle-5" fill-opacity="0" fill="#EFEFEF" x="0" y="0" width="48" height="48"></rect>
                            </g>
                        </g>
                    </g>
                    <g id="Group-11" transform="translate(125.000000, 6.000000)">
                        <g id="Group-10">
                            <g id="Group-3">
                                <rect id="Rectangle-5" fill-opacity="0" fill="#EFEFEF" x="0" y="0" width="48" height="48"></rect>
                                <g id="Whatsapp" transform="translate(6.000000, 6.000000)" fill-rule="nonzero">
                                    <path d="M18.0992432,0.630486486 C8.39792432,0.630486486 0.506627027,8.52178378 0.506627027,18.2231027 C0.506627027,22.0705297 1.74775135,25.6386162 3.85754595,28.5347676 L1.66485405,35.0711027 L8.42886486,32.9099351 C11.2108865,34.7508973 14.5308649,35.8160108 18.1094595,35.8160108 C27.8107784,35.8160108 35.7020757,27.9244216 35.7020757,18.2233946 C35.7020757,8.52207568 27.8107784,0.630778378 18.1094595,0.630778378 L18.0992432,0.630778378 L18.0992432,0.630486486 Z" id="path3009" fill="url(#linearGradient-2)"></path>
                                    <path d="M13.1864108,9.56675676 C12.8451892,8.74975135 12.586573,8.71881081 12.0696324,8.69779459 C11.8936216,8.68757838 11.6974703,8.67736216 11.4800108,8.67736216 C10.8074919,8.67736216 10.1043243,8.87380541 9.68020541,9.30814054 C9.16326486,9.83558919 7.88069189,11.0662054 7.88069189,13.5899027 C7.88069189,16.1136 9.72165405,18.5544 9.96976216,18.8959135 C10.2283784,19.2368432 13.5588649,24.4908973 18.7300216,26.6322162 C22.7738919,28.3076757 23.9738595,28.1523892 24.8941946,27.9559459 C26.2386486,27.6663892 27.9246162,26.6730811 28.3487351,25.4736973 C28.7728541,24.2737297 28.7728541,23.249773 28.6485081,23.0326054 C28.5244541,22.8154378 28.1829405,22.6916757 27.666,22.4327676 C27.1490595,22.1741514 24.6355784,20.933027 24.1597946,20.7675243 C23.694227,20.5918054 23.2496757,20.6539784 22.8982378,21.1504865 C22.4017297,21.8434378 21.9157297,22.5468973 21.5225514,22.9707243 C21.2122703,23.3017297 20.7052541,23.3431784 20.281427,23.1671676 C19.7125297,22.9295676 18.1199676,22.3705946 16.1546595,20.6227459 C14.6341946,19.2680757 13.6000216,17.5824 13.3002486,17.0756757 C13.0001838,16.5587351 13.2693081,16.2583784 13.5069081,15.9793297 C13.7655243,15.6585405 14.0136324,15.4311568 14.2722486,15.1310919 C14.5308649,14.8313189 14.6756432,14.6760324 14.8411459,14.3243027 C15.0171568,13.9830811 14.8928108,13.6313514 14.7687568,13.3727351 C14.6447027,13.1141189 13.6105297,10.5904216 13.1864108,9.56675676 Z" id="path3011" fill="#FEFEFE"></path>
                                </g>
                            </g>
                            <g id="Group-6" transform="translate(96.000000, 0.000000)">
                                <g id="apple" transform="translate(8.000000, 4.000000)" fill-rule="nonzero" fill="#939898">
                                    <path d="M26.898966,21.2102785 C26.9545503,27.2520185 32.1502311,29.2625573 32.2077922,29.2882193 C32.1638603,29.4300136 31.3776091,32.153434 29.4704608,34.9665328 C27.821815,37.3985992 26.110738,39.8217566 23.4152862,39.8719422 C20.7667353,39.921199 19.9150784,38.2867083 16.8870349,38.2867083 C13.859906,38.2867083 12.9136764,39.8217525 10.406528,39.921199 C7.8047332,40.0205727 5.82349382,37.2912413 4.1611471,34.8680841 C0.764342891,29.9114342 -1.83151836,20.8617559 1.65406715,14.7530756 C3.38563167,11.71948 6.48006836,9.79848071 9.83880271,9.74922027 C12.3936987,9.70003119 14.8052168,11.484087 16.367057,11.484087 C17.927907,11.484087 20.8584148,9.33860354 23.9391495,9.65369491 C25.2288503,9.70787371 28.8490616,10.1795159 31.1736988,13.6138907 C30.9863903,13.7310899 26.8540457,16.1591625 26.898966,21.2102842 M21.9213206,6.37443851 C23.3026309,4.6868358 24.2323324,2.33753675 23.9786998,0 C21.9876448,0.0807682825 19.5800119,1.33914805 18.1518725,3.0258223 C16.8719853,4.5194509 15.7510918,6.91009873 16.0535283,9.20137057 C18.2727929,9.37467217 20.5399424,8.06311444 21.9213206,6.37444126" id="Shape"></path>
                                </g>
                                <rect id="Rectangle-5" fill-opacity="0" fill="#EFEFEF" x="0" y="0" width="48" height="48"></rect>
                            </g>
                            <g id="Group-7" transform="translate(48.000000, 0.000000)">
                                <g id="android-icon" transform="translate(6.000000, 3.000000)" fill-rule="nonzero">
                                    <g id="Group">
                                        <path d="M11.0234554,0.121782452 C10.8259677,0.123683551 10.6209732,0.171744796 10.4342112,0.276176063 C9.84112248,0.60781547 9.62359864,1.37666743 9.95210239,1.97450335 L11.2912936,4.41391802 C8.06486955,6.42776071 5.92687631,9.86746544 5.92687631,13.7933104 C5.92687631,13.8097903 5.926831,13.834546 5.92687631,13.8589276 C5.92689226,13.8675313 5.9267967,13.8724351 5.92687631,13.8820856 C5.92688126,13.8949156 5.92687631,13.9136512 5.92687631,13.9168246 L5.92687631,14.5228181 C5.30721555,13.8035983 4.39632193,13.3494294 3.37858684,13.3494294 C1.51404947,13.3494294 0,14.8767638 0,16.7576612 L0,27.2564048 C0,29.1373022 1.51404947,30.6646365 3.37858684,30.6646365 C4.39632193,30.6646365 5.30721555,30.2104676 5.92687631,29.4912478 L5.92687631,30.9618442 C5.92687631,32.9445332 7.53515952,34.5669275 9.50060368,34.5669275 L10.4074274,34.5669275 L10.4074274,39.2373257 C10.4074274,41.1182316 11.921478,42.6455574 13.7860152,42.6455574 C15.650553,42.6455574 17.1646031,41.1182316 17.1646031,39.2373257 L17.1646031,34.5669275 L18.7333708,34.5669275 L18.7333708,39.2373257 C18.7333708,41.1182316 20.2474208,42.6455574 22.1119587,42.6455574 C23.9764953,42.6455574 25.4905478,41.1182316 25.4905478,39.2373257 L25.4905478,34.5669275 L26.3973708,34.5669275 C28.362815,34.5669275 29.9710981,32.9445332 29.9710981,30.9618442 L29.9710981,29.4912478 C30.5907608,30.2104676 31.5016526,30.6646365 32.5193884,30.6646365 C34.3839261,30.6646365 35.8979763,29.1373022 35.8979763,27.2564048 L35.8979763,16.7576612 C35.8979763,14.8767638 34.3839261,13.3494294 32.5193884,13.3494294 C31.5016526,13.3494294 30.5907608,13.8035983 29.9710981,14.5228181 L29.9710981,13.9284042 L29.9710981,13.916827 C29.9711766,13.8982486 29.9711187,13.8797714 29.9710981,13.8820893 C29.9713397,13.845091 29.9710981,13.8156106 29.9710981,13.7933129 C29.9710981,9.8681552 27.8283371,6.43176886 24.6028542,4.41777993 L25.9458729,1.9744997 C26.2743765,1.37666377 26.0568532,0.607811814 25.463764,0.276172408 C25.2770013,0.171741139 25.0720079,0.123682332 24.8745202,0.121778796 C24.4365439,0.117550069 24.0066616,0.350395698 23.7802084,0.762511308 L22.3759703,3.32158188 C21.0028942,2.8104373 19.5089158,2.53031523 17.9489876,2.53031523 C16.390649,2.53031523 14.893926,2.80756981 13.5220035,3.31772118 L12.1177655,0.762511308 C11.8913137,0.35039448 11.4614305,0.117559818 11.0234554,0.121778796 L11.0234554,0.121782452 Z" id="Shape" fill="#FFFFFF"></path>
                                        <path d="M3.37866645,14.2371902 C1.98727031,14.2371902 0.880118287,15.3540566 0.880118287,16.7576612 L0.880118287,27.2564048 C0.880118287,28.6600093 1.98727031,29.7768758 3.37866645,29.7768758 C4.77006245,29.7768758 5.87721455,28.6600093 5.87721455,27.2564048 L5.87721455,16.7576612 C5.87721455,15.3540566 4.77006245,14.2371902 3.37866645,14.2371902 L3.37866645,14.2371902 Z M32.5194681,14.2371902 C31.1280716,14.2371902 30.0209195,15.3540566 30.0209195,16.7576612 L30.0209195,27.2564048 C30.0209195,28.6600093 31.1280716,29.7768758 32.5194681,29.7768758 C33.9108645,29.7768758 35.0180155,28.6600093 35.0180155,27.2564048 L35.0180155,16.7576612 C35.0180155,15.3540566 33.9108645,14.2371902 32.5194681,14.2371902 L32.5194681,14.2371902 Z" id="Shape" fill="#A4C639"></path>
                                        <path d="M13.7860152,26.2180794 C12.3946188,26.2180794 11.2874673,27.3349458 11.2874673,28.7385503 L11.2874673,39.2373013 C11.2874673,40.6409095 12.3946188,41.7577564 13.7860152,41.7577564 C15.1774116,41.7577564 16.2845637,40.6409095 16.2845637,39.2373013 L16.2845637,28.7385503 C16.2845637,27.3349458 15.1774116,26.2180794 13.7860152,26.2180794 L13.7860152,26.2180794 Z M22.1119587,26.2180794 C20.7205623,26.2180794 19.61341,27.3349458 19.61341,28.7385503 L19.61341,39.2373013 C19.61341,40.6409095 20.7205623,41.7577564 22.1119587,41.7577564 C23.503355,41.7577564 24.610506,40.6409095 24.610506,39.2373013 L24.610506,28.7385503 C24.610506,27.3349458 23.503355,26.2180794 22.1119587,26.2180794 L22.1119587,26.2180794 Z" id="Shape" fill="#A4C639"></path>
                                        <path d="M11.0311079,1.0095445 C10.9720439,1.01015382 10.917007,1.02552592 10.8627525,1.05586185 C10.684587,1.15548797 10.6259981,1.362018 10.7250071,1.54220197 L12.4850863,4.74972278 C9.0987741,6.52717478 6.81150045,9.90504626 6.80691624,13.7817308 L29.0910587,13.7817308 C29.0864803,9.90504626 26.799201,6.52717478 23.4128876,4.74972278 L25.1729686,1.54220197 C25.2719771,1.362018 25.2133876,1.15548797 25.0352227,1.05586185 C24.9809678,1.02552592 24.9259313,1.01011239 24.8668671,1.0095445 C24.7404261,1.00831366 24.6205752,1.07204435 24.5531126,1.19481634 L22.770075,4.43707609 C21.3114793,3.78441418 19.6754387,3.41808094 17.9489876,3.41808094 C16.222535,3.41808094 14.5864932,3.78441418 13.1278989,4.43707609 L11.3448612,1.19481634 C11.277399,1.07204435 11.1575472,1.00832097 11.0311079,1.0095445 L11.0311079,1.0095445 Z M6.80691624,14.6694917 L6.80691624,30.9618442 C6.80691624,32.4672403 8.00830087,33.6791653 9.50060368,33.6791653 L26.3973708,33.6791653 C27.8896748,33.6791653 29.0910587,32.4672403 29.0910587,30.9618442 L29.0910587,14.6694917 L6.80691624,14.6694917 L6.80691624,14.6694917 Z" id="Shape" fill="#A4C639"></path>
                                        <path d="M12.8064624,7.79127035 C12.297757,7.79127035 11.8766809,8.21604046 11.8766809,8.72921045 C11.8766809,9.24237921 12.297757,9.66714931 12.8064624,9.66714931 C13.3151678,9.66714931 13.7362434,9.24237921 13.7362434,8.72921045 C13.7362434,8.21604046 13.3151678,7.79127035 12.8064624,7.79127035 L12.8064624,7.79127035 Z M23.091451,7.79127035 C22.5827456,7.79127035 22.1616689,8.21604046 22.1616689,8.72921045 C22.1616689,9.24237921 22.5827456,9.66714931 23.091451,9.66714931 C23.6001552,9.66714931 24.0212319,9.24237921 24.0212319,8.72921045 C24.0212319,8.21604046 23.6001552,7.79127035 23.091451,7.79127035 L23.091451,7.79127035 Z" id="Shape" fill="#FFFFFF"></path>
                                    </g>
                                </g>
                                <rect id="Rectangle-5" fill-opacity="0" fill="#EFEFEF" x="0" y="0" width="48" height="48"></rect>
                            </g>
                        </g>
                        <text id="COMING-SOON" font-family="WorkSans-Regular, Work Sans" font-size="10.8000002" font-weight="normal" fill="#939898">
                            <tspan x="33.3283993" y="66">COMING SOON</tspan>
                        </text>
                    </g>
                    <rect id="Rectangle-8" fill="#EFEFEF" x="110" y="0" width="1" height="84"></rect>
                    <rect id="Rectangle-11" fill-opacity="0" fill="#EFEFEF" x="0" y="0" width="269" height="84"></rect>
                </g>
            </g>
        </g>
    </g>
</svg>