<?xml version="1.0" encoding="UTF-8"?>
<svg width="269px" height="82px" viewBox="0 0 269 82" version="1.1" xmlns="http://www.w3.org/2000/svg" xmlns:xlink="http://www.w3.org/1999/xlink">
    <!-- Generator: Sketch 43.2 (39069) - http://www.bohemiancoding.com/sketch -->
    <title>Rectangle 11</title>
    <desc>Created with Sketch.</desc>
    <defs>
        <linearGradient x1="49.9976632%" y1="0.70578635%" x2="49.9976632%" y2="96.9898739%" id="linearGradient-1">
            <stop stop-color="#86BBE5" offset="0%"></stop>
            <stop stop-color="#1072BA" offset="100%"></stop>
        </linearGradient>
        <linearGradient x1="-375.72997%" y1="-167.518958%" x2="-375.72997%" y2="-163.85006%" id="linearGradient-2">
            <stop stop-color="#6EBF61" offset="0%"></stop>
            <stop stop-color="#50A557" offset="23.14%"></stop>
            <stop stop-color="#2A904F" offset="52.16%"></stop>
            <stop stop-color="#50A557" offset="81.18%"></stop>
            <stop stop-color="#6EBF63" offset="100%"></stop>
        </linearGradient>
    </defs>
    <g id="Page-1" stroke="none" stroke-width="1" fill="none" fill-rule="evenodd">
        <g id="Desktop---Sales" transform="translate(-671.000000, -565.000000)">
            <g id="platforms" transform="translate(0.000000, 492.000000)">
                <g id="Group-12" transform="translate(671.000000, 72.000000)">
                    <g id="Group-9" transform="translate(0.000000, 6.000000)">
                        <path d="M22.6501995,60.2759999 L21.9049995,60.8807999 C21.6889984,60.4055975 21.431601,60.0690009 21.1327995,59.8709999 C20.833998,59.6729989 20.4254021,59.5739999 19.9069995,59.5739999 C19.3597967,59.5739999 18.929601,59.6873988 18.6163995,59.9141999 C18.3031979,60.141001 18.1465995,60.4307981 18.1465995,60.7835999 C18.1465995,61.0140011 18.2077989,61.2047992 18.3301995,61.3559999 C18.4526001,61.5072007 18.6559981,61.6385994 18.9403995,61.7501999 C19.2248009,61.8618005 19.618997,61.9607995 20.1229995,62.0471999 C21.0662042,62.2056007 21.7339976,62.4431984 22.1263995,62.7599999 C22.5188015,63.0768015 22.7149995,63.5159971 22.7149995,64.0776 C22.7149995,64.480802 22.6016007,64.8353984 22.3747995,65.1414 C22.1479984,65.4474015 21.8258016,65.6849991 21.4081995,65.8542 C20.9905974,66.0234008 20.5082022,66.108 19.9609995,66.108 C19.2409959,66.108 18.627202,65.9676014 18.1195995,65.6868 C17.6119969,65.4059986 17.2250008,65.0316023 16.9585994,64.5636 L17.7037995,63.9588 C17.8982004,64.3836021 18.1843976,64.7129988 18.5623995,64.947 C18.9404014,65.1810012 19.4137966,65.298 19.9825995,65.298 C20.5442023,65.298 20.9905979,65.195401 21.3217995,64.9902 C21.6530012,64.784999 21.8185995,64.4952018 21.8185995,64.1208 C21.8185995,63.8039984 21.674601,63.5520009 21.3865995,63.3648 C21.0985981,63.177599 20.5874032,63.0192006 19.8529995,62.8895999 C18.9025947,62.7239991 18.2294014,62.4864015 17.8333995,62.1767999 C17.4373975,61.8671984 17.2393994,61.4352027 17.2393994,60.8807999 C17.2393994,60.499198 17.3473984,60.1464015 17.5633995,59.8223999 C17.7794005,59.4983983 18.0889974,59.2410008 18.4921995,59.0501999 C18.8954015,58.8593989 19.3633968,58.7639999 19.8961995,58.7639999 C21.1706059,58.7639999 22.0885967,59.2679948 22.6501995,60.2759999 Z M30.0481997,63.3432 C30.0481997,64.2576045 29.8088021,64.9469977 29.3299997,65.4114 C28.8511973,65.8758023 28.1582042,66.108 27.2509996,66.108 C26.3437951,66.108 25.650802,65.8740023 25.1719996,65.406 C24.6931972,64.9379976 24.4537996,64.2504045 24.4537996,63.3432 L24.4537996,58.8719999 L25.3177996,58.8719999 L25.3177996,63.1271999 C25.3177996,63.8760037 25.474398,64.4249982 25.7875996,64.7742 C26.1008012,65.1234017 26.5885963,65.298 27.2509996,65.298 C27.9134029,65.298 28.4011981,65.1234017 28.7143997,64.7742 C29.0276012,64.4249982 29.1841997,63.8760037 29.1841997,63.1271999 L29.1841997,58.8719999 L30.0481997,58.8719999 L30.0481997,63.3432 Z M36.5605998,59.4605999 C36.999802,59.8530019 37.2193998,60.3803966 37.2193998,61.0427999 C37.2193998,61.7052032 36.999802,62.232598 36.5605998,62.6249999 C36.1213976,63.0174019 35.5418034,63.2136 34.8217998,63.2136 L33.1693997,63.2136 L33.1693997,66 L32.3053997,66 L32.3053997,58.8719999 L34.8217998,58.8719999 C35.5418034,58.8719999 36.1213976,59.0681979 36.5605998,59.4605999 Z M35.9179998,62.0633999 C36.1808011,61.8365988 36.3121998,61.4964022 36.3121998,61.0427999 C36.3121998,60.5891976 36.1808011,60.249001 35.9179998,60.0221999 C35.6551985,59.7953988 35.2466025,59.6819999 34.6921998,59.6819999 L33.1693997,59.6819999 L33.1693997,62.4035999 L34.6921998,62.4035999 C35.2466025,62.4035999 35.6551985,62.2902011 35.9179998,62.0633999 Z M43.1485999,59.4605999 C43.5878021,59.8530019 43.8073999,60.3803966 43.8073999,61.0427999 C43.8073999,61.7052032 43.5878021,62.232598 43.1485999,62.6249999 C42.7093977,63.0174019 42.1298035,63.2136 41.4097999,63.2136 L39.7573998,63.2136 L39.7573998,66 L38.8933998,66 L38.8933998,58.8719999 L41.4097999,58.8719999 C42.1298035,58.8719999 42.7093977,59.0681979 43.1485999,59.4605999 Z M42.5059999,62.0633999 C42.7688012,61.8365988 42.9001999,61.4964022 42.9001999,61.0427999 C42.9001999,60.5891976 42.7688012,60.249001 42.5059999,60.0221999 C42.2431986,59.7953988 41.8346027,59.6819999 41.2801999,59.6819999 L39.7573998,59.6819999 L39.7573998,62.4035999 L41.2801999,62.4035999 C41.8346027,62.4035999 42.2431986,62.2902011 42.5059999,62.0633999 Z M50.1038,59.2121999 C50.6006025,59.5110014 50.9839987,59.9357971 51.254,60.4865999 C51.5240014,61.0374027 51.6590001,61.6871962 51.6590001,62.4359999 C51.6590001,63.1848037 51.5240014,63.8345972 51.254,64.3854 C50.9839987,64.9362027 50.6006025,65.3609985 50.1038,65.6598 C49.6069975,65.9586015 49.0238034,66.108 48.3542,66.108 C47.6845966,66.108 47.1014025,65.9586015 46.6046,65.6598 C46.1077975,65.3609985 45.7244013,64.9362027 45.4543999,64.3854 C45.1843986,63.8345972 45.0493999,63.1848037 45.0493999,62.4359999 C45.0493999,61.6871962 45.1843986,61.0374027 45.4543999,60.4865999 C45.7244013,59.9357971 46.1077975,59.5110014 46.6046,59.2121999 C47.1014025,58.9133984 47.6845966,58.7639999 48.3542,58.7639999 C49.0238034,58.7639999 49.6069975,58.9133984 50.1038,59.2121999 Z M46.5992,60.3353999 C46.1707978,60.8430024 45.9566,61.5431955 45.9566,62.4359999 C45.9566,63.3288044 46.1707978,64.0289974 46.5992,64.5366 C47.0276021,65.0442025 47.6125963,65.298 48.3542,65.298 C49.0958037,65.298 49.6807979,65.0442025 50.1092,64.5366 C50.5376022,64.0289974 50.7518,63.3288044 50.7518,62.4359999 C50.7518,61.5431955 50.5376022,60.8430024 50.1092,60.3353999 C49.6807979,59.8277974 49.0958037,59.5739999 48.3542,59.5739999 C47.6125963,59.5739999 47.0276021,59.8277974 46.5992,60.3353999 Z M56.1302001,63.0407999 L54.4238001,63.0407999 L54.4238001,66 L53.5598001,66 L53.5598001,58.8719999 L56.2598001,58.8719999 C56.9870038,58.8719999 57.570198,59.059198 58.0094002,59.4335999 C58.4486024,59.8080018 58.6682002,60.3155967 58.6682002,60.9563999 C58.6682002,61.4604024 58.5278016,61.8851982 58.2470002,62.2307999 C57.9661988,62.5764017 57.5810026,62.8139993 57.0914002,62.9435999 L59.1002002,66 L58.0742002,66 L56.1302001,63.0407999 Z M54.4238001,62.2307999 L56.2490001,62.2307999 C57.2570052,62.2307999 57.7610002,61.8060042 57.7610002,60.9563999 C57.7610002,60.1067956 57.2570052,59.6819999 56.2490001,59.6819999 L54.4238001,59.6819999 L54.4238001,62.2307999 Z M65.5370003,59.6819999 L63.0530003,59.6819999 L63.0530003,66 L62.1890002,66 L62.1890002,59.6819999 L59.7050002,59.6819999 L59.7050002,58.8719999 L65.5370003,58.8719999 L65.5370003,59.6819999 Z M72.2114004,65.19 L72.2114004,66 L67.0490003,66 L67.0490003,58.8719999 L72.0494004,58.8719999 L72.0494004,59.6819999 L67.9130003,59.6819999 L67.9130003,61.9823999 L71.1314004,61.9823999 L71.1314004,62.7923999 L67.9130003,62.7923999 L67.9130003,65.19 L72.2114004,65.19 Z M78.8750005,59.8007999 C79.5086037,60.420003 79.8254006,61.2983942 79.8254006,62.4359999 C79.8254006,63.5736056 79.5086037,64.4519969 78.8750005,65.0712 C78.2413974,65.6904031 77.3630061,66 76.2398005,66 L73.9394004,66 L73.9394004,58.8719999 L76.2398005,58.8719999 C77.3630061,58.8719999 78.2413974,59.1815968 78.8750005,59.8007999 Z M78.2324005,64.461 C78.6896028,63.9749975 78.9182005,63.3000043 78.9182005,62.4359999 C78.9182005,61.5719956 78.6896028,60.8970023 78.2324005,60.4109999 C77.7751982,59.9249975 77.1398046,59.6819999 76.3262005,59.6819999 L74.8034005,59.6819999 L74.8034005,65.19 L76.3262005,65.19 C77.1398046,65.19 77.7751982,64.9470024 78.2324005,64.461 Z" id="SUPPORTED-Copy" fill="#939898"></path>
                        <g id="Group-8">
                            <g id="Group-4">
                                <g id="Facebook-Messenger-(1)" transform="translate(6.000000, 6.000000)" fill-rule="nonzero" fill="#0084FF">
                                    <g id="Facebook_Messenger">
                                        <g id="Facebook_Messenger_1_">
                                            <path d="M17.8888889,0 C8.00911111,0 0,7.46188889 0,16.6666667 C0,21.9116667 2.60133333,26.5901111 6.66666667,29.6452222 L6.66666667,36 L12.7576667,32.6363333 C14.3832222,33.089 16.1053333,33.3333333 17.8888889,33.3333333 C27.7686667,33.3333333 35.7777778,25.8714444 35.7777778,16.6666667 C35.7777778,7.46188889 27.7686667,0 17.8888889,0 Z M19.6666667,22.4444444 L15.1111111,17.5555556 L6.22222222,22.4444444 L16,12 L20.6666667,16.8888889 L29.4444444,12 L19.6666667,22.4444444 Z" id="Shape"></path>
                                        </g>
                                    </g>
                                </g>
                                <rect id="Rectangle-5" fill-opacity="0" fill="#EFEFEF" x="0" y="0" width="48" height="48"></rect>
                            </g>
                            <g id="Group-5" transform="translate(48.000000, 0.000000)">
                                <g id="chrome" transform="translate(6.000000, 6.000000)" fill-rule="nonzero">
                                    <g id="Group">
                                        <path d="M17.9702889,0.00493258903 C17.9702889,0.00493258903 28.5623108,-0.468595957 34.1777167,10.1364704 L17.0690508,10.1364704 C17.0690508,10.1364704 13.8404402,10.0328861 11.0822558,13.934564 C10.2899587,15.5721835 9.43823933,17.259129 10.3939477,20.5836939 C9.0173315,18.2604446 3.08500688,7.97106386 3.08500688,7.97106386 C3.08500688,7.97106386 7.269326,0.424202656 17.9702889,0.00493258903 L17.9702889,0.00493258903 Z" id="Shape" fill="#EF3F36"></path>
                                        <path d="M33.6280605,26.9270035 C33.6280605,26.9270035 28.7405778,36.3038551 16.7174691,35.8401918 C18.2030261,33.2801781 25.2742778,21.0818855 25.2742778,21.0818855 C25.2742778,21.0818855 26.9826685,18.3492311 24.9672627,14.0184179 C23.9422283,12.5139784 22.8973866,10.9404824 19.5301237,10.1019423 C22.2387895,10.0772794 34.1480055,10.1019423 34.1480055,10.1019423 C34.1480055,10.1019423 38.6096286,17.4860281 33.6280605,26.9270035 L33.6280605,26.9270035 Z" id="Shape" fill="#FCD900"></path>
                                        <path d="M2.38679505,27.0009923 C2.38679505,27.0009923 -3.32269601,18.0976691 3.09491059,7.95626609 C4.57551582,10.5162798 11.6467675,22.7145725 11.6467675,22.7145725 C11.6467675,22.7145725 13.1719395,25.5557437 17.9405778,25.9799463 C19.7579092,25.8467665 21.6495186,25.7333169 24.0660247,23.2522246 C22.7339752,25.6001371 16.757084,35.8599222 16.757084,35.8599222 C16.757084,35.8599222 8.10123796,36.0177651 2.38679505,27.0009923 L2.38679505,27.0009923 Z" id="Shape" fill="#61BC5B"></path>
                                        <path d="M16.7125172,35.9289784 L19.1191196,25.9256879 C19.1191196,25.9256879 21.7634113,25.7185192 23.9818432,23.2966179 C22.605227,25.7086539 16.7125172,35.9289784 16.7125172,35.9289784 L16.7125172,35.9289784 Z" id="Shape" fill="#5AB055"></path>
                                        <path d="M9.90866575,18.0779387 C9.90866575,13.6682042 13.498762,10.0920771 17.9257222,10.0920771 C22.3526822,10.0920771 25.9427786,13.6682042 25.9427786,18.0779387 C25.9427786,22.4876733 22.3526822,26.0638004 17.9257222,26.0638004 C13.498762,26.0588678 9.90866575,22.4876733 9.90866575,18.0779387 L9.90866575,18.0779387 Z" id="Shape" fill="#FFFFFF"></path>
                                        <path d="M11.250619,18.0779387 C11.250619,14.4080926 14.2365887,11.4288088 17.9257222,11.4288088 C21.6099037,11.4288088 24.6008253,14.4031599 24.6008253,18.0779387 C24.6008253,21.747785 21.6148556,24.7270687 17.9257222,24.7270687 C14.2415405,24.7270687 11.250619,21.747785 11.250619,18.0779387 L11.250619,18.0779387 Z" id="Shape" fill="url(#linearGradient-1)"></path>
                                        <path d="M34.1430536,10.1068749 L24.2343879,13.0023047 C24.2343879,13.0023047 22.7389271,10.8171677 19.5251719,10.1068749 C22.3130675,10.0920771 34.1430536,10.1068749 34.1430536,10.1068749 L34.1430536,10.1068749 Z" id="Shape" fill="#EACA05"></path>
                                        <path d="M10.2008253,20.2186824 C8.80935351,17.8165115 3.08500688,7.97106386 3.08500688,7.97106386 L10.4236589,15.2022394 C10.4236589,15.2022394 9.67097662,16.7461398 9.95323247,18.9559397 L10.2008253,20.2186824 L10.2008253,20.2186824 Z" id="Shape" fill="#DF3A32"></path>
                                    </g>
                                </g>
                                <rect id="Rectangle-5" fill-opacity="0" fill="#EFEFEF" x="0" y="0" width="48" height="48"></rect>
                            </g>
                        </g>
                    </g>
                    <g id="Group-11" transform="translate(125.000000, 6.000000)">
                        <g id="Group-10">
                            <g id="Group-3">
                                <rect id="Rectangle-5" fill-opacity="0" fill="#EFEFEF" x="0" y="0" width="48" height="48"></rect>
                                <g id="Whatsapp" transform="translate(6.000000, 6.000000)" fill-rule="nonzero">
                                    <path d="M18.0992432,0.630486486 C8.39792432,0.630486486 0.506627027,8.52178378 0.506627027,18.2231027 C0.506627027,22.0705297 1.74775135,25.6386162 3.85754595,28.5347676 L1.66485405,35.0711027 L8.42886486,32.9099351 C11.2108865,34.7508973 14.5308649,35.8160108 18.1094595,35.8160108 C27.8107784,35.8160108 35.7020757,27.9244216 35.7020757,18.2233946 C35.7020757,8.52207568 27.8107784,0.630778378 18.1094595,0.630778378 L18.0992432,0.630778378 L18.0992432,0.630486486 Z" id="path3009" fill="url(#linearGradient-2)"></path>
                                    <path d="M13.1864108,9.56675676 C12.8451892,8.74975135 12.586573,8.71881081 12.0696324,8.69779459 C11.8936216,8.68757838 11.6974703,8.67736216 11.4800108,8.67736216 C10.8074919,8.67736216 10.1043243,8.87380541 9.68020541,9.30814054 C9.16326486,9.83558919 7.88069189,11.0662054 7.88069189,13.5899027 C7.88069189,16.1136 9.72165405,18.5544 9.96976216,18.8959135 C10.2283784,19.2368432 13.5588649,24.4908973 18.7300216,26.6322162 C22.7738919,28.3076757 23.9738595,28.1523892 24.8941946,27.9559459 C26.2386486,27.6663892 27.9246162,26.6730811 28.3487351,25.4736973 C28.7728541,24.2737297 28.7728541,23.249773 28.6485081,23.0326054 C28.5244541,22.8154378 28.1829405,22.6916757 27.666,22.4327676 C27.1490595,22.1741514 24.6355784,20.933027 24.1597946,20.7675243 C23.694227,20.5918054 23.2496757,20.6539784 22.8982378,21.1504865 C22.4017297,21.8434378 21.9157297,22.5468973 21.5225514,22.9707243 C21.2122703,23.3017297 20.7052541,23.3431784 20.281427,23.1671676 C19.7125297,22.9295676 18.1199676,22.3705946 16.1546595,20.6227459 C14.6341946,19.2680757 13.6000216,17.5824 13.3002486,17.0756757 C13.0001838,16.5587351 13.2693081,16.2583784 13.5069081,15.9793297 C13.7655243,15.6585405 14.0136324,15.4311568 14.2722486,15.1310919 C14.5308649,14.8313189 14.6756432,14.6760324 14.8411459,14.3243027 C15.0171568,13.9830811 14.8928108,13.6313514 14.7687568,13.3727351 C14.6447027,13.1141189 13.6105297,10.5904216 13.1864108,9.56675676 Z" id="path3011" fill="#FEFEFE"></path>
                                </g>
                            </g>
                            <g id="Group-6" transform="translate(96.000000, 0.000000)">
                                <g id="apple" transform="translate(8.000000, 4.000000)" fill-rule="nonzero" fill="#939898">
                                    <path d="M26.898966,21.2102785 C26.9545503,27.2520185 32.1502311,29.2625573 32.2077922,29.2882193 C32.1638603,29.4300136 31.3776091,32.153434 29.4704608,34.9665328 C27.821815,37.3985992 26.110738,39.8217566 23.4152862,39.8719422 C20.7667353,39.921199 19.9150784,38.2867083 16.8870349,38.2867083 C13.859906,38.2867083 12.9136764,39.8217525 10.406528,39.921199 C7.8047332,40.0205727 5.82349382,37.2912413 4.1611471,34.8680841 C0.764342891,29.9114342 -1.83151836,20.8617559 1.65406715,14.7530756 C3.38563167,11.71948 6.48006836,9.79848071 9.83880271,9.74922027 C12.3936987,9.70003119 14.8052168,11.484087 16.367057,11.484087 C17.927907,11.484087 20.8584148,9.33860354 23.9391495,9.65369491 C25.2288503,9.70787371 28.8490616,10.1795159 31.1736988,13.6138907 C30.9863903,13.7310899 26.8540457,16.1591625 26.898966,21.2102842 M21.9213206,6.37443851 C23.3026309,4.6868358 24.2323324,2.33753675 23.9786998,0 C21.9876448,0.0807682825 19.5800119,1.33914805 18.1518725,3.0258223 C16.8719853,4.5194509 15.7510918,6.91009873 16.0535283,9.20137057 C18.2727929,9.37467217 20.5399424,8.06311444 21.9213206,6.37444126" id="Shape"></path>
                                </g>
                                <rect id="Rectangle-5" fill-opacity="0" fill="#EFEFEF" x="0" y="0" width="48" height="48"></rect>
                            </g>
                            <g id="Group-7" transform="translate(48.000000, 0.000000)">
                                <g id="android-icon" transform="translate(6.000000, 3.000000)" fill-rule="nonzero">
                                    <g id="Group">
                                        <path d="M11.0234554,0.121782452 C10.8259677,0.123683551 10.6209732,0.171744796 10.4342112,0.276176063 C9.84112248,0.60781547 9.62359864,1.37666743 9.95210239,1.97450335 L11.2912936,4.41391802 C8.06486955,6.42776071 5.92687631,9.86746544 5.92687631,13.7933104 C5.92687631,13.8097903 5.926831,13.834546 5.92687631,13.8589276 C5.92689226,13.8675313 5.9267967,13.8724351 5.92687631,13.8820856 C5.92688126,13.8949156 5.92687631,13.9136512 5.92687631,13.9168246 L5.92687631,14.5228181 C5.30721555,13.8035983 4.39632193,13.3494294 3.37858684,13.3494294 C1.51404947,13.3494294 0,14.8767638 0,16.7576612 L0,27.2564048 C0,29.1373022 1.51404947,30.6646365 3.37858684,30.6646365 C4.39632193,30.6646365 5.30721555,30.2104676 5.92687631,29.4912478 L5.92687631,30.9618442 C5.92687631,32.9445332 7.53515952,34.5669275 9.50060368,34.5669275 L10.4074274,34.5669275 L10.4074274,39.2373257 C10.4074274,41.1182316 11.921478,42.6455574 13.7860152,42.6455574 C15.650553,42.6455574 17.1646031,41.1182316 17.1646031,39.2373257 L17.1646031,34.5669275 L18.7333708,34.5669275 L18.7333708,39.2373257 C18.7333708,41.1182316 20.2474208,42.6455574 22.1119587,42.6455574 C23.9764953,42.6455574 25.4905478,41.1182316 25.4905478,39.2373257 L25.4905478,34.5669275 L26.3973708,34.5669275 C28.362815,34.5669275 29.9710981,32.9445332 29.9710981,30.9618442 L29.9710981,29.4912478 C30.5907608,30.2104676 31.5016526,30.6646365 32.5193884,30.6646365 C34.3839261,30.6646365 35.8979763,29.1373022 35.8979763,27.2564048 L35.8979763,16.7576612 C35.8979763,14.8767638 34.3839261,13.3494294 32.5193884,13.3494294 C31.5016526,13.3494294 30.5907608,13.8035983 29.9710981,14.5228181 L29.9710981,13.9284042 L29.9710981,13.916827 C29.9711766,13.8982486 29.9711187,13.8797714 29.9710981,13.8820893 C29.9713397,13.845091 29.9710981,13.8156106 29.9710981,13.7933129 C29.9710981,9.8681552 27.8283371,6.43176886 24.6028542,4.41777993 L25.9458729,1.9744997 C26.2743765,1.37666377 26.0568532,0.607811814 25.463764,0.276172408 C25.2770013,0.171741139 25.0720079,0.123682332 24.8745202,0.121778796 C24.4365439,0.117550069 24.0066616,0.350395698 23.7802084,0.762511308 L22.3759703,3.32158188 C21.0028942,2.8104373 19.5089158,2.53031523 17.9489876,2.53031523 C16.390649,2.53031523 14.893926,2.80756981 13.5220035,3.31772118 L12.1177655,0.762511308 C11.8913137,0.35039448 11.4614305,0.117559818 11.0234554,0.121778796 L11.0234554,0.121782452 Z" id="Shape" fill="#FFFFFF"></path>
                                        <path d="M3.37866645,14.2371902 C1.98727031,14.2371902 0.880118287,15.3540566 0.880118287,16.7576612 L0.880118287,27.2564048 C0.880118287,28.6600093 1.98727031,29.7768758 3.37866645,29.7768758 C4.77006245,29.7768758 5.87721455,28.6600093 5.87721455,27.2564048 L5.87721455,16.7576612 C5.87721455,15.3540566 4.77006245,14.2371902 3.37866645,14.2371902 L3.37866645,14.2371902 Z M32.5194681,14.2371902 C31.1280716,14.2371902 30.0209195,15.3540566 30.0209195,16.7576612 L30.0209195,27.2564048 C30.0209195,28.6600093 31.1280716,29.7768758 32.5194681,29.7768758 C33.9108645,29.7768758 35.0180155,28.6600093 35.0180155,27.2564048 L35.0180155,16.7576612 C35.0180155,15.3540566 33.9108645,14.2371902 32.5194681,14.2371902 L32.5194681,14.2371902 Z" id="Shape" fill="#A4C639"></path>
                                        <path d="M13.7860152,26.2180794 C12.3946188,26.2180794 11.2874673,27.3349458 11.2874673,28.7385503 L11.2874673,39.2373013 C11.2874673,40.6409095 12.3946188,41.7577564 13.7860152,41.7577564 C15.1774116,41.7577564 16.2845637,40.6409095 16.2845637,39.2373013 L16.2845637,28.7385503 C16.2845637,27.3349458 15.1774116,26.2180794 13.7860152,26.2180794 L13.7860152,26.2180794 Z M22.1119587,26.2180794 C20.7205623,26.2180794 19.61341,27.3349458 19.61341,28.7385503 L19.61341,39.2373013 C19.61341,40.6409095 20.7205623,41.7577564 22.1119587,41.7577564 C23.503355,41.7577564 24.610506,40.6409095 24.610506,39.2373013 L24.610506,28.7385503 C24.610506,27.3349458 23.503355,26.2180794 22.1119587,26.2180794 L22.1119587,26.2180794 Z" id="Shape" fill="#A4C639"></path>
                                        <path d="M11.0311079,1.0095445 C10.9720439,1.01015382 10.917007,1.02552592 10.8627525,1.05586185 C10.684587,1.15548797 10.6259981,1.362018 10.7250071,1.54220197 L12.4850863,4.74972278 C9.0987741,6.52717478 6.81150045,9.90504626 6.80691624,13.7817308 L29.0910587,13.7817308 C29.0864803,9.90504626 26.799201,6.52717478 23.4128876,4.74972278 L25.1729686,1.54220197 C25.2719771,1.362018 25.2133876,1.15548797 25.0352227,1.05586185 C24.9809678,1.02552592 24.9259313,1.01011239 24.8668671,1.0095445 C24.7404261,1.00831366 24.6205752,1.07204435 24.5531126,1.19481634 L22.770075,4.43707609 C21.3114793,3.78441418 19.6754387,3.41808094 17.9489876,3.41808094 C16.222535,3.41808094 14.5864932,3.78441418 13.1278989,4.43707609 L11.3448612,1.19481634 C11.277399,1.07204435 11.1575472,1.00832097 11.0311079,1.0095445 L11.0311079,1.0095445 Z M6.80691624,14.6694917 L6.80691624,30.9618442 C6.80691624,32.4672403 8.00830087,33.6791653 9.50060368,33.6791653 L26.3973708,33.6791653 C27.8896748,33.6791653 29.0910587,32.4672403 29.0910587,30.9618442 L29.0910587,14.6694917 L6.80691624,14.6694917 L6.80691624,14.6694917 Z" id="Shape" fill="#A4C639"></path>
                                        <path d="M12.8064624,7.79127035 C12.297757,7.79127035 11.8766809,8.21604046 11.8766809,8.72921045 C11.8766809,9.24237921 12.297757,9.66714931 12.8064624,9.66714931 C13.3151678,9.66714931 13.7362434,9.24237921 13.7362434,8.72921045 C13.7362434,8.21604046 13.3151678,7.79127035 12.8064624,7.79127035 L12.8064624,7.79127035 Z M23.091451,7.79127035 C22.5827456,7.79127035 22.1616689,8.21604046 22.1616689,8.72921045 C22.1616689,9.24237921 22.5827456,9.66714931 23.091451,9.66714931 C23.6001552,9.66714931 24.0212319,9.24237921 24.0212319,8.72921045 C24.0212319,8.21604046 23.6001552,7.79127035 23.091451,7.79127035 L23.091451,7.79127035 Z" id="Shape" fill="#FFFFFF"></path>
                                    </g>
                                </g>
                                <rect id="Rectangle-5" fill-opacity="0" fill="#EFEFEF" x="0" y="0" width="48" height="48"></rect>
                            </g>
                        </g>
                        <path d="M39.1387994,65.595 C38.6275968,65.9370017 38.0372027,66.108 37.3675994,66.108 C36.697996,66.108 36.1148018,65.9586015 35.6179993,65.6598 C35.1211969,65.3609985 34.7378007,64.9362027 34.4677993,64.3854 C34.197798,63.8345972 34.0627993,63.1848037 34.0627993,62.4359999 C34.0627993,61.6943962 34.197798,61.0464027 34.4677993,60.4919999 C34.7378007,59.9375971 35.1211969,59.5110014 35.6179993,59.2121999 C36.1148018,58.9133984 36.6907961,58.7639999 37.3459994,58.7639999 C38.0300028,58.7639999 38.6041971,58.9043985 39.0685994,59.1851999 C39.5330017,59.4660013 39.8803983,59.8799972 40.1107994,60.4271999 L39.2575994,60.8267999 C39.0991986,60.4091978 38.8688009,60.0960009 38.5663994,59.8871999 C38.2639979,59.6783988 37.8788017,59.5739999 37.4107994,59.5739999 C36.9211969,59.5739999 36.4928012,59.6873988 36.1255994,59.9141999 C35.7583975,60.141001 35.4740004,60.4703977 35.2723993,60.9023999 C35.0707983,61.3344021 34.9699993,61.845597 34.9699993,62.4359999 C34.9699993,63.3288044 35.1841972,64.0289974 35.6125993,64.5366 C36.0410015,65.0442025 36.6259957,65.298 37.3675994,65.298 C37.8500018,65.298 38.2675976,65.1756012 38.6203994,64.9308 C38.9732012,64.6859988 39.2251987,64.3260023 39.3763994,63.8508 L40.2403994,64.1748 C40.0171983,64.779603 39.650002,65.2529983 39.1387994,65.595 Z M46.5259995,59.2121999 C47.022802,59.5110014 47.4061982,59.9357971 47.6761996,60.4865999 C47.9462009,61.0374027 48.0811996,61.6871962 48.0811996,62.4359999 C48.0811996,63.1848037 47.9462009,63.8345972 47.6761996,64.3854 C47.4061982,64.9362027 47.022802,65.3609985 46.5259995,65.6598 C46.029197,65.9586015 45.4460029,66.108 44.7763995,66.108 C44.1067962,66.108 43.523602,65.9586015 43.0267995,65.6598 C42.529997,65.3609985 42.1466008,64.9362027 41.8765995,64.3854 C41.6065981,63.8345972 41.4715995,63.1848037 41.4715995,62.4359999 C41.4715995,61.6871962 41.6065981,61.0374027 41.8765995,60.4865999 C42.1466008,59.9357971 42.529997,59.5110014 43.0267995,59.2121999 C43.523602,58.9133984 44.1067962,58.7639999 44.7763995,58.7639999 C45.4460029,58.7639999 46.029197,58.9133984 46.5259995,59.2121999 Z M43.0213995,60.3353999 C42.5929973,60.8430024 42.3787995,61.5431955 42.3787995,62.4359999 C42.3787995,63.3288044 42.5929973,64.0289974 43.0213995,64.5366 C43.4498016,65.0442025 44.0347958,65.298 44.7763995,65.298 C45.5180032,65.298 46.1029974,65.0442025 46.5313995,64.5366 C46.9598017,64.0289974 47.1739996,63.3288044 47.1739996,62.4359999 C47.1739996,61.5431955 46.9598017,60.8430024 46.5313995,60.3353999 C46.1029974,59.8277974 45.5180032,59.5739999 44.7763995,59.5739999 C44.0347958,59.5739999 43.4498016,59.8277974 43.0213995,60.3353999 Z M56.8723997,66 L56.0515997,66 L56.0515997,61.5179999 L56.1487997,59.6387999 L56.1379997,59.6387999 L53.7943997,66 L53.0599997,66 L50.7163996,59.6387999 L50.7055996,59.6387999 L50.8027996,61.5179999 L50.8027996,66 L49.9819996,66 L49.9819996,58.8719999 L51.3103996,58.8719999 L52.8763997,63.2028 L53.4163997,64.9848 L53.4379997,64.9848 L53.9887997,63.2136 L55.5439997,58.8719999 L56.8723997,58.8719999 L56.8723997,66 Z M60.0691998,66 L59.2051998,66 L59.2051998,58.8719999 L60.0691998,58.8719999 L60.0691998,66 Z M67.9963999,66 L66.9271999,66 L63.9463998,61.2263999 L63.1903998,59.8223999 L63.1795998,59.8223999 L63.2227998,60.9671999 L63.2227998,66 L62.4019998,66 L62.4019998,58.8719999 L63.4711998,58.8719999 L66.4411999,63.624 L67.2079999,65.0496 L67.2187999,65.0496 L67.1755999,63.9048 L67.1755999,58.8719999 L67.9963999,58.8719999 L67.9963999,66 Z M76.1288001,62.4035999 L76.1288001,66 L75.4808001,66 L75.4484001,65.0388 C75.239599,65.3844017 74.9462019,65.6489991 74.5682,65.8326 C74.1901981,66.0162009 73.7348027,66.108 73.202,66.108 C72.5323967,66.108 71.9492025,65.9586015 71.4524,65.6598 C70.9555975,65.3609985 70.5722013,64.9362027 70.3022,64.3854 C70.0321986,63.8345972 69.8972,63.1848037 69.8972,62.4359999 C69.8972,61.6943962 70.0357986,61.0464027 70.313,60.4919999 C70.5902014,59.9375971 70.9789975,59.5110014 71.4794,59.2121999 C71.9798025,58.9133984 72.5611967,58.7639999 73.2236,58.7639999 C73.9292036,58.7639999 74.5105977,58.8971985 74.9678,59.1635999 C75.4250023,59.4300012 75.7939987,59.8403971 76.0748001,60.3947999 L75.2864,60.8267999 C75.1279993,60.4235979 74.8706018,60.114001 74.5142,59.8979999 C74.1577982,59.6819988 73.7276025,59.5739999 73.2236,59.5739999 C72.7411976,59.5739999 72.3182018,59.6891987 71.9546,59.9195999 C71.5909982,60.150001 71.308401,60.4793978 71.1068,60.9077999 C70.905199,61.3362021 70.8044,61.845597 70.8044,62.4359999 C70.8044,63.3432045 71.0131979,64.0469975 71.4308,64.5474 C71.8484021,65.0478025 72.4495961,65.298 73.2344,65.298 C73.8536031,65.298 74.3593981,65.1396016 74.7518,64.8228 C75.144202,64.5059984 75.3404001,64.0524029 75.3404001,63.462 L75.3404001,63.2136 L73.0724,63.2136 L73.0724,62.4035999 L76.1288001,62.4035999 Z M86.8748003,60.2759999 L86.1296002,60.8807999 C85.9135992,60.4055975 85.6562017,60.0690009 85.3574002,59.8709999 C85.0585987,59.6729989 84.6500028,59.5739999 84.1316002,59.5739999 C83.5843975,59.5739999 83.1542018,59.6873988 82.8410002,59.9141999 C82.5277986,60.141001 82.3712002,60.4307981 82.3712002,60.7835999 C82.3712002,61.0140011 82.4323996,61.2047992 82.5548002,61.3559999 C82.6772008,61.5072007 82.8805988,61.6385994 83.1650002,61.7501999 C83.4494016,61.8618005 83.8435977,61.9607995 84.3476002,62.0471999 C85.2908049,62.2056007 85.9585983,62.4431984 86.3510002,62.7599999 C86.7434022,63.0768015 86.9396003,63.5159971 86.9396003,64.0776 C86.9396003,64.480802 86.8262014,64.8353984 86.5994002,65.1414 C86.3725991,65.4474015 86.0504023,65.6849991 85.6328002,65.8542 C85.2151981,66.0234008 84.732803,66.108 84.1856002,66.108 C83.4655966,66.108 82.8518027,65.9676014 82.3442002,65.6868 C81.8365976,65.4059986 81.4496015,65.0316023 81.1832002,64.5636 L81.9284002,63.9588 C82.1228011,64.3836021 82.4089983,64.7129988 82.7870002,64.947 C83.1650021,65.1810012 83.6383974,65.298 84.2072002,65.298 C84.768803,65.298 85.2151986,65.195401 85.5464002,64.9902 C85.8776019,64.784999 86.0432002,64.4952018 86.0432002,64.1208 C86.0432002,63.8039984 85.8992017,63.5520009 85.6112002,63.3648 C85.3231988,63.177599 84.8120039,63.0192006 84.0776002,62.8895999 C83.1271954,62.7239991 82.4540022,62.4864015 82.0580002,62.1767999 C81.6619982,61.8671984 81.4640002,61.4352027 81.4640002,60.8807999 C81.4640002,60.499198 81.5719991,60.1464015 81.7880002,59.8223999 C82.0040012,59.4983983 82.3135982,59.2410008 82.7168002,59.0501999 C83.1200022,58.8593989 83.5879975,58.7639999 84.1208002,58.7639999 C85.3952066,58.7639999 86.3131974,59.2679948 86.8748003,60.2759999 Z M93.3764004,59.2121999 C93.8732029,59.5110014 94.256599,59.9357971 94.5266004,60.4865999 C94.7966017,61.0374027 94.9316004,61.6871962 94.9316004,62.4359999 C94.9316004,63.1848037 94.7966017,63.8345972 94.5266004,64.3854 C94.256599,64.9362027 93.8732029,65.3609985 93.3764004,65.6598 C92.8795979,65.9586015 92.2964037,66.108 91.6268003,66.108 C90.957197,66.108 90.3740028,65.9586015 89.8772003,65.6598 C89.3803978,65.3609985 88.9970016,64.9362027 88.7270003,64.3854 C88.4569989,63.8345972 88.3220003,63.1848037 88.3220003,62.4359999 C88.3220003,61.6871962 88.4569989,61.0374027 88.7270003,60.4865999 C88.9970016,59.9357971 89.3803978,59.5110014 89.8772003,59.2121999 C90.3740028,58.9133984 90.957197,58.7639999 91.6268003,58.7639999 C92.2964037,58.7639999 92.8795979,58.9133984 93.3764004,59.2121999 Z M89.8718003,60.3353999 C89.4433982,60.8430024 89.2292003,61.5431955 89.2292003,62.4359999 C89.2292003,63.3288044 89.4433982,64.0289974 89.8718003,64.5366 C90.3002025,65.0442025 90.8851966,65.298 91.6268003,65.298 C92.3684041,65.298 92.9533982,65.0442025 93.3818004,64.5366 C93.8102025,64.0289974 94.0244004,63.3288044 94.0244004,62.4359999 C94.0244004,61.5431955 93.8102025,60.8430024 93.3818004,60.3353999 C92.9533982,59.8277974 92.3684041,59.5739999 91.6268003,59.5739999 C90.8851966,59.5739999 90.3002025,59.8277974 89.8718003,60.3353999 Z M101.454801,59.2121999 C101.951603,59.5110014 102.334999,59.9357971 102.605001,60.4865999 C102.875002,61.0374027 103.010001,61.6871962 103.010001,62.4359999 C103.010001,63.1848037 102.875002,63.8345972 102.605001,64.3854 C102.334999,64.9362027 101.951603,65.3609985 101.454801,65.6598 C100.957998,65.9586015 100.374804,66.108 99.7052005,66.108 C99.0355971,66.108 98.4524029,65.9586015 97.9556004,65.6598 C97.458798,65.3609985 97.0754018,64.9362027 96.8054004,64.3854 C96.5353991,63.8345972 96.4004004,63.1848037 96.4004004,62.4359999 C96.4004004,61.6871962 96.5353991,61.0374027 96.8054004,60.4865999 C97.0754018,59.9357971 97.458798,59.5110014 97.9556004,59.2121999 C98.4524029,58.9133984 99.0355971,58.7639999 99.7052005,58.7639999 C100.374804,58.7639999 100.957998,58.9133984 101.454801,59.2121999 Z M97.9502004,60.3353999 C97.5217983,60.8430024 97.3076004,61.5431955 97.3076004,62.4359999 C97.3076004,63.3288044 97.5217983,64.0289974 97.9502004,64.5366 C98.3786026,65.0442025 98.9635968,65.298 99.7052005,65.298 C100.446804,65.298 101.031798,65.0442025 101.460201,64.5366 C101.888603,64.0289974 102.102801,63.3288044 102.102801,62.4359999 C102.102801,61.5431955 101.888603,60.8430024 101.460201,60.3353999 C101.031798,59.8277974 100.446804,59.5739999 99.7052005,59.5739999 C98.9635968,59.5739999 98.3786026,59.8277974 97.9502004,60.3353999 Z M110.505201,66 L109.436001,66 L106.455201,61.2263999 L105.699201,59.8223999 L105.688401,59.8223999 L105.731601,60.9671999 L105.731601,66 L104.910801,66 L104.910801,58.8719999 L105.980001,58.8719999 L108.950001,63.624 L109.716801,65.0496 L109.727601,65.0496 L109.684401,63.9048 L109.684401,58.8719999 L110.505201,58.8719999 L110.505201,66 Z" id="COMING-SOON-Copy" fill="#939898"></path>
                    </g>
                    <rect id="Rectangle-8" fill="#EFEFEF" x="110" y="1" width="1" height="82"></rect>
                    <rect id="Rectangle-11" fill-opacity="0" fill="#EFEFEF" x="0" y="1" width="269" height="82"></rect>
                </g>
            </g>
        </g>
    </g>
</svg>