<?xml version="1.0" encoding="UTF-8"?>
<svg width="462px" height="84px" viewBox="0 0 462 84" version="1.1" xmlns="http://www.w3.org/2000/svg" xmlns:xlink="http://www.w3.org/1999/xlink">
    <!-- Generator: Sketch 43.2 (39069) - http://www.bohemiancoding.com/sketch -->
    <title>Rectangle 12</title>
    <desc>Created with Sketch.</desc>
    <defs>
        <linearGradient x1="49.9976632%" y1="0.70578635%" x2="49.9976632%" y2="96.9898739%" id="linearGradient-1">
            <stop stop-color="#86BBE5" offset="0%"></stop>
            <stop stop-color="#1072BA" offset="100%"></stop>
        </linearGradient>
        <linearGradient x1="100.572432%" y1="-6.01489183%" x2="40.6503273%" y2="58.01193%" id="linearGradient-2">
            <stop stop-color="#EE2A7B" offset="29.15%"></stop>
            <stop stop-color="#CB2D82" offset="48.52%"></stop>
            <stop stop-color="#A7308A" offset="72.17%"></stop>
            <stop stop-color="#913290" offset="90.07%"></stop>
            <stop stop-color="#883293" offset="100%"></stop>
        </linearGradient>
        <linearGradient x1="65.8810343%" y1="78.3969965%" x2="-13.7731138%" y2="-13.4652822%" id="linearGradient-3">
            <stop stop-color="#883293" offset="0%"></stop>
            <stop stop-color="#913290" offset="11.22%"></stop>
            <stop stop-color="#A7308A" offset="31.45%"></stop>
            <stop stop-color="#CB2D82" offset="58.18%"></stop>
            <stop stop-color="#EE2A7B" offset="80.06%"></stop>
        </linearGradient>
    </defs>
    <g id="Page-1" stroke="none" stroke-width="1" fill="none" fill-rule="evenodd">
        <g id="Desktop---Support" transform="translate(-409.000000, -564.000000)">
            <g id="integrations" transform="translate(0.000000, 492.000000)">
                <g id="Group-17" transform="translate(409.000000, 72.000000)">
                    <g id="Group-16" transform="translate(222.000000, 6.000000)">
                        <g id="Group-8">
                            <g id="Group-4" transform="translate(144.000000, 0.000000)">
                                <g id="Facebook-Messenger-(1)" transform="translate(6.000000, 6.000000)" fill-rule="nonzero" fill="#0084FF">
                                    <g id="Facebook_Messenger">
                                        <g id="Facebook_Messenger_1_">
                                            <path d="M17.8888889,0 C8.00911111,0 0,7.46188889 0,16.6666667 C0,21.9116667 2.60133333,26.5901111 6.66666667,29.6452222 L6.66666667,36 L12.7576667,32.6363333 C14.3832222,33.089 16.1053333,33.3333333 17.8888889,33.3333333 C27.7686667,33.3333333 35.7777778,25.8714444 35.7777778,16.6666667 C35.7777778,7.46188889 27.7686667,0 17.8888889,0 Z M19.6666667,22.4444444 L15.1111111,17.5555556 L6.22222222,22.4444444 L16,12 L20.6666667,16.8888889 L29.4444444,12 L19.6666667,22.4444444 Z" id="Shape"></path>
                                        </g>
                                    </g>
                                </g>
                                <rect id="Rectangle-5" fill-opacity="0" fill="#EFEFEF" x="0" y="0" width="48" height="48"></rect>
                            </g>
                            <g id="Group-5" transform="translate(96.000000, 0.000000)">
                                <g id="chrome" transform="translate(6.000000, 6.000000)" fill-rule="nonzero">
                                    <g id="Group">
                                        <path d="M17.9702889,0.00493258903 C17.9702889,0.00493258903 28.5623108,-0.468595957 34.1777167,10.1364704 L17.0690508,10.1364704 C17.0690508,10.1364704 13.8404402,10.0328861 11.0822558,13.934564 C10.2899587,15.5721835 9.43823933,17.259129 10.3939477,20.5836939 C9.0173315,18.2604446 3.08500688,7.97106386 3.08500688,7.97106386 C3.08500688,7.97106386 7.269326,0.424202656 17.9702889,0.00493258903 L17.9702889,0.00493258903 Z" id="Shape" fill="#EF3F36"></path>
                                        <path d="M33.6280605,26.9270035 C33.6280605,26.9270035 28.7405778,36.3038551 16.7174691,35.8401918 C18.2030261,33.2801781 25.2742778,21.0818855 25.2742778,21.0818855 C25.2742778,21.0818855 26.9826685,18.3492311 24.9672627,14.0184179 C23.9422283,12.5139784 22.8973866,10.9404824 19.5301237,10.1019423 C22.2387895,10.0772794 34.1480055,10.1019423 34.1480055,10.1019423 C34.1480055,10.1019423 38.6096286,17.4860281 33.6280605,26.9270035 L33.6280605,26.9270035 Z" id="Shape" fill="#FCD900"></path>
                                        <path d="M2.38679505,27.0009923 C2.38679505,27.0009923 -3.32269601,18.0976691 3.09491059,7.95626609 C4.57551582,10.5162798 11.6467675,22.7145725 11.6467675,22.7145725 C11.6467675,22.7145725 13.1719395,25.5557437 17.9405778,25.9799463 C19.7579092,25.8467665 21.6495186,25.7333169 24.0660247,23.2522246 C22.7339752,25.6001371 16.757084,35.8599222 16.757084,35.8599222 C16.757084,35.8599222 8.10123796,36.0177651 2.38679505,27.0009923 L2.38679505,27.0009923 Z" id="Shape" fill="#61BC5B"></path>
                                        <path d="M16.7125172,35.9289784 L19.1191196,25.9256879 C19.1191196,25.9256879 21.7634113,25.7185192 23.9818432,23.2966179 C22.605227,25.7086539 16.7125172,35.9289784 16.7125172,35.9289784 L16.7125172,35.9289784 Z" id="Shape" fill="#5AB055"></path>
                                        <path d="M9.90866575,18.0779387 C9.90866575,13.6682042 13.498762,10.0920771 17.9257222,10.0920771 C22.3526822,10.0920771 25.9427786,13.6682042 25.9427786,18.0779387 C25.9427786,22.4876733 22.3526822,26.0638004 17.9257222,26.0638004 C13.498762,26.0588678 9.90866575,22.4876733 9.90866575,18.0779387 L9.90866575,18.0779387 Z" id="Shape" fill="#FFFFFF"></path>
                                        <path d="M11.250619,18.0779387 C11.250619,14.4080926 14.2365887,11.4288088 17.9257222,11.4288088 C21.6099037,11.4288088 24.6008253,14.4031599 24.6008253,18.0779387 C24.6008253,21.747785 21.6148556,24.7270687 17.9257222,24.7270687 C14.2415405,24.7270687 11.250619,21.747785 11.250619,18.0779387 L11.250619,18.0779387 Z" id="Shape" fill="url(#linearGradient-1)"></path>
                                        <path d="M34.1430536,10.1068749 L24.2343879,13.0023047 C24.2343879,13.0023047 22.7389271,10.8171677 19.5251719,10.1068749 C22.3130675,10.0920771 34.1430536,10.1068749 34.1430536,10.1068749 L34.1430536,10.1068749 Z" id="Shape" fill="#EACA05"></path>
                                        <path d="M10.2008253,20.2186824 C8.80935351,17.8165115 3.08500688,7.97106386 3.08500688,7.97106386 L10.4236589,15.2022394 C10.4236589,15.2022394 9.67097662,16.7461398 9.95323247,18.9559397 L10.2008253,20.2186824 L10.2008253,20.2186824 Z" id="Shape" fill="#DF3A32"></path>
                                    </g>
                                </g>
                                <rect id="Rectangle-5" fill-opacity="0" fill="#EFEFEF" x="0" y="0" width="48" height="48"></rect>
                            </g>
                            <g id="Group-3" transform="translate(192.000000, 0.000000)">
                                <rect id="Rectangle-11" fill-opacity="0" fill="#EFEFEF" x="0" y="0" width="48" height="48"></rect>
                                <g id="twitter" transform="translate(6.000000, 9.000000)" fill-rule="nonzero" fill="#55ACEE">
                                    <path d="M36,3.46331614 C34.6754308,4.0507407 33.2519697,4.44775596 31.7579282,4.62631406 C33.2829145,3.71219137 34.4539448,2.26476463 35.0054208,0.540151432 C33.5784045,1.3864589 31.9977176,2.00114122 30.3153736,2.33244816 C28.9680237,0.89700428 27.0485241,0 24.9242621,0 C20.8452101,0 17.5381982,3.30688028 17.5381982,7.38566882 C17.5381982,7.96453418 17.6036431,8.52825634 17.7295292,9.06880281 C11.5911335,8.76080325 6.14893011,5.82038845 2.50613409,1.35195874 C1.87038297,2.442796 1.50615605,3.71153298 1.50615605,5.06507188 C1.50615605,7.62743334 2.81018326,9.88811588 4.79196752,11.2125535 C3.58116976,11.1742346 2.44240096,10.8420059 1.44650499,10.2888182 C1.44597828,10.3196313 1.44597828,10.3505761 1.44597828,10.3816526 C1.44597828,13.9601887 3.99187973,16.9453748 7.3706573,17.6237902 C6.75083946,17.792604 6.09836497,17.8828048 5.42469001,17.8828048 C4.94879842,17.8828048 4.48607483,17.836585 4.03520245,17.7503347 C4.97500275,20.6846923 7.70262262,22.8200154 10.934577,22.8796664 C8.40684736,24.8605289 5.22216613,26.0413037 1.76187863,26.0413037 C1.1657632,26.0413037 0.577811917,26.0064084 0,25.9381981 C3.2685614,28.0337539 7.15088336,29.2564029 11.3218479,29.2564029 C24.9070119,29.2564029 32.3358718,18.0021068 32.3358718,8.24211565 C32.3358718,7.92186986 32.3287611,7.6033359 32.3145397,7.28664545 C33.7574893,6.24531987 35.0097663,4.94445298 36,3.46331614" id="Shape"></path>
                                </g>
                            </g>
                            <g id="Group-6" transform="translate(48.000000, 0.000000)">
                                <g id="apple" transform="translate(8.000000, 4.000000)" fill-rule="nonzero" fill="#939898">
                                    <path d="M26.898966,21.2102785 C26.9545503,27.2520185 32.1502311,29.2625573 32.2077922,29.2882193 C32.1638603,29.4300136 31.3776091,32.153434 29.4704608,34.9665328 C27.821815,37.3985992 26.110738,39.8217566 23.4152862,39.8719422 C20.7667353,39.921199 19.9150784,38.2867083 16.8870349,38.2867083 C13.859906,38.2867083 12.9136764,39.8217525 10.406528,39.921199 C7.8047332,40.0205727 5.82349382,37.2912413 4.1611471,34.8680841 C0.764342891,29.9114342 -1.83151836,20.8617559 1.65406715,14.7530756 C3.38563167,11.71948 6.48006836,9.79848071 9.83880271,9.74922027 C12.3936987,9.70003119 14.8052168,11.484087 16.367057,11.484087 C17.927907,11.484087 20.8584148,9.33860354 23.9391495,9.65369491 C25.2288503,9.70787371 28.8490616,10.1795159 31.1736988,13.6138907 C30.9863903,13.7310899 26.8540457,16.1591625 26.898966,21.2102842 M21.9213206,6.37443851 C23.3026309,4.6868358 24.2323324,2.33753675 23.9786998,0 C21.9876448,0.0807682825 19.5800119,1.33914805 18.1518725,3.0258223 C16.8719853,4.5194509 15.7510918,6.91009873 16.0535283,9.20137057 C18.2727929,9.37467217 20.5399424,8.06311444 21.9213206,6.37444126" id="Shape"></path>
                                </g>
                                <rect id="Rectangle-5" fill-opacity="0" fill="#EFEFEF" x="0" y="0" width="48" height="48"></rect>
                            </g>
                            <g id="Group-7">
                                <g id="android-icon" transform="translate(6.000000, 3.000000)" fill-rule="nonzero">
                                    <g id="Group">
                                        <path d="M11.0234554,0.121782452 C10.8259677,0.123683551 10.6209732,0.171744796 10.4342112,0.276176063 C9.84112248,0.60781547 9.62359864,1.37666743 9.95210239,1.97450335 L11.2912936,4.41391802 C8.06486955,6.42776071 5.92687631,9.86746544 5.92687631,13.7933104 C5.92687631,13.8097903 5.926831,13.834546 5.92687631,13.8589276 C5.92689226,13.8675313 5.9267967,13.8724351 5.92687631,13.8820856 C5.92688126,13.8949156 5.92687631,13.9136512 5.92687631,13.9168246 L5.92687631,14.5228181 C5.30721555,13.8035983 4.39632193,13.3494294 3.37858684,13.3494294 C1.51404947,13.3494294 0,14.8767638 0,16.7576612 L0,27.2564048 C0,29.1373022 1.51404947,30.6646365 3.37858684,30.6646365 C4.39632193,30.6646365 5.30721555,30.2104676 5.92687631,29.4912478 L5.92687631,30.9618442 C5.92687631,32.9445332 7.53515952,34.5669275 9.50060368,34.5669275 L10.4074274,34.5669275 L10.4074274,39.2373257 C10.4074274,41.1182316 11.921478,42.6455574 13.7860152,42.6455574 C15.650553,42.6455574 17.1646031,41.1182316 17.1646031,39.2373257 L17.1646031,34.5669275 L18.7333708,34.5669275 L18.7333708,39.2373257 C18.7333708,41.1182316 20.2474208,42.6455574 22.1119587,42.6455574 C23.9764953,42.6455574 25.4905478,41.1182316 25.4905478,39.2373257 L25.4905478,34.5669275 L26.3973708,34.5669275 C28.362815,34.5669275 29.9710981,32.9445332 29.9710981,30.9618442 L29.9710981,29.4912478 C30.5907608,30.2104676 31.5016526,30.6646365 32.5193884,30.6646365 C34.3839261,30.6646365 35.8979763,29.1373022 35.8979763,27.2564048 L35.8979763,16.7576612 C35.8979763,14.8767638 34.3839261,13.3494294 32.5193884,13.3494294 C31.5016526,13.3494294 30.5907608,13.8035983 29.9710981,14.5228181 L29.9710981,13.9284042 L29.9710981,13.916827 C29.9711766,13.8982486 29.9711187,13.8797714 29.9710981,13.8820893 C29.9713397,13.845091 29.9710981,13.8156106 29.9710981,13.7933129 C29.9710981,9.8681552 27.8283371,6.43176886 24.6028542,4.41777993 L25.9458729,1.9744997 C26.2743765,1.37666377 26.0568532,0.607811814 25.463764,0.276172408 C25.2770013,0.171741139 25.0720079,0.123682332 24.8745202,0.121778796 C24.4365439,0.117550069 24.0066616,0.350395698 23.7802084,0.762511308 L22.3759703,3.32158188 C21.0028942,2.8104373 19.5089158,2.53031523 17.9489876,2.53031523 C16.390649,2.53031523 14.893926,2.80756981 13.5220035,3.31772118 L12.1177655,0.762511308 C11.8913137,0.35039448 11.4614305,0.117559818 11.0234554,0.121778796 L11.0234554,0.121782452 Z" id="Shape" fill="#FFFFFF"></path>
                                        <path d="M3.37866645,14.2371902 C1.98727031,14.2371902 0.880118287,15.3540566 0.880118287,16.7576612 L0.880118287,27.2564048 C0.880118287,28.6600093 1.98727031,29.7768758 3.37866645,29.7768758 C4.77006245,29.7768758 5.87721455,28.6600093 5.87721455,27.2564048 L5.87721455,16.7576612 C5.87721455,15.3540566 4.77006245,14.2371902 3.37866645,14.2371902 L3.37866645,14.2371902 Z M32.5194681,14.2371902 C31.1280716,14.2371902 30.0209195,15.3540566 30.0209195,16.7576612 L30.0209195,27.2564048 C30.0209195,28.6600093 31.1280716,29.7768758 32.5194681,29.7768758 C33.9108645,29.7768758 35.0180155,28.6600093 35.0180155,27.2564048 L35.0180155,16.7576612 C35.0180155,15.3540566 33.9108645,14.2371902 32.5194681,14.2371902 L32.5194681,14.2371902 Z" id="Shape" fill="#A4C639"></path>
                                        <path d="M13.7860152,26.2180794 C12.3946188,26.2180794 11.2874673,27.3349458 11.2874673,28.7385503 L11.2874673,39.2373013 C11.2874673,40.6409095 12.3946188,41.7577564 13.7860152,41.7577564 C15.1774116,41.7577564 16.2845637,40.6409095 16.2845637,39.2373013 L16.2845637,28.7385503 C16.2845637,27.3349458 15.1774116,26.2180794 13.7860152,26.2180794 L13.7860152,26.2180794 Z M22.1119587,26.2180794 C20.7205623,26.2180794 19.61341,27.3349458 19.61341,28.7385503 L19.61341,39.2373013 C19.61341,40.6409095 20.7205623,41.7577564 22.1119587,41.7577564 C23.503355,41.7577564 24.610506,40.6409095 24.610506,39.2373013 L24.610506,28.7385503 C24.610506,27.3349458 23.503355,26.2180794 22.1119587,26.2180794 L22.1119587,26.2180794 Z" id="Shape" fill="#A4C639"></path>
                                        <path d="M11.0311079,1.0095445 C10.9720439,1.01015382 10.917007,1.02552592 10.8627525,1.05586185 C10.684587,1.15548797 10.6259981,1.362018 10.7250071,1.54220197 L12.4850863,4.74972278 C9.0987741,6.52717478 6.81150045,9.90504626 6.80691624,13.7817308 L29.0910587,13.7817308 C29.0864803,9.90504626 26.799201,6.52717478 23.4128876,4.74972278 L25.1729686,1.54220197 C25.2719771,1.362018 25.2133876,1.15548797 25.0352227,1.05586185 C24.9809678,1.02552592 24.9259313,1.01011239 24.8668671,1.0095445 C24.7404261,1.00831366 24.6205752,1.07204435 24.5531126,1.19481634 L22.770075,4.43707609 C21.3114793,3.78441418 19.6754387,3.41808094 17.9489876,3.41808094 C16.222535,3.41808094 14.5864932,3.78441418 13.1278989,4.43707609 L11.3448612,1.19481634 C11.277399,1.07204435 11.1575472,1.00832097 11.0311079,1.0095445 L11.0311079,1.0095445 Z M6.80691624,14.6694917 L6.80691624,30.9618442 C6.80691624,32.4672403 8.00830087,33.6791653 9.50060368,33.6791653 L26.3973708,33.6791653 C27.8896748,33.6791653 29.0910587,32.4672403 29.0910587,30.9618442 L29.0910587,14.6694917 L6.80691624,14.6694917 L6.80691624,14.6694917 Z" id="Shape" fill="#A4C639"></path>
                                        <path d="M12.8064624,7.79127035 C12.297757,7.79127035 11.8766809,8.21604046 11.8766809,8.72921045 C11.8766809,9.24237921 12.297757,9.66714931 12.8064624,9.66714931 C13.3151678,9.66714931 13.7362434,9.24237921 13.7362434,8.72921045 C13.7362434,8.21604046 13.3151678,7.79127035 12.8064624,7.79127035 L12.8064624,7.79127035 Z M23.091451,7.79127035 C22.5827456,7.79127035 22.1616689,8.21604046 22.1616689,8.72921045 C22.1616689,9.24237921 22.5827456,9.66714931 23.091451,9.66714931 C23.6001552,9.66714931 24.0212319,9.24237921 24.0212319,8.72921045 C24.0212319,8.21604046 23.6001552,7.79127035 23.091451,7.79127035 L23.091451,7.79127035 Z" id="Shape" fill="#FFFFFF"></path>
                                    </g>
                                </g>
                                <rect id="Rectangle-5" fill-opacity="0" fill="#EFEFEF" x="0" y="0" width="48" height="48"></rect>
                            </g>
                        </g>
                        <text id="PLATFORMS" font-family="WorkSans-Regular, Work Sans" font-size="10.8000002" font-weight="normal" fill="#939898">
                            <tspan x="88.2047994" y="66">PLATFORMS</tspan>
                        </text>
                    </g>
                    <rect id="Rectangle-8" fill="#EFEFEF" x="207" y="0" width="1" height="84"></rect>
                    <g id="Group-15" transform="translate(0.000000, 6.000000)">
                        <text id="SUPPORT-DESKS" font-family="WorkSans-Regular, Work Sans" font-size="10.8000002" font-weight="normal" fill="#939898">
                            <tspan x="52.3927992" y="66">SUPPORT DESKS</tspan>
                        </text>
                        <g id="Group-14">
                            <g id="Group-9" transform="translate(144.000000, 0.000000)">
                                <rect id="Rectangle-13" fill-opacity="0" fill="#EFEFEF" x="0" y="0" width="48" height="48"></rect>
                                <g id="slack" transform="translate(6.000000, 6.000000)" fill-rule="nonzero">
                                    <g id="Group">
                                        <path d="M23.338623,2.22727868 C22.7915409,0.543245902 20.9829836,-0.378295082 19.2992459,0.169081968 C17.6152132,0.716163934 16.6936721,2.52472132 17.2410491,4.20845902 L25.5304918,29.7129836 C26.099705,31.2860656 27.799082,32.1701311 29.430295,31.7006557 C31.1317377,31.2108197 32.1689509,29.4037377 31.626,27.7326886 C31.6053443,27.6689509 23.338623,2.22727868 23.338623,2.22727868" id="Shape" fill="#DFA22F"></path>
                                        <path d="M10.4942951,6.40062295 C9.94691803,4.71688525 8.13836066,3.79534427 6.45462295,4.34242623 C4.77059016,4.8895082 3.84904918,6.69806557 4.39642623,8.38209836 L12.6858689,33.886623 C13.255082,35.459705 14.9544591,36.3437705 16.5856721,35.874 C18.2871148,35.3844591 19.3243279,33.577377 18.781377,31.9060327 C18.7607213,31.8425902 10.4942951,6.40062295 10.4942951,6.40062295" id="Shape" fill="#3CB187"></path>
                                        <path d="M33.7727213,23.3501311 C35.4567541,22.8030491 36.378,20.9944918 35.830918,19.3104591 C35.2838361,17.6267213 33.4752787,16.7051803 31.7915409,17.2522623 L6.28701639,25.542 C4.71393443,26.110918 3.82986886,27.810295 4.29934427,29.4415082 C4.78918032,31.1429509 6.5962623,32.1801639 8.26731148,31.6372132 C8.33104918,31.6165573 33.7727213,23.3501311 33.7727213,23.3501311" id="Shape" fill="#CE1E5B"></path>
                                        <path d="M11.602623,30.5536721 C13.2627541,30.0142623 15.4023934,29.3190491 17.6984262,28.573082 C17.1590164,26.9129509 16.4638032,24.7730164 15.7175409,22.4766886 L9.62144262,24.4581639 L11.602623,30.5536721" id="Shape" fill="#392538"></path>
                                        <path d="M24.4472459,26.3800327 C26.7518361,25.6314098 28.8938361,24.9353114 30.5430491,24.3994427 C30.0036393,22.7393114 29.3081311,20.5987868 28.5618689,18.3018689 L22.4657705,20.2833443 L24.4472459,26.3800327" id="Shape" fill="#BB242A"></path>
                                        <path d="M29.599377,10.5055082 C31.2831148,9.95842623 32.2046557,8.14986886 31.6575738,6.46583607 C31.1104918,4.78209836 29.3019344,3.86055738 27.6179016,4.40763934 L2.11337705,12.697377 C0.540295082,13.2662951 -0.343770491,14.9656721 0.126,16.5968852 C0.615540984,18.2983279 2.42262295,19.3355409 4.09396721,18.7925902 C4.15740984,18.7719344 29.599377,10.5055082 29.599377,10.5055082" id="Shape" fill="#72C5CD"></path>
                                        <path d="M7.42809836,17.7093443 C9.0882295,17.1699344 11.228459,16.4744262 13.5247869,15.7284591 C12.7761639,13.4235738 12.0800656,11.2815738 11.5441967,9.63206557 L5.44662295,11.6138361 L7.42809836,17.7093443" id="Shape" fill="#248C73"></path>
                                        <path d="M20.2724262,13.536 C22.5776066,12.787082 24.7199016,12.0909836 26.3694098,11.5548197 C25.6204918,9.24963934 24.9243934,7.10704918 24.3882295,5.45724591 L18.2909509,7.43901639 L20.2724262,13.536" id="Shape" fill="#62803A"></path>
                                    </g>
                                </g>
                            </g>
                            <g id="Group-11" transform="translate(48.000000, 0.000000)">
                                <rect id="Rectangle-13-Copy-2" fill-opacity="0" fill="#EFEFEF" x="0" y="0" width="48" height="48"></rect>
                                <g id="intercom" transform="translate(6.000000, 6.000000)" fill-rule="nonzero" fill="#1F8DED">
                                    <path d="M31.49553,1.98989011e-05 L4.79216239,0 C2.33417631,-1.81978022e-06 0.341601626,1.99252907 0.34160222,4.45054379 L0.341608431,31.1538254 C0.341609024,33.6118413 2.33418446,35.6043749 4.7921707,35.6043749 L31.4955391,35.6043956 C33.9535248,35.6043986 35.9460976,33.611865 35.9460976,31.1538522 L35.9460915,4.45057058 C35.9460915,1.99255565 33.9535157,2.17582418e-05 31.49553,1.98989011e-05 Z M22.8911133,6.52745065 C22.8911133,5.8720377 23.4225135,5.34063822 24.0779295,5.34063861 C24.7333439,5.34063936 25.2647457,5.8720396 25.2647457,6.52745219 L25.2647487,22.3826493 C25.2647487,23.0380623 24.733347,23.5694625 24.0779325,23.569461 C23.422518,23.569461 22.8911163,23.0380607 22.8911163,22.3826478 L22.8911133,6.52745065 Z M16.9570307,5.92682788 C16.9570307,5.27141532 17.4884325,4.74001584 18.1438469,4.74001619 C18.7992614,4.74001695 19.3306631,5.27141718 19.3306631,5.92682978 L19.3306676,23.1356119 C19.3306676,23.7910234 18.7992659,24.3224236 18.1438515,24.3224236 C17.488437,24.3224221 16.9570353,23.7910219 16.9570353,23.1356089 L16.9570307,5.92682788 Z M11.0229497,6.52746572 C11.0229497,5.87205316 11.5543515,5.34065368 12.2097659,5.34065404 C12.8651804,5.34065479 13.3965821,5.87205502 13.3965821,6.52746723 L13.3965851,22.3826402 C13.3965851,23.0380532 12.8651841,23.5694534 12.2097697,23.5694519 C11.5543552,23.5694519 11.0229535,23.0380516 11.0229527,22.3826387 L11.0229497,6.52746572 Z M5.08886869,8.90110266 C5.08886869,8.24568971 5.62027007,7.71429022 6.27568489,7.71429098 C6.93109935,7.71429098 7.46250108,8.24569121 7.46250108,8.90110416 L7.46250334,19.5751648 C7.46250409,20.2305777 6.93110235,20.7619765 6.2756875,20.7619765 C5.62027265,20.7619765 5.08887091,20.2305762 5.08887091,19.5751633 L5.08886869,8.90110266 Z M30.7844882,27.0037698 C30.6013667,27.1608139 26.2047015,30.8498991 18.143853,30.8498931 C10.0830045,30.8498871 5.68662757,27.1607958 5.50321552,27.0037516 C5.00571443,26.5772406 4.94805394,25.8279489 5.37456608,25.3301596 C5.80020856,24.8335308 6.54747393,24.7747132 7.04526516,25.1991959 C7.11509475,25.2574355 11.0409195,28.4762606 18.143853,28.4762667 C25.3360286,28.4762727 29.201295,25.2342722 29.2395419,25.2015305 C29.7361722,24.7750195 30.486626,24.8323899 30.913137,25.3301807 C31.3396509,25.8279701 31.2822805,26.5772618 30.7844882,27.0037698 Z M31.1988297,19.5751829 C31.1988297,20.2305958 30.6674295,20.7619946 30.0120135,20.7619946 C29.3566006,20.7619931 28.8251973,20.2305928 28.8251973,19.5751814 L28.8251943,8.90107097 C28.8251943,8.24565877 29.3565976,7.71425929 30.0120105,7.71426004 C30.6674265,7.71426004 31.1988267,8.24566027 31.1988267,8.90107323 L31.1988297,19.5751829 Z" id="Shape"></path>
                                </g>
                            </g>
                            <g id="Group-10" transform="translate(96.000000, 0.000000)">
                                <rect id="Rectangle-13-Copy" fill-opacity="0" fill="#EFEFEF" x="0" y="0" width="48" height="48"></rect>
                                <g id="smooch" opacity="0.900000036" transform="translate(4.000000, 8.000000)" fill-rule="nonzero">
                                    <g id="Group">
                                        <path d="M1.38842975,7.10743802 C4.26446281,0.958677686 11.5702479,-1.71900826 17.7520661,1.15702479 C23.9338843,4.03305785 26.5785124,11.3719008 23.7024793,17.5206612 C22.2479339,20.5950413 19.7024793,22.8099174 16.7603306,23.9008264 L18.5123967,28.7603306 C18.7768595,29.553719 18.3471074,30.446281 17.553719,30.7438017 C17.0578512,30.9090909 16.5289256,30.8429752 16.1322314,30.5785124 L16.1322314,30.5785124 L5.19008264,22.214876 C5.15702479,22.214876 5.15702479,22.1818182 5.12396694,22.1818182 L4.89256198,22.0165289 L4.89256198,22.0165289 C0.52892562,18.5454545 -1.09090909,12.3966942 1.38842975,7.10743802 Z" id="Shape" fill="url(#linearGradient-2)"></path>
                                        <path d="M39.2396694,12.1983471 C37.4876033,6.7107438 31.6363636,3.66942149 26.1157025,5.4214876 C25.553719,5.58677686 25.0247934,5.81818182 24.5289256,6.08264463 C26.1818182,9.78512397 26.2809917,14.1818182 24.4297521,18.1487603 C23.7024793,19.7024793 22.7107438,21.1239669 21.5206612,22.3140496 C22.3801653,23.2727273 23.4049587,24.0661157 24.5289256,24.6280992 L22.5123967,28.4958678 L22.5123967,28.4958678 C22.214876,29.1570248 22.446281,29.9173554 23.107438,30.2479339 C23.5041322,30.446281 23.9338843,30.446281 24.2975207,30.2479339 L24.2975207,30.2479339 L34.3801653,24.4628099 C34.4132231,24.4628099 34.4132231,24.4297521 34.446281,24.4297521 L34.677686,24.2975207 L34.677686,24.2975207 C38.7438017,21.8842975 40.7272727,16.892562 39.2396694,12.1983471 Z" id="Shape" fill="url(#linearGradient-3)"></path>
                                    </g>
                                </g>
                            </g>
                            <g id="Group-12">
                                <rect id="Rectangle-13-Copy-3" fill-opacity="0" fill="#EFEFEF" x="0" y="0" width="48" height="48"></rect>
                                <g id="hotline" transform="translate(8.000000, 8.000000)" fill-rule="nonzero">
                                    <polygon id="Shape" fill="#EF5A24" points="0 0 0 32 24 32 32 40 32 32 32 0"></polygon>
                                    <polygon id="Shape" fill="#FFFFFF" points="21.33 5.33 21.33 13.33 21.33 16 18.67 13.33 10.67 13.33 10.67 5.33 5.33 5.33 5.33 13.33 5.33 18.67 5.33 26.67 10.67 26.67 10.67 18.67 10.67 16 13.33 18.67 21.33 18.67 21.33 26.67 26.67 26.67 26.67 18.67 26.67 13.33 26.67 5.33"></polygon>
                                </g>
                            </g>
                        </g>
                    </g>
                    <rect id="Rectangle-12" fill-opacity="0" fill="#EFEFEF" x="0" y="0" width="462" height="84"></rect>
                </g>
            </g>
        </g>
    </g>
</svg>