<?xml version="1.0" encoding="UTF-8"?>
<svg width="36px" height="36px" viewBox="0 0 36 36" version="1.1" xmlns="http://www.w3.org/2000/svg" xmlns:xlink="http://www.w3.org/1999/xlink">
    <!-- Generator: Sketch 44 (41411) - http://www.bohemiancoding.com/sketch -->
    <title>Group 22</title>
    <desc>Created with Sketch.</desc>
    <defs>
        <rect id="path-1" x="0" y="0" width="36" height="36" rx="2"></rect>
    </defs>
    <g id="Page-1" stroke="none" stroke-width="1" fill="none" fill-rule="evenodd">
        <g id="Desktop---Sales" transform="translate(-490.000000, -1632.000000)">
            <g id="use-cases" transform="translate(160.000000, 1483.000000)">
                <g id="Group-13-Copy-9" transform="translate(330.000000, 143.000000)">
                    <g id="Group-22" transform="translate(0.000000, 6.000000)">
                        <g id="Rectangle-9">
                            <use fill-opacity="0.02" fill="#072F3E" fill-rule="evenodd" xlink:href="#path-1"></use>
                            <rect stroke-opacity="0.1" stroke="#072F3E" stroke-width="1" x="0.5" y="0.5" width="35" height="35" rx="2"></rect>
                        </g>
                        <g id="travel" transform="translate(8.000000, 9.000000)" fill-rule="nonzero" fill="#939898">
                            <path d="M14,3 L16,3 L16,17 L4,17 L4,3 L6,3 L6,2 C6,0.8954305 6.8954305,0 8,0 L12,0 C13.1045695,0 14,0.8954305 14,2 L14,3 Z M17,3 L18,3 C19.1045695,3 20,3.8954305 20,5 L20,15 C20,16.1045695 19.1045695,17 18,17 L17,17 L17,3 Z M3,3 L3,17 L2,17 C0.8954305,17 1.3527075e-16,16.1045695 0,15 L0,5 C0,3.9 0.9,3 2,3 L3,3 Z M8,2 L8,3 L12,3 L12,2 L8,2 Z" id="Shape"></path>
                        </g>
                    </g>
                </g>
            </g>
        </g>
    </g>
</svg>