<?xml version="1.0" encoding="UTF-8"?>
<svg width="36px" height="36px" viewBox="0 0 36 36" version="1.1" xmlns="http://www.w3.org/2000/svg" xmlns:xlink="http://www.w3.org/1999/xlink">
    <!-- Generator: Sketch 44 (41411) - http://www.bohemiancoding.com/sketch -->
    <title>Group 21</title>
    <desc>Created with Sketch.</desc>
    <defs>
        <rect id="path-1" x="0" y="0" width="36" height="36" rx="2"></rect>
    </defs>
    <g id="Page-1" stroke="none" stroke-width="1" fill="none" fill-rule="evenodd">
        <g id="Desktop---Sales" transform="translate(-490.000000, -1560.000000)">
            <g id="use-cases" transform="translate(160.000000, 1483.000000)">
                <g id="Group-13-Copy-6" transform="translate(330.000000, 71.000000)">
                    <g id="Group-21" transform="translate(0.000000, 6.000000)">
                        <g id="Rectangle-9">
                            <use fill-opacity="0.02" fill="#072F3E" fill-rule="evenodd" xlink:href="#path-1"></use>
                            <rect stroke-opacity="0.1" stroke="#072F3E" stroke-width="1" x="0.5" y="0.5" width="35" height="35" rx="2"></rect>
                        </g>
                        <g id="news-paper" transform="translate(8.000000, 8.000000)" fill-rule="nonzero" fill="#939898">
                            <path d="M16,2 L20,2 L20,17 C20,18.6568542 18.6568542,20 17,20 L3,20 C1.34314575,20 2.02906125e-16,18.6568542 0,17 L0,0 L16,0 L16,2 Z M16,4 L16,17 C16,17.5522847 16.4477153,18 17,18 C17.5522847,18 18,17.5522847 18,17 L18,4 L16,4 Z M2,2 L2,17 C2,17.5522847 2.44771525,18 3,18 L14.17,18 C14.056602,17.6788312 13.9991026,17.340599 14,17 L14,2 L2,2 Z M4,10 L12,10 L12,12 L4,12 L4,10 Z M4,14 L12,14 L12,16 L4,16 L4,14 Z M4,4 L12,4 L12,8 L4,8 L4,4 Z" id="Shape"></path>
                        </g>
                    </g>
                </g>
            </g>
        </g>
    </g>
</svg>