<?xml version="1.0" encoding="UTF-8"?>
<svg width="36px" height="36px" viewBox="0 0 36 36" version="1.1" xmlns="http://www.w3.org/2000/svg" xmlns:xlink="http://www.w3.org/1999/xlink">
    <!-- Generator: Sketch 44 (41411) - http://www.bohemiancoding.com/sketch -->
    <title>Group 23</title>
    <desc>Created with Sketch.</desc>
    <defs>
        <rect id="path-1" x="0" y="0" width="36" height="36" rx="2"></rect>
    </defs>
    <g id="Page-1" stroke="none" stroke-width="1" fill="none" fill-rule="evenodd">
        <g id="Desktop---Sales" transform="translate(-160.000000, -1632.000000)">
            <g id="use-cases" transform="translate(160.000000, 1483.000000)">
                <g id="Group-13-Copy-10" transform="translate(0.000000, 143.000000)">
                    <g id="Group-23" transform="translate(0.000000, 6.000000)">
                        <g id="Rectangle-9">
                            <use fill-opacity="0.02" fill="#072F3E" fill-rule="evenodd" xlink:href="#path-1"></use>
                            <rect stroke-opacity="0.1" stroke="#072F3E" stroke-width="1" x="0.5" y="0.5" width="35" height="35" rx="2"></rect>
                        </g>
                        <g id="ticket" transform="translate(8.000000, 11.000000)" fill-rule="nonzero" fill="#939898">
                            <path d="M20,9 L20,14 L0,14 L0,9 C1.1045695,9 2,8.1045695 2,7 C2,5.8954305 1.1045695,5 1.2246468e-16,5 L1.2246468e-16,0 L20,0 L20,5 C18.8954305,5 18,5.8954305 18,7 C18,8.1045695 18.8954305,9 20,9 Z M3,2 L3,12 L17,12 L17,2 L3,2 Z M10,9.08 L7.08,11.12 L8.1,7.7 L5.27,5.56 L8.83,5.48 L10,2.12 L11.17,5.48 L14.73,5.56 L11.89,7.71 L12.92,11.11 L10,9.09 L10,9.08 Z" id="Shape"></path>
                        </g>
                    </g>
                </g>
            </g>
        </g>
    </g>
</svg>