<?xml version="1.0" encoding="UTF-8"?>
<svg width="36px" height="36px" viewBox="0 0 36 36" version="1.1" xmlns="http://www.w3.org/2000/svg" xmlns:xlink="http://www.w3.org/1999/xlink">
    <!-- Generator: Sketch 44 (41411) - http://www.bohemiancoding.com/sketch -->
    <title>Group 20</title>
    <desc>Created with Sketch.</desc>
    <defs>
        <rect id="path-1" x="0" y="0" width="36" height="36" rx="2"></rect>
    </defs>
    <g id="Page-1" stroke="none" stroke-width="1" fill="none" fill-rule="evenodd">
        <g id="Desktop---Sales" transform="translate(-160.000000, -1560.000000)">
            <g id="use-cases" transform="translate(160.000000, 1483.000000)">
                <g id="Group-13" transform="translate(0.000000, 71.000000)">
                    <g id="Group-20" transform="translate(0.000000, 6.000000)">
                        <g id="box" transform="translate(8.000000, 8.000000)" fill-rule="nonzero" fill="#939898">
                            <path d="M0,2 C0,0.9 0.9,0 2,0 L18,0 C19.1045695,6.76353751e-17 20,0.8954305 20,2 L20,4 L0,4 L0,2 Z M1,5 L19,5 L19,18 C19,19.1045695 18.1045695,20 17,20 L3,20 C1.8954305,20 1,19.1045695 1,18 L1,5 Z M7,7 L7,9 L13,9 L13,7 L7,7 Z" id="Shape"></path>
                        </g>
                        <g id="Rectangle-9">
                            <use fill-opacity="0.02" fill="#072F3E" fill-rule="evenodd" xlink:href="#path-1"></use>
                            <rect stroke-opacity="0.1" stroke="#072F3E" stroke-width="1" x="0.5" y="0.5" width="35" height="35" rx="2"></rect>
                        </g>
                    </g>
                </g>
            </g>
        </g>
    </g>
</svg>