<svg xmlns="http://www.w3.org/2000/svg" width="1200" height="1208" viewBox="0 0 1200 1208">
  <g fill="none" fill-rule="evenodd">
    <rect width="1200" height="1208"/>
    <path fill="#F4F2F2" fill-opacity=".05" fill-rule="nonzero" d="M544.036171,268.130358 C544.036171,275.928132 537.729224,282.250465 529.935049,282.250465 C501.540015,282.250465 487.328728,263.497198 475.899108,248.432533 C464.937688,233.960802 458.066146,225.770036 444.32306,225.770036 C430.593745,225.770036 423.735973,233.953906 412.774553,248.425638 C401.358703,263.497198 387.147416,282.250465 358.766153,282.250465 C330.38489,282.250465 316.187374,263.490303 304.785294,248.418743 C293.837645,233.953906 286.979873,225.770036 273.278099,225.770036 C259.576325,225.770036 252.704782,233.953906 241.757133,248.418743 C230.341283,263.490303 216.143767,282.250465 187.748733,282.250465 C159.36747,282.250465 145.156183,263.490303 133.754103,248.418743 C122.806454,233.953906 115.948682,225.770036 102.246908,225.770036 C94.4527325,225.770036 88.1457855,219.447703 88.1457855,211.649929 C88.1457855,203.852154 94.4527325,197.529821 102.246908,197.529821 C130.62817,197.529821 144.825687,216.283089 156.227767,231.354648 C167.175415,245.826379 174.046959,254.01025 187.748733,254.01025 C201.464277,254.01025 208.33582,245.82638 219.283469,231.354648 C230.699319,216.283089 244.896835,197.529821 273.278099,197.529821 C301.659363,197.529821 315.856878,216.289984 327.258958,231.361543 C338.206607,245.82638 345.064379,254.01025 358.766153,254.01025 C372.481697,254.01025 379.33947,245.82638 390.300889,231.361543 C401.716739,216.289984 415.928026,197.529821 444.32306,197.529821 C472.731863,197.529821 486.943151,216.283089 498.372772,231.354648 C509.334192,245.826379 516.205733,254.01025 529.935049,254.01025 C537.729224,254.01025 544.036171,260.332584 544.036171,268.130358 Z M995.106836,413.688808 C1010.1719,402.264484 1028.89996,388.047851 1028.89996,359.621483 C1028.89996,351.823709 1022.59301,345.501376 1014.79883,345.501376 C1007.00466,345.501376 1000.69771,351.823709 1000.69771,359.621483 C1000.69771,373.348599 992.517959,380.215604 978.072571,391.184887 C963.021275,402.609212 944.293222,416.825844 944.293222,445.245318 C944.293222,473.671686 963.021275,487.895212 978.072571,499.319537 C992.517959,510.28882 1000.69771,517.16272 1000.69771,530.889835 C1000.69771,544.603161 992.531729,551.477061 978.086342,562.439449 C963.021275,573.856881 944.293222,588.073512 944.293222,616.492985 C944.293222,644.926249 963.021275,659.149774 978.072571,670.580994 C992.517959,681.550277 1000.69771,688.431071 1000.69771,702.165081 C1000.69771,715.919776 992.517959,722.80057 978.072571,733.783642 C963.021275,745.221756 944.293222,759.452177 944.293222,787.899228 C944.293222,816.339387 963.021275,830.569807 978.072571,842.00792 C992.517959,852.990991 1000.69771,859.878681 1000.69771,873.633375 C1000.69771,881.43115 1007.00466,887.753483 1014.79883,887.753483 C1022.59301,887.753483 1028.89996,881.43115 1028.89996,873.633375 C1028.89996,845.186324 1010.1719,830.955903 995.120607,819.517789 C980.675219,808.534717 972.495467,801.653923 972.495467,787.899228 C972.495467,774.144534 980.675219,767.256844 995.120607,756.273773 C1010.1719,744.835659 1028.89996,730.605238 1028.89996,702.165081 C1028.89996,673.731818 1010.1719,659.508292 995.120607,648.077073 C980.675219,637.10779 972.495467,630.226995 972.495467,616.492985 C972.495467,602.779658 980.661449,595.905759 995.106836,584.94337 C1010.1719,573.525939 1028.89996,559.309308 1028.89996,530.889835 C1028.89996,502.463466 1010.1719,488.23994 995.120607,476.815616 C980.675219,465.846333 972.495467,458.972433 972.495467,445.245318 C972.495467,431.525095 980.661449,424.651195 995.106836,413.688808 Z M445.493563,548.415867 C460.55863,536.998436 479.286683,522.781805 479.286683,494.362331 C479.286683,486.564557 472.979736,480.242224 465.18556,480.242224 C457.391385,480.242224 451.084438,486.564557 451.084438,494.362331 C451.084438,508.075658 442.918456,514.949558 428.473068,525.911946 C413.408002,537.329377 394.679949,551.546008 394.679949,579.965482 C394.679949,608.398745 413.408002,622.622271 428.459297,634.053491 C442.904686,645.022774 451.084438,651.903568 451.084438,665.637578 C451.084438,679.392273 442.904686,686.273067 428.459297,697.256139 C413.408002,708.687358 394.679949,722.924674 394.679949,751.36483 C394.679949,779.811882 413.408002,794.042302 428.459297,805.480417 C442.904686,816.463488 451.084438,823.344283 451.084438,837.098977 C451.084438,844.896751 457.391385,851.219085 465.18556,851.219085 C472.979736,851.219085 479.286683,844.896751 479.286683,837.098977 C479.286683,808.658819 460.55863,794.428398 445.507334,782.990286 C431.061946,772.007214 422.882193,765.119525 422.882193,751.36483 C422.882193,737.610136 431.061946,730.729341 445.507334,719.74627 C460.55863,708.31505 479.286683,694.077735 479.286683,665.637578 C479.286683,637.204315 460.55863,622.980789 445.507334,611.54957 C431.061946,600.580287 422.882193,593.699492 422.882193,579.965482 C422.882192,566.252155 431.048174,559.378255 445.493563,548.415867 Z M838.300705,1108.82831 C809.905671,1108.82831 795.694384,1127.58847 784.278534,1142.66003 C773.317114,1157.12487 766.459342,1165.30874 752.743798,1165.30874 C739.000712,1165.30874 732.129169,1157.12487 721.16775,1142.65314 C709.738129,1127.58158 695.526842,1108.82831 667.118038,1108.82831 C638.723005,1108.82831 624.511717,1127.58158 613.082098,1142.64624 C602.120678,1157.11797 595.249136,1165.30874 581.50605,1165.30874 C573.711874,1165.30874 567.404927,1171.63107 567.404927,1179.42885 C567.404927,1187.22662 573.711874,1193.54895 581.50605,1193.54895 C609.914853,1193.54895 624.12614,1174.79569 635.555761,1159.72413 C646.517181,1145.2524 653.388723,1137.06852 667.118038,1137.06852 C680.861125,1137.06852 687.732668,1145.25239 698.694086,1159.72413 C710.123707,1174.79569 724.334995,1193.54895 752.743798,1193.54895 C781.125061,1193.54895 795.336348,1174.79569 806.752198,1159.72413 C817.713618,1145.2524 824.57139,1137.06852 838.300705,1137.06852 C846.09488,1137.06852 852.401827,1130.74619 852.401827,1122.94842 C852.401827,1115.15064 846.094879,1108.82831 838.300705,1108.82831 Z M85.8598611,1058.56679 C100.911156,1047.12868 119.63921,1032.89826 119.63921,1004.45121 C119.63921,976.017944 100.911156,961.794419 85.8598611,950.363199 C71.4144726,939.393916 63.2347203,932.513121 63.2347203,918.779112 C63.2347203,910.981337 56.9277734,904.659004 49.133598,904.659004 C41.3394226,904.659004 35.0324757,910.981337 35.0324757,918.779112 C35.0324757,947.212375 53.7605288,961.435901 68.8118242,972.86712 C83.2572127,983.836403 91.4369649,990.717198 91.4369649,1004.45121 C91.4369649,1018.2059 83.2572127,1025.09359 68.8118242,1036.07666 C53.7605288,1047.51478 35.0324757,1061.7452 35.0324757,1090.18535 C35.0324757,1118.62551 53.7605288,1132.85593 68.8118242,1144.29405 C83.2572127,1155.27712 91.4369649,1162.16481 91.4369649,1175.9195 C91.4369649,1183.71728 97.7439119,1190.03961 105.538087,1190.03961 C113.332263,1190.03961 119.63921,1183.71728 119.63921,1175.9195 C119.63921,1147.47245 100.911156,1133.24203 85.8598611,1121.80392 C71.4144726,1110.82084 63.2347203,1103.94005 63.2347203,1090.18535 C63.2347203,1076.43066 71.4144726,1069.54987 85.8598611,1058.56679 Z M999.238025,87.8714681 C1027.63306,87.8714681 1041.84435,69.1182006 1053.2602,54.0466409 C1064.22162,39.5749105 1071.09316,31.3910389 1084.8087,31.3910389 C1092.60288,31.3910389 1098.90983,25.0687058 1098.90983,17.2709316 C1098.90983,9.4731574 1092.60288,3.15082428 1084.8087,3.15082428 C1056.41367,3.15082428 1042.20238,21.9040918 1030.78653,36.9756515 C1019.82511,51.4473819 1012.95357,59.6312535 999.238025,59.6312535 C985.50871,59.6312535 978.637167,51.4473833 967.675748,36.9756515 C956.246127,21.9040918 942.03484,3.15082428 913.626036,3.15082428 C885.217233,3.15082428 871.005946,21.9040918 859.576325,36.9756515 C848.614905,51.4473819 841.743363,59.6312535 828.014048,59.6312535 C820.219872,59.6312535 813.912925,65.9535866 813.912925,73.7513608 C813.912925,81.549135 820.219872,87.8714681 828.014048,87.8714681 C856.409081,87.8714681 870.620369,69.1182006 882.049988,54.0535358 C893.011408,39.5818053 899.88295,31.3910389 913.626036,31.3910389 C927.369123,31.3910389 934.240666,39.5818039 945.202085,54.0535358 C956.631704,69.1182006 970.842991,87.8714681 999.238025,87.8714681 Z M557.462532,151.632578 C557.462532,115.953107 586.449703,86.9269106 622.074314,86.9269106 C657.698926,86.9269106 686.686097,115.953108 686.686097,151.632578 C686.686097,187.305154 657.698926,216.33135 622.074314,216.33135 C586.449703,216.33135 557.462532,187.305154 557.462532,151.632578 Z M585.664777,151.632578 C585.664777,171.737183 601.99674,188.091135 622.074314,188.091135 C642.151888,188.091135 658.483852,171.737183 658.483852,151.632578 C658.483852,131.527972 642.151888,115.167125 622.074314,115.167125 C601.99674,115.167125 585.664777,131.527972 585.664777,151.632578 Z M199.687866,64.7056671 C199.687866,29.0261963 228.675036,0 264.313419,0 C299.938032,0 328.925201,29.0261977 328.925201,64.7056671 C328.925201,100.378243 299.938031,129.404439 264.313419,129.404439 C228.675036,129.404441 199.687866,100.378243 199.687866,64.7056671 Z M227.89011,64.7056671 C227.89011,84.8102726 244.235845,101.164225 264.313419,101.164225 C284.390993,101.164225 300.722957,84.8102726 300.722957,64.7056671 C300.722957,44.6010615 284.390993,28.2402146 264.313419,28.2402146 C244.235845,28.2402146 227.89011,44.6010615 227.89011,64.7056671 Z M746.519474,522.657702 C710.88109,522.657702 681.89392,493.631504 681.89392,457.95893 C681.89392,422.279459 710.881091,393.253263 746.519474,393.253263 C782.144087,393.253263 811.131256,422.27946 811.131256,457.95893 C811.131256,493.631506 782.144087,522.657702 746.519474,522.657702 Z M782.929012,457.95893 C782.929012,437.854324 766.597048,421.493477 746.519474,421.493477 C726.4419,421.493477 710.096165,437.854324 710.096165,457.95893 C710.096165,478.063535 726.4419,494.417487 746.519474,494.417487 C766.597048,494.417487 782.929012,478.063535 782.929012,457.95893 Z M1158.52287,1143.29433 C1158.52287,1178.9738 1129.5357,1208 1093.91109,1208 C1058.28648,1208 1029.29931,1178.9738 1029.29931,1143.29433 C1029.29931,1107.62176 1058.28648,1078.59556 1093.91109,1078.59556 C1129.5357,1078.59556 1158.52287,1107.62176 1158.52287,1143.29433 Z M1130.32063,1143.29433 C1130.32063,1123.18973 1113.98866,1106.83578 1093.91109,1106.83578 C1073.83351,1106.83578 1057.50155,1123.18973 1057.50155,1143.29433 C1057.50155,1163.39894 1073.83351,1179.75979 1093.91109,1179.75979 C1113.98866,1179.75979 1130.32063,1163.39894 1130.32063,1143.29433 Z M628.711758,895.420262 C628.711758,859.740791 657.698929,830.714595 693.32354,830.714595 C728.961924,830.714595 757.949093,859.740792 757.949093,895.420262 C757.949093,931.099731 728.961923,960.125929 693.32354,960.125929 C657.698929,960.125929 628.711758,931.099731 628.711758,895.420262 Z M656.914002,895.420262 C656.914002,915.524867 673.245966,931.885714 693.32354,931.885714 C713.401114,931.885714 729.746849,915.524867 729.746849,895.420262 C729.746849,875.315656 713.401114,858.954809 693.32354,858.954809 C673.245966,858.954809 656.914002,875.315656 656.914002,895.420262 Z M405.365954,1049.84515 C405.365954,1085.51772 376.378783,1114.54392 340.754172,1114.54392 C305.115788,1114.54392 276.128618,1085.51772 276.128618,1049.84515 C276.128618,1014.16567 305.115789,985.139479 340.754172,985.139479 C376.378785,985.139479 405.365954,1014.16567 405.365954,1049.84515 Z M377.16371,1049.84515 C377.16371,1029.74054 360.831746,1013.37969 340.754172,1013.37969 C320.676598,1013.37969 304.330863,1029.74054 304.330863,1049.84515 C304.330863,1069.94975 320.676598,1086.3037 340.754172,1086.3037 C360.831746,1086.3037 377.16371,1069.94975 377.16371,1049.84515 Z M142.26435,520.258387 C142.26435,555.937857 113.277179,584.964054 77.6525679,584.964054 C42.0141839,584.964054 13.0270144,555.937856 13.0270144,520.258387 C13.0270144,484.585811 42.0141853,455.559614 77.6525679,455.559614 C113.277179,455.559614 142.26435,484.585812 142.26435,520.258387 Z M114.062106,520.258387 C114.062106,500.153781 97.7301421,483.799829 77.6525679,483.799829 C57.5749938,483.799829 41.229259,500.153781 41.229259,520.258387 C41.229259,540.362992 57.5749938,556.723839 77.6525679,556.723839 C97.7301421,556.723839 114.062106,540.362994 114.062106,520.258387 Z M1200,265.855145 C1200,301.527721 1171.01283,330.553917 1135.38822,330.553917 C1099.76361,330.553917 1070.77644,301.52772 1070.77644,265.855145 C1070.77644,230.175674 1099.76361,201.149478 1135.38822,201.149478 C1171.01283,201.149478 1200,230.175674 1200,265.855145 Z M1171.79776,265.855145 C1171.79776,245.75054 1155.46579,229.389693 1135.38822,229.389693 C1115.31064,229.389693 1098.97868,245.75054 1098.97868,265.855145 C1098.97868,285.959751 1115.31064,302.313703 1135.38822,302.313703 C1155.46579,302.313703 1171.79776,285.959751 1171.79776,265.855145 Z M221.101191,717.946784 C215.882123,712.720689 206.297767,712.720689 201.216406,717.946784 C199.811802,719.215388 198.820317,720.773563 198.118014,722.607522 C197.415712,724.30359 196.988823,726.137549 196.988823,727.971508 C196.988823,729.805467 197.415712,731.646322 198.118014,733.335495 C198.820317,735.031563 199.811802,736.582844 201.216406,737.858342 C203.750201,740.540335 207.426959,742.091616 211.089946,742.091616 C214.890638,742.091616 218.567396,740.540335 221.101191,737.858342 C222.36809,736.582844 223.497281,735.031563 224.199583,733.335495 C224.901885,731.646322 225.191068,729.805468 225.191068,727.971509 C225.191068,726.13755 224.901885,724.303591 224.199583,722.607523 C223.497281,720.773563 222.36809,719.215388 221.101191,717.946784 Z M319.671341,421.286639 C322.205137,418.597751 323.761218,414.929833 323.761218,411.25502 C323.761218,407.442316 322.205137,403.912289 319.671341,401.230296 C315.719172,397.279699 309.508619,396.011096 304.303321,398.127733 C302.458056,398.975767 300.915746,399.961692 299.648849,401.230296 C298.368181,402.505793 297.390467,404.057075 296.536688,405.753143 C296.261276,406.739068 295.972091,407.587102 295.834385,408.435136 C295.696679,409.421061 295.558974,410.269095 295.558974,411.25502 C295.558974,414.929833 297.101284,418.597751 299.64885,421.286639 C302.320352,423.823846 305.98334,425.375127 309.660096,425.375127 C313.323082,425.375127 316.986069,423.823846 319.671341,421.286639 Z M455.174313,43.0084122 C452.640518,45.6904052 451.084437,49.220432 451.084437,53.0331363 C451.084437,54.8670954 451.37362,56.7010545 452.213628,58.3971222 C452.91593,60.09319 453.907415,61.6444716 455.174312,62.9130742 C457.859584,65.5950672 461.522571,67.1532436 465.185557,67.1532436 C468.862315,67.1532436 472.525302,65.5950672 475.196803,62.9130742 C476.477471,61.6444702 477.455185,60.09319 478.157487,58.3971222 C478.873559,56.7010545 479.286678,54.8670954 479.286678,53.0331363 C479.286678,49.220432 477.744368,45.6904052 475.196802,43.0084122 C469.840031,37.7823177 460.393381,37.7823177 455.174313,43.0084122 Z M27.0730535,295.612169 C26.3569816,295.191598 25.5169721,294.764135 24.676964,294.343565 C23.8231848,294.060887 22.9831767,293.778208 21.9916915,293.495531 C17.3372199,292.647497 12.5450409,294.060887 9.29517357,297.453021 C6.62367224,299.990228 5.06759083,303.665041 5.06759083,307.332959 C5.06759083,311.145663 6.62367224,314.820476 9.29517357,317.357683 C11.9804461,320.039676 15.6434326,321.453066 19.306419,321.453066 C20.1601983,321.453066 21.1516835,321.453066 21.9916915,321.170389 C22.9831767,321.032498 23.8231848,320.749819 24.676964,320.467141 C25.5169721,320.039678 26.3569802,319.619107 27.0730535,319.053751 C27.9130616,318.633184 28.6153638,318.067827 29.1799586,317.357685 C31.8652311,314.820478 33.4075414,311.145665 33.4075414,307.33296 C33.4075414,303.665042 31.8652311,299.990229 29.1799586,297.453023 C28.6153638,296.74288 27.9130616,296.177524 27.0730535,295.612169 Z M4.08987682,790.663958 C1.54231025,793.20806 0,796.875978 0,800.688682 C0,802.529536 0.41311917,804.363495 1.12919108,806.059563 C1.83149325,807.748736 2.80920725,809.306912 4.08987541,810.575515 C6.76137674,813.257508 10.4243647,814.808789 14.1011209,814.808789 C15.0788349,814.808789 15.9326141,814.670898 16.9103296,814.526112 C17.7641088,814.243435 18.6041169,813.960756 19.4578961,813.678078 C20.2979042,813.257508 21.1516835,812.836939 21.8539856,812.409474 C22.6939937,811.844118 23.3962959,811.278763 24.1123678,810.575515 C25.3792662,809.306912 26.3569802,807.748736 27.0730535,806.059563 C27.7753557,804.363495 28.2022446,802.529536 28.2022446,800.688682 C28.2022446,796.875978 26.6461632,793.208058 24.1123678,790.663958 C18.8933013,785.437864 9.29517357,785.437864 4.08987682,790.663958 Z M644.272566,653.558267 C645.126345,653.275589 645.966353,653.137697 646.806361,652.710233 C647.660141,652.289663 648.500149,651.862199 649.353928,651.441629 C650.05623,650.876273 650.758532,650.310918 651.460835,649.60767 C654.008401,647.063568 655.550711,643.39565 655.550711,639.720837 C655.550711,635.908133 654.008401,632.378106 651.460835,629.696113 C650.758532,628.992865 650.05623,628.42751 649.353928,628.000045 C648.500149,627.434689 647.660141,627.01412 646.806361,626.586655 C645.966353,626.303977 645.126345,626.028193 644.272566,625.883407 C641.449588,625.318051 638.640379,625.60073 636.092814,626.586655 C634.399027,627.296798 632.856716,628.427509 631.438342,629.696112 C630.171444,630.964716 629.17996,632.522891 628.477658,634.212064 C627.775356,636.052918 627.348467,637.886877 627.348467,639.720836 C627.348467,641.554795 627.775356,643.395649 628.477658,645.084822 C629.17996,646.780889 630.171445,648.332171 631.438342,649.607668 C634.123615,652.289661 637.786601,653.840943 641.449588,653.840943 C642.441073,653.840946 643.281081,653.703053 644.272566,653.558267 Z M189.938262,1128.13314 C184.8569,1122.91394 175.272544,1122.91394 170.053477,1128.13314 C168.786579,1129.40864 167.657388,1130.95992 166.955085,1132.65599 C166.252783,1134.48995 165.9636,1136.18602 165.9636,1138.15787 C165.9636,1139.99872 166.252783,1141.83268 166.955085,1143.52875 C167.657388,1145.21792 168.786579,1146.7761 170.053477,1148.0447 C172.587273,1150.72669 176.26403,1152.27797 180.064723,1152.27797 C183.727709,1152.27797 187.404467,1150.72669 189.938262,1148.0447 C191.342866,1146.7761 192.334352,1145.21792 193.036654,1143.52875 C193.738956,1141.83268 194.165845,1139.99872 194.165845,1138.15787 C194.165845,1136.18602 193.738956,1134.48995 193.036654,1132.65599 C192.334352,1130.95992 191.342865,1129.40864 189.938262,1128.13314 Z M890.615317,974.508031 C885.258544,972.391394 879.061762,973.659997 875.247297,977.472701 C873.842692,978.886091 872.851207,980.437371 872.148905,982.133439 C871.446603,983.829507 871.019714,985.663466 871.019714,987.497425 C871.019714,991.310129 872.575795,994.984942 875.247297,997.522149 C877.794863,1000.21104 881.45785,1001.61753 885.120836,1001.61753 C886.95233,1001.61753 888.783823,1001.33485 890.615316,1000.63161 C892.309103,999.783573 893.865185,998.797648 895.132082,997.522151 C895.834384,996.818903 896.39898,996.115655 896.963575,995.405514 C897.390464,994.55748 897.817354,993.854232 898.230473,993.006199 C898.519656,992.020273 898.79507,991.172239 898.946545,990.324206 C899.221957,989.33828 899.221957,988.490246 899.221957,987.497426 C899.221957,983.829508 897.817353,980.154695 895.13208,977.472702 C893.865186,976.204098 892.309105,975.218173 890.615317,974.508031 Z M1103.41282,935.960413 C1101.99445,937.373803 1101.01673,938.925083 1100.30066,940.621151 C1099.59836,942.317219 1099.17147,944.151178 1099.17147,945.985137 C1099.17147,947.819096 1099.59836,949.65995 1100.30066,951.349123 C1101.01673,953.189977 1101.99445,954.741258 1103.41282,956.009861 C1103.97742,956.720004 1104.67972,957.285359 1105.51973,957.705929 C1106.22203,958.271285 1107.07581,958.691854 1107.91582,959.119319 C1108.7696,959.401997 1109.6096,959.684675 1110.60109,959.822567 C1111.4411,960.105244 1112.43258,960.105244 1113.27259,960.105244 C1116.94935,960.105244 1120.61233,958.691854 1123.28384,956.009861 C1124.5645,954.741257 1125.54222,953.189977 1126.396,951.349123 C1127.0983,949.65995 1127.37371,947.819096 1127.37371,945.985137 C1127.37371,944.151178 1127.0983,942.317219 1126.396,940.621151 C1125.54222,938.925083 1124.5645,937.373802 1123.28384,935.960413 C1118.07854,930.879105 1108.61812,930.734318 1103.41282,935.960413 Z M1126.24452,557.964865 C1126.96059,558.530221 1127.8006,558.957685 1128.65438,559.233469 C1129.49439,559.660933 1130.3344,559.943612 1131.32588,560.081503 C1132.17966,560.226289 1133.15737,560.364181 1134.01115,560.364181 C1137.67414,560.364181 1141.33713,558.812899 1144.0224,556.268797 C1145.2893,554.862302 1146.41849,553.304127 1147.12079,551.614954 C1147.82309,549.918886 1148.11228,548.084927 1148.11228,546.244073 C1148.11228,542.431369 1146.6939,538.901342 1144.0224,536.219349 C1138.80333,530.993255 1129.35668,530.993255 1124.13761,536.219349 C1121.45234,538.901342 1119.91003,542.576155 1119.91003,546.244073 C1119.91003,548.084927 1120.32315,549.918886 1121.03922,551.614954 C1121.74153,553.304127 1122.71924,554.862302 1124.13761,556.268797 C1124.70221,556.834154 1125.40451,557.399509 1126.24452,557.964865 Z M49.9185243,62.9130757 C50.6208265,62.3477193 51.1854227,61.6444716 51.7500176,60.7964391 C52.3146138,60.0931914 52.7277316,59.2451575 53.016916,58.3971236 C53.4438049,57.5490898 53.7192181,56.7010559 53.856924,55.7151307 C54.0084011,54.8670968 54.146107,53.8811716 54.146107,53.0331377 C54.146107,49.2204334 52.5900256,45.6904066 49.9185243,43.0084137 C44.8371623,37.7823191 35.2528058,37.7823191 30.0337393,43.0084137 C27.4861727,45.5456204 25.9438624,49.2204334 25.9438624,53.0331377 C25.9438624,56.7010559 27.4861727,60.3758689 30.0337393,62.9130757 C32.7052406,65.5950686 36.2305212,67.153245 40.0449847,67.153245 C43.7079712,67.153245 47.3709577,65.5950686 49.9185243,62.9130757 Z M833.508526,195.785492 C835.202313,195.082245 836.758395,194.089425 838.162998,192.820822 C840.696793,190.138829 842.252875,186.464016 842.252875,182.796098 C842.252875,179.121285 840.696793,175.453367 838.162998,172.771374 C836.758393,171.495876 835.202313,170.509951 833.508526,169.806703 C828.289458,167.545281 822.092676,168.813883 818.140505,172.771374 C815.60671,175.453367 814.050629,178.983394 814.050629,182.796098 C814.050629,186.464016 815.60671,190.138829 818.140505,192.820822 C820.825778,195.364924 824.351058,196.916205 828.151751,196.916205 C829.983245,196.916204 831.814739,196.488739 833.508526,195.785492 Z M856.64318,731.784213 C855.927108,731.218857 855.087098,730.798288 854.24709,730.515609 C853.393311,730.088146 852.553303,729.805467 851.561818,729.667575 C847.045052,728.819542 842.252875,730.232932 838.8653,733.48028 C836.331504,736.162273 834.775423,739.830191 834.775423,743.505004 C834.775423,747.172922 836.331504,750.847735 838.8653,753.529728 C841.550572,756.07383 845.213559,757.625111 848.876545,757.625111 C849.730325,757.625111 850.72181,757.480325 851.561818,757.342434 C852.553303,757.197647 853.393311,756.91497 854.24709,756.4944 C855.087098,756.211722 855.927107,755.791152 856.64318,755.225796 C857.483188,754.798332 858.18549,754.095084 858.750086,753.529728 C861.435359,750.847735 862.977669,747.172922 862.977669,743.505004 C862.977669,739.830191 861.435359,736.162273 858.750086,733.48028 C858.18549,732.914925 857.483188,732.204782 856.64318,731.784213 Z M1124.13761,68.9872041 C1121.45234,71.5313057 1119.91003,75.1992239 1119.91003,79.0119282 C1119.91003,79.8599621 1120.04774,80.8458873 1120.18544,81.6939212 C1120.47463,82.541955 1120.61233,83.5278802 1121.03922,84.3759141 C1121.45234,85.223948 1121.87923,86.0719819 1122.30612,86.7752296 C1122.87072,87.4853721 1123.43531,88.333406 1124.13761,88.898761 C1126.67141,91.5807539 1130.3344,92.9941442 1134.01115,92.9941442 C1137.81185,92.9941442 1141.47483,91.5807539 1144.0224,88.898761 C1146.6939,86.3546593 1148.11228,82.6798463 1148.11228,79.0119282 C1148.11228,75.1992239 1146.6939,71.5313043 1144.0224,68.9872041 C1138.80333,63.7611095 1129.35668,63.6232182 1124.13761,68.9872041 Z"/>
  </g>
</svg>
