<svg xmlns="http://www.w3.org/2000/svg" width="96" height="48" viewBox="0 0 96 48">
  <defs>
    <filter id="explainer-3-a" width="250%" height="194.4%" x="-77.3%" y="-47.2%" filterUnits="objectBoundingBox">
      <feOffset in="SourceAlpha" result="shadowOffsetOuter1"/>
      <feGaussianBlur in="shadowOffsetOuter1" result="shadowBlurOuter1" stdDeviation="4"/>
      <feColorMatrix in="shadowBlurOuter1" result="shadowMatrixOuter1" values="0 0 0 0 1   0 0 0 0 1   0 0 0 0 1  0 0 0 0.5 0"/>
      <feMerge>
        <feMergeNode in="shadowMatrixOuter1"/>
        <feMergeNode in="SourceGraphic"/>
      </feMerge>
    </filter>
  </defs>
  <g fill="none" fill-rule="evenodd" filter="url(#explainer-3-a)" transform="scale(-1 1) rotate(15 -27.29 -93.233)">
    <path fill="#1D1919" stroke="#FFF" d="M18.4390244,10.9756098 L18.4390244,6.49756098 C20.0634146,6.1902439 21.0731707,5.66341463 21.0731707,4.91707317 L21.0731707,2.45853659 C21.0731707,0.351219512 11.6341463,0.263414634 10.5365854,0.263414634 C9.43902439,0.263414634 -3.15303339e-14,0.307317073 -3.15303339e-14,2.45853659 L-3.15303339e-14,4.91707317 C-3.15303339e-14,5.66341463 1.0097561,6.14634146 2.63414634,6.49756098 L2.63414634,10.9756098 C2.63414634,14.2243902 4.65365854,17.1219512 7.55121951,18.395122 C4.65365854,19.6243902 2.63414634,22.5658537 2.63414634,25.7707317 L2.63414634,29.5463415 C0.131707317,30.0292683 -3.15303339e-14,30.6439024 -3.15303339e-14,31.1268293 L-3.15303339e-14,33.5853659 C-3.15303339e-14,35.6926829 9.43902439,35.7804878 10.5365854,35.7804878 C11.6341463,35.7804878 21.0731707,35.7365854 21.0731707,33.5853659 L21.0731707,31.1268293 C21.0731707,30.6439024 20.9414634,30.0731707 18.4390244,29.5463415 L18.4390244,25.7707317 C18.4390244,22.5219512 16.4195122,19.6243902 13.5219512,18.3512195 C16.4195122,17.1219512 18.4390244,14.2243902 18.4390244,10.9756098 Z"/>
    <path fill="#FFF" fill-rule="nonzero" d="M18.4390244,10.9756098 L18.4390244,6.49756098 C20.0634146,6.1902439 21.0731707,5.66341463 21.0731707,4.91707317 L21.0731707,2.45853659 C21.0731707,0.351219512 11.6341463,0.263414634 10.5365854,0.263414634 C9.43902439,0.263414634 0,0.307317073 0,2.45853659 L0,4.91707317 C0,5.66341463 1.0097561,6.14634146 2.63414634,6.49756098 L2.63414634,10.9756098 C2.63414634,14.2243902 4.65365854,17.1219512 7.55121951,18.395122 C4.65365854,19.6243902 2.63414634,22.5658537 2.63414634,25.7707317 L2.63414634,29.5463415 C0.131707317,30.0292683 0,30.6439024 0,31.1268293 L0,33.5853659 C0,35.6926829 9.43902439,35.7804878 10.5365854,35.7804878 C11.6341463,35.7804878 21.0731707,35.7365854 21.0731707,33.5853659 L21.0731707,31.1268293 C21.0731707,30.6439024 20.9414634,30.0731707 18.4390244,29.5463415 L18.4390244,25.7707317 C18.4390244,22.5219512 16.4195122,19.6243902 13.5219512,18.3512195 C16.4195122,17.1219512 18.4390244,14.2243902 18.4390244,10.9756098 Z M10.5365854,1.18536585 C16.6829268,1.18536585 19.9317073,2.0195122 20.3707317,2.50243902 C19.9317073,2.98536585 16.6829268,3.8195122 10.5365854,3.8195122 C4.3902439,3.8195122 1.14146341,2.98536585 0.702439024,2.50243902 C1.14146341,2.0195122 4.3902439,1.18536585 10.5365854,1.18536585 Z M0.87804878,3.46829268 C3.07317073,4.6097561 9.65853659,4.65365854 10.5365854,4.65365854 C11.4146341,4.65365854 18,4.6097561 20.195122,3.46829268 L20.195122,4.91707317 C20.195122,5.35609756 16.8146341,6.23414634 10.5365854,6.23414634 C4.25853659,6.23414634 0.87804878,5.35609756 0.87804878,4.91707317 L0.87804878,3.46829268 Z M10.5365854,34.902439 C4.25853659,34.902439 0.87804878,34.0243902 0.87804878,33.5853659 L0.87804878,32.1365854 C3.07317073,33.2780488 9.65853659,33.3219512 10.5365854,33.3219512 C11.4146341,33.3219512 18,33.2780488 20.195122,32.1365854 L20.195122,33.5853659 C20.195122,34.0243902 16.8146341,34.902439 10.5365854,34.902439 Z M20.3707317,31.1707317 C19.8878049,31.6536585 16.6390244,32.4878049 10.5365854,32.4878049 C4.3902439,32.4878049 1.14146341,31.6536585 0.702439024,31.1707317 C0.834146341,31.0829268 1.22926829,30.7756098 2.63414634,30.5121951 L2.63414634,30.7317073 C2.63414634,30.9512195 2.76585366,31.1268293 2.98536585,31.1707317 C3.20487805,31.2146341 6.76097561,31.9609756 11.1073171,31.9609756 C13.3463415,31.9609756 15.804878,31.7414634 18.1317073,31.1707317 C18.3073171,31.1268293 18.4829268,30.9512195 18.4829268,30.7317073 L18.4829268,30.4682927 C19.8439024,30.7756098 20.2390244,31.0390244 20.3707317,31.1707317 Z M11.9853659,17.9560976 C11.7658537,18 11.6341463,18.1756098 11.6341463,18.395122 C11.6341463,18.6146341 11.7658537,18.7902439 11.9853659,18.8341463 C15.2341463,19.5365854 17.5609756,22.4780488 17.5609756,25.7707317 L17.5609756,30.3804878 C11.8097561,31.7414634 5.09268293,30.6439024 3.51219512,30.3804878 L3.51219512,25.7707317 C3.51219512,22.4780488 5.83902439,19.5365854 9.08780488,18.7902439 C9.30731707,18.7463415 9.43902439,18.5707317 9.43902439,18.3512195 C9.43902439,18.1317073 9.30731707,17.9560976 9.08780488,17.9121951 C5.83902439,17.2097561 3.51219512,14.2682927 3.51219512,10.9756098 L3.51219512,6.67317073 C6.36585366,7.11219512 9.87804878,7.11219512 10.5365854,7.11219512 C11.195122,7.11219512 14.7073171,7.11219512 17.5609756,6.67317073 L17.5609756,10.9756098 C17.5609756,14.2682927 15.2341463,17.2097561 11.9853659,17.9560976 Z"/>
    <path fill="#5AC29A" fill-rule="nonzero" d="M11.897561,17.604878 C14.9268293,16.902439 17.1219512,14.0487805 17.1219512,10.9756098 L17.1219512,10.1414634 L4.17073171,12.7317073 C4.78536585,15.102439 6.71707317,17.0780488 9.13170732,17.6487805 C9.48292683,17.7365854 9.74634146,18.0439024 9.7902439,18.4829268 L10.2292683,24.1902439 C7.9902439,24.2341463 5.83902439,24.7170732 3.90731707,25.6390244 C3.90731707,25.7268293 3.90731707,25.7707317 3.90731707,25.8585366 L3.90731707,30.0731707 C5.22439024,30.2926829 7.94634146,30.6878049 11.1073171,30.6878049 C13.302439,30.6878049 15.3219512,30.4682927 17.0780488,30.1170732 L17.0780488,25.8585366 C17.0780488,25.7707317 17.0780488,25.7268293 17.0780488,25.6390244 C15.1463415,24.7609756 13.0390244,24.2341463 10.8,24.1902439 L11.195122,18.4829268 C11.2829268,18 11.5463415,17.6926829 11.897561,17.604878 Z"/>
  </g>
</svg>
