<svg xmlns="http://www.w3.org/2000/svg" width="96" height="48" viewBox="0 0 96 48">
  <g fill="none" fill-rule="evenodd">
    <g transform="translate(48)">
      <rect width="48" height="48"/>
      <g transform="rotate(-10 39.645 5.355)">
        <rect width="42" height="42"/>
        <ellipse cx="21" cy="20.999" fill="#FFCC4D" fill-rule="nonzero" stroke="#FFF" stroke-width="2" rx="16.625" ry="16.624"/>
        <path fill="#FFF" fill-rule="nonzero" d="M38.0764423,7.79686523 C37.7096154,6.63120117 36.7596154,5.60861328 35.4711538,4.99084961 C34.2288462,4.39605469 32.8423077,4.25297852 31.6673077,4.59798828 C30.2653846,5.00951172 28.8206731,5.84212891 27.3735577,7.07239258 C26.8285356,7.53778838 26.3146221,8.03810368 25.8350962,8.57014648 C25.7365385,6.53310547 24.2211538,4.94921875 22.2889423,4.91667969 L22.2302885,4.91667969 C21.3131119,4.91519423 20.4322452,5.27328139 19.7783654,5.91342773 C19.0153846,6.65560547 18.5903846,7.70451172 18.5826923,8.86634766 C18.5791784,9.1984311 18.6177846,9.52962846 18.6975962,9.85208984 C18.2067308,8.89792969 17.6177885,7.87055664 16.5822115,7.08148437 C14.8908654,5.79475586 13.0278846,5.73111328 11.4144231,5.77370117 C9.53942308,5.82155273 7.83846154,6.58143555 6.61875,7.91123047 C5.39903846,9.24102539 4.79182692,11.0033984 4.91442308,12.8686523 C5.09471154,15.6249023 6.55865385,17.6451953 8.16730769,19.2640137 C7.96173785,19.2220015 7.75213071,19.2027439 7.54230769,19.2065918 L7.54230769,19.2065918 C6.05769231,19.2357812 4.97788462,20.3382812 4.975,21.8283789 C4.96649712,22.5292506 5.2410324,23.2041827 5.73701923,23.7017676 C6.2255723,24.1851949 6.88803777,24.4541422 7.57692308,24.4487305 L7.58605769,24.4487305 C8.30207417,24.4532537 8.9887237,24.1657674 9.48619315,23.653182 C9.9836626,23.1405967 10.2485595,22.4476233 10.2192308,21.7355469 C10.2123033,21.5286823 10.1821478,21.3232382 10.1293269,21.1230469 C11.3490385,22.3418262 11.3456731,22.8457031 10.7120192,24.8272363 C10.3182692,26.0579785 10.1975962,27.3107324 10.1004808,28.3175293 C9.84423077,30.9728125 10.7389423,33.5778516 12.3817308,34.9688965 C14.1206731,36.5958496 16.5288462,38.4055957 20.0004808,38.4055957 C20.256891,38.4055957 20.5195513,38.3953874 20.7884615,38.3749707 C20.8927885,38.3749707 20.9971154,38.3773633 21.1019231,38.3792773 C21.3947115,38.3840625 21.6971154,38.3888477 22.0153846,38.3692285 C24.8158654,38.1993555 26.95,37.3260645 28.3581731,35.7737598 C28.8534094,35.2331952 29.3073962,34.6565755 29.7163462,34.0487109 C29.8374279,34.2908677 29.9966512,34.5121863 30.1879808,34.7042773 C30.5668269,35.0842187 31.2658654,35.5359375 32.4475962,35.5359375 L32.4668269,35.5359375 C33.3932692,35.5321094 34.3355769,35.1100586 35.0519231,34.3774512 C35.7211538,33.6926953 36.0942308,32.8203613 36.075,31.984873 C36.0572115,31.2240332 35.6947115,30.4249121 35.0802885,29.792793 C34.4519231,29.1453613 33.6533654,28.7697266 32.8899038,28.7620703 L32.8576923,28.7620703 C32.3584022,28.7617446 31.8662434,28.8800243 31.4221154,29.1070801 C31.4293269,29.0070703 31.4355769,28.906582 31.4399038,28.8051367 C31.4794486,27.9283188 31.4567962,27.0498165 31.3721154,26.1761719 C31.8336538,26.5302734 32.4211538,26.7216797 33.0629808,26.7216797 L33.1259615,26.7216797 C34.7221154,26.6910547 35.9331731,25.4536133 35.9423077,23.8443652 L35.9423077,23.8443652 C35.9461538,23.1672656 35.6956731,22.5447168 35.2365385,22.0906055 C34.7206731,21.5800293 33.9947115,21.310625 33.1355769,21.310625 L33.0875,21.310625 C32.7208721,21.3115207 32.3580205,21.3843688 32.0197115,21.525 L32.0408654,21.4977246 C32.2857372,21.1901986 32.53125,20.8833105 32.7774038,20.5770605 C34.4966346,18.4347461 36.2740385,16.2196973 37.6197115,13.6495898 C38.6120192,11.755625 38.7528846,9.95114258 38.0759615,7.79925781 L38.0764423,7.79686523 Z M32.9057692,32.0097559 C33.0317308,32.013584 33.1663462,32.1217285 33.2240385,32.2490137 L32.6471154,32.1121582 C32.7196092,32.0501923 32.8104041,32.0134064 32.9057692,32.0073633 L32.9057692,32.0097559 Z M33.2254808,32.4796582 C33.2061901,32.5239153 33.1791694,32.5644183 33.1456731,32.5992871 C33.0857243,32.6662031 33.0030002,32.7086498 32.9134615,32.7184375 C32.8040525,32.7137886 32.7001113,32.6695484 32.6211538,32.5940234 L33.2254808,32.4796582 Z M22.4216346,8.91961602 L22.1918269,8.94954102 L22.1841346,8.73954102 C22.2777117,8.77293926 22.3602787,8.8355424 22.4216346,8.91961602 L22.4216346,8.91961602 Z M22.2019231,9.1740332 L22.4119231,9.2307332 C22.3449168,9.28426924 22.2739768,9.31548282 22.2019231,9.3231332 L22.2019231,9.1740332 Z M22.2470192,9.36154297 C22.1715102,9.35648766 22.0982894,9.28326691 22.0370192,9.15154297 L22.2451825,9.23736906 L22.2470192,9.36154297 Z M22.1350962,8.73379883 C22.1513936,8.73456257 22.1675376,8.73729417 22.1831731,8.74193359 L22.1908654,8.93333984 L21.9110577,8.96731445 C21.9264423,8.87304687 22.0456731,8.74958984 22.1360577,8.73379883 L22.1350962,8.73379883 Z M19.5495192,11.3766406 C20.2177885,12.0465625 21.1471154,12.39875 22.2370192,12.39875 L22.2418269,12.39875 C22.5517532,12.3998692 22.8608502,12.3668095 23.1634615,12.3001758 C22.9070513,12.7467904 22.6580128,13.21111 22.4163462,13.6931348 C22.2942308,13.9366992 22.1706731,14.1797852 22.0475962,14.4228711 C21.7052885,15.0966211 21.35625,15.7847266 21.0322115,16.4948437 C20.61875,14.5023047 20.0538462,12.7322754 19.3153846,11.1129785 C19.3889451,11.2049965 19.4674238,11.293011 19.5504808,11.3766406 L19.5495192,11.3766406 Z M7.74855769,21.9934668 C7.70122595,22.0374666 7.63769717,22.0599873 7.57307692,22.0556738 L7.57307692,22.0556738 C7.52157204,22.0591892 7.47080996,22.0419455 7.43221154,22.0078223 C7.39101408,21.9586777 7.37051309,21.8955768 7.375,21.8317285 C7.375,21.6106543 7.43605769,21.6006055 7.58605769,21.5972559 C7.77548077,21.5943848 7.80865385,21.6561133 7.8125,21.7972754 C7.81889239,21.8686077 7.79580281,21.9394524 7.74855769,21.9934668 L7.74855769,21.9934668 Z M32.9408654,23.7453125 C32.9730769,23.7079883 33.0649038,23.7012891 33.1168269,23.700332 C33.3711538,23.700332 33.5014423,23.7524902 33.5360577,23.7783301 C33.5388656,23.7941226 33.5401535,23.8101457 33.5399038,23.8261816 C33.5399038,24.0094531 33.4778846,24.3176172 33.0807692,24.3252734 C32.9293269,24.3281445 32.8548077,24.2912988 32.8403846,24.2774219 C32.8352531,24.2590594 32.8331425,24.239991 32.8341346,24.220957 C32.8326923,23.961123 32.8903846,23.8027344 32.9394231,23.7453125 L32.9408654,23.7453125 Z M35.4889423,12.5413477 C34.2504808,14.9052148 32.6225962,16.9341211 30.8995192,19.0816992 C30.6517628,19.3908203 30.4043269,19.7002604 30.1572115,20.0100195 C29.5725962,20.744541 29.1730769,21.3977148 28.9,22.0676367 C28.4961538,23.0548145 28.4346154,23.9955762 28.7110577,24.9439941 C28.9788462,25.8613086 29.1009615,27.266709 29.0389423,28.7036914 C28.9504808,30.7311621 28.2139423,32.367207 26.5754808,34.173125 C25.5903846,35.2593555 24.0509615,35.8517578 21.8706731,35.9843066 C21.64375,35.9977051 21.3995192,35.993877 21.1413462,35.9895703 C21.0120192,35.9895703 20.8783654,35.9852637 20.7418269,35.9852637 L20.69375,35.9852637 L20.6456731,35.9895703 C18.2735577,36.1833691 16.2894231,35.3512305 14.0110577,33.208916 L13.9576923,33.1610645 C12.9192308,32.2963867 12.31875,30.4000293 12.4971154,28.5500879 C12.6067308,27.4136133 12.7139423,26.4718945 13.00625,25.5564941 C13.7076923,23.363457 13.6129808,22.3150293 13.2543269,21.4154199 C12.8134615,20.3071777 11.8985577,19.4678613 10.6322115,18.3050684 C9.00048077,16.8082715 7.46923077,15.0951855 7.31490385,12.7136133 C7.23605769,11.5039258 7.61971154,10.3688867 8.39615385,9.52478516 C9.17259615,8.68068359 10.2658654,8.19738281 11.4788462,8.16580078 C11.6519231,8.16101562 11.81875,8.15862305 11.9807692,8.15862305 C13.29375,8.15862305 14.2615385,8.32610352 15.1245192,8.98262695 C15.8490385,9.53387695 16.2783654,10.378457 16.7293269,11.2723242 L16.79375,11.3991309 C17.6456731,13.0782422 18.2735577,14.9525879 18.7139423,17.129834 L18.7399038,17.2604687 C18.8360577,17.7447266 18.9447115,18.2931055 19.25,18.8395703 C19.2567308,18.8539258 19.2706731,18.8874219 19.2807692,18.9113477 C19.3738916,19.1595703 19.5133643,19.3880126 19.6918269,19.5846191 C20.0331731,19.9454199 20.5067308,20.1200781 21.0254808,20.0774902 C22.2240385,19.9793945 22.6158654,18.9587207 22.7447115,18.6237598 C23.15,17.5686328 23.6581731,16.5661426 24.1985577,15.5028809 C24.3235577,15.2564453 24.4490385,15.0095312 24.5730769,14.7621387 C25.8230769,12.2700293 27.2894231,10.2956738 28.9384615,8.89314453 C30.1269231,7.88251953 31.275,7.20972656 32.3519231,6.89390625 C32.9538462,6.71733398 33.7322115,6.81255859 34.4341346,7.14847656 C35.1163462,7.47530273 35.6230769,7.98540039 35.7889423,8.51320312 C36.2730769,10.0693359 36.1923077,11.2015039 35.4889423,12.5413477 Z"/>
        <path fill="#FFF" fill-rule="nonzero" d="M6.21826923,25.4445215 L6.21826923,25.4445215 C5.4875,25.4665332 4.84807692,25.7507715 4.37019231,26.2656543 C3.74519231,26.9355762 3.44903846,27.9667773 3.51057692,29.2405859 C3.55865385,30.2454687 4.00480769,30.8469629 4.36923077,31.1742676 C4.90144231,31.6527832 5.61923077,31.892041 6.50336538,31.892041 C6.59663462,31.892041 6.69150641,31.8894889 6.78798077,31.8843848 C7.71971154,31.8331836 8.45048077,31.525498 8.95961538,30.9699414 C9.46875,30.4143848 9.70961538,29.6568945 9.66442308,28.7309668 C9.5625,26.6417676 8.24134615,25.3818359 6.21826923,25.4445215 Z"/>
        <path fill="#EF453E" fill-rule="nonzero" d="M20.7418269,37.1796387 C17.6413462,37.4322949 15.3509615,36.1144629 13.1822115,34.0769434 C11.7783654,32.9074512 11.0875,30.6014844 11.2966346,28.4338086 C11.4038462,27.3236523 11.5168269,26.257041 11.8572115,25.1918652 C12.8620192,22.0489746 12.2697115,21.4369531 9.81394231,19.1841016 C7.94759615,17.4719727 6.28942308,15.5330273 6.11201923,12.7901758 C5.90384615,9.61091797 8.25192308,7.05181641 11.4423077,6.9690332 C13.0168269,6.92788086 14.5144231,7.01688477 15.8490385,8.03133789 C16.8331731,8.78021484 17.3447115,9.84108398 17.8610577,10.8588867 C18.8254808,12.7595508 19.4634615,14.7975488 19.8870192,16.8924902 C19.9831731,17.3623926 20.0600962,17.8380371 20.2975962,18.2610449 C20.4418269,18.5213574 20.4817308,18.9199609 20.9225962,18.8831152 C21.3389423,18.8486621 21.4942308,18.5160938 21.6182692,18.1940527 C22.1442308,16.824541 22.8384615,15.5335059 23.4932692,14.2262012 C24.6471154,11.9221484 26.1769231,9.66259766 28.1538462,7.98109375 C29.2788462,7.0240625 30.5903846,6.15986328 32.0067308,5.7440332 C33.8576923,5.20091797 36.3629808,6.34791992 36.9307692,8.15335938 C37.4850962,9.91477539 37.4485577,11.3895605 36.55625,13.0935547 C35.0778846,15.9167969 33.0543269,18.2964551 31.1004808,20.7498047 C30.6677885,21.294834 30.2788462,21.8676172 30.0149038,22.5136133 C29.7375,23.1921484 29.6485577,23.8568066 29.8668269,24.6056836 C30.2293269,25.8498242 30.2961538,27.4825195 30.2408654,28.7505859 C30.1346154,31.2010645 29.1831731,33.0830664 27.4692308,34.9712891 C26.0384615,36.5503906 23.8990385,37.0561816 21.9451923,37.1748535 C21.5447115,37.2011719 21.1442308,37.1796387 20.7418269,37.1796387 Z M20.9519231,35.7799805 C21.9841346,35.7909863 22.9798077,35.6235059 23.90625,35.1641309 C26.8774038,33.6912598 28.4596154,30.2760938 27.7975962,26.9724219 C27.2625,24.3003906 27.7975962,21.8465625 29.58125,19.7200391 C31.2245192,17.7619531 32.8865385,15.8196582 34.5091346,13.8448242 C35.4894231,12.6514063 36.0201923,11.2838086 35.8735577,9.70709961 C35.7802885,8.7022168 35.3240385,7.95142578 34.3990385,7.49635742 C33.1740385,6.89438477 31.9149038,7.10349609 30.8605769,7.72125977 C28.6201923,9.03382813 26.7740385,10.7679688 25.7163462,13.2328027 C24.7625,15.4555078 23.7793269,17.6695996 22.6072115,19.7884668 C22.3451923,20.2626758 19.9038462,20.5603125 19.5302885,20.1846777 C19.4418269,20.0966309 19.40625,19.9516406 19.3586538,19.8281836 C18.4663462,17.5159961 17.8375,15.1238965 17.2432692,12.7265332 C16.5701923,10.0138281 14.2538462,8.03995117 11.3721154,8.16484375 C8.73701923,8.27920898 6.84423077,10.4918652 7.45673077,12.780127 C7.77980769,13.9864648 8.26826923,15.1372949 9.21875,16.0383398 C10.9697115,17.6983105 12.4033654,19.6142871 13.7081731,21.633623 C14.4216346,22.75 14.7360577,23.8984375 14.25,25.1904297 C14.0157051,25.812181 13.8008013,26.440791 13.6052885,27.0762598 C12.9596154,29.1817285 13.0677885,31.2345605 14.5048077,32.9720508 C16.1442308,34.9550195 18.3817308,35.8029492 20.9519231,35.7799805 Z"/>
        <path fill="#EF453E" fill-rule="nonzero" d="M24.6379808 8.80461914C24.6264423 10.2755762 23.7014423 11.2010254 22.2413462 11.2024609 20.7326923 11.2024609 19.7730769 10.2932812 19.7831731 8.87400391 19.7942308 7.27863281 20.8644231 6.09 22.2692308 6.11249023 23.6081731 6.13450195 24.6495192 7.31787109 24.6379808 8.80461914zM21.2514423 9.04387695C21.3182692 9.59512695 21.6096154 9.94683594 22.1706731 9.92913086 22.7557692 9.91094727 23.1168269 9.52287109 23.1125 8.9625293 23.1081731 8.4021875 22.7105769 7.98875 22.1538462 8.01171875 21.5971154 8.0346875 21.3264423 8.49980469 21.2514423 9.04387695zM32.4620192 34.3406055C31.2644231 34.3453906 30.6 33.7338477 30.6129808 32.6375684 30.6307692 31.127373 31.6298077 29.945918 32.8783654 29.9578809 33.8096154 29.9669727 34.8495192 31.0393262 34.8735577 32.0121484 34.9 33.1524512 33.6745192 34.3353418 32.4620192 34.3406055zM33.7706731 32.3739062C33.6745192 31.8719434 33.3860577 31.507793 32.8836538 31.5202344 32.3870192 31.5321973 32.0350962 31.8872559 32.0514423 32.3973535 32.0663462 32.8615137 32.3995192 33.1902539 32.86875 33.2036523 33.3932692 33.2184863 33.65625 32.8529004 33.7706731 32.3739062zM8.46394231 28.7888672C8.52195513 29.9873893 7.9411859 30.6211035 6.72163462 30.6900098 5.45913462 30.7593945 4.7625 30.237334 4.71105769 29.1826855 4.63509615 27.6107617 5.20480769 26.6738281 6.25528846 26.640332 7.61586538 26.5987012 8.39423077 27.3557129 8.46394231 28.7888672zM6.53701923 29.9373047C7.1375 29.8727051 7.56201923 29.5841602 7.65721154 28.9912793 7.73701923 28.4960156 7.06634615 27.847627 6.54519231 27.8428418 6.03990385 27.8385352 5.46057692 28.4117969 5.49567308 28.9405566 5.5375 29.5698047 5.97980769 29.8272461 6.53701923 29.9387402L6.53701923 29.9373047zM33.1019231 22.5045215C34.1076923 22.4930371 34.7451923 23.0103125 34.7403846 23.8347949 34.7346154 24.7975684 34.0485577 25.5048145 33.1024038 25.522998 32.2264423 25.5402246 31.6225962 25.0033301 31.6288462 24.2137793 31.6375 23.1567383 32.1908654 22.5145703 33.1019231 22.5045215zM7.56105769 20.4024023C8.39230769 20.3861328 8.99086538 20.9483887 9.0125 21.7666504 9.03461538 22.6035742 8.41057692 23.2500488 7.57692308 23.2500488 6.775 23.2524414 6.17019231 22.6404199 6.17163462 21.8283789 6.17355769 20.987627 6.72692308 20.4186719 7.56105769 20.4024023z"/>
        <path fill="#5B2C4A" fill-rule="nonzero" d="M20.9519231,35.7799805 C18.3817308,35.8029492 16.1442308,34.9550195 14.5048077,32.9701367 C13.0677885,31.2326465 12.9596154,29.180293 13.6052885,27.0743457 C13.8001603,26.439515 14.0150641,25.8109049 14.25,25.1885156 C14.7360577,23.8965234 14.4216346,22.7480859 13.7033654,21.6355371 C12.3985577,19.6162012 10.9629808,17.7002246 9.21394231,16.0402539 C8.26346154,15.1416016 7.775,13.9883789 7.45192308,12.782041 C6.83942308,10.4937793 8.73221154,8.28112305 11.3673077,8.16675781 C14.2490385,8.04186523 16.5649038,10.0157422 17.2384615,12.7284473 C17.8341346,15.1258105 18.4629808,17.5179102 19.3538462,19.8300977 C19.4019231,19.9535547 19.4370192,20.0985449 19.5254808,20.1865918 C19.9004808,20.5622266 22.3418269,20.2645898 22.6024038,19.7903809 C23.7745192,17.6695996 24.7576923,15.4555078 25.7115385,13.2347168 C26.7692308,10.7698828 28.6173077,9.03574219 30.8557692,7.72317383 C31.9100962,7.10541016 33.1692308,6.89629883 34.3942308,7.49827148 C35.3192308,7.95333984 35.7754808,8.70652344 35.86875,9.70901367 C36.0129808,11.2857227 35.4841346,12.6533203 34.5043269,13.8467383 C32.8817308,15.8215723 31.2197115,17.7638672 29.5764423,19.7219531 C27.7913462,21.8484766 27.2576923,24.3023047 27.7927885,26.9743359 C28.4548077,30.2760937 26.8725962,33.6931738 23.9014423,35.1660449 C22.9798077,35.6220703 21.9841346,35.7909863 20.9519231,35.7799805 Z M21.0697115,34.800459 C21.5716346,34.7320312 22.0932692,34.7277246 22.5730769,34.585127 C25.2653846,33.7850488 27.4884615,31.0249707 26.8254808,27.359541 C26.2350962,24.0960645 26.9216346,21.2541602 29.0903846,18.738125 C30.6903846,16.8827604 32.2652244,15.0042676 33.8149038,13.1026465 C34.5798077,12.167627 34.9951923,11.0847461 34.9,9.84874023 C34.8293269,8.92951172 34.1557692,8.18302734 33.2653846,8.18446289 C32.5774038,8.18446289 31.85,8.21269531 31.2485577,8.60651367 C29.3038462,9.88080078 27.5995192,11.3756836 26.6442308,13.5744629 C25.81875,15.4765625 24.9423077,17.359043 24.0769231,19.2453516 C23.9,19.6310352 23.4629808,20.0195898 23.5100962,20.3559863 C23.5730769,20.7986133 24.25,20.7143945 24.6043269,20.9670508 C24.6272079,20.9808667 24.6507977,20.9934848 24.675,21.0048535 C24.9033654,21.1354883 25.0567308,21.3173242 24.9735577,21.5910352 C24.875,21.9135547 24.6100962,21.9556641 24.3259615,21.8901074 C24.1456731,21.8484766 23.9778846,21.753252 23.7971154,21.7039648 C22.0182692,21.2173145 20.2350962,20.9818848 18.4567308,21.6853027 C18.1475962,21.8078027 17.8475962,22.0202637 17.6221154,21.6398437 C17.3875,21.2426758 17.6586538,20.9325977 17.9899038,20.8115332 C18.5620192,20.6024219 18.5014423,20.2913867 18.3197115,19.8391895 C17.40625,17.560498 16.8240385,15.1798828 16.2365385,12.8050098 C15.6302885,10.3564453 13.1875,8.77016602 10.6783654,9.25920898 C9.14230769,9.55923828 8.03894231,11.0565137 8.41538462,12.5021094 C8.67451923,13.4955078 9.05913462,14.4563672 9.81875,15.2406543 C11.1923077,16.656582 12.4423077,18.170127 13.65625,19.7324805 C15.5052885,22.1097461 15.9230769,24.4726562 14.6442308,27.2298633 C14.0254808,28.5634863 14.0764423,30.039707 14.7105769,31.4230957 C15.6634615,33.5027246 18.5293269,35.0062207 21.0697115,34.800459 L21.0697115,34.800459 Z"/>
        <path fill="#F3E3C6" fill-rule="nonzero" d="M21.0697115,34.800459 C18.5293269,35.0062207 15.6639423,33.5027246 14.7105769,31.4230957 C14.0764423,30.039707 14.0254808,28.5634863 14.6442308,27.2298633 C15.9230769,24.4731348 15.5052885,22.1097461 13.65625,19.7324805 C12.4423077,18.170127 11.1923077,16.656582 9.81875,15.2406543 C9.05913462,14.4563672 8.67451923,13.4955078 8.41538462,12.5021094 C8.03894231,11.0565137 9.14230769,9.55923828 10.6783654,9.25920898 C13.1875,8.77016602 15.6302885,10.3550098 16.2375,12.8054883 C16.825,15.1798828 17.4052885,17.560498 18.3206731,19.839668 C18.5024038,20.2918652 18.5610577,20.6029004 17.9908654,20.8120117 C17.6596154,20.9330762 17.3884615,21.2426758 17.6230769,21.6403223 C17.8485577,22.0231348 18.1485577,21.8082813 18.4576923,21.6857813 C20.2365385,20.9823633 22.0197115,21.217793 23.7980769,21.7044434 C23.9774038,21.7522949 24.1451923,21.847998 24.3269231,21.8905859 C24.6110577,21.9561426 24.8759615,21.9140332 24.9745192,21.5915137 C25.0576923,21.3178027 24.9043269,21.1359668 24.6759615,21.005332 C24.6517592,20.9939633 24.6281694,20.9813453 24.6052885,20.9675293 C24.2509615,20.714873 23.5740385,20.7990918 23.5110577,20.3564648 C23.4629808,20.0215039 23.9009615,19.6315137 24.0778846,19.2458301 C24.9432692,17.3595215 25.8201923,15.477041 26.6475962,13.5735059 C27.6028846,11.3747266 29.3072115,9.87984375 31.2519231,8.60555664 C31.8533654,8.21173828 32.5807692,8.18494141 33.26875,8.18350586 C34.1572115,8.18350586 34.8307692,8.92855469 34.9033654,9.8477832 C34.9995192,11.0852246 34.5831731,12.1681055 33.8182692,13.1016895 C32.2660256,14.9991634 30.6911859,16.8784538 29.09375,18.7395605 C26.9269231,21.2555957 26.2384615,24.0989355 26.8288462,27.3609766 C27.4918269,31.0240137 25.2673077,33.7840918 22.5764423,34.5865625 C22.0932692,34.7277246 21.5716346,34.7320313 21.0697115,34.800459 Z M20.4043269,33.5213867 C21.9658654,33.5500977 22.925,33.0658398 23.7538462,32.3825195 C24.6932692,31.6073242 25.3644231,30.6148828 25.6403846,29.3984961 C25.7076923,29.1013379 25.6403846,28.8568164 25.3307692,28.7615918 C25.0591346,28.6788086 24.8620192,28.830498 24.7442308,29.0620996 C24.6610577,29.225752 24.6269231,29.4133301 24.5519231,29.5832031 C24.125,30.5789941 23.5480769,31.4541992 22.5625,32.0016211 C21.4399038,32.6236914 21.3975962,32.6079004 21.2120192,31.3144727 C21.1591346,30.9455371 21.1341346,30.5718164 21.0596154,30.2081445 C20.9850962,29.8444727 21.1009615,29.6664648 21.4649038,29.5860742 C22.0581731,29.455918 22.525,29.0941602 22.9528846,28.6869434 C23.1572115,28.4921875 23.2918269,28.2400098 23.0870192,27.9782617 C22.8586538,27.6858887 22.5552885,27.725127 22.3177885,27.9543359 C21.2466346,28.9812305 20.1206731,28.8510742 18.9524038,28.153877 C18.6639423,27.9806543 18.3355769,27.8519336 18.1206731,28.2352246 C17.9149038,28.6027246 18.1725962,28.8314551 18.4600962,29.011377 C18.5947115,29.0960742 18.7379808,29.1865137 18.8899038,29.2224023 C19.8413462,29.4473047 20.2081731,30.0688965 20.1586538,31.0015234 C20.1341346,31.4685547 20.5677885,32.1289063 20.2350962,32.3413672 C19.7456731,32.6562305 19.1293269,32.2274805 18.5971154,31.9944434 C17.4197115,31.4786035 16.9225962,30.4153418 16.44375,29.3377246 C16.3259615,29.0721484 16.1798077,28.844375 15.8572115,28.9233301 C15.5009615,29.0099414 15.4394231,29.2999219 15.4956731,29.6176563 C15.5253893,29.7471429 15.5677377,29.8734322 15.6221154,29.9947266 C16.4927885,32.2207813 18.4100962,33.5166016 20.4043269,33.5213867 Z M11.7269231,10.1860938 C10.6600962,10.1449414 9.86730769,10.9163086 9.84375,12.017373 C9.825,12.9093262 10.7658654,13.7787891 11.8221154,13.8448242 C12.7485577,13.9027246 13.65625,13.0385254 13.7072115,12.0499121 C13.7586538,11.0526855 12.8855769,10.2310742 11.7269231,10.1860938 Z M33.2451923,11.2603613 C33.2379808,10.4741602 32.4129808,9.71714844 31.5533654,9.70757813 C30.6399038,9.6975293 29.5639423,10.7560059 29.5740385,11.6513086 C29.5831731,12.4131055 30.4721154,13.2509863 31.2788462,13.257207 C32.1293269,13.2634277 33.2528846,12.1226465 33.2451923,11.2603613 Z M15.4711538,15.6818457 C15.45625,14.8970801 14.6538462,14.2070605 13.7711538,14.2199805 C13.13125,14.2295508 12.4552885,14.9679004 12.4456731,15.6674902 C12.4341346,16.5240332 13.1379808,17.2676465 13.9274038,17.2322363 C14.7168269,17.1968262 15.4831731,16.427373 15.4711538,15.6818457 Z M28.7884615,13.698877 C27.8961538,13.7098828 27.3076923,14.3932031 27.3153846,15.4086133 C27.3206731,16.1316504 27.7139423,16.4962793 28.4817308,16.4900586 C29.4432692,16.4824023 30.29375,15.7067285 30.2899038,14.8387012 C30.2826923,14.0926953 29.75,13.6864355 28.7841346,13.698877 L28.7884615,13.698877 Z M26.1860577,18.3596191 C25.34375,18.3811523 24.8932692,18.7256836 24.9177885,19.4401074 C24.9365385,19.9841797 25.5524038,20.4722656 26.2158654,20.469873 C26.8793269,20.4674805 27.675,19.7109473 27.6048077,19.0773926 C27.5158654,18.3065039 26.9105769,18.3294727 26.1817308,18.3596191 L26.1860577,18.3596191 Z M14.9423077,19.2496582 C14.9461538,20.009541 15.3490385,20.5717969 15.8697115,20.5784961 C16.3774038,20.5851953 17.0480769,19.8229199 17.0139423,19.2209473 C16.9764423,18.5510254 16.5274038,18.3328223 15.9158654,18.326123 C15.2620192,18.3189453 14.9019231,18.5964844 14.9423077,19.2496582 Z M17.5913462,26.8480078 C18.2163462,26.8523145 18.7274038,26.3508301 18.7423077,25.7871387 C18.7536224,25.5186617 18.6523629,25.2575735 18.4627398,25.0662986 C18.2731167,24.8750237 18.0121762,24.7707569 17.7423077,24.7784277 C16.9451923,24.7999609 16.9274038,25.4483496 16.8581731,25.9747168 C16.7889423,26.501084 17.1125,26.808291 17.5913462,26.8480078 Z M23.3485577,26.592002 C23.9298077,26.5015625 24.3581731,26.1981836 24.3759615,25.5770703 C24.39375,24.955957 23.96875,24.6492285 23.3971154,24.6559277 C22.7201923,24.6640625 22.5076923,25.2349316 22.4615385,25.7536426 C22.4153846,26.2723535 22.8129808,26.5460645 23.3485577,26.592002 L23.3485577,26.592002 Z"/>
        <path fill="#5B2C4A" fill-rule="nonzero" d="M20.4043269,33.5213867 C18.4100962,33.5166016 16.4927885,32.2207813 15.6192308,29.9971191 C15.5648531,29.8758248 15.5225047,29.7495355 15.4927885,29.6200488 C15.4365385,29.3023145 15.4980769,29.012334 15.8543269,28.9257227 C16.1769231,28.8467676 16.3230769,29.074541 16.4408654,29.3401172 C16.9216346,30.4158203 17.4168269,31.4809961 18.5942308,31.9968359 C19.1269231,32.229873 19.7427885,32.658623 20.2322115,32.3437598 C20.5649038,32.1298633 20.13125,31.4695117 20.1557692,31.003916 C20.2038462,30.0712891 19.8384615,29.4496973 18.8870192,29.2247949 C18.7350962,29.1889063 18.5918269,29.0984668 18.4572115,29.0137695 C18.16875,28.8338477 17.9120192,28.6051172 18.1177885,28.2376172 C18.3326923,27.8548047 18.6591346,27.9830469 18.9495192,28.1562695 C20.1192308,28.8534668 21.2451923,28.983623 22.3149038,27.9567285 C22.5552885,27.7275195 22.8572115,27.6882813 23.0841346,27.9806543 C23.2889423,28.2424023 23.1543269,28.4945801 22.95,28.6893359 C22.5221154,29.0965527 22.0552885,29.4583105 21.4620192,29.5884668 C21.0980769,29.6679004 20.98125,29.8483008 21.0567308,30.2105371 C21.1322115,30.5727734 21.15625,30.9479297 21.2091346,31.3168652 C21.3947115,32.6088574 21.4370192,32.6275195 22.5596154,32.0040137 C23.5480769,31.4541992 24.125,30.5789941 24.5533654,29.5832031 C24.6269231,29.4133301 24.6610577,29.225752 24.7456731,29.0620996 C24.8634615,28.830498 25.0605769,28.6792871 25.3322115,28.7615918 C25.64375,28.8572949 25.7091346,29.1013379 25.6418269,29.3984961 C25.3658654,30.6148828 24.6947115,31.6073242 23.7552885,32.3825195 C22.9230769,33.0658398 21.9658654,33.5500977 20.4043269,33.5213867 Z"/>
        <path fill="#EF453E" fill-rule="nonzero" d="M11.7269231 10.1860937C12.8855769 10.2310742 13.7586538 11.0526855 13.7072115 12.0499121 13.65625 13.0385254 12.7485577 13.9027246 11.8221154 13.8448242 10.7644231 13.7787891 9.825 12.9093262 9.84375 12.017373 9.86730769 10.9163086 10.6600962 10.1449414 11.7269231 10.1860937zM33.2451923 11.2603613C33.2528846 12.1216895 32.1293269 13.2634277 31.2788462 13.257207 30.4721154 13.2509863 29.5831731 12.4131055 29.5740385 11.6513086 29.5639423 10.7560059 30.6413462 9.6975293 31.5533654 9.70757813 32.4129808 9.71714844 33.2379808 10.4741602 33.2451923 11.2603613zM15.4711538 15.6818457C15.4850962 16.427373 14.7192308 17.1968262 13.9274038 17.2322363 13.1355769 17.2676465 12.4322115 16.5240332 12.4423077 15.6679688 12.4519231 14.9683789 13.1278846 14.2300293 13.7677885 14.220459 14.6538462 14.2070605 15.4543269 14.8970801 15.4711538 15.6818457zM28.7841346 13.698877C29.7456731 13.6864355 30.2826923 14.0926953 30.2855769 14.8387012 30.2894231 15.7067285 29.4399038 16.4824023 28.4774038 16.4900586 27.7081731 16.4962793 27.3163462 16.1316504 27.3110577 15.4086133 27.3033654 14.3932031 27.8918269 13.7098828 28.7841346 13.698877zM26.1817308 18.3596191C26.9105769 18.3294727 27.5158654 18.3065039 27.6019231 19.0773926 27.6721154 19.7109473 26.8783654 20.4674805 26.2129808 20.469873 25.5475962 20.4722656 24.9322115 19.9841797 24.9149038 19.4401074 24.8889423 18.7256836 25.3394231 18.3811523 26.1817308 18.3596191zM14.9423077 19.2496582C14.9014423 18.5964844 15.2615385 18.3189453 15.9158654 18.326123 16.5274038 18.3328223 16.9764423 18.5529395 17.0139423 19.2209473 17.0480769 19.8229199 16.3774038 20.5851953 15.8697115 20.5784961 15.3495192 20.5717969 14.9466346 20.009541 14.9423077 19.2496582z"/>
        <path fill="#5B2C4A" fill-rule="nonzero" d="M17.5913462 26.8480078C17.1105769 26.808291 16.7879808 26.5049121 16.8581731 25.9747168 16.9283654 25.4445215 16.9451923 24.7999609 17.7423077 24.7784277 18.011847 24.7712977 18.2722753 24.8758028 18.4614719 25.0670152 18.6506685 25.2582276 18.7516702 25.5190033 18.7403846 25.7871387 18.7274038 26.3508301 18.2144231 26.8523145 17.5913462 26.8480078zM23.3485577 26.592002C22.8129808 26.5441504 22.4149038 26.2723535 22.4615385 25.7536426 22.5081731 25.2349316 22.7201923 24.6640625 23.3971154 24.6559277 23.96875 24.6492285 24.3942308 24.9621777 24.3759615 25.5770703 24.3576923 26.1919629 23.9298077 26.5015625 23.3485577 26.592002z"/>
      </g>
    </g>
    <rect width="48" height="48"/>
    <g transform="rotate(-10 39.645 5.355)">
      <rect width="42" height="42"/>
      <circle cx="21" cy="21" r="16.625" fill="#FFCC4D" fill-rule="nonzero" stroke="#FFF" stroke-width="2"/>
      <path fill="#FFF" fill-rule="nonzero" d="M5.74038462,37.0853027 C6.21490385,37.6489941 6.91346154,37.827959 7.58894231,37.9629004 C8.96975575,38.2372391 10.3746421,38.3736548 11.7826923,38.3701172 C13.6480769,38.364375 15.6495192,38.3734668 17.6423077,38.4763477 C18.5480769,38.5241992 19.4817308,38.5600879 20.4307692,38.5600879 C21.6528846,38.5600879 22.8975962,38.4988379 24.1326923,38.3184375 C25.3846154,38.1356445 26.3461538,38.1308594 27.15625,38.3098242 C29.0764423,38.7290039 30.8581731,38.4457227 32.5841346,38.1720117 C33.3533654,38.0499902 34.0745192,37.9327539 34.8028846,37.8815527 C35.9716346,37.796377 36.7216346,36.972373 36.7134615,35.7842187 C36.7134615,35.5660156 36.7134615,35.3401562 36.7134615,35.1219531 C36.7192308,34.090752 36.7254808,33.0241406 36.4730769,31.919248 C36.0932692,30.2444434 35.33125,29.4391016 33.7884615,29.1098828 C33.7509615,27.4987207 33.7057692,25.8679395 33.6620192,24.2874023 C33.5908654,21.7096387 33.5177885,19.0447852 33.4740385,16.4258691 C33.4408654,14.4094043 33.3298077,12.7891504 33.1197115,11.3253711 C32.6052885,7.71832031 30.0091346,5.57839844 28.1014423,4.28209961 C27.4270952,3.83037325 26.6810662,3.49502057 25.8947115,3.29013672 C24.6081731,2.94608398 22.44375,2.70491211 20.3807692,2.67572266 C18.5581731,2.64988281 16.0985577,2.78195312 14.7317308,3.55858398 C12.7649038,4.67591797 10.8043269,6.08801758 9.77980769,8.83374023 C8.91442308,11.1478418 8.51634615,13.7538379 8.55625,16.8010254 C8.56538462,17.5006152 8.58365385,18.2083398 8.60096154,18.8930957 C8.63798077,20.3224219 8.67644231,21.8005566 8.63076923,23.234668 C8.56682692,25.2310352 8.57596154,27.1905566 8.59038462,28.6744336 L8.59038462,28.7112793 C7.70048077,28.7868848 6.78798077,28.9505371 6.13557692,29.6242871 C5.48317308,30.2980371 5.35240385,31.2210937 5.31346154,32.1125684 C5.30769231,32.2374609 5.30480769,32.361875 5.30288462,32.4848535 L5.20673077,32.4848535 L5.20673077,33.6811426 C5.20673077,33.8294824 5.20673077,33.9778223 5.20673077,34.1266406 C5.20673077,34.4525098 5.20673077,34.7898633 5.20673077,35.1248242 C5.21586538,35.8038379 5.26201923,36.5163477 5.74038462,37.0853027 Z M7.71153846,33.18875 C7.70721154,32.8494824 7.70384615,32.528877 7.71730769,32.2164062 C7.75096154,31.4507812 7.85769231,31.2986133 7.86826923,31.2852148 C7.87884615,31.2718164 8.03028846,31.1603223 8.80240385,31.0938086 C9.51394231,31.0335156 10.0754808,30.9861426 10.5254808,30.5301172 C11.0125,30.0367676 11.00625,29.4266602 10.9975962,28.7816211 L10.9975962,28.6495508 C10.9831731,27.1886426 10.9745192,25.2621387 11.0365385,23.3097949 C11.0846154,21.8067773 11.0451923,20.2951465 11.0076923,18.8304102 C10.9899038,18.1537891 10.9721154,17.4537207 10.9629808,16.7689648 C10.9274038,14.0218066 11.2783654,11.6966992 12.0365385,9.66540039 C12.65625,8.00351562 13.7471154,6.87374023 15.9259615,5.63582031 C17.4307692,4.78119141 23.0110577,4.99508789 25.2745192,5.59993164 C25.8004132,5.73503289 26.2996997,5.95729979 26.7514423,6.25741211 C29.2192308,7.9322168 30.4504808,9.60032227 30.7447115,11.6608105 C30.9370192,13.022666 31.04375,14.5491309 31.0754808,16.4641504 C31.1182692,19.0959863 31.1923077,21.7680176 31.2639423,24.3524805 C31.3120192,26.021543 31.3576923,27.7499414 31.3966346,29.4448437 C31.4216346,30.5301172 32.0370192,31.2311426 33.1274038,31.4177637 C33.4961538,31.4809277 33.7322115,31.5613184 33.8293269,31.6598926 C33.9360577,31.7670801 34.0379808,32.0316992 34.1322115,32.4460937 L34.1322115,32.4460937 C34.3245192,33.2839746 34.3173077,34.16875 34.3120192,35.1080762 C34.3120192,35.2434961 34.3120192,35.3817871 34.3120192,35.5210352 C33.5942308,35.5880273 32.8913462,35.6995215 32.2086538,35.8081445 C30.6355769,36.0579297 29.15,36.2938379 27.6745192,35.9717969 C26.2254808,35.655498 24.7610577,35.8081445 23.7850962,35.9507422 C21.9100962,36.2244531 20.0240385,36.2029199 17.7697115,36.0866406 C15.9961538,35.9962012 14.2307692,35.9775391 12.5610577,35.9775391 C12.2969551,35.9775391 12.0352564,35.9775391 11.7759615,35.9775391 C10.5287905,35.9811937 9.28440403,35.8601598 8.06153846,35.6162598 C7.85096154,35.5741504 7.71586538,35.5411328 7.62884615,35.51625 C7.62115385,35.4305957 7.61442308,35.2990039 7.6125,35.0989844 C7.6125,35.0238574 7.6125,34.9487305 7.6125,34.8726465 L7.71490385,34.8726465 L7.71490385,33.6806641 C7.71346154,33.5155762 7.71153846,33.3519238 7.71009615,33.18875 L7.71153846,33.18875 Z"/>
      <path fill="#5B2C4A" fill-rule="nonzero" d="M6.51153846,33.6806641 C6.51153846,33.1758301 6.49326923,32.6700391 6.51490385,32.1661621 C6.58894231,30.4793945 7.0125,30.0472949 8.69903846,29.9046973 C9.85288462,29.8089941 9.80480769,29.8089941 9.79278846,28.6643848 C9.775,26.8685156 9.775,25.0726465 9.83221154,23.2743848 C9.90096154,21.1153223 9.78653846,18.9500391 9.75865385,16.787627 C9.725,14.2132129 10.0014423,11.6799512 10.9067308,9.25196289 C11.7134615,7.08907227 13.1788462,5.82004883 15.3274038,4.59983398 C17.3230769,3.46575195 23.3432692,3.84856445 25.5831731,4.44766602 C26.2398255,4.61689301 26.8629118,4.8956682 27.4259615,5.27214844 C29.68125,6.80339844 31.5322115,8.69449219 31.9317308,11.4952441 C32.1639423,13.1221973 32.2471154,14.7869531 32.2740385,16.4474023 C32.3451923,20.7722266 32.4961538,25.0956152 32.5951923,29.4199609 C32.6076923,29.9511133 32.8269231,30.155918 33.3298077,30.2415723 C34.5903846,30.4573828 35.0158654,30.9220215 35.3009615,32.1848242 C35.5725962,33.3811133 35.5019231,34.5874512 35.5096154,35.7942676 C35.5134615,36.3369043 35.2485577,36.6512891 34.7129808,36.6905273 C32.2836538,36.8680566 29.9081731,37.6882324 27.4120192,37.1432031 C26.2932692,36.8986816 25.1115385,36.9685449 23.9548077,37.1374609 C21.8783654,37.4403613 19.7884615,37.3920312 17.7048077,37.2843652 C15.7298077,37.1805273 13.7548077,37.1685645 11.7788462,37.1738281 C10.4511574,37.1788956 9.12634142,37.0506422 7.82451923,36.7910156 C6.59711538,36.5460156 6.42211538,36.3359473 6.41057692,35.1123828 C6.40576923,34.6338672 6.41057692,34.1577441 6.41057692,33.6801855 L6.51153846,33.6806641 Z M27.1528846,20.033877 C27.1528846,18.4346777 27.2091346,16.5502832 27.1370192,14.6706738 C27.0658654,12.8130762 26.6850962,11.0038086 25.7826923,9.34527344 C25.4461538,8.72894531 25.0841346,8.12553711 24.6971154,7.5403125 C24,6.48757812 23.1721154,5.60663086 21.8125,5.42240234 C21.2586538,5.34775391 20.6105769,5.19367187 20.0336538,5.15012695 C18.8317308,5.05825195 17.8158654,4.94149414 16.6927885,5.29033203 C16.3697115,5.39082031 16.1019231,5.63964844 15.7826923,5.73535156 C13.7985577,6.3244043 12.7538462,7.81402344 12.0807692,9.61132812 C11.1192308,12.1675586 10.9293269,14.8209277 11.0076923,17.5422461 C11.1168269,21.3325684 11.05,25.1276758 11.0355769,28.9208691 C11.0355769,29.545332 11.1798077,29.8027734 11.8899038,29.7769336 C13.5245192,29.7175977 15.1639423,29.7520508 16.8009615,29.7711914 C19.8951923,29.8070801 22.9889423,29.8582812 26.0826923,29.9046973 C26.5552885,29.911875 26.9480769,29.9295801 26.9894231,29.2400391 C27.1634615,26.2675 27.1903846,23.2935254 27.1528846,20.033877 Z M7.71298077,33.6375977 C7.59423077,35.6727246 7.63125,35.6803809 9.49807692,35.8421191 C12.7591346,36.1249219 16.0365385,35.8655664 19.2947115,36.1517187 C21.7240385,36.3646582 24.1168269,35.7421094 26.5461538,35.8244141 C27.59375,35.8598242 28.5975962,36.1804297 29.6466346,36.159375 C30.2389423,36.1483691 30.5634615,35.9239453 30.5163462,35.3061816 C30.4331731,34.2189941 30.3600962,33.1308496 30.2480769,32.0465332 C30.1673077,31.2665527 29.6331731,30.997627 28.9057692,30.936377 C28.2067308,30.8775195 27.5798077,31.245498 26.9144231,31.2493262 C23.7052885,31.2679883 20.4903846,31.3584277 17.2894231,31.1938184 C14.4490385,31.0502637 11.6163462,31.366084 8.77980769,31.1225195 C8.10673077,31.0646191 7.73221154,31.4407324 7.71442308,32.1216602 C7.70240385,32.6279297 7.71298077,33.1327637 7.71298077,33.6375977 Z"/>
      <path fill="#96748A" fill-rule="nonzero" d="M27.1528846 20.033877C27.1903846 23.2935254 27.1649038 26.2675 26.9894231 29.2409961 26.9485577 29.9305371 26.5567308 29.910918 26.0826923 29.9056543 22.9889423 29.8578027 19.8951923 29.8099512 16.8009615 29.7721484 15.1663462 29.7530078 13.525 29.7185547 11.8899038 29.7778906 11.1802885 29.8037305 11.0336538 29.5462891 11.0355769 28.9218262 11.05 25.1286328 11.1168269 21.3335254 11.0076923 17.5432031 10.9293269 14.8218848 11.1211538 12.1685156 12.0807692 9.61228516 12.7538462 7.81498047 13.7985577 6.32536133 15.7826923 5.73630859 16.1019231 5.64060547 16.3807692 5.4209668 16.6927885 5.29033203 17.83125 4.81181641 18.8475962 4.81181641 20.1658654 5.06208008 20.7322115 5.16926758 21.2567308 5.34918945 21.8105769 5.42240234 23.1721154 5.60663086 24 6.48614258 24.6951923 7.5403125 25.0822115 8.12553711 25.4456731 8.72894531 25.7807692 9.34527344 26.6831731 11.0038086 27.0639423 12.8130762 27.1350962 14.6706738 27.2115385 16.5498047 27.1528846 18.4346777 27.1528846 20.033877zM25.2836538 13.3408789C25.2836538 12.8508789 25.2836538 12.5135254 25.2836538 12.1766504 25.2778846 10.9372949 24.7548077 9.87451172 24.0153846 8.9428418 23.4495192 8.23033203 22.5625 7.97671875 21.7139423 8.25186523 20.6831731 8.58682617 20.0548077 9.41513672 19.8754808 10.4870117 19.5543269 12.409209 19.6663462 14.3462402 19.7932692 16.2770508 19.8177885 16.6464648 19.9216346 16.9761621 19.3778846 16.9421875 19.0004808 16.9187402 18.5394231 17.1450781 18.4759615 16.4225195 18.3786294 15.2494565 18.3417221 14.0722017 18.3653846 12.8953809 18.3793269 11.9460059 18.1274038 11.0688867 17.7591346 10.2099512 17.3668269 9.29407227 16.71875 8.65573242 15.7100962 8.52461914 14.6182692 8.38345703 13.8711538 9.0409375 13.3423077 9.85824219 12.4129808 11.2937891 12.6211538 12.8728906 13.0653846 14.4041406 13.5802885 16.1669922 14.0903846 17.9040039 13.5774038 19.7654297 13.3625 20.5458887 13.1846154 21.3493164 13.1158654 22.1532227 13.0197115 23.2896973 12.9091346 24.4280859 13.6322115 25.4832129 15.3846154 28.0375293 17.8365385 28.3504785 20.6927885 27.9461328 24.0139423 27.475752 26.09375 23.573457 24.9764423 20.3889355 24.5596154 19.2012598 24.5288462 18.0509082 24.7889423 16.8388281 25.0480769 15.6377539 25.4206731 14.4443359 25.2836538 13.3408789zM7.71298077 33.6375977C7.71298077 33.1327637 7.70240385 32.6274512 7.71298077 32.1226172 7.73076923 31.4416895 8.10673077 31.0655762 8.77836538 31.1234766 11.6149038 31.367041 14.4466346 31.0488281 17.2879808 31.1947754 20.4889423 31.3593848 23.7038462 31.2689453 26.9129808 31.2502832 27.5783654 31.2464551 28.2052885 30.8784766 28.9043269 30.937334 29.6317308 30.998584 30.1658654 31.2675098 30.2466346 32.0474902 30.3586538 33.1318066 30.4317308 34.2199512 30.5149038 35.3071387 30.5629808 35.9249023 30.2375 36.1493262 29.6451923 36.160332 28.5961538 36.1804297 27.5923077 35.8598242 26.5447115 35.8253711 24.1153846 35.7430664 21.7225962 36.3656152 19.2932692 36.1526758 16.0336538 35.8655664 12.7576923 36.1258789 9.49663462 35.8430762 7.63125 35.6803809 7.59615385 35.6727246 7.71298077 33.6375977z"/>
      <path fill="#5B2C4A" fill-rule="nonzero" d="M25.2836538,13.3408789 C25.4206731,14.4448145 25.0466346,15.6377539 24.7889423,16.8388281 C24.5288462,18.0509082 24.5596154,19.2012598 24.9764423,20.3889355 C26.09375,23.573457 24.0149038,27.475752 20.6927885,27.9461328 C17.8365385,28.3504785 15.3846154,28.0375293 13.6322115,25.4832129 C12.9110577,24.4280859 13.0192308,23.2896973 13.1158654,22.1532227 C13.1846154,21.3493164 13.3625,20.5458887 13.5774038,19.7654297 C14.0903846,17.9040039 13.5802885,16.1669922 13.0668269,14.4060547 C12.6211538,12.8748047 12.4144231,11.2957031 13.34375,9.86015625 C13.8725962,9.04285156 14.6197115,8.38537109 15.7115385,8.5265332 C16.7211538,8.65764648 17.3682692,9.29598633 17.7605769,10.2118652 C18.1288462,11.0731934 18.3807692,11.9479199 18.3668269,12.8972949 C18.3425084,14.0742425 18.3787738,15.2516574 18.4754808,16.4249121 C18.5389423,17.1474707 19,16.9211328 19.3774038,16.9445801 C19.9211538,16.9785547 19.8173077,16.6488574 19.7927885,16.2794434 C19.6658654,14.3481543 19.5524038,12.411123 19.875,10.4894043 C20.0543269,9.4175293 20.6826923,8.58826172 21.7134615,8.25425781 C22.5620192,7.97911133 23.4490385,8.23272461 24.0149038,8.94523438 C24.7538462,9.8769043 25.2774038,10.9396875 25.2831731,12.179043 C25.2850962,12.5135254 25.2836538,12.8508789 25.2836538,13.3408789 Z M17.1004808,14.720918 C17.1288462,13.4011719 17.1932692,12.0780762 16.6331731,10.8262793 C16.3927885,10.2855566 16.0600962,9.73574219 15.4269231,9.83431641 C14.8019231,9.93001953 14.25,10.4209766 14.1692308,11.062666 C14.0471154,12.025918 13.9427885,13.0245801 14.2759615,13.9816113 C15.0480769,16.1957031 15.4591346,18.4160156 14.6634615,20.7349023 C14.4389423,21.3890332 14.4230769,22.1149414 14.3221154,22.8092676 C14.15,24.0089063 14.6471154,24.9094727 15.5346154,25.6947168 C16.5264423,26.572793 17.7288462,26.6158594 18.9365385,26.7345313 C22.4110577,27.0757129 24.91875,23.8093652 23.6649038,20.539668 C23.2660975,19.5130652 23.1701884,18.3944453 23.3884615,17.3154297 C23.5384615,16.543584 23.7596154,15.7803516 23.8423077,15.0018066 C24.0105769,13.4179199 24.2552885,11.8177637 23.3995192,10.3157031 C23.1288462,9.84101563 22.83125,9.454375 22.2365385,9.5094043 C21.6418269,9.56443359 21.3932692,10.0022754 21.20625,10.4961035 C21.0538462,10.8990137 21.0288462,11.321543 21.0274038,11.7402441 C21.0225962,13.0882227 21.0274038,14.4366797 21.0461538,15.7841797 C21.0557692,16.4488379 21.1192308,17.0699512 22.0379808,17.1206738 C22.4225962,17.1417285 22.7495192,17.4379297 22.6629808,17.8738574 C22.5625,18.3743848 22.14375,18.3906543 21.7197115,18.3222266 C20.3942308,18.1083301 19.0754808,18.2332227 17.7581731,18.4069238 C17.2293269,18.4767871 16.7091346,18.6265625 16.1788462,18.6835059 C15.7754808,18.7270508 15.4365385,18.5504785 15.3942308,18.1006738 C15.3567308,17.6982422 15.6235577,17.416875 15.9932692,17.4264453 C17.0697115,17.4537207 17.2173077,16.8522266 17.1096154,15.9846777 C17.0576923,15.5688477 17.1004808,15.1424902 17.1004808,14.720918 Z"/>
      <path fill="#F3E3C6" fill-rule="nonzero" d="M17.1004808,14.720918 C17.1004808,15.1424902 17.0576923,15.5688477 17.1091346,15.9837207 C17.2168269,16.851748 17.0692308,17.4527637 15.9927885,17.4254883 C15.6230769,17.415918 15.35625,17.6972852 15.39375,18.0997168 C15.4360577,18.5495215 15.775,18.7260937 16.1783654,18.6825488 C16.7072115,18.6256055 17.2278846,18.4758301 17.7576923,18.4059668 C19.0735577,18.2322656 20.39375,18.107373 21.7192308,18.3212695 C22.1432692,18.3896973 22.5620192,18.3734277 22.6625,17.8729004 C22.7495192,17.4369727 22.4221154,17.1407715 22.0375,17.1197168 C21.11875,17.0689941 21.0552885,16.4497949 21.0456731,15.7832227 C21.0259615,14.4357227 21.0221154,13.0872656 21.0269231,11.7392871 C21.0269231,11.3196289 21.0533654,10.8970996 21.2057692,10.4951465 C21.3927885,10.0013184 21.6471154,9.56108398 22.2360577,9.50844727 C22.825,9.45581055 23.1283654,9.84005859 23.3990385,10.3147461 C24.2548077,11.8168066 24.0100962,13.4169629 23.8418269,15.0008496 C23.7591346,15.7793945 23.5379808,16.542627 23.3879808,17.3144727 C23.1697912,18.3942385 23.2662057,19.5135798 23.6658654,20.540625 C24.9197115,23.8103223 22.4120192,27.0766699 18.9375,26.7354883 C17.7298077,26.6168164 16.5274038,26.57375 15.5355769,25.6956738 C14.6480769,24.9104297 14.1509615,24.0098633 14.3230769,22.8102246 C14.4225962,22.1158984 14.4399038,21.3899902 14.6644231,20.7358594 C15.4591346,18.4160156 15.0480769,16.1957031 14.2759615,13.9796973 C13.9427885,13.022666 14.0471154,12.025918 14.1692308,11.060752 C14.25,10.4190625 14.8028846,9.9290625 15.4269231,9.83240234 C16.0600962,9.73382812 16.3913462,10.2836426 16.6331731,10.8243652 C17.1932692,12.0780762 17.1288462,13.4011719 17.1004808,14.720918 Z M17.9009615,22.5728809 C17.4067308,23.0365625 16.9423077,23.4418652 16.5163462,23.8835352 C16.2634615,24.1452832 16.1697115,24.4869434 16.4567308,24.7898437 C16.7836538,25.1348535 17.1149038,24.9927344 17.4230769,24.7314648 C17.8717949,24.3486523 18.3219551,23.9675944 18.7735577,23.588291 C18.9783654,23.4160254 19.1764423,23.2925684 19.4326923,23.5327832 C20.0168269,24.0811621 20.8225962,24.2649121 21.4576923,24.7329004 C21.7783654,24.9692871 22.1365385,25.0965723 22.4384615,24.7496484 C22.7822115,24.354873 22.5259615,24.0294824 22.2278846,23.7332812 C21.8572115,23.3653027 21.3663462,23.2093066 20.9120192,22.9911035 C20.3586538,22.7260059 20.1254808,22.486748 20.8211538,22.0685254 C21.2990385,21.781416 21.7216346,21.3986035 22.1456731,21.0291895 C22.4033654,20.8062012 22.4947115,20.5066504 22.2514423,20.2085352 C22.0230769,19.928125 21.7225962,19.9056348 21.4149038,20.0688086 C21.237432,20.1557355 21.0758899,20.2717141 20.9370192,20.4119043 C19.7706731,21.6933691 18.5471154,21.8656348 17.1990385,20.6712598 C16.8831731,20.3913281 16.4552885,20.2884473 16.1798077,20.7406445 C15.9177885,21.1713086 16.1860577,21.4933496 16.5360577,21.7278223 C16.9711538,22.0206738 17.4302885,22.2833789 17.9009615,22.5728809 Z"/>
      <path fill="#5B2C4A" fill-rule="nonzero" d="M17.9009615,22.5728809 C17.4302885,22.2833789 16.9730769,22.0206738 16.5360577,21.7278223 C16.1860577,21.4933496 15.9177885,21.1693945 16.1798077,20.7406445 C16.4552885,20.2903613 16.8831731,20.3913281 17.1990385,20.6712598 C18.5451923,21.8675488 19.7706731,21.6933691 20.9370192,20.4119043 C21.0758899,20.2717141 21.237432,20.1557355 21.4149038,20.0688086 C21.7206731,19.9056348 22.0230769,19.928125 22.2514423,20.2085352 C22.4947115,20.5066504 22.4033654,20.8062012 22.1456731,21.0291895 C21.7216346,21.397168 21.2990385,21.781416 20.8211538,22.0685254 C20.1254808,22.486748 20.3586538,22.7260059 20.9120192,22.9911035 C21.3663462,23.2093066 21.8572115,23.3653027 22.2278846,23.7332813 C22.5259615,24.0294824 22.7822115,24.3553516 22.4384615,24.7496484 C22.1365385,25.0965723 21.7783654,24.9692871 21.4576923,24.7329004 C20.8225962,24.2649121 20.0153846,24.0811621 19.4326923,23.5327832 C19.1764423,23.2935254 18.9783654,23.4160254 18.7735577,23.588291 C18.3225962,23.9682324 17.8724359,24.3496094 17.4230769,24.7324219 C17.1149038,24.9936914 16.7836538,25.1358105 16.4567308,24.7908008 C16.1682692,24.4879004 16.2644231,24.1462402 16.5163462,23.8844922 C16.9423077,23.4404297 17.4067308,23.0365625 17.9009615,22.5728809 Z"/>
    </g>
  </g>
</svg>
