<svg xmlns="http://www.w3.org/2000/svg" width="32" height="32" viewBox="0 0 32 32">
  <g fill="none" fill-rule="evenodd">
    <rect width="32" height="32"/>
    <path fill="#F4F2F2" fill-opacity=".5" fill-rule="nonzero" d="M27.954,8.569 C27.069,8.958 26.124,9.223 25.129,9.344 C26.143,8.733 26.923,7.77 27.292,6.621 C26.341,7.176 25.287,7.58 24.165,7.805 C23.269,6.846 21.992,6.246 20.574,6.246 C17.857,6.246 15.654,8.449 15.654,11.163 C15.654,11.553 15.699,11.928 15.781,12.287 C11.691,12.094 8.066,10.13 5.64,7.161 C5.213,7.883 4.974,8.722 4.974,9.636 C4.974,11.346 5.844,12.849 7.162,13.732 C6.355,13.706 5.596,13.484 4.934,13.116 L4.934,13.177 C4.934,15.562 6.627,17.551 8.88,18.004 C8.467,18.115 8.031,18.175 7.584,18.175 C7.27,18.175 6.969,18.145 6.668,18.089 C7.299,20.042 9.113,21.466 11.272,21.506 C9.592,22.825 7.463,23.611 5.17,23.611 C4.78,23.611 4.391,23.588 4,23.544 C6.189,24.938 8.768,25.753 11.557,25.753 C20.611,25.753 25.556,18.257 25.556,11.767 C25.556,11.558 25.556,11.347 25.541,11.137 C26.502,10.448 27.341,9.577 28.001,8.589 L27.954,8.569 Z"/>
  </g>
</svg>
