<svg xmlns="http://www.w3.org/2000/svg" width="32" height="32" viewBox="0 0 32 32">
  <g fill="none" fill-rule="evenodd">
    <rect width="32" height="32"/>
    <path fill="#F4F2F2" fill-opacity=".5" fill-rule="nonzero" d="M16,4 C12.74,4 12.333,4.015 11.053,4.072 C9.775,4.132 8.905,4.333 8.14,4.63 C7.351,4.936 6.681,5.347 6.014,6.014 C5.347,6.681 4.935,7.35 4.63,8.14 C4.333,8.905 4.131,9.775 4.072,11.053 C4.012,12.333 4,12.74 4,16 C4,19.26 4.015,19.667 4.072,20.947 C4.132,22.224 4.333,23.095 4.63,23.86 C4.936,24.648 5.347,25.319 6.014,25.986 C6.681,26.652 7.35,27.065 8.14,27.37 C8.906,27.666 9.776,27.869 11.053,27.928 C12.333,27.988 12.74,28 16,28 C19.26,28 19.667,27.985 20.947,27.928 C22.224,27.868 23.095,27.666 23.86,27.37 C24.648,27.064 25.319,26.652 25.986,25.986 C26.652,25.319 27.065,24.651 27.37,23.86 C27.666,23.095 27.869,22.224 27.928,20.947 C27.988,19.667 28,19.26 28,16 C28,12.74 27.985,12.333 27.928,11.053 C27.868,9.776 27.666,8.904 27.37,8.14 C27.064,7.351 26.652,6.681 25.986,6.014 C25.319,5.347 24.651,4.935 23.86,4.63 C23.095,4.333 22.224,4.131 20.947,4.072 C19.667,4.012 19.26,4 16,4 Z M16,6.16 C19.203,6.16 19.585,6.176 20.85,6.231 C22.02,6.286 22.655,6.48 23.077,6.646 C23.639,6.863 24.037,7.123 24.459,7.542 C24.878,7.962 25.138,8.361 25.355,8.923 C25.519,9.345 25.715,9.98 25.768,11.15 C25.825,12.416 25.838,12.796 25.838,16 C25.838,19.204 25.823,19.585 25.764,20.85 C25.703,22.02 25.508,22.655 25.343,23.077 C25.119,23.639 24.864,24.037 24.444,24.459 C24.025,24.878 23.62,25.138 23.064,25.355 C22.644,25.519 21.999,25.715 20.829,25.768 C19.555,25.825 19.18,25.838 15.97,25.838 C12.759,25.838 12.384,25.823 11.111,25.764 C9.94,25.703 9.295,25.508 8.875,25.343 C8.306,25.119 7.915,24.864 7.496,24.444 C7.075,24.025 6.806,23.62 6.596,23.064 C6.431,22.644 6.237,21.999 6.176,20.829 C6.131,19.569 6.115,19.18 6.115,15.985 C6.115,12.789 6.131,12.399 6.176,11.124 C6.237,9.954 6.431,9.31 6.596,8.89 C6.806,8.32 7.075,7.93 7.496,7.509 C7.915,7.09 8.306,6.82 8.875,6.611 C9.295,6.445 9.926,6.25 11.096,6.19 C12.371,6.145 12.746,6.13 15.955,6.13 L16,6.16 L16,6.16 Z M16,9.838 C12.595,9.838 9.838,12.598 9.838,16 C9.838,19.405 12.598,22.162 16,22.162 C19.405,22.162 22.162,19.402 22.162,16 C22.162,12.595 19.402,9.838 16,9.838 Z M16,20 C13.79,20 12,18.21 12,16 C12,13.79 13.79,12 16,12 C18.21,12 20,13.79 20,16 C20,18.21 18.21,20 16,20 Z M23.846,9.595 C23.846,10.39 23.2,11.035 22.406,11.035 C21.611,11.035 20.966,10.389 20.966,9.595 C20.966,8.801 21.612,8.156 22.406,8.156 C23.199,8.155 23.846,8.801 23.846,9.595 Z"/>
  </g>
</svg>
