<svg xmlns="http://www.w3.org/2000/svg" width="1110" height="1119" viewBox="0 0 1110 1119">
  <path fill="#480EA5" fill-opacity=".1" d="M10.5109446,139.400939 C6.39385365,134.017297 7.48207132,126.362153 12.9412986,122.302066 L152.475026,18.4925878 C157.934253,14.4325001 165.690828,15.4996886 169.813965,20.8892923 C173.931056,26.2729337 172.842838,33.9280776 167.383611,37.9881653 L27.8498854,141.797642 C25.6190383,143.455064 23.0012692,144.259928 20.4076837,144.259928 C16.6533312,144.259928 12.9473445,142.58462 10.5109446,139.400939 Z M146.756524,1113.16148 C142.639281,1107.7779 143.727539,1100.1169 149.186967,1096.05686 L288.713737,992.242745 C294.191302,988.188672 301.942118,989.255847 306.059361,994.639419 C310.176603,1000.01703 309.088345,1007.67804 303.628917,1011.73807 L164.102147,1115.55219 C161.865172,1117.20959 159.247308,1118.01444 156.653626,1118.01444 C152.899136,1118.01444 149.193012,1116.33915 146.756524,1113.16148 Z M601.45507,304.548736 C597.70058,304.548736 593.994457,302.873483 591.557968,299.689903 C587.440725,294.312397 588.528983,286.651538 593.988411,282.591581 L733.521227,178.78545 C738.9867,174.707609 746.737516,175.804571 750.860805,181.182077 C754.978047,186.559583 753.889789,194.220442 748.430361,198.280399 L608.897545,302.08653 C606.666616,303.749861 604.048752,304.548736 601.45507,304.548736 Z M182.851621,352.566896 L10.9800089,333.995447 C4.25623514,333.267033 -0.632695964,327.003917 0.0665764352,319.999934 C0.759871917,312.995952 6.67081549,307.865923 13.5021701,308.631692 L185.373782,327.203141 C192.097555,327.931555 196.986487,334.194671 196.287214,341.198654 C195.635756,347.760608 190.322481,352.635379 184.124655,352.635379 C183.706287,352.635379 183.281941,352.616701 182.851621,352.566896 Z M392.517196,480.293874 C397.434228,475.555964 405.22103,475.738426 409.897914,480.725699 L529.569717,608.089714 C534.252604,613.070904 534.060486,620.959311 529.143454,625.697221 C526.765989,627.996232 523.716107,629.133574 520.666226,629.133574 C517.418223,629.133574 514.176224,627.838099 511.762735,625.265396 L392.090933,497.901381 C387.408046,492.920191 387.600164,485.031784 392.517196,480.293874 Z M900.583231,1031.25653 C893.859253,1030.5283 888.970173,1024.26679 889.669467,1017.2646 C890.36876,1010.24996 896.333675,1005.07145 903.105469,1005.89926 L1074.97634,1024.46596 C1081.70031,1025.19419 1086.58939,1031.4557 1085.8901,1038.4579 C1085.23862,1045.01817 1079.92519,1049.8917 1073.72717,1049.8917 C1073.30879,1049.8917 1072.88443,1049.87302 1072.4541,1049.82323 L900.583231,1031.25653 Z M735.987459,639.94558 C739.077634,646.064229 736.645329,653.535166 730.561548,656.639972 L574.960395,735.982296 C573.167851,736.89797 571.254599,737.32852 569.377559,737.32852 C564.869043,737.32852 560.523485,734.84225 558.344671,730.530694 C555.254496,724.412045 557.686801,716.941108 563.770582,713.836303 L719.371735,634.493979 C725.461552,631.370981 732.897285,633.845123 735.987459,639.94558 Z M84.9110517,669.205776 C84.4746181,669.205776 84.0319508,669.187849 83.5830484,669.14004 C76.5689398,668.446826 71.475138,662.429004 72.1983702,655.706016 L90.7405545,483.848505 C91.4637867,477.131492 97.6673756,472.135565 104.756302,472.936348 C111.77041,473.629562 116.864212,479.647384 116.14098,486.370372 L97.5987944,658.227883 C96.9192059,664.5206 91.3765018,669.205776 84.9110517,669.205776 Z M1012.40121,672.187314 C1013.12444,665.458113 1019.33426,660.479939 1026.41695,661.274773 C1033.43106,661.968011 1038.52486,667.986044 1037.80163,674.709269 L1019.25944,846.566847 C1018.57986,852.859786 1013.03715,857.545126 1006.5717,857.545126 C1006.13527,857.545126 1005.6926,857.527197 1005.2437,857.479388 C998.22959,856.786149 993.135788,850.768116 993.85902,844.044892 L1012.40121,672.187314 Z M26.6742698,832.895444 L198.463733,809.569518 C205.088776,808.662836 211.360082,813.407808 212.271401,820.189796 C213.176723,826.965739 208.458254,833.197671 201.737283,834.110399 L29.9478197,857.436324 C29.3962333,857.508859 28.83865,857.545126 28.2930582,857.545126 C22.2435843,857.545126 16.9735277,853.035891 16.1401512,846.816047 C15.2348295,840.040104 19.9532984,833.808172 26.6742698,832.895444 Z M365.024692,64.3207627 C358.616975,62.1594813 355.1414,55.1231734 357.267351,48.6029017 C359.393305,42.0887025 366.272794,38.5310872 372.728286,40.7166524 L536.599857,95.9750386 C543.007574,98.1363213 546.48315,105.172628 544.357197,111.6929 C542.655239,116.907903 537.877817,120.216606 532.748059,120.216606 C531.47607,120.216606 530.174223,120.010193 528.896262,119.57915 L365.024692,64.3207627 Z M538.081713,941.54665 L657.792368,1068.86761 C662.472919,1073.85079 662.299122,1081.74591 657.396828,1086.50978 C655.017597,1088.81862 651.967148,1089.9639 648.916699,1089.9639 C645.686459,1089.9639 642.456219,1088.67241 640.041031,1086.10772 L520.330376,958.78676 C515.649825,953.803576 515.823622,945.908458 520.725916,941.144583 C525.622216,936.3868 533.389176,936.563465 538.081713,941.54665 Z M769.688151,561.01083 C768.948835,561.01083 768.197496,560.944434 767.446158,560.805605 C760.762253,559.568211 756.338374,553.121695 757.570569,546.40959 L789.048634,374.786156 C790.274818,368.068017 796.694252,363.6134 803.384167,364.868902 C810.068072,366.106296 814.491951,372.552812 813.259756,379.264917 L781.781691,550.888349 C780.687743,556.845945 775.512525,561.01083 769.688151,561.01083 Z M417.085344,851.276155 L273.719104,751.437708 C268.111583,747.533213 266.802552,739.920635 270.796617,734.438865 C274.79677,728.951143 282.577892,727.665516 288.185413,731.581916 L431.551654,831.420363 C437.159175,835.324858 438.468206,842.937437 434.474141,848.419206 C432.038736,851.758265 428.202971,853.537906 424.306322,853.537906 C421.803943,853.537906 419.277209,852.805813 417.085344,851.276155 Z M360.910134,357.657237 L285.71086,201.753617 C282.765815,195.65413 285.436478,188.374096 291.674121,185.500241 C297.930057,182.626388 305.356693,185.237899 308.295642,191.331423 L383.494916,347.235043 C386.439961,353.33453 383.769298,360.614564 377.531655,363.488419 C375.80609,364.281412 373.995162,364.65704 372.208623,364.65704 C367.525817,364.65704 363.038128,362.069378 360.910134,357.657237 Z M681.510004,64.1155235 C675.572608,64.1155235 670.339037,59.8214053 669.36451,53.7820526 C668.281702,47.0829883 672.853557,40.7797509 679.572981,39.706222 L851.282224,12.190282 C857.989616,11.0687735 864.324042,15.6627607 865.400833,22.3678214 C866.483641,29.0668857 861.911786,35.3701231 855.192362,36.443652 L683.483119,63.959592 C682.821404,64.0675451 682.159689,64.1155235 681.510004,64.1155235 Z M957.8331,367.832588 C962.898902,363.224554 970.686896,363.69327 975.205856,368.836982 L1090.84796,500.175083 C1095.37293,505.312706 1094.92824,513.195671 1089.85643,517.773269 C1087.51282,519.897712 1084.58631,520.938628 1081.67182,520.938628 C1078.28261,520.938628 1074.91141,519.532477 1072.48367,516.768874 L956.841573,385.430774 C952.316604,380.29315 952.761289,372.410186 957.8331,367.832588 Z M955.874848,198.771288 C950.049096,195.429255 947.99086,187.908175 951.273391,181.970797 L1035.24111,30.3147589 C1038.52956,24.3894254 1045.93447,22.2938801 1051.74248,25.6298912 C1057.56823,28.9719243 1059.62647,36.4930041 1056.34394,42.4303815 L972.376217,194.086419 C970.152377,198.10288 966.041821,200.361011 961.812975,200.361011 C959.796141,200.361011 957.755648,199.849168 955.874848,198.771288 Z M723.456075,992.200932 C717.630323,988.858987 715.572088,981.338104 718.854618,975.400881 L802.822339,823.742796 C806.110784,817.811596 813.515699,815.728149 819.323708,819.058051 C825.14946,822.399997 827.207696,829.92088 823.925165,835.858101 L739.957445,987.516186 C737.733605,991.532542 733.623048,993.790614 729.394203,993.790614 C727.377369,993.790614 725.336876,993.278784 723.456075,992.200932 Z M281.462217,605.661619 C281.10415,604.940187 280.863483,604.218755 280.746083,603.380015 C280.622814,602.658583 280.505415,601.813978 280.505415,601.092546 C280.505415,599.532374 280.863483,597.972203 281.462219,596.412032 C282.066825,594.969166 282.906227,593.649472 283.992168,592.564391 C285.189637,591.485174 286.392978,590.523264 287.954385,589.925002 C292.286408,588.124354 297.575234,589.20357 301.061986,592.564391 C302.142057,593.649472 302.981459,594.969166 303.586065,596.412032 C304.1848,597.972203 304.548736,599.532374 304.548736,601.092546 C304.548736,601.813978 304.425468,602.658583 304.308068,603.380017 C304.184799,604.218755 303.944131,604.940188 303.586064,605.661621 C303.345396,606.383053 302.981459,607.098621 302.500123,607.702748 C302.024657,608.424179 301.543321,609.022441 301.061985,609.503396 C299.858645,610.705783 298.537906,611.544522 297.093898,612.148649 C295.64989,612.746909 294.088483,613.104693 292.527076,613.104693 C290.959799,613.104693 289.398392,612.74691 287.954384,612.148649 C286.392977,611.544523 285.189637,610.705784 283.992167,609.503396 C283.51083,609.022441 282.906225,608.424179 282.548157,607.702746 C282.066822,607.098619 281.702884,606.383052 281.462217,605.661619 Z M174.353214,455.520352 C173.871879,454.795461 173.513811,454.18844 173.273143,453.463549 C172.915076,452.744552 172.674408,451.895899 172.551137,451.171007 C172.433738,450.328248 172.310469,449.603357 172.310469,448.760598 C172.310469,445.619404 173.631209,442.484104 175.797221,440.309432 C177.00056,439.10128 178.321299,438.258521 179.765307,437.657392 C184.214731,435.842218 189.503557,436.932501 192.867039,440.309432 C193.348376,440.792692 193.95298,441.393821 194.311047,442.118712 C194.792384,442.725734 195.150451,443.450625 195.391119,444.169623 C195.755055,444.894513 195.995724,445.619404 196.113123,446.468057 C196.236392,447.187054 196.353791,448.035707 196.353791,448.760598 C196.353791,449.603357 196.236392,450.328248 196.113123,451.171007 C195.995724,451.895898 195.755055,452.74455 195.391119,453.463548 C195.15045,454.188439 194.792384,454.795461 194.311047,455.520352 C193.95298,456.12148 193.348376,456.722609 192.867039,457.329632 C190.583628,459.622173 187.460814,460.830325 184.332131,460.830325 C182.770724,460.830325 181.209317,460.588695 179.765309,459.981672 C178.321301,459.256781 177.000562,458.414022 175.797222,457.329632 C175.315886,456.722611 174.83455,456.121481 174.353214,455.520352 Z M288.460868,865.559567 C285.322731,865.559567 282.178695,864.240115 280.002054,861.958931 C278.798708,860.874049 277.949287,859.554597 277.347616,858.111997 C276.740043,856.675262 276.498195,855.109513 276.498195,853.549628 C276.498195,851.866595 276.740043,850.306711 277.347616,848.86411 C277.949289,847.427375 278.798709,846.10206 280.002055,845.023041 C283.38794,841.662839 288.702717,840.577958 293.173973,842.378275 C294.619168,842.98229 295.952286,843.820874 297.037657,845.023041 C298.123027,846.102059 299.090423,847.427375 299.697995,848.86411 C300.299668,850.429859 300.541516,851.866595 300.541516,853.549628 C300.541516,856.675262 299.332271,859.677746 297.037656,861.958931 C295.952286,863.155234 294.619167,863.999682 293.173972,864.597834 C291.599005,865.201848 290.15381,865.559567 288.460868,865.559567 Z M565.018051,857.545126 C561.771969,857.545126 558.649154,856.225743 556.483141,853.938812 C554.19973,851.780888 552.99639,848.655417 552.99639,845.535809 C552.99639,842.293059 554.19973,839.29073 556.483141,837.009663 C559.846624,833.643771 565.14132,832.56481 569.584873,834.365034 C571.028881,834.969017 572.349619,835.924838 573.55296,837.009663 C575.718972,839.29073 577.039711,842.293059 577.039711,845.535809 C577.039711,848.655417 575.718972,851.780888 573.55296,853.938812 C571.269549,856.225743 568.146735,857.545126 565.018051,857.545126 Z M52.0938634,993.790614 C50.4091876,993.790614 48.9651795,993.548984 47.4037714,992.941961 C45.9597633,992.340832 44.6390252,991.374311 43.5589536,990.289921 C41.2755427,988.115249 40.0722022,984.979948 40.0722022,981.720887 C40.0722022,978.579693 41.2755427,975.444393 43.5589536,973.269721 C44.639024,972.061569 45.9597633,971.21881 47.4037714,970.61768 C51.8531946,968.802507 57.2594205,969.89279 60.5055031,973.269721 C62.788914,975.444393 64.1155235,978.579693 64.1155235,981.720887 C64.1155235,984.979948 62.788914,987.99738 60.5055031,990.289921 C58.3453611,992.582462 55.2166772,993.790614 52.0938634,993.790614 Z M183.811662,232.825357 C182.731591,231.740474 181.892188,230.421024 181.287582,228.978424 C180.688846,227.541688 180.32491,225.975939 180.32491,224.416055 C180.32491,221.173137 181.651519,218.053368 183.811662,215.889468 C184.897602,214.810451 186.218342,213.848718 187.779749,213.244702 C192.105902,211.444383 197.517999,212.529265 200.887351,215.889468 C201.362817,216.487618 201.844152,217.091634 202.325489,217.689785 C202.806824,218.411085 203.170762,219.009237 203.411429,219.730537 C203.769496,220.574986 204.010165,221.296286 204.127563,222.011721 C204.250832,222.85617 204.368231,223.57747 204.368231,224.416055 C204.368231,225.975939 204.010165,227.541688 203.411429,228.978424 C202.806825,230.421024 201.967422,231.740475 200.887351,232.825357 C198.598069,235.106541 195.475255,236.425993 192.346571,236.425993 C190.785164,236.425993 189.223757,236.068276 187.779749,235.46426 C186.218342,234.866108 184.897602,234.02166 183.811662,232.825357 Z M425.285812,1062.42776 C423.002401,1064.71514 419.996986,1065.92058 416.750902,1065.92058 C413.628088,1065.92058 410.499404,1064.71514 408.339262,1062.42776 C406.055851,1060.14037 404.729242,1057.12972 404.729242,1053.87799 C404.729242,1050.74385 406.055851,1047.6156 408.339262,1045.44582 C409.419333,1044.24038 410.740072,1043.39952 412.18408,1042.79386 C416.633503,1040.87105 421.922329,1042.07648 425.285812,1045.44582 C427.569223,1047.6156 428.772563,1050.74385 428.772563,1053.87799 C428.772563,1057.12972 427.569223,1060.14037 425.285812,1062.42776 Z M20.5957026,536.005826 C19.1575645,536.603945 17.5902873,536.967509 16.0288803,536.967509 C12.9060662,536.967509 9.77738199,535.648126 7.49397203,533.484336 C5.33382977,531.20327 4.00722022,528.077798 4.00722022,524.958191 C4.00722022,523.398387 4.37115678,521.83272 4.96989201,520.396058 C5.56862724,518.83039 6.4138991,517.511008 7.49397082,516.432046 C10.8633239,513.066154 16.2695491,511.987192 20.5957038,513.787416 C22.162981,514.508679 23.4837192,515.353083 24.5637909,516.432046 C25.6497316,517.511008 26.4891345,518.830392 27.0878697,520.396061 C27.8098739,521.832722 28.0505415,523.39839 28.0505415,524.958193 C28.0505415,528.077801 26.7298021,531.203272 24.5637897,533.484339 C23.4837192,534.5633 22.1629798,535.407705 20.5957026,536.005826 Z M565.018051,460.630973 C565.018051,463.897391 563.697311,467.045675 561.531297,469.21935 C559.247886,471.522972 556.119202,472.851986 552.996388,472.851986 C549.873574,472.851986 546.74489,471.522972 544.46148,469.21935 C543.381409,468.132513 542.536136,466.8035 541.937401,465.350445 C541.332797,463.779257 540.974729,462.326203 540.974729,460.630973 C540.974729,457.488596 542.295468,454.340312 544.461481,452.166637 C548.910904,447.68934 557.081876,447.68934 561.531299,452.166637 C563.697311,454.340312 565.018051,457.488596 565.018051,460.630973 Z M845.523466,661.116025 C845.523466,664.258402 844.325997,667.406686 842.036712,669.704402 C839.87657,671.883983 836.747886,673.212996 833.501803,673.212996 C832.779799,673.212996 831.940396,673.088955 831.218392,672.970821 C830.37899,672.84678 829.656985,672.604605 828.934981,672.244294 C828.212977,672.002117 827.490973,671.641808 826.892238,671.157456 C826.170235,670.673104 825.5715,670.188754 825.090164,669.704402 C824.485558,669.09601 824.004223,668.493524 823.528757,667.766997 C823.16482,667.164511 822.683484,666.437983 822.442816,665.711456 C822.084749,664.984929 821.96148,664.258402 821.720812,663.413741 C821.603413,662.687213 821.480144,661.842552 821.480144,661.116025 C821.480144,657.967741 822.806754,654.825364 825.090165,652.527648 C829.539588,648.050351 837.593161,648.050351 842.036714,652.527648 C844.325995,654.825364 845.523466,657.849607 845.523466,661.116025 Z M814.428377,1054.47028 C814.06444,1053.74885 813.823773,1053.02742 813.706372,1052.18868 C813.583103,1051.46725 813.465704,1050.62264 813.465704,1049.90121 C813.465704,1046.6577 814.786443,1043.65466 816.952455,1041.37306 C820.315938,1038.01223 825.728033,1036.93302 830.054187,1038.73367 C831.615594,1039.33193 832.942202,1040.29384 834.022274,1041.37306 C836.182416,1043.53735 837.509025,1046.6577 837.509025,1049.90121 C837.509025,1053.02742 836.182416,1056.14776 834.022274,1058.31206 C832.942203,1059.51445 831.615594,1060.35319 830.054187,1060.95731 C828.610179,1061.55557 827.048772,1061.91336 825.487365,1061.91336 C824.765361,1061.91336 823.925958,1061.79605 823.203954,1061.67288 C822.358681,1061.43827 821.636677,1061.3151 820.920543,1060.95731 C820.198539,1060.71684 819.476535,1060.23588 818.871931,1059.87223 C818.149927,1059.39128 817.551192,1058.91032 816.952457,1058.31206 C816.47112,1057.83111 815.989785,1057.23284 815.508448,1056.51141 C815.027112,1055.90728 814.669044,1055.19172 814.428377,1054.47028 Z M27.3676707,35.2234733 C25.9236625,34.6232361 24.6029232,33.7758425 23.5228527,32.5694831 C21.2394417,30.4039219 20.0361011,27.2673889 20.0361011,24.1367408 C20.0361011,20.8825146 21.2394405,17.7459816 23.5228515,15.5804204 C24.6029232,14.374061 25.9236625,13.5325523 27.3676707,12.9264302 C30.3730859,11.7200708 33.6191687,11.7200708 36.6245838,12.9264302 C38.0685921,13.5325523 39.3893314,14.374061 40.475272,15.5804204 C42.7586831,17.7459816 44.0794224,20.8825146 44.0794224,24.1367408 C44.0794224,27.2673889 42.7586831,30.4039219 40.475272,32.5694843 C39.3893314,33.7758425 38.0685921,34.6232361 36.6245838,35.2234733 C35.1805756,35.8237106 33.6191687,36.0649819 32.0577617,36.0649819 C30.4963548,36.0649819 28.9290777,35.8237106 27.3676707,35.2234733 Z M1054.86159,247.815832 C1055.46619,246.371944 1056.3056,245.04003 1057.38567,243.955641 C1058.47161,242.871251 1059.79235,241.90473 1061.35376,241.303601 C1065.67991,239.488428 1071.09201,240.57871 1074.45549,243.955641 C1075.54143,245.04003 1076.38083,246.371944 1076.97957,247.815832 C1077.58417,249.389376 1077.94224,250.833264 1077.94224,252.524675 C1077.94224,255.665869 1076.6215,258.801169 1074.45549,260.975842 C1072.17208,263.268382 1069.04926,264.476534 1065.92058,264.476534 C1064.35917,264.476534 1062.79776,264.234904 1061.35376,263.627882 C1059.79235,263.026752 1058.47161,262.183993 1057.38567,260.975842 C1055.22553,258.801169 1053.89892,255.665869 1053.89892,252.524675 C1053.89892,250.833264 1054.26285,249.389376 1054.86159,247.815832 Z M909.118523,894.117486 C908.038451,893.027468 907.193178,891.70177 906.594441,890.252341 C905.995705,888.685071 905.631769,887.117802 905.631769,885.550533 C905.631769,882.410102 906.952508,879.275564 909.11852,876.98358 C910.32186,875.893562 911.642599,875.051008 913.086607,874.444133 C917.53603,872.635291 922.824856,873.72531 926.188339,876.98358 C928.354351,879.275564 929.67509,882.410102 929.67509,885.550533 C929.67509,887.117802 929.434423,888.685071 928.712419,890.252341 C928.113683,891.70177 927.274281,893.027468 926.18834,894.117486 C925.589606,894.718469 924.985001,895.201612 924.386266,895.561023 C923.664261,896.044167 922.942257,896.40947 922.220253,896.768882 C921.504119,897.010454 920.782115,897.252026 920.060111,897.375757 C919.214838,897.617329 918.498704,897.617329 917.653431,897.617329 C916.092025,897.617329 914.530618,897.375757 913.08661,896.768882 C911.642601,896.044167 910.321863,895.201613 909.118523,894.117486 Z M849.530686,236.348452 C849.530686,239.497318 848.204076,242.640274 845.920665,244.944321 C845.43933,245.422854 844.717326,246.031358 844.118591,246.391735 C843.519856,246.876175 842.797851,247.24246 842.075847,247.48468 C841.353843,247.845058 840.51444,248.087278 839.792436,248.211342 C839.070432,248.329497 838.231029,248.447653 837.509025,248.447653 C834.262942,248.447653 831.134258,247.118396 828.974115,244.94432 C827.770776,243.851375 826.925503,242.522117 826.326767,240.950639 C825.728032,239.497317 825.487365,237.925839 825.487365,236.348452 C825.487365,234.776974 825.728033,233.205496 826.326767,231.752174 C826.925501,230.298852 827.770774,228.969595 828.974115,227.758493 C833.417668,223.286279 841.471242,223.286279 845.920665,227.758493 C848.204076,230.06254 849.530686,233.205496 849.530686,236.348452 Z M1109.15473,732.733497 C1109.39539,733.456472 1109.63606,734.302883 1109.75933,735.01998 C1110,735.742956 1110,736.589367 1110,737.312342 C1110,740.556915 1108.79666,743.566375 1106.51325,745.858737 C1105.42731,746.940262 1104.10657,747.904229 1102.66256,748.50377 C1101.10115,749.109189 1099.53975,749.350181 1097.97834,749.350181 C1097.25634,749.350181 1096.41106,749.350181 1095.68906,749.109189 C1094.84966,748.985754 1094.12765,748.744762 1093.40565,748.50377 C1092.68364,748.145221 1091.96751,747.780794 1091.3629,747.422245 C1090.6409,746.940262 1090.04217,746.458278 1089.56083,745.858737 C1087.27742,743.566375 1085.95668,740.556915 1085.95668,737.312342 C1085.95668,736.589367 1086.07408,735.742956 1086.19148,735.01998 C1086.43214,734.302883 1086.67281,733.456472 1086.91348,732.733497 C1087.27742,732.010521 1087.63549,731.293423 1087.99942,730.688004 C1088.48076,729.96503 1088.96209,729.365489 1089.56083,728.883505 C1090.04216,728.283964 1090.6409,727.801981 1091.3629,727.319996 C1091.96751,726.95557 1092.68364,726.597021 1093.40565,726.232594 C1094.12765,725.991603 1094.84966,725.75061 1095.68906,725.509619 C1099.53975,724.79252 1103.7485,725.991602 1106.51325,728.883505 C1107.11198,729.365488 1107.59332,729.965029 1108.07466,730.688004 C1108.43272,731.293423 1108.79666,732.010521 1109.15473,732.733497 Z M926.507273,477.5119 C926.266605,476.786924 926.025938,475.944065 925.908538,475.219089 C925.66787,474.376232 925.66787,473.651256 925.66787,472.802504 C925.66787,471.23467 925.90854,469.666836 926.507274,468.216885 C927.106008,466.766933 928.068681,465.440759 929.154622,464.356242 C932.518104,460.973022 937.806931,459.888506 942.256354,461.697998 C943.700362,462.30509 945.0211,463.147948 946.101172,464.356242 C947.304511,465.440758 948.143914,466.766933 948.74852,468.216885 C949.347255,469.666836 949.711191,471.23467 949.711191,472.802504 C949.711191,473.651256 949.587922,474.376232 949.470522,475.219089 C949.229855,475.944065 949.106586,476.786923 948.748518,477.511899 C948.507851,478.236875 948.026514,478.961851 947.662578,479.56305 C947.187113,480.170144 946.705776,480.89512 946.101171,481.372544 C945.0211,482.462955 943.700361,483.429589 942.256353,484.030788 C940.812345,484.631988 939.250938,484.873646 937.689531,484.873646 C934.443448,484.873646 931.314764,483.671247 929.154622,481.372543 C928.550016,480.895121 928.068681,480.170145 927.710613,479.563051 C927.229277,478.961852 926.86534,478.236876 926.507273,477.5119 Z M949.190723,20.4370074 C948.110652,19.3580459 947.147979,18.0386626 946.549244,16.596137 C945.944639,15.1536115 945.703971,13.5938077 945.703971,12.0340039 C945.703971,11.1895988 945.703971,10.468336 945.944639,9.62979505 C946.067908,8.90853227 946.308576,8.06999129 946.549244,7.3487285 C946.907312,6.62746572 947.271248,6.02934527 947.629317,5.30808248 C948.110652,4.70409908 948.591989,3.9828363 949.190724,3.50785819 C952.560076,0.141965981 957.848902,-0.936995524 962.298325,0.863228768 C963.736463,1.46134802 965.063072,2.42303253 966.143143,3.50785819 C966.741878,3.9828351 967.223214,4.70409788 967.70455,5.30808248 C968.068487,6.02934527 968.549823,6.62746572 968.790491,7.3487285 C969.148558,8.06999129 969.271827,8.90853227 969.512495,9.62979505 C969.629894,10.468336 969.747292,11.1895988 969.747292,12.0340039 C969.747292,13.5938077 969.389226,15.1536115 968.790491,16.596137 C968.185885,18.0386626 967.346483,19.3580459 966.143142,20.4370086 C965.063072,21.6391124 963.736462,22.4776534 962.298324,23.081638 C960.854316,23.6797584 959.292909,24.0433213 957.725632,24.0433213 C956.886229,24.0433213 956.164225,23.920179 955.324822,23.8029008 C954.602818,23.562479 953.763415,23.4393367 953.041411,23.0816368 C952.319407,22.8412163 951.714801,22.360374 950.998668,21.9968111 C950.394063,21.521833 949.795328,21.040992 949.190723,20.4370074 Z M557.00361,28.0505415 C553.757526,28.0505415 550.634712,26.8396625 548.468701,24.5419468 C546.18529,22.3623665 544.981949,19.2199882 544.981949,15.95357 C544.981949,14.3823814 545.222617,12.8052859 545.827222,11.3581385 C546.425958,9.90508418 547.388629,8.57607218 548.468701,7.36519315 C552.918123,2.88789591 560.971697,2.88789591 565.42112,7.36519315 C567.704531,9.66290886 569.025271,12.8052859 569.025271,15.95357 C569.025271,19.2199882 567.704531,22.2442311 565.42112,24.5419468 C563.255108,26.8396625 560.132294,28.0505415 557.00361,28.0505415 Z M452.815884,228.411552 C451.254478,228.411552 449.6872,228.169981 448.249062,227.445265 C446.681785,226.838391 445.361047,225.995837 444.280975,224.91171 C442.114963,222.619726 440.794224,219.603027 440.794224,216.344757 C440.794224,214.771595 441.034891,213.204326 441.756896,211.754897 C442.355631,210.311359 443.195034,208.979769 444.280977,207.777804 C445.361047,206.687786 446.681786,205.845232 448.249064,205.238356 C452.575217,203.429515 457.981443,204.519534 461.227526,207.777804 C462.430865,208.979769 463.276138,210.311359 463.874873,211.754897 C464.473609,213.204326 464.837545,214.771595 464.837545,216.344757 C464.837545,219.479295 463.516806,222.619726 461.227525,224.91171 C459.067382,227.079962 455.938698,228.411552 452.815884,228.411552 Z"/>
</svg>
