<svg xmlns="http://www.w3.org/2000/svg" width="112" height="56" viewBox="0 0 112 56">
  <g fill="none" fill-rule="evenodd">
    <rect width="112" height="56"/>
    <path fill="#FFF" stroke="#FFF" stroke-width="3.36" d="M27.0665729,41.6266667 L21.7562163,46.0107983 C19.7687011,47.6516539 16.8273253,47.3706307 15.1864697,45.3831155 C14.281526,44.2869864 13.9254886,42.8381783 14.2193022,41.4474606 L15.3511992,36.0898149 C15.3571846,36.058279 15.3634967,36.026798 15.370135,35.995377 L19.7081631,15.4620437 C20.1640641,13.3041123 22.0684811,11.76 24.2740453,11.76 L92.0888603,11.76 C94.6661891,11.76 96.755527,13.8493378 96.755527,16.4266667 C96.755527,16.7508354 96.7217498,17.0741219 96.6547425,17.3912897 L92.3167143,37.924623 C91.8608133,40.0825543 89.9563963,41.6266667 87.7508321,41.6266667 L27.0665729,41.6266667 Z"/>
    <path stroke="#1D1919" stroke-linecap="round" stroke-width="1.493" d="M16.2511995 39.9466667L21.3506415 15.8093079C21.6424182 14.4282319 22.8612451 13.44 24.2728061 13.44L85.4920941 13.44M93.4803873 24.2831779C92.8562474 27.2374403 91.9200374 31.6688339 90.6717576 37.5773587 90.3799809 38.9584348 89.161154 39.9466667 87.749593 39.9466667L26.5134939 39.9466667M26.4357222 39.9697385L20.6876245 44.715261C19.4156148 45.7654086 17.5331343 45.5855538 16.4829867 44.313544 15.9038227 43.6120214 15.6759588 42.6847842 15.8639995 41.7947249L16.2495531 39.9697711"/>
    <g fill-rule="nonzero" transform="translate(88.48 6.72)">
      <path fill="#FFF" d="M10.2666667,15.3066667 C12.0192503,15.3066667 13.44,13.8859169 13.44,12.1333333 C13.44,10.3807497 12.0192503,8.96 10.2666667,8.96 C8.51408306,8.96 7.09333333,10.3807497 7.09333333,12.1333333 C7.09333333,13.8859169 8.51408306,15.3066667 10.2666667,15.3066667 Z"/>
      <path fill="#FFF" d="M8.4,9.70666667 C10.1525836,9.70666667 11.5733333,8.28591694 11.5733333,6.53333333 C11.5733333,4.78074973 10.1525836,3.36 8.4,3.36 C6.64741639,3.36 5.22666667,4.78074973 5.22666667,6.53333333 C5.22666667,8.28591694 6.64741639,9.70666667 8.4,9.70666667 Z"/>
      <path fill="#FFF" d="M3.54666667,6.34666667 C5.29925027,6.34666667 6.72,4.92591694 6.72,3.17333333 C6.72,1.42074973 5.29925027,-4.44326057e-14 3.54666667,-4.44326057e-14 C1.79408306,-4.44326057e-14 0.373333333,1.42074973 0.373333333,3.17333333 C0.373333333,4.92591694 1.79408306,6.34666667 3.54666667,6.34666667 Z"/>
      <path fill="#1D1919" d="M10.2333313 13.3772173C10.9365728 13.3772173 11.5066626 12.8062571 11.5066626 12.101942 11.5066626 11.3976269 10.9365728 10.8266667 10.2333313 10.8266667 9.53008985 10.8266667 8.96 11.3976269 8.96 12.101942 8.96 12.8062571 9.53008985 13.3772173 10.2333313 13.3772173zM8.36666523 7.77721849C9.06990701 7.77721849 9.63999712 7.20625801 9.63999712 6.50194258 9.63999712 5.79762714 9.06990701 5.22666667 8.36666523 5.22666667 7.66342344 5.22666667 7.09333333 5.79762714 7.09333333 6.50194258 7.09333333 7.20625801 7.66342344 7.77721849 8.36666523 7.77721849zM3.51336769 4.41729019C4.21662924 4.41729019 4.78673538 3.84631366 4.78673538 3.14197843 4.78673538 2.43764319 4.21662924 1.86666667 3.51336769 1.86666667 2.81010613 1.86666667 2.24 2.43764319 2.24 3.14197843 2.24 3.84631366 2.81010613 4.41729019 3.51336769 4.41729019zM6.58228416 13.540901C7.12478472 13.540901 7.56456832 13.100446 7.56456832 12.5571172 7.56456832 12.0137884 7.12478472 11.5733333 6.58228416 11.5733333 6.0397836 11.5733333 5.6 12.0137884 5.6 12.5571172 5.6 13.100446 6.0397836 13.540901 6.58228416 13.540901zM5.4622846 9.43423521C6.00478541 9.43423521 6.44456921 8.99377999 6.44456921 8.45045094 6.44456921 7.90712189 6.00478541 7.46666667 5.4622846 7.46666667 4.9197838 7.46666667 4.48 7.90712189 4.48 8.45045094 4.48 8.99377999 4.9197838 9.43423521 5.4622846 9.43423521zM2.10231222 7.19429053C2.64482827 7.19429053 3.08462443 6.75382292 3.08462443 6.2104786 3.08462443 5.66713427 2.64482827 5.22666667 2.10231222 5.22666667 1.55979616 5.22666667 1.12 5.66713427 1.12 6.2104786 1.12 6.75382292 1.55979616 7.19429053 2.10231222 7.19429053zM3.69609412 13.7410211C4.08790008 13.7410211 4.40552157 13.4229147 4.40552157 13.0305105 4.40552157 12.6381064 4.08790008 12.32 3.69609412 12.32 3.30428815 12.32 2.98666667 12.6381064 2.98666667 13.0305105 2.98666667 13.4229147 3.30428815 13.7410211 3.69609412 13.7410211zM2.94942777 11.1276884C3.34123391 11.1276884 3.65885554 10.8095818 3.65885554 10.4171775 3.65885554 10.0247732 3.34123391 9.70666667 2.94942777 9.70666667 2.55762163 9.70666667 2.24 10.0247732 2.24 10.4171775 2.24 10.8095818 2.55762163 11.1276884 2.94942777 11.1276884zM.709447712 9.63439501C1.10126486 9.63439501 1.41889542 9.31627952 1.41889542 8.92386417 1.41889542 8.53144883 1.10126486 8.21333333.709447712 8.21333333.31763056 8.21333333-2.65269288e-14 8.53144883-2.65269288e-14 8.92386417-2.65269288e-14 9.31627952.31763056 9.63439501.709447712 9.63439501z"/>
    </g>
    <path fill="#1D1919" d="M23.2173456,33.6043559 C23.0724404,33.6043559 22.9571766,33.5517579 22.8715508,33.4465603 C22.785925,33.3413628 22.7562857,33.2164425 22.7826321,33.0717959 L24.7388426,23.8802045 C24.765189,23.7355579 24.8442271,23.6106377 24.9759591,23.5054401 C25.1076911,23.4002425 25.2460076,23.3476445 25.3909128,23.3476445 L28.6512636,23.3476445 C28.7961689,23.3476445 28.9081394,23.4002425 28.9871786,23.5054401 C29.0662178,23.6106377 29.0925638,23.7355579 29.0662174,23.8802045 L28.9278995,24.5311112 C29.3494419,24.110321 29.784151,23.7750088 30.2320398,23.5251645 C30.6799286,23.2753203 31.2595408,23.1504001 31.9708936,23.1504001 C33.4067725,23.1504001 34.3354692,23.6895295 34.7570116,24.7678046 C35.2180736,24.2549664 35.6988882,23.8571941 36.1994698,23.5744757 C36.7000515,23.2917572 37.2730771,23.1504001 37.9185639,23.1504001 C38.8670344,23.1504001 39.6146023,23.3936658 40.1612901,23.8802045 C40.7079779,24.3667433 40.9813178,25.10969 40.9813178,26.1090668 C40.9813178,26.5956056 40.9286257,27.0755623 40.8232401,27.5489513 L39.637658,33.0717959 C39.6113116,33.2164425 39.5355668,33.3413628 39.4104214,33.4465603 C39.285276,33.5517579 39.1502528,33.6043559 39.0053475,33.6043559 L35.52764,33.6043559 C35.3827348,33.6043559 35.267471,33.5517579 35.1818452,33.4465603 C35.0962194,33.3413628 35.0665801,33.2164425 35.0929265,33.0717959 L36.258749,27.6475735 C36.2850954,27.4897772 36.2982684,27.3845812 36.2982684,27.3319824 C36.2982684,26.8980425 36.0875003,26.6810757 35.6659579,26.6810757 C35.4156671,26.6810757 35.204899,26.7632601 35.0336474,26.9276313 C34.8623958,27.0920025 34.7504253,27.3319808 34.6977325,27.6475735 L33.5319101,33.0717959 C33.5055637,33.2164425 33.4298189,33.3413628 33.3046735,33.4465603 C33.1795281,33.5517579 33.0445048,33.6043559 32.8995996,33.6043559 L29.421892,33.6043559 C29.2769868,33.6043559 29.161723,33.5517579 29.0760972,33.4465603 C28.9904714,33.3413628 28.9608322,33.2164425 28.9871786,33.0717959 L30.153001,27.6475735 C30.1793474,27.4897772 30.1925204,27.3845812 30.1925204,27.3319824 C30.1925204,26.8980425 29.9817524,26.6810757 29.5602099,26.6810757 C29.3099191,26.6810757 29.0958578,26.7665475 28.9180196,26.9374935 C28.7401814,27.1084396 28.6249176,27.3451305 28.5722248,27.6475735 L27.4064024,33.0717959 C27.380056,33.2164425 27.3043112,33.3413628 27.1791658,33.4465603 C27.0540204,33.5517579 26.9189972,33.6043559 26.7740919,33.6043559 L23.2173456,33.6043559 Z M44.7285258,33.8016003 C43.6614966,33.8016003 42.8085446,33.5287482 42.1696444,32.9830359 C41.5307442,32.4373235 41.2112989,31.5858935 41.2112989,30.4287203 C41.2112989,29.9947803 41.2442314,29.6002953 41.3100974,29.2452536 C41.4286562,28.6798167 41.5406267,28.1604115 41.6460123,27.6870224 C42.0280351,26.1748074 42.6636325,25.0406632 43.5528236,24.2845557 C44.4420146,23.5284482 45.5254941,23.1504001 46.8032945,23.1504001 C47.5014742,23.1504001 48.0580336,23.2358718 48.4729894,23.4068179 C48.8879452,23.5777639 49.240323,23.8210296 49.5301334,24.1366223 L49.5894125,23.8802045 C49.6157589,23.7355579 49.6915037,23.6106377 49.8166491,23.5054401 C49.9417945,23.4002425 50.0768178,23.3476445 50.221723,23.3476445 L53.5611127,23.3476445 C53.7060179,23.3476445 53.8212816,23.4002425 53.9069074,23.5054401 C53.9925333,23.6106377 54.0221725,23.7355579 53.9958261,23.8802045 L52.0396156,33.0717959 C52.0132692,33.2164425 51.9375244,33.3413628 51.812379,33.4465603 C51.6872336,33.5517579 51.5522103,33.6043559 51.4073051,33.6043559 L48.0481558,33.6043559 C47.9032506,33.6043559 47.7879868,33.5517579 47.702361,33.4465603 C47.6167352,33.3413628 47.5870959,33.2164425 47.6134423,33.0717959 L47.7122408,32.6181336 C47.2775252,33.0126245 46.8296431,33.3084882 46.3685811,33.5057337 C45.9075191,33.7029791 45.3608395,33.8016003 44.7285258,33.8016003 Z M46.9218528,30.2709247 C47.264356,30.2709247 47.5311093,30.1755908 47.7221207,29.9849202 C47.9131321,29.7942497 48.0613284,29.5082481 48.166714,29.1269069 C48.298446,28.6140688 48.3972435,28.1275373 48.4631095,27.667298 C48.4762827,27.6015495 48.4828692,27.509503 48.4828692,27.3911557 C48.4828692,26.9177667 48.2194092,26.6810757 47.6924811,26.6810757 C47.3499779,26.6810757 47.0898111,26.7731222 46.9119729,26.957218 C46.7341347,27.1413137 46.5859384,27.4306027 46.4673796,27.8250935 C46.3224744,28.3116323 46.2302634,28.7455657 46.1907438,29.1269069 C46.1775706,29.2189548 46.1709841,29.343875 46.1709841,29.5016713 C46.1709841,29.7646653 46.2269693,29.9586204 46.3389415,30.0835425 C46.4509138,30.2084646 46.6452155,30.2709247 46.9218528,30.2709247 Z M53.712055,33.6043559 C53.5671497,33.6043559 53.451886,33.5517579 53.3662602,33.4465603 C53.2806344,33.3413628 53.2509951,33.2164425 53.2773415,33.0717959 L55.233552,23.8802045 C55.2598984,23.7355579 55.3389364,23.6106377 55.4706684,23.5054401 C55.6024004,23.4002425 55.740717,23.3476445 55.8856222,23.3476445 L59.34357,23.3476445 C59.4884753,23.3476445 59.6004458,23.4002425 59.679485,23.5054401 C59.7585242,23.6106377 59.7848702,23.7355579 59.7585238,23.8802045 L59.6202059,24.5705601 C59.9890555,24.1760692 60.4007118,23.8736308 60.8551873,23.6632357 C61.3096627,23.4528405 61.8793951,23.3476445 62.5644015,23.3476445 L63.9080612,23.3476445 C64.0529664,23.3476445 64.164937,23.4002425 64.2439762,23.5054401 C64.3230154,23.6106377 64.3493614,23.7355579 64.323015,23.8802045 L63.6709448,26.957218 C63.6445984,27.1018646 63.5655604,27.2267848 63.4338284,27.3319824 C63.3020964,27.43718 63.1637798,27.489778 63.0188746,27.489778 L60.4698731,27.489778 C59.679481,27.489778 59.2052529,27.8842629 59.0471745,28.6732447 L58.0987088,33.0717959 C58.0723624,33.2164425 57.9966176,33.3413628 57.8714722,33.4465603 C57.7463268,33.5517579 57.6113036,33.6043559 57.4663984,33.6043559 L53.712055,33.6043559 Z M63.4266931,33.6043559 C63.2817879,33.6043559 63.1665241,33.5517579 63.0808983,33.4465603 C62.9952725,33.3413628 62.9656332,33.2164425 62.9919796,33.0717959 L65.7583379,20.13256 C65.7846843,19.9879134 65.8604291,19.8629931 65.9855745,19.7577956 C66.1107199,19.652598 66.2457432,19.6 66.3906484,19.6 L69.8485962,19.6 C69.9935014,19.6 70.1087652,19.652598 70.194391,19.7577956 C70.2800168,19.8629931 70.3096561,19.9879134 70.2833097,20.13256 L68.9198902,26.5232802 L71.2515351,23.6829601 C71.4359599,23.4594153 71.6533144,23.3476445 71.9036053,23.3476445 L76.0926621,23.3476445 C76.2243941,23.3476445 76.3264849,23.3805183 76.3989375,23.4462668 C76.4713901,23.5120152 76.5076158,23.5909122 76.5076158,23.6829601 C76.5076158,23.8144571 76.4417508,23.9591015 76.3100188,24.1168979 L72.7927919,28.3182047 L74.7292427,32.8745514 C74.7687623,32.9534496 74.7885218,33.0323466 74.7885218,33.1112448 C74.7885218,33.2427417 74.7358297,33.3577998 74.6304441,33.4564226 C74.5250585,33.5550453 74.3801555,33.6043559 74.1957307,33.6043559 L70.2437903,33.6043559 C69.9671531,33.6043559 69.782731,33.4925852 69.6905186,33.2690403 L68.2283007,29.6002936 L67.5169514,33.0717959 C67.490605,33.2164425 67.4148602,33.3413628 67.2897148,33.4465603 C67.1645694,33.5517579 67.0295461,33.6043559 66.8846409,33.6043559 L63.4266931,33.6043559 Z M75.7298521,33.6043559 C75.5849469,33.6043559 75.4696832,33.5517579 75.3840574,33.4465603 C75.2984315,33.3413628 75.2687923,33.2164425 75.2951387,33.0717959 L78.061497,20.13256 C78.0878434,19.9879134 78.1635882,19.8629931 78.2887336,19.7577956 C78.413879,19.652598 78.5489022,19.6 78.6938075,19.6 L82.1517553,19.6 C82.2966605,19.6 82.4119243,19.652598 82.4975501,19.7577956 C82.5831759,19.8629931 82.6128152,19.9879134 82.5864688,20.13256 L81.2230493,26.5232802 L83.5546942,23.6829601 C83.739119,23.4594153 83.9564735,23.3476445 84.2067643,23.3476445 L88.3958212,23.3476445 C88.5275532,23.3476445 88.629644,23.3805183 88.7020966,23.4462668 C88.7745492,23.5120152 88.8107749,23.5909122 88.8107749,23.6829601 C88.8107749,23.8144571 88.7449099,23.9591015 88.6131779,24.1168979 L85.0959509,28.3182047 L87.0324017,32.8745514 C87.0719213,32.9534496 87.0916808,33.0323466 87.0916808,33.1112448 C87.0916808,33.2427417 87.0389888,33.3577998 86.9336032,33.4564226 C86.8282176,33.5550453 86.6833146,33.6043559 86.4988898,33.6043559 L82.5469494,33.6043559 C82.2703121,33.6043559 82.0858901,33.4925852 81.9936777,33.2690403 L80.5314597,29.6002936 L79.8201105,33.0717959 C79.7937641,33.2164425 79.7180193,33.3413628 79.5928739,33.4465603 C79.4677285,33.5517579 79.3327052,33.6043559 79.1878,33.6043559 L75.7298521,33.6043559 Z"/>
  </g>
</svg>
