<?xml version="1.0" encoding="UTF-8"?>
<svg width="40px" height="40px" viewBox="0 0 40 40" version="1.1" xmlns="http://www.w3.org/2000/svg" xmlns:xlink="http://www.w3.org/1999/xlink">
    <!-- Generator: Sketch 42 (36781) - http://www.bohemiancoding.com/sketch -->
    <title>logo</title>
    <desc>Created with Sketch.</desc>
    <defs></defs>
    <g id="Page-1" stroke="none" stroke-width="1" fill="none" fill-rule="evenodd">
        <g id="train-entities-1" transform="translate(-16.000000, -8.000000)">
            <g id="Header">
                <g id="logo" transform="translate(16.000000, 8.000000)">
                    <rect id="Rectangle-2" fill="#072F3E" x="0" y="0" width="40" height="40" rx="4"></rect>
                    <g id="Group" transform="translate(7.733333, 7.733333)">
                        <circle id="Oval-1" fill="#FFFFFF" cx="12.2666667" cy="12.2666667" r="12.2666667"></circle>
                        <path d="M12.2666667,2.66666667 C6.96473307,2.66666667 2.66666667,6.96473307 2.66666667,12.2666667 C2.66666667,17.5686003 17.5686003,2.66666667 12.2666667,2.66666667 Z" id="Oval-1" fill-opacity="0.25" fill="#072F3E"></path>
                        <path d="M26.5730706,16.9628247 L21.9934452,24.5050366 C21.3610898,25.5464664 20.336334,25.5472813 19.7034691,24.5050123 L15.1237846,16.9627031 C14.4914211,15.92126 14.702942,15.0770112 15.5986439,15.0770207 L26.0981965,15.0771321 C26.9928176,15.0771416 27.2059274,15.9205691 26.5730706,16.9628247 Z" id="Rectangle-2" fill="#FFFFFF" transform="translate(20.848383, 20.181716) rotate(-45.000000) translate(-20.848383, -20.181716) "></path>
                    </g>
                </g>
            </g>
        </g>
    </g>
</svg>