<?xml version="1.0" encoding="UTF-8"?>
<svg width="40px" height="40px" viewBox="0 0 40 40" version="1.1" xmlns="http://www.w3.org/2000/svg" xmlns:xlink="http://www.w3.org/1999/xlink">
    <!-- Generator: Sketch 42 (36781) - http://www.bohemiancoding.com/sketch -->
    <title>nav-icon-api</title>
    <desc>Created with Sketch.</desc>
    <defs>
        <rect id="path-1" x="0" y="0" width="40" height="40" rx="20"></rect>
        <mask id="mask-2" maskContentUnits="userSpaceOnUse" maskUnits="objectBoundingBox" x="0" y="0" width="40" height="40" fill="white">
            <use xlink:href="#path-1"></use>
        </mask>
    </defs>
    <g id="Page-1" stroke="none" stroke-width="1" fill="none" fill-rule="evenodd">
        <g id="train-entities-1" transform="translate(-16.000000, -216.000000)">
            <g id="left-sidebar" transform="translate(0.000000, 56.000000)">
                <g id="train-nav-copy-2" transform="translate(0.000000, 144.000000)">
                    <g id="nav-icon-api" transform="translate(16.000000, 16.000000)">
                        <use id="Rectangle" stroke="#CCCCCC" mask="url(#mask-2)" stroke-width="2" fill="#EFEFEF" xlink:href="#path-1"></use>
                        <path d="M16.5714286,19.8571429 C16.5714286,19.2857114 16.85714,19 17.4285714,19 C18.0000029,19 18.2857143,19.2857114 18.2857143,19.8571429 C18.2857143,20.4285743 18.0000029,20.7142857 17.4285714,20.7142857 C16.85714,20.7142857 16.5714286,20.4285743 16.5714286,19.8571429 Z M19.1428571,19.8571429 C19.1428571,19.2857114 19.4285686,19 20,19 C20.5714314,19 20.8571429,19.2857114 20.8571429,19.8571429 C20.8571429,20.4285743 20.5714314,20.7142857 20,20.7142857 C19.4285686,20.7142857 19.1428571,20.4285743 19.1428571,19.8571429 Z M21.7142857,19.8571429 C21.7142857,19.2857114 21.9999971,19 22.5714286,19 C23.14286,19 23.4285714,19.2857114 23.4285714,19.8571429 C23.4285714,20.4285743 23.14286,20.7142857 22.5714286,20.7142857 C21.9999971,20.7142857 21.7142857,20.4285743 21.7142857,19.8571429 Z M16.8571429,24.7142857 C16.6190464,24.7142857 16.4166675,24.6309532 16.25,24.4642857 L12.25,20.4642857 C12.0833325,20.2976182 12,20.0952393 12,19.8571429 C12,19.6190464 12.0833325,19.4166675 12.25,19.25 L16.25,15.25 C16.4166675,15.0833325 16.6190464,15 16.8571429,15 C17.0952393,15 17.2976182,15.0833325 17.4642857,15.25 C17.6309532,15.4166675 17.7142857,15.6190464 17.7142857,15.8571429 C17.7142857,16.0952393 17.6309532,16.2976182 17.4642857,16.4642857 L14.0714286,19.8571429 L17.4642857,23.25 C17.6309532,23.4166675 17.7142857,23.6190464 17.7142857,23.8571429 C17.7142857,24.0952393 17.6309532,24.2976182 17.4642857,24.4642857 C17.2976182,24.6309532 17.0952393,24.7142857 16.8571429,24.7142857 Z M23.1428571,24.7142857 C22.9047607,24.7142857 22.7023818,24.6309532 22.5357143,24.4642857 C22.3690468,24.2976182 22.2857143,24.0952393 22.2857143,23.8571429 C22.2857143,23.6190464 22.3690468,23.4166675 22.5357143,23.25 L25.9285714,19.8571429 L22.5357143,16.4642857 C22.3690468,16.2976182 22.2857143,16.0952393 22.2857143,15.8571429 C22.2857143,15.6190464 22.3690468,15.4166675 22.5357143,15.25 C22.7023818,15.0833325 22.9047607,15 23.1428571,15 C23.3809536,15 23.5833325,15.0833325 23.75,15.25 L27.75,19.25 C27.9166675,19.4166675 28,19.6190464 28,19.8571429 C28,20.0952393 27.9166675,20.2976182 27.75,20.4642857 L23.75,24.4642857 C23.5833325,24.6309532 23.3809536,24.7142857 23.1428571,24.7142857 Z" id="" fill="#072F3E"></path>
                    </g>
                </g>
            </g>
        </g>
    </g>
</svg>