<?xml version="1.0" encoding="UTF-8"?>
<svg width="40px" height="40px" viewBox="0 0 40 40" version="1.1" xmlns="http://www.w3.org/2000/svg" xmlns:xlink="http://www.w3.org/1999/xlink">
    <!-- Generator: Sketch 42 (36781) - http://www.bohemiancoding.com/sketch -->
    <title>nav-icon-intents</title>
    <desc>Created with Sketch.</desc>
    <defs>
        <rect id="path-1" x="0" y="0" width="40" height="40" rx="20"></rect>
        <mask id="mask-2" maskContentUnits="userSpaceOnUse" maskUnits="objectBoundingBox" x="0" y="0" width="40" height="40" fill="white">
            <use xlink:href="#path-1"></use>
        </mask>
    </defs>
    <g id="Page-1" stroke="none" stroke-width="1" fill="none" fill-rule="evenodd">
        <g id="train-entities-1" transform="translate(-16.000000, -144.000000)">
            <g id="left-sidebar" transform="translate(0.000000, 56.000000)">
                <g id="train-nav-copy" transform="translate(0.000000, 72.000000)">
                    <g id="nav-icon-intents" transform="translate(16.000000, 16.000000)">
                        <use id="Rectangle" stroke="#CCCCCC" mask="url(#mask-2)" stroke-width="2" fill="#EFEFEF" xlink:href="#path-1"></use>
                        <path d="M20,27.4230769 C17.7948608,27.4230769 15.9102642,26.6730844 14.3461538,25.1730769 C12.7820435,23.6730694 12,21.858985 12,19.7307692 C12,17.6025535 12.7820435,15.7820588 14.3461538,14.2692308 C15.9102642,12.7564027 17.7948608,12 20,12 C22.2051392,12 24.0897358,12.7564027 25.6538462,14.2692308 C27.2179565,15.7820588 28,17.6025535 28,19.7307692 C28,21.2435973 27.5769273,22.6281988 26.7307692,23.8846154 L26.6538462,23.9615385 C26.628205,23.9871796 26.6153846,24.0128204 26.6153846,24.0384615 C26.51282,24.2435908 26.4615385,24.4358965 26.4615385,24.6153846 L27.3076923,28 L24.0769231,26.8076923 C23.9743585,26.75641 23.8205138,26.7307692 23.6153846,26.7307692 C23.5384612,26.7307692 23.3974369,26.75641 23.1923077,26.8076923 C23.1666665,26.8076923 23.1538462,26.8141025 23.1538462,26.8269231 C23.1538462,26.8397437 23.1410258,26.8461538 23.1153846,26.8461538 C22.1666619,27.2307712 21.1282108,27.4230769 20,27.4230769 Z M23.6923077,18.7692308 C23.3333315,18.7692308 23.0384627,18.8846142 22.8076923,19.1153846 C22.5769219,19.346155 22.4615385,19.6410238 22.4615385,20 C22.4615385,20.3589762 22.5769219,20.653845 22.8076923,20.8846154 C23.0384627,21.1153858 23.3333315,21.2307692 23.6923077,21.2307692 C24.0512838,21.2307692 24.3461527,21.1153858 24.5769231,20.8846154 C24.8076935,20.653845 24.9230769,20.3589762 24.9230769,20 C24.9230769,19.6410238 24.8076935,19.346155 24.5769231,19.1153846 C24.3461527,18.8846142 24.0512838,18.7692308 23.6923077,18.7692308 Z M20,18.7692308 C19.6410238,18.7692308 19.346155,18.8846142 19.1153846,19.1153846 C18.8846142,19.346155 18.7692308,19.6410238 18.7692308,20 C18.7692308,20.3589762 18.8846142,20.653845 19.1153846,20.8846154 C19.346155,21.1153858 19.6410238,21.2307692 20,21.2307692 C20.3589762,21.2307692 20.653845,21.1153858 20.8846154,20.8846154 C21.1153858,20.653845 21.2307692,20.3589762 21.2307692,20 C21.2307692,19.6410238 21.1153858,19.346155 20.8846154,19.1153846 C20.653845,18.8846142 20.3589762,18.7692308 20,18.7692308 Z M16.3076923,18.7692308 C15.9487162,18.7692308 15.6538473,18.8846142 15.4230769,19.1153846 C15.1923065,19.346155 15.0769231,19.6410238 15.0769231,20 C15.0769231,20.3589762 15.1923065,20.653845 15.4230769,20.8846154 C15.6538473,21.1153858 15.9487162,21.2307692 16.3076923,21.2307692 C16.6666685,21.2307692 16.9615373,21.1153858 17.1923077,20.8846154 C17.4230781,20.653845 17.5384615,20.3589762 17.5384615,20 C17.5384615,19.6410238 17.4230781,19.346155 17.1923077,19.1153846 C16.9615373,18.8846142 16.6666685,18.7692308 16.3076923,18.7692308 Z" id="ï„" fill="#072F3E"></path>
                    </g>
                </g>
            </g>
        </g>
    </g>
</svg>