<?xml version="1.0" encoding="UTF-8"?>
<svg width="40px" height="40px" viewBox="0 0 40 40" version="1.1" xmlns="http://www.w3.org/2000/svg" xmlns:xlink="http://www.w3.org/1999/xlink">
    <!-- Generator: Sketch 42 (36781) - http://www.bohemiancoding.com/sketch -->
    <title>nav-icon-entities</title>
    <desc>Created with Sketch.</desc>
    <defs>
        <rect id="path-1" x="0" y="0" width="40" height="40" rx="20"></rect>
        <mask id="mask-2" maskContentUnits="userSpaceOnUse" maskUnits="objectBoundingBox" x="0" y="0" width="40" height="40" fill="white">
            <use xlink:href="#path-1"></use>
        </mask>
    </defs>
    <g id="Page-1" stroke="none" stroke-width="1" fill="none" fill-rule="evenodd">
        <g id="train-entities-1" transform="translate(-16.000000, -72.000000)">
            <g id="left-sidebar" transform="translate(0.000000, 56.000000)">
                <g id="train-nav">
                    <g id="nav-icon-entities" transform="translate(16.000000, 16.000000)">
                        <use id="Rectangle" stroke="#CCCCCC" mask="url(#mask-2)" stroke-width="2" fill="#EFEFEF" xlink:href="#path-1"></use>
                        <path d="M14.5997963,13.3589649 L14.5670873,13.3905056 C14.5778429,13.3797501 14.5887445,13.3692379 14.599792,13.358969 L14.5997963,13.3589649 Z M14.5997963,13.3589649 L15.5653991,12.4278479 C15.8506324,12.1426145 16.1715152,12 16.5280568,12 L16.6706728,12 L19.879532,12.142616 C20.2123042,12.142616 20.5331869,12.273346 20.8421897,12.5348099 L20.8778437,12.5348099 L20.9134977,12.5704639 L27.687756,19.3803761 C27.8779116,19.5705317 27.9729879,19.8022803 27.9729879,20.0756289 C27.9729879,20.3489776 27.8779116,20.5807262 27.687756,20.7708818 L26.6537903,21.8048475 C26.8439458,21.6146919 26.9390222,21.3829433 26.9390222,21.1095947 C26.9390222,20.836246 26.8439458,20.6044974 26.6537903,20.4143419 L19.879532,13.6044296 L19.843878,13.5687756 L19.808224,13.5687756 C19.4754518,13.2835422 19.1545691,13.1409277 18.8455663,13.1409277 L15.6367071,13.0339657 L15.4940911,13.0339657 C15.1309889,13.0339657 14.8328918,13.1422991 14.599792,13.358969 L14.5997963,13.3589649 Z M26.1189804,20.9134977 C26.309136,21.1036533 26.4042123,21.3413442 26.4042123,21.6265775 C26.4042123,21.9118109 26.309136,22.1495018 26.1189804,22.3396574 L22.2683494,26.2259424 L22.2683494,26.1902884 L21.3413456,27.1529461 L20.8065358,27.687756 C20.4024552,28.0918366 19.962727,28.1037211 19.4873381,27.72341 L19.3803761,27.616448 L12.7487338,20.9134977 L12.5704639,20.7352278 C12.3565388,20.4975333 12.2376934,20.2360733 12.2139239,19.95084 L12.2139239,19.879532 L12,16.7419808 L12,16.5993648 C12,16.1952842 12.1426145,15.8506324 12.4278479,15.5653991 L13.9966235,13.9609695 L14.0679315,13.8896615 C14.3293954,13.6757365 14.6383935,13.5687756 14.9949352,13.5687756 L15.1375512,13.5687756 L18.3464104,13.6757376 C18.6791826,13.6757376 19.0000653,13.8064676 19.3090681,14.0679315 L19.3803761,14.1035855 L26.1189804,20.9134977 Z M14.8166653,15.850631 C14.3175069,16.1834033 14.0679315,16.6231314 14.0679315,17.1698287 C14.0679315,17.5976787 14.2164883,17.9601573 14.5136064,18.2572754 C14.8107244,18.5543935 15.1732031,18.7029503 15.6010531,18.7029503 C16.1477503,18.7029503 16.5874785,18.4533749 16.9202507,17.9542165 C17.0866369,17.6689831 17.1698287,17.4075231 17.1698287,17.1698287 C17.1698287,16.7419787 17.0153296,16.3735578 16.7063268,16.064555 C16.397324,15.7555522 16.0289031,15.6010531 15.6010531,15.6010531 C15.3633586,15.6010531 15.1018986,15.6842449 14.8166653,15.850631 Z" id="" fill="#072F3E"></path>
                    </g>
                </g>
            </g>
        </g>
    </g>
</svg>